<?xml version="1.0" encoding="UTF-8" standalone="no"?>
<!DOCTYPE svg PUBLIC "-//W3C//DTD SVG 1.1//EN" "http://www.w3.org/Graphics/SVG/1.1/DTD/svg11.dtd">
<svg version="1.1" xmlns="http://www.w3.org/2000/svg" xmlns:xlink="http://www.w3.org/1999/xlink" preserveAspectRatio="xMidYMid meet" viewBox="0 0 640 640" width="640" height="640"><defs><path d="M519.64 350.34C519.64 466.24 432.93 560.34 326.13 560.34C219.33 560.34 132.63 466.24 132.63 350.34C132.63 234.44 219.33 140.35 326.13 140.35C432.93 140.35 519.64 234.44 519.64 350.34Z" id="b3l3QAqZV"></path><path d="M509.84 472.25L503.32 479.45L496.56 486.34L489.56 492.92L482.34 499.19L474.91 505.14L467.29 510.78L459.47 516.09L451.47 521.08L443.3 525.74L434.98 530.08L426.51 534.08L417.9 537.76L409.18 541.09L400.33 544.09L391.38 546.74L382.35 549.06L373.23 551.02L364.03 552.64L354.78 553.91L345.48 554.82L336.14 555.37L326.78 555.57L317.39 555.41L308 554.88L298.62 553.99L289.25 552.72L279.91 551.09L270.6 549.08L261.35 546.69L252.15 543.93L243.02 540.78L233.97 537.25L225.01 533.33L216.16 529.02L207.42 524.33L198.8 519.23L190.39 513.79L182.28 508.07L174.48 502.07L166.97 495.8L159.77 489.28L152.88 482.52L146.3 475.52L140.03 468.3L134.08 460.87L128.45 453.24L125.81 449.36L229.98 280.97L519.64 460.16L516.11 464.75L516.11 464.75L509.84 472.25Z" id="efTX1HcV"></path><path d="M325.59 123.7L335.01 125.83L344.29 128.31L353.42 131.15L362.39 134.34L371.19 137.87L379.82 141.72L388.27 145.9L396.54 150.39L404.6 155.18L412.46 160.28L420.11 165.67L427.54 171.34L434.74 177.28L441.71 183.49L448.43 189.96L454.9 196.68L461.11 203.65L467.06 210.85L472.73 218.28L478.11 225.93L483.21 233.79L488.01 241.86L492.5 250.12L496.67 258.57L500.53 267.2L504.05 276.01L507.24 284.98L510.08 294.1L512.57 303.38L514.69 312.8L516.45 322.35L517.83 332.03L518.83 341.83L519.43 351.74L519.64 361.75L519.43 371.75L518.83 381.66L517.83 391.46L516.45 401.14L514.69 410.69L512.57 420.11L510.08 429.39L507.24 438.51L504.05 447.48L500.53 456.29L498.61 460.57L300.61 460.57L300.61 119.98L306.36 120.56L316.04 121.94L316.04 121.94L325.59 123.7Z" id="akN6zJqX2"></path><path d="M153.65 460.57L151.73 456.29L148.21 447.48L145.02 438.51L142.18 429.39L139.69 420.11L137.57 410.69L135.81 401.14L134.43 391.46L133.43 381.66L132.83 371.75L132.63 361.75L132.83 351.74L133.43 341.83L134.43 332.03L135.81 322.35L137.57 312.8L139.69 303.38L142.18 294.1L145.02 284.98L148.21 276.01L151.73 267.2L155.59 258.57L159.76 250.12L164.25 241.86L169.05 233.79L174.15 225.93L179.53 218.28L185.2 210.85L191.15 203.65L197.36 196.68L203.83 189.96L210.55 183.49L217.52 177.28L224.72 171.34L232.15 165.67L239.8 160.28L247.66 155.18L255.72 150.39L263.99 145.9L272.44 141.72L281.07 137.87L289.87 134.34L298.84 131.15L307.97 128.31L317.25 125.83L326.67 123.7L336.22 121.94L345.9 120.56L351.65 119.98L351.65 460.57L153.65 460.57Z" id="k1hcUv09al"></path><path d="M493.03 366.15C493.03 458.64 420.58 533.73 331.34 533.73C242.1 533.73 169.65 458.64 169.65 366.15C169.65 273.67 242.1 198.58 331.34 198.58C420.58 198.58 493.03 273.67 493.03 366.15Z" id="a148yKFe"></path><path d="M401.61 166.54C401.61 209.36 366.84 244.13 324.02 244.13C281.2 244.13 246.43 209.36 246.43 166.54C246.43 123.71 281.2 88.95 324.02 88.95C366.84 88.95 401.61 123.71 401.61 166.54Z" id="g1Gz99IQEf"></path><path d="M226.69 447.42C226.69 490.24 191.92 525.01 149.1 525.01C106.27 525.01 71.5 490.24 71.5 447.42C71.5 404.59 106.27 369.82 149.1 369.82C191.92 369.82 226.69 404.59 226.69 447.42Z" id="bYAnDyesr"></path><path d="M576.54 447.42C576.54 490.24 541.77 525.01 498.94 525.01C456.12 525.01 421.35 490.24 421.35 447.42C421.35 404.59 456.12 369.82 498.94 369.82C541.77 369.82 576.54 404.59 576.54 447.42Z" id="cAWTUyljJ"></path></defs><g><g><g><use xlink:href="#b3l3QAqZV" opacity="1" fill="#ffffff" fill-opacity="1"></use></g><g><g><use xlink:href="#efTX1HcV" opacity="1" fill-opacity="0" stroke="#ffffff" stroke-width="100" stroke-opacity="1"></use></g><g><use xlink:href="#efTX1HcV" opacity="1" fill-opacity="0" stroke="#722aac" stroke-width="40" stroke-opacity="1"></use></g></g><g><g><use xlink:href="#akN6zJqX2" opacity="1" fill-opacity="0" stroke="#ffffff" stroke-width="100" stroke-opacity="1"></use></g><g><use xlink:href="#akN6zJqX2" opacity="1" fill-opacity="0" stroke="#722aac" stroke-width="40" stroke-opacity="1"></use></g></g><g><g><use xlink:href="#k1hcUv09al" opacity="1" fill-opacity="0" stroke="#ffffff" stroke-width="100" stroke-opacity="1"></use></g><g><use xlink:href="#k1hcUv09al" opacity="1" fill-opacity="0" stroke="#722aac" stroke-width="40" stroke-opacity="1"></use></g></g><g><use xlink:href="#a148yKFe" opacity="1" fill="#ffffff" fill-opacity="1"></use></g><g><use xlink:href="#g1Gz99IQEf" opacity="1" fill="#ffffff" fill-opacity="1"></use><g><use xlink:href="#g1Gz99IQEf" opacity="1" fill-opacity="0" stroke="#ffffff" stroke-width="100" stroke-opacity="1"></use></g><g><use xlink:href="#g1Gz99IQEf" opacity="1" fill-opacity="0" stroke="#722aac" stroke-width="40" stroke-opacity="1"></use></g></g><g><use xlink:href="#bYAnDyesr" opacity="1" fill="#ffffff" fill-opacity="1"></use><g><use xlink:href="#bYAnDyesr" opacity="1" fill-opacity="0" stroke="#ffffff" stroke-width="100" stroke-opacity="1"></use></g><g><use xlink:href="#bYAnDyesr" opacity="1" fill-opacity="0" stroke="#722aac" stroke-width="40" stroke-opacity="1"></use></g></g><g><use xlink:href="#cAWTUyljJ" opacity="1" fill="#ffffff" fill-opacity="1"></use><g><use xlink:href="#cAWTUyljJ" opacity="1" fill-opacity="0" stroke="#ffffff" stroke-width="100" stroke-opacity="1"></use></g><g><use xlink:href="#cAWTUyljJ" opacity="1" fill-opacity="0" stroke="#722aac" stroke-width="40" stroke-opacity="1"></use></g></g></g></g></svg>