<?xml version="1.0" encoding="UTF-8" standalone="no"?>
<!DOCTYPE svg PUBLIC "-//W3C//DTD SVG 1.1//EN" "http://www.w3.org/Graphics/SVG/1.1/DTD/svg11.dtd">
<svg version="1.1" xmlns="http://www.w3.org/2000/svg" xmlns:xlink="http://www.w3.org/1999/xlink" preserveAspectRatio="xMidYMid meet" viewBox="0 0 640 640" width="640" height="640"><defs><path d="M553.22 353.48C553.22 491.66 449.84 603.85 322.52 603.85C195.19 603.85 91.81 491.66 91.81 353.48C91.81 215.3 195.19 103.12 322.52 103.12C449.84 103.12 553.22 215.3 553.22 353.48Z" id="b9aItClHq2"></path><path d="M541.55 498.83L533.77 507.41L525.71 515.63L517.37 523.47L508.76 530.95L499.9 538.04L490.81 544.76L481.48 551.09L471.95 557.04L462.21 562.6L452.29 567.77L442.19 572.55L431.93 576.92L421.52 580.9L410.98 584.47L400.31 587.64L389.54 590.4L378.66 592.74L367.71 594.67L356.68 596.18L345.59 597.27L334.45 597.93L323.29 598.16L312.1 597.97L300.91 597.34L289.72 596.27L278.55 594.77L267.41 592.82L256.31 590.42L245.28 587.58L234.31 584.28L223.43 580.53L212.64 576.32L201.96 571.65L191.4 566.51L180.98 560.91L170.7 554.84L160.68 548.35L151.02 541.53L141.71 534.37L132.76 526.9L124.18 519.13L115.96 511.07L108.12 502.72L100.64 494.12L93.55 485.26L86.83 476.16L83.69 471.54L207.89 270.77L553.22 484.41L549.02 489.88L549.02 489.88L541.55 498.83Z" id="b1ffn6cQz"></path><path d="M321.87 83.27L333.1 85.8L344.16 88.77L355.05 92.16L365.74 95.96L376.24 100.16L386.53 104.75L396.61 109.73L406.46 115.09L416.07 120.81L425.45 126.88L434.57 133.3L443.42 140.06L452.01 147.15L460.31 154.55L468.33 162.27L476.04 170.28L483.45 178.59L490.53 187.17L497.29 196.03L503.72 205.15L509.79 214.52L515.51 224.14L520.86 233.99L525.84 244.07L530.44 254.36L534.64 264.86L538.44 275.55L541.83 286.43L544.79 297.49L547.33 308.72L549.43 320.11L551.07 331.65L552.26 343.33L552.98 355.14L553.22 367.08L552.98 379.01L552.26 390.82L551.07 402.5L549.43 414.04L547.33 425.43L544.79 436.66L541.83 447.72L538.44 458.6L534.64 469.3L530.44 479.79L528.16 484.9L292.09 484.9L292.09 78.83L298.95 79.53L310.49 81.17L310.49 81.17L321.87 83.27Z" id="b3dpbMelOL"></path><path d="M114.59 479.79L110.39 469.3L106.59 458.6L103.2 447.72L100.24 436.66L97.7 425.43L95.61 414.04L93.96 402.5L92.77 390.82L92.05 379.01L91.81 367.08L92.05 355.14L92.77 343.33L93.96 331.65L95.61 320.11L97.7 308.72L100.24 297.49L103.2 286.43L106.59 275.55L110.39 264.86L114.59 254.36L119.19 244.07L124.17 233.99L129.52 224.14L135.24 214.52L141.32 205.15L147.74 196.03L154.5 187.17L161.58 178.59L168.99 170.28L176.7 162.27L184.72 154.55L193.02 147.15L201.61 140.06L210.46 133.3L219.58 126.88L228.96 120.81L238.57 115.09L248.42 109.73L258.5 104.75L268.79 100.16L279.29 95.96L289.98 92.16L300.87 88.77L311.93 85.8L323.16 83.27L334.55 81.17L346.08 79.53L352.95 78.83L352.95 484.9L116.87 484.9L116.87 484.9L114.59 479.79Z" id="h2CFmWQy38"></path><path d="M521.5 372.33C521.5 482.6 435.12 572.12 328.72 572.12C222.33 572.12 135.95 482.6 135.95 372.33C135.95 262.06 222.33 172.54 328.72 172.54C435.12 172.54 521.5 262.06 521.5 372.33Z" id="c38Wk8GdUp"></path><path d="M412.51 134.34C412.51 185.4 371.06 226.85 320 226.85C268.94 226.85 227.49 185.4 227.49 134.34C227.49 83.29 268.94 41.84 320 41.84C371.06 41.84 412.51 83.29 412.51 134.34Z" id="aACl9hyIn"></path><path d="M203.96 469.22C203.96 520.27 162.51 561.73 111.45 561.73C60.39 561.73 18.94 520.27 18.94 469.22C18.94 418.16 60.39 376.71 111.45 376.71C162.51 376.71 203.96 418.16 203.96 469.22Z" id="bXzCVYRWL"></path><path d="M621.06 469.22C621.06 520.27 579.61 561.73 528.55 561.73C477.49 561.73 436.04 520.27 436.04 469.22C436.04 418.16 477.49 376.71 528.55 376.71C579.61 376.71 621.06 418.16 621.06 469.22Z" id="dL88AKvY"></path></defs><g><g><g><use xlink:href="#b9aItClHq2" opacity="1" fill="#ffffff" fill-opacity="1"></use></g><g><g><use xlink:href="#b1ffn6cQz" opacity="1" fill-opacity="0" stroke="#ffffff" stroke-width="40" stroke-opacity="1"></use></g><g><use xlink:href="#b1ffn6cQz" opacity="1" fill-opacity="0" stroke="#e7a100" stroke-width="20" stroke-opacity="1"></use></g></g><g><g><use xlink:href="#b3dpbMelOL" opacity="1" fill-opacity="0" stroke="#ffffff" stroke-width="40" stroke-opacity="1"></use></g><g><use xlink:href="#b3dpbMelOL" opacity="1" fill-opacity="0" stroke="#e7a100" stroke-width="20" stroke-opacity="1"></use></g></g><g><g><use xlink:href="#h2CFmWQy38" opacity="1" fill-opacity="0" stroke="#ffffff" stroke-width="40" stroke-opacity="1"></use></g><g><use xlink:href="#h2CFmWQy38" opacity="1" fill-opacity="0" stroke="#e7a100" stroke-width="20" stroke-opacity="1"></use></g></g><g><use xlink:href="#c38Wk8GdUp" opacity="1" fill="#ffffff" fill-opacity="1"></use></g><g><use xlink:href="#aACl9hyIn" opacity="1" fill="#ffffff" fill-opacity="1"></use><g><use xlink:href="#aACl9hyIn" opacity="1" fill-opacity="0" stroke="#ffffff" stroke-width="40" stroke-opacity="1"></use></g><g><use xlink:href="#aACl9hyIn" opacity="1" fill-opacity="0" stroke="#e7a100" stroke-width="20" stroke-opacity="1"></use></g></g><g><use xlink:href="#bXzCVYRWL" opacity="1" fill="#ffffff" fill-opacity="1"></use><g><use xlink:href="#bXzCVYRWL" opacity="1" fill-opacity="0" stroke="#ffffff" stroke-width="40" stroke-opacity="1"></use></g><g><use xlink:href="#bXzCVYRWL" opacity="1" fill-opacity="0" stroke="#e7a100" stroke-width="20" stroke-opacity="1"></use></g></g><g><use xlink:href="#dL88AKvY" opacity="1" fill="#ffffff" fill-opacity="1"></use><g><use xlink:href="#dL88AKvY" opacity="1" fill-opacity="0" stroke="#ffffff" stroke-width="40" stroke-opacity="1"></use></g><g><use xlink:href="#dL88AKvY" opacity="1" fill-opacity="0" stroke="#e7a100" stroke-width="20" stroke-opacity="1"></use></g></g></g></g></svg>