<?xml version="1.0" encoding="UTF-8" standalone="no"?>
<!DOCTYPE svg PUBLIC "-//W3C//DTD SVG 1.1//EN"
 "http://www.w3.org/Graphics/SVG/1.1/DTD/svg11.dtd">
<!-- Generated by graphviz version 2.40.1 (20161225.0304)
 -->
<!-- Title: state transitions Pages: 1 -->
<svg width="1668pt" height="987pt"
 viewBox="0.00 0.00 1667.50 986.50" xmlns="http://www.w3.org/2000/svg" xmlns:xlink="http://www.w3.org/1999/xlink">
<g id="graph0" class="graph" transform="scale(1 1) rotate(0) translate(4 982.5)">
<title>state transitions</title>
<polygon fill="#ffffff" stroke="transparent" points="-4,4 -4,-982.5 1663.5,-982.5 1663.5,4 -4,4"/>
<g id="clust1" class="cluster">
<title>cluster_PLAYER</title>
<path fill="none" stroke="#000000" stroke-width="2" d="M20,-8C20,-8 588,-8 588,-8 594,-8 600,-14 600,-20 600,-20 600,-958.5 600,-958.5 600,-964.5 594,-970.5 588,-970.5 588,-970.5 20,-970.5 20,-970.5 14,-970.5 8,-964.5 8,-958.5 8,-958.5 8,-20 8,-20 8,-14 14,-8 20,-8"/>
<text text-anchor="start" x="280.3276" y="-951.7" font-family="Helvetica,sans-Serif" font-size="12.00" fill="#000000">PLAYER</text>
<text text-anchor="start" x="267.9934" y="-931.7" font-family="Helvetica,sans-Serif" font-size="12.00" fill="#000000">startPlayback</text>
<polygon fill="#000000" stroke="#000000" points="264,-945.5 264,-945.5 344,-945.5 344,-945.5 264,-945.5"/>
</g>
<g id="clust2" class="cluster">
<title>cluster_PLAYER.parallel</title>
<path fill="none" stroke="#000000" stroke-width="2" d="M28,-16C28,-16 572,-16 572,-16 578,-16 584,-22 584,-28 584,-28 584,-900.5 584,-900.5 584,-906.5 578,-912.5 572,-912.5 572,-912.5 28,-912.5 28,-912.5 22,-912.5 16,-906.5 16,-900.5 16,-900.5 16,-28 16,-28 16,-22 22,-16 28,-16"/>
<text text-anchor="start" x="276.8276" y="-893.7" font-family="Helvetica,sans-Serif" font-size="12.00" fill="#000000">PLAYER</text>
</g>
<g id="clust3" class="cluster">
<title>cluster_PLAYER.PLAYBACK</title>
<polygon fill="none" stroke="#000000" stroke-dasharray="5,2" points="358,-24 358,-854.5 576,-854.5 576,-24 358,-24"/>
<text text-anchor="start" x="435.8248" y="-835.7" font-family="Helvetica,sans-Serif" font-size="12.00" fill="#000000">PLAYBACK</text>
</g>
<g id="clust4" class="cluster">
<title>cluster_PLAYER.CONFIRM</title>
<polygon fill="none" stroke="#000000" stroke-dasharray="5,2" points="32,-24 32,-874.5 350,-874.5 350,-24 32,-24"/>
<text text-anchor="start" x="163.5082" y="-855.7" font-family="Helvetica,sans-Serif" font-size="12.00" fill="#000000">CONFIRM</text>
<text text-anchor="start" x="148.501" y="-835.7" font-family="Helvetica,sans-Serif" font-size="12.00" fill="#000000">exit/ exitConfirm</text>
<polygon fill="#000000" stroke="#000000" points="145,-849.5 145,-849.5 238,-849.5 238,-849.5 145,-849.5"/>
</g>
<!-- initial -->
<g id="node1" class="node">
<title>initial</title>
<ellipse fill="#000000" stroke="#000000" stroke-width="2" cx="1654" cy="-811" rx="5.5" ry="5.5"/>
</g>
<!-- APP -->
<g id="node2" class="node">
<title>APP</title>
<polygon fill="#ffffff" stroke="transparent" stroke-width="2" points="1060,-740 952,-740 952,-694 1060,-694 1060,-740"/>
<text text-anchor="start" x="993.9958" y="-723.2" font-family="Helvetica,sans-Serif" font-size="12.00" fill="#000000">APP</text>
<text text-anchor="start" x="957.985" y="-703.2" font-family="Helvetica,sans-Serif" font-size="12.00" fill="#000000">entry/ onEntryApp</text>
<polygon fill="#000000" stroke="#000000" points="952,-717 952,-717 1060,-717 1060,-717 952,-717"/>
<path fill="none" stroke="#000000" stroke-width="2" d="M965,-695C965,-695 1047,-695 1047,-695 1053,-695 1059,-701 1059,-707 1059,-707 1059,-727 1059,-727 1059,-733 1053,-739 1047,-739 1047,-739 965,-739 965,-739 959,-739 953,-733 953,-727 953,-727 953,-707 953,-707 953,-701 959,-695 965,-695"/>
</g>
<!-- initial&#45;&gt;APP -->
<g id="edge1" class="edge">
<title>initial&#45;&gt;APP</title>
<path fill="none" stroke="#000000" d="M1650.7272,-806.369C1642.7963,-795.5777 1621.3258,-768.8536 1596,-758 1548.6981,-737.7283 1213.6353,-724.0622 1070.5341,-719.0882"/>
<polygon fill="#000000" stroke="#000000" points="1070.2734,-715.5773 1060.1589,-718.7312 1070.0326,-722.5731 1070.2734,-715.5773"/>
<text text-anchor="middle" x="1615.3895" y="-761" font-family="Helvetica,sans-Serif" font-size="10.00" fill="#000000"> </text>
</g>
<!-- PLAYER -->
<!-- APP&#45;&gt;PLAYER -->
<g id="edge2" class="edge">
<title>APP&#45;&gt;PLAYER</title>
<path fill="none" stroke="#000000" d="M951.7773,-719.4512C890.7988,-723.3374 789.3418,-733.2202 705.533,-758 693.5088,-761.5552 691.3569,-764.6856 680,-770 651.3097,-783.4254 617.3168,-799.2357 601.2695,-806.6936"/>
<polygon fill="#000000" stroke="#000000" points="604.7058,-798.4416 600,-807.9343 609.5984,-803.448 604.7058,-798.4416"/>
<text text-anchor="start" x="705" y="-761" font-family="Helvetica,sans-Serif" font-size="10.00" fill="#000000">player/START_PLAYBACK &#160;&#160;</text>
</g>
<!-- SWITCHING -->
<g id="node3" class="node">
<title>SWITCHING</title>
<polygon fill="#ffffff" stroke="transparent" stroke-width="2" points="1245,-834 1165,-834 1165,-788 1245,-788 1245,-834"/>
<text text-anchor="start" x="1170.6734" y="-817.2" font-family="Helvetica,sans-Serif" font-size="12.00" fill="#000000">SWITCHING</text>
<text text-anchor="start" x="1171" y="-797.2" font-family="Helvetica,sans-Serif" font-size="12.00" fill="#000000">doSwitch</text>
<polygon fill="#000000" stroke="#000000" points="1165,-811 1165,-811 1245,-811 1245,-811 1165,-811"/>
<path fill="none" stroke="#000000" stroke-width="2" d="M1178,-789C1178,-789 1232,-789 1232,-789 1238,-789 1244,-795 1244,-801 1244,-801 1244,-821 1244,-821 1244,-827 1238,-833 1232,-833 1232,-833 1178,-833 1178,-833 1172,-833 1166,-827 1166,-821 1166,-821 1166,-801 1166,-801 1166,-795 1172,-789 1178,-789"/>
</g>
<!-- SWITCHING&#45;&gt;APP -->
<g id="edge7" class="edge">
<title>SWITCHING&#45;&gt;APP</title>
<path fill="none" stroke="#000000" d="M1198.7191,-787.9785C1194.7138,-777.3952 1188.4514,-765.5452 1179,-758 1162.1391,-744.5397 1112.106,-733.5541 1070.1568,-726.3542"/>
<polygon fill="#000000" stroke="#000000" points="1070.6853,-722.8941 1060.2449,-724.6963 1069.5304,-729.7982 1070.6853,-722.8941"/>
<text text-anchor="start" x="1189" y="-761" font-family="Helvetica,sans-Serif" font-size="10.00" fill="#000000">player/CLOSE_PLAYER/doCloseFromSwitching &#160;&#160;</text>
</g>
<!-- SWITCHING&#45;&gt;APP -->
<g id="edge8" class="edge">
<title>SWITCHING&#45;&gt;APP</title>
<path fill="none" stroke="#000000" d="M1245.0986,-807.55C1313.0308,-800.9294 1441.1554,-784.6849 1417,-758 1394.2149,-732.8288 1180.1966,-722.4614 1070.3672,-718.7704"/>
<polygon fill="#000000" stroke="#000000" points="1070.1828,-715.2626 1060.0737,-718.4338 1069.9539,-722.2589 1070.1828,-715.2626"/>
<text text-anchor="start" x="1419" y="-761" font-family="Helvetica,sans-Serif" font-size="10.00" fill="#000000">player/ERROR/showErrorNotification &#160;&#160;</text>
</g>
<!-- SWITCHING&#45;&gt;PLAYER -->
<g id="edge9" class="edge">
<title>SWITCHING&#45;&gt;PLAYER</title>
<path fill="none" stroke="#000000" d="M1164.9014,-811C1040.9972,-811 668.5989,-811 602.189,-811"/>
<polygon fill="#000000" stroke="#000000" points="610.0002,-807.5005 600,-811 609.9998,-814.5005 610.0002,-807.5005"/>
<text text-anchor="start" x="813.7665" y="-817" font-family="Helvetica,sans-Serif" font-size="10.00" fill="#000000">player/START_PLAYBACK &#160;&#160;</text>
</g>
<!-- PLAYER&#45;&gt;APP -->
<g id="edge3" class="edge">
<title>PLAYER&#45;&gt;APP</title>
<path fill="none" stroke="#000000" d="M599.9977,-810.4419C630.9989,-808.1154 745.9827,-797.9718 836,-770 848.0578,-766.2532 849.9184,-762.4067 861.751,-758 887.5978,-748.3742 916.7548,-739.694 942.0563,-732.8252"/>
<polygon fill="#000000" stroke="#000000" points="943.1564,-736.154 951.9115,-730.1876 941.3466,-729.392 943.1564,-736.154"/>
<text text-anchor="start" x="861" y="-761" font-family="Helvetica,sans-Serif" font-size="10.00" fill="#000000">player/CLOSE_PLAYER &#160;&#160;</text>
</g>
<!-- PLAYER&#45;&gt;APP -->
<g id="edge4" class="edge">
<title>PLAYER&#45;&gt;APP</title>
<path fill="none" stroke="#000000" d="M599.9964,-810.6166C652.5762,-808.0357 947.6488,-792.6109 980,-770 987.2454,-764.936 992.56,-757.2682 996.4223,-749.3259"/>
<polygon fill="#000000" stroke="#000000" points="999.6866,-750.5918 1000.3179,-740.0158 993.2291,-747.8898 999.6866,-750.5918"/>
<text text-anchor="start" x="990" y="-761" font-family="Helvetica,sans-Serif" font-size="10.00" fill="#000000">player/ERROR/showErrorNotification &#160;&#160;</text>
</g>
<!-- PLAYER&#45;&gt;APP -->
<g id="edge6" class="edge">
<title>PLAYER&#45;&gt;APP</title>
<path fill="none" stroke="#000000" d="M599.9967,-770.7139C602.4845,-765.8392 605.7386,-761.3938 609.993,-758 635.3218,-737.7951 835.9952,-725.1926 941.5641,-719.8953"/>
<polygon fill="#000000" stroke="#000000" points="941.9689,-723.3797 951.784,-719.3904 941.6234,-716.3882 941.9689,-723.3797"/>
<text text-anchor="start" x="610" y="-761" font-family="Helvetica,sans-Serif" font-size="10.00" fill="#000000">player/NEXT &#160;&#160;</text>
</g>
<!-- PLAYER&#45;&gt;SWITCHING -->
<g id="edge5" class="edge">
<title>PLAYER&#45;&gt;SWITCHING</title>
<path fill="none" stroke="#000000" d="M599.9989,-811C658.3359,-811 1019.8164,-811 1154.4985,-811"/>
<polygon fill="#000000" stroke="#000000" points="1154.9014,-814.5001 1164.9014,-811 1154.9013,-807.5001 1154.9014,-814.5001"/>
<text text-anchor="start" x="827.94" y="-817" font-family="Helvetica,sans-Serif" font-size="10.00" fill="#000000">player/NEXT [isNext] &#160;&#160;</text>
</g>
<!-- PLAYER.parallel -->
<!-- PLAYER.PLAYBACK -->
<!-- PLAYER.PLAYBACK.initial -->
<g id="node7" class="node">
<title>PLAYER.PLAYBACK.initial</title>
<ellipse fill="#000000" stroke="#000000" stroke-width="2" cx="437" cy="-811" rx="5.5" ry="5.5"/>
</g>
<!-- PLAYER.PLAYBACK.PLAYING -->
<g id="node8" class="node">
<title>PLAYER.PLAYBACK.PLAYING</title>
<polygon fill="#ffffff" stroke="transparent" stroke-width="2" points="474,-418 400,-418 400,-382 474,-382 474,-418"/>
<text text-anchor="start" x="410.9942" y="-396.2" font-family="Helvetica,sans-Serif" font-size="12.00" fill="#000000">PLAYING</text>
<path fill="none" stroke="#000000" stroke-width="2" d="M412.3333,-383C412.3333,-383 461.6667,-383 461.6667,-383 467.3333,-383 473,-388.6667 473,-394.3333 473,-394.3333 473,-405.6667 473,-405.6667 473,-411.3333 467.3333,-417 461.6667,-417 461.6667,-417 412.3333,-417 412.3333,-417 406.6667,-417 401,-411.3333 401,-405.6667 401,-405.6667 401,-394.3333 401,-394.3333 401,-388.6667 406.6667,-383 412.3333,-383"/>
</g>
<!-- PLAYER.PLAYBACK.initial&#45;&gt;PLAYER.PLAYBACK.PLAYING -->
<g id="edge10" class="edge">
<title>PLAYER.PLAYBACK.initial&#45;&gt;PLAYER.PLAYBACK.PLAYING</title>
<path fill="none" stroke="#000000" d="M437,-805.4905C437,-790.9991 437,-750.6181 437,-717 437,-717 437,-717 437,-455.5 437,-446.7318 437,-437.1843 437,-428.5196"/>
<polygon fill="#000000" stroke="#000000" points="440.5001,-428.5 437,-418.5 433.5001,-428.5 440.5001,-428.5"/>
<text text-anchor="middle" x="438.3895" y="-572" font-family="Helvetica,sans-Serif" font-size="10.00" fill="#000000"> </text>
</g>
<!-- PLAYER.PLAYBACK.PAUSED -->
<g id="node9" class="node">
<title>PLAYER.PLAYBACK.PAUSED</title>
<polygon fill="#ffffff" stroke="transparent" stroke-width="2" points="488.5,-68 417.5,-68 417.5,-32 488.5,-32 488.5,-68"/>
<text text-anchor="start" x="428.8316" y="-46.2" font-family="Helvetica,sans-Serif" font-size="12.00" fill="#000000">PAUSED</text>
<path fill="none" stroke="#000000" stroke-width="2" d="M429.8333,-33C429.8333,-33 476.1667,-33 476.1667,-33 481.8333,-33 487.5,-38.6667 487.5,-44.3333 487.5,-44.3333 487.5,-55.6667 487.5,-55.6667 487.5,-61.3333 481.8333,-67 476.1667,-67 476.1667,-67 429.8333,-67 429.8333,-67 424.1667,-67 418.5,-61.3333 418.5,-55.6667 418.5,-55.6667 418.5,-44.3333 418.5,-44.3333 418.5,-38.6667 424.1667,-33 429.8333,-33"/>
</g>
<!-- PLAYER.PLAYBACK.PLAYING&#45;&gt;PLAYER.PLAYBACK.PAUSED -->
<g id="edge11" class="edge">
<title>PLAYER.PLAYBACK.PLAYING&#45;&gt;PLAYER.PLAYBACK.PAUSED</title>
<path fill="none" stroke="#000000" d="M409.3496,-381.9823C398.235,-372.4235 388,-359.5385 388,-344.5 388,-344.5 388,-344.5 388,-105.5 388,-91.0323 397.4285,-79.5344 409.1036,-70.8428"/>
<polygon fill="#000000" stroke="#000000" points="411.0794,-73.7321 417.4571,-65.2719 407.1955,-67.9084 411.0794,-73.7321"/>
<text text-anchor="start" x="388" y="-222" font-family="Helvetica,sans-Serif" font-size="10.00" fill="#000000">player/PAUSE &#160;&#160;</text>
</g>
<!-- PLAYER.PLAYBACK.PAUSED&#45;&gt;PLAYER.PLAYBACK.PLAYING -->
<g id="edge12" class="edge">
<title>PLAYER.PLAYBACK.PAUSED&#45;&gt;PLAYER.PLAYBACK.PLAYING</title>
<path fill="none" stroke="#000000" d="M482.0754,-68.0216C493.5286,-77.502 504,-90.3205 504,-105.5 504,-344.5 504,-344.5 504,-344.5 504,-359.1041 494.4427,-370.5935 482.5474,-379.2378"/>
<polygon fill="#000000" stroke="#000000" points="480.5076,-376.3892 474.0274,-384.7711 484.3203,-382.2598 480.5076,-376.3892"/>
<text text-anchor="start" x="504" y="-222" font-family="Helvetica,sans-Serif" font-size="10.00" fill="#000000">player/PLAY &#160;&#160;</text>
</g>
<!-- PLAYER.CONFIRM -->
<!-- PLAYER.CONFIRM.initial -->
<g id="node11" class="node">
<title>PLAYER.CONFIRM.initial</title>
<ellipse fill="#000000" stroke="#000000" stroke-width="2" cx="157" cy="-811" rx="5.5" ry="5.5"/>
</g>
<!-- PLAYER.CONFIRM.CONFIRM_HIDDEN -->
<g id="node12" class="node">
<title>PLAYER.CONFIRM.CONFIRM_HIDDEN</title>
<polygon fill="#ffffff" stroke="transparent" stroke-width="2" points="222,-418 92,-418 92,-382 222,-382 222,-418"/>
<text text-anchor="start" x="102.6784" y="-396.2" font-family="Helvetica,sans-Serif" font-size="12.00" fill="#000000">CONFIRM_HIDDEN</text>
<path fill="none" stroke="#000000" stroke-width="2" d="M104.3333,-383C104.3333,-383 209.6667,-383 209.6667,-383 215.3333,-383 221,-388.6667 221,-394.3333 221,-394.3333 221,-405.6667 221,-405.6667 221,-411.3333 215.3333,-417 209.6667,-417 209.6667,-417 104.3333,-417 104.3333,-417 98.6667,-417 93,-411.3333 93,-405.6667 93,-405.6667 93,-394.3333 93,-394.3333 93,-388.6667 98.6667,-383 104.3333,-383"/>
</g>
<!-- PLAYER.CONFIRM.initial&#45;&gt;PLAYER.CONFIRM.CONFIRM_HIDDEN -->
<g id="edge13" class="edge">
<title>PLAYER.CONFIRM.initial&#45;&gt;PLAYER.CONFIRM.CONFIRM_HIDDEN</title>
<path fill="none" stroke="#000000" d="M157,-805.4905C157,-790.9991 157,-750.6181 157,-717 157,-717 157,-717 157,-455.5 157,-446.7318 157,-437.1843 157,-428.5196"/>
<polygon fill="#000000" stroke="#000000" points="160.5001,-428.5 157,-418.5 153.5001,-428.5 160.5001,-428.5"/>
<text text-anchor="middle" x="158.3895" y="-572" font-family="Helvetica,sans-Serif" font-size="10.00" fill="#000000"> </text>
</g>
<!-- PLAYER.CONFIRM.CONFIRM_VISIBLE -->
<g id="node13" class="node">
<title>PLAYER.CONFIRM.CONFIRM_VISIBLE</title>
<polygon fill="#ffffff" stroke="transparent" stroke-width="2" points="232,-68 102,-68 102,-32 232,-32 232,-68"/>
<text text-anchor="start" x="112.997" y="-46.2" font-family="Helvetica,sans-Serif" font-size="12.00" fill="#000000">CONFIRM_VISIBLE</text>
<path fill="none" stroke="#000000" stroke-width="2" d="M114.3333,-33C114.3333,-33 219.6667,-33 219.6667,-33 225.3333,-33 231,-38.6667 231,-44.3333 231,-44.3333 231,-55.6667 231,-55.6667 231,-61.3333 225.3333,-67 219.6667,-67 219.6667,-67 114.3333,-67 114.3333,-67 108.6667,-67 103,-61.3333 103,-55.6667 103,-55.6667 103,-44.3333 103,-44.3333 103,-38.6667 108.6667,-33 114.3333,-33"/>
</g>
<!-- PLAYER.CONFIRM.CONFIRM_HIDDEN&#45;&gt;PLAYER.CONFIRM.CONFIRM_VISIBLE -->
<g id="edge14" class="edge">
<title>PLAYER.CONFIRM.CONFIRM_HIDDEN&#45;&gt;PLAYER.CONFIRM.CONFIRM_VISIBLE</title>
<path fill="none" stroke="#000000" d="M91.7979,-383.4192C75.2206,-375.0971 62,-362.7418 62,-344.5 62,-344.5 62,-344.5 62,-105.5 62,-86.6247 75.4264,-74.1519 92.6769,-65.9161"/>
<polygon fill="#000000" stroke="#000000" points="94.1428,-69.0965 101.9955,-61.9841 91.4215,-62.6471 94.1428,-69.0965"/>
<text text-anchor="start" x="62" y="-222" font-family="Helvetica,sans-Serif" font-size="10.00" fill="#000000">player/SHOW_CONFIRM &#160;&#160;</text>
</g>
<!-- PLAYER.CONFIRM.CONFIRM_VISIBLE&#45;&gt;PLAYER.CONFIRM.CONFIRM_HIDDEN -->
<g id="edge15" class="edge">
<title>PLAYER.CONFIRM.CONFIRM_VISIBLE&#45;&gt;PLAYER.CONFIRM.CONFIRM_HIDDEN</title>
<path fill="none" stroke="#000000" d="M203.8912,-68.1971C216.7375,-77.2888 228,-89.7506 228,-105.5 228,-344.5 228,-344.5 228,-344.5 228,-357.5909 220.4153,-368.0533 210.204,-376.207"/>
<polygon fill="#000000" stroke="#000000" points="208.1342,-373.3837 201.9654,-381.9974 212.1594,-379.1106 208.1342,-373.3837"/>
<text text-anchor="start" x="228" y="-222" font-family="Helvetica,sans-Serif" font-size="10.00" fill="#000000">player/HIDE_CONFIRM &#160;&#160;</text>
</g>
</g>
</svg>
