<?xml version="1.0" encoding="UTF-8" standalone="no"?>
<!DOCTYPE svg PUBLIC "-//W3C//DTD SVG 1.1//EN"
 "http://www.w3.org/Graphics/SVG/1.1/DTD/svg11.dtd">
<!-- Generated by graphviz version 2.40.1 (20161225.0304)
 -->
<!-- Title: state transitions Pages: 1 -->
<svg width="1564pt" height="987pt"
 viewBox="0.00 0.00 1563.50 986.50" xmlns="http://www.w3.org/2000/svg" xmlns:xlink="http://www.w3.org/1999/xlink">
<g id="graph0" class="graph" transform="scale(1 1) rotate(0) translate(4 982.5)">
<title>state transitions</title>
<polygon fill="#ffffff" stroke="transparent" points="-4,4 -4,-982.5 1559.5,-982.5 1559.5,4 -4,4"/>
<g id="clust1" class="cluster">
<title>cluster_PLAYER</title>
<path fill="none" stroke="#000000" stroke-width="2" d="M20,-8C20,-8 540,-8 540,-8 546,-8 552,-14 552,-20 552,-20 552,-958.5 552,-958.5 552,-964.5 546,-970.5 540,-970.5 540,-970.5 20,-970.5 20,-970.5 14,-970.5 8,-964.5 8,-958.5 8,-958.5 8,-20 8,-20 8,-14 14,-8 20,-8"/>
<text text-anchor="start" x="256.3276" y="-951.7" font-family="Helvetica,sans-Serif" font-size="12.00" fill="#000000">PLAYER</text>
<text text-anchor="start" x="243.9934" y="-931.7" font-family="Helvetica,sans-Serif" font-size="12.00" fill="#000000">startPlayback</text>
<polygon fill="#000000" stroke="#000000" points="240,-945.5 240,-945.5 320,-945.5 320,-945.5 240,-945.5"/>
</g>
<g id="clust2" class="cluster">
<title>cluster_PLAYER.parallel</title>
<path fill="none" stroke="#000000" stroke-width="2" d="M28,-16C28,-16 524,-16 524,-16 530,-16 536,-22 536,-28 536,-28 536,-900.5 536,-900.5 536,-906.5 530,-912.5 524,-912.5 524,-912.5 28,-912.5 28,-912.5 22,-912.5 16,-906.5 16,-900.5 16,-900.5 16,-28 16,-28 16,-22 22,-16 28,-16"/>
<text text-anchor="start" x="252.8276" y="-893.7" font-family="Helvetica,sans-Serif" font-size="12.00" fill="#000000">PLAYER</text>
</g>
<g id="clust3" class="cluster">
<title>cluster_PLAYER.PLAYBACK</title>
<polygon fill="none" stroke="#000000" stroke-dasharray="5,2" points="334,-24 334,-854.5 528,-854.5 528,-24 334,-24"/>
<text text-anchor="start" x="399.8248" y="-835.7" font-family="Helvetica,sans-Serif" font-size="12.00" fill="#000000">PLAYBACK</text>
</g>
<g id="clust4" class="cluster">
<title>cluster_PLAYER.CONFIRM</title>
<polygon fill="none" stroke="#000000" stroke-dasharray="5,2" points="32,-24 32,-874.5 326,-874.5 326,-24 32,-24"/>
<text text-anchor="start" x="151.5082" y="-855.7" font-family="Helvetica,sans-Serif" font-size="12.00" fill="#000000">CONFIRM</text>
<text text-anchor="start" x="136.501" y="-835.7" font-family="Helvetica,sans-Serif" font-size="12.00" fill="#000000">exit/ exitConfirm</text>
<polygon fill="#000000" stroke="#000000" points="133,-849.5 133,-849.5 226,-849.5 226,-849.5 133,-849.5"/>
</g>
<!-- initial -->
<g id="node1" class="node">
<title>initial</title>
<ellipse fill="#000000" stroke="#000000" stroke-width="2" cx="1550" cy="-811" rx="5.5" ry="5.5"/>
</g>
<!-- APP -->
<g id="node2" class="node">
<title>APP</title>
<polygon fill="#ffffff" stroke="transparent" stroke-width="2" points="980,-740 872,-740 872,-694 980,-694 980,-740"/>
<text text-anchor="start" x="913.9958" y="-723.2" font-family="Helvetica,sans-Serif" font-size="12.00" fill="#000000">APP</text>
<text text-anchor="start" x="877.985" y="-703.2" font-family="Helvetica,sans-Serif" font-size="12.00" fill="#000000">entry/ onEntryApp</text>
<polygon fill="#000000" stroke="#000000" points="872,-717 872,-717 980,-717 980,-717 872,-717"/>
<path fill="none" stroke="#000000" stroke-width="2" d="M885,-695C885,-695 967,-695 967,-695 973,-695 979,-701 979,-707 979,-707 979,-727 979,-727 979,-733 973,-739 967,-739 967,-739 885,-739 885,-739 879,-739 873,-733 873,-727 873,-727 873,-707 873,-707 873,-701 879,-695 885,-695"/>
</g>
<!-- initial&#45;&gt;APP -->
<g id="edge1" class="edge">
<title>initial&#45;&gt;APP</title>
<path fill="none" stroke="#000000" d="M1547.9529,-805.7509C1543.3091,-794.6475 1530.8159,-768.9078 1511,-758 1466.3508,-733.4226 1133.6398,-722.209 990.8183,-718.4901"/>
<polygon fill="#000000" stroke="#000000" points="990.5465,-714.9821 980.4602,-718.2249 990.3673,-721.9798 990.5465,-714.9821"/>
<text text-anchor="middle" x="1525.3895" y="-761" font-family="Helvetica,sans-Serif" font-size="10.00" fill="#000000"> </text>
</g>
<!-- PLAYER -->
<!-- APP&#45;&gt;PLAYER -->
<g id="edge2" class="edge">
<title>APP&#45;&gt;PLAYER</title>
<path fill="none" stroke="#000000" d="M871.9018,-722.2197C801.9972,-729.4176 684.4166,-743.191 643.533,-758 633.9534,-761.47 632.8809,-765.0061 624,-770 598.9611,-784.0797 568.5717,-799.108 553.4696,-806.4423"/>
<polygon fill="#000000" stroke="#000000" points="556.5122,-798.3518 552,-807.938 561.5054,-803.258 556.5122,-798.3518"/>
<text text-anchor="start" x="643" y="-761" font-family="Helvetica,sans-Serif" font-size="10.00" fill="#000000">player/START_PLAYBACK &#160;&#160;</text>
</g>
<!-- SWITCHING -->
<g id="node3" class="node">
<title>SWITCHING</title>
<polygon fill="#ffffff" stroke="transparent" stroke-width="2" points="1157,-834 1077,-834 1077,-788 1157,-788 1157,-834"/>
<text text-anchor="start" x="1082.6734" y="-817.2" font-family="Helvetica,sans-Serif" font-size="12.00" fill="#000000">SWITCHING</text>
<text text-anchor="start" x="1083" y="-797.2" font-family="Helvetica,sans-Serif" font-size="12.00" fill="#000000">doSwitch</text>
<polygon fill="#000000" stroke="#000000" points="1077,-811 1077,-811 1157,-811 1157,-811 1077,-811"/>
<path fill="none" stroke="#000000" stroke-width="2" d="M1090,-789C1090,-789 1144,-789 1144,-789 1150,-789 1156,-795 1156,-801 1156,-801 1156,-821 1156,-821 1156,-827 1150,-833 1144,-833 1144,-833 1090,-833 1090,-833 1084,-833 1078,-827 1078,-821 1078,-821 1078,-801 1078,-801 1078,-795 1084,-789 1090,-789"/>
</g>
<!-- SWITCHING&#45;&gt;APP -->
<g id="edge7" class="edge">
<title>SWITCHING&#45;&gt;APP</title>
<path fill="none" stroke="#000000" d="M1114.2818,-787.8584C1111.8936,-777.3779 1107.411,-765.65 1099,-758 1082.9865,-743.4355 1032.591,-732.5232 990.2943,-725.633"/>
<polygon fill="#000000" stroke="#000000" points="990.7234,-722.1575 980.2997,-724.0536 989.6307,-729.0717 990.7234,-722.1575"/>
<text text-anchor="start" x="1107" y="-761" font-family="Helvetica,sans-Serif" font-size="10.00" fill="#000000">player/CLOSE_PLAYER/doCloseFromSwitching &#160;&#160;</text>
</g>
<!-- SWITCHING&#45;&gt;APP -->
<g id="edge8" class="edge">
<title>SWITCHING&#45;&gt;APP</title>
<path fill="none" stroke="#000000" d="M1157.0296,-807.7239C1226.0143,-801.3073 1357.6685,-785.2784 1333,-758 1310.5042,-733.1242 1099.5893,-722.6356 990.5793,-718.8465"/>
<polygon fill="#000000" stroke="#000000" points="990.4705,-715.3409 980.3578,-718.5004 990.2336,-722.3369 990.4705,-715.3409"/>
<text text-anchor="start" x="1336" y="-761" font-family="Helvetica,sans-Serif" font-size="10.00" fill="#000000">player/ERROR/showErrorNotification &#160;&#160;</text>
</g>
<!-- SWITCHING&#45;&gt;PLAYER -->
<g id="edge9" class="edge">
<title>SWITCHING&#45;&gt;PLAYER</title>
<path fill="none" stroke="#000000" d="M1076.8466,-811C958.8724,-811 617.6212,-811 554.2066,-811"/>
<polygon fill="#000000" stroke="#000000" points="562.0002,-807.5005 552,-811 561.9998,-814.5005 562.0002,-807.5005"/>
<text text-anchor="start" x="745.7665" y="-817" font-family="Helvetica,sans-Serif" font-size="10.00" fill="#000000">player/START_PLAYBACK &#160;&#160;</text>
</g>
<!-- PLAYER&#45;&gt;APP -->
<g id="edge3" class="edge">
<title>PLAYER&#45;&gt;APP</title>
<path fill="none" stroke="#000000" d="M551.9974,-810.6191C581.9333,-808.9765 689.8569,-801.1012 772,-770 781.6059,-766.363 782.3773,-762.1994 791.751,-758 814.0301,-748.0191 839.4299,-739.5714 862.0966,-732.9852"/>
<polygon fill="#000000" stroke="#000000" points="863.297,-736.2828 871.9609,-730.1847 861.3852,-729.549 863.297,-736.2828"/>
<text text-anchor="start" x="791" y="-761" font-family="Helvetica,sans-Serif" font-size="10.00" fill="#000000">player/CLOSE_PLAYER &#160;&#160;</text>
</g>
<!-- PLAYER&#45;&gt;APP -->
<g id="edge4" class="edge">
<title>PLAYER&#45;&gt;APP</title>
<path fill="none" stroke="#000000" d="M551.9987,-810.6085C602.7942,-808.0564 879.2229,-793.1655 908,-770 914.3337,-764.9014 918.45,-757.4739 921.1218,-749.7845"/>
<polygon fill="#000000" stroke="#000000" points="924.5191,-750.63 923.7917,-740.0601 917.7689,-748.7766 924.5191,-750.63"/>
<text text-anchor="start" x="917" y="-761" font-family="Helvetica,sans-Serif" font-size="10.00" fill="#000000">player/ERROR/showErrorNotification &#160;&#160;</text>
</g>
<!-- PLAYER&#45;&gt;APP -->
<g id="edge6" class="edge">
<title>PLAYER&#45;&gt;APP</title>
<path fill="none" stroke="#000000" d="M551.9978,-762.3917C553.1763,-760.807 554.5023,-759.3322 555.993,-758 578.2983,-738.0663 761.8662,-725.5208 861.7771,-720.103"/>
<polygon fill="#000000" stroke="#000000" points="861.9658,-723.598 871.765,-719.57 861.5927,-716.6079 861.9658,-723.598"/>
<text text-anchor="start" x="556" y="-761" font-family="Helvetica,sans-Serif" font-size="10.00" fill="#000000">player/NEXT &#160;&#160;</text>
</g>
<!-- PLAYER&#45;&gt;SWITCHING -->
<g id="edge5" class="edge">
<title>PLAYER&#45;&gt;SWITCHING</title>
<path fill="none" stroke="#000000" d="M551.9971,-811C607.6372,-811 938.5322,-811 1066.5093,-811"/>
<polygon fill="#000000" stroke="#000000" points="1066.8466,-814.5001 1076.8466,-811 1066.8466,-807.5001 1066.8466,-814.5001"/>
<text text-anchor="start" x="759.94" y="-817" font-family="Helvetica,sans-Serif" font-size="10.00" fill="#000000">player/NEXT [isNext] &#160;&#160;</text>
</g>
<!-- PLAYER.parallel -->
<!-- PLAYER.PLAYBACK -->
<!-- PLAYER.PLAYBACK.initial -->
<g id="node7" class="node">
<title>PLAYER.PLAYBACK.initial</title>
<ellipse fill="#000000" stroke="#000000" stroke-width="2" cx="409" cy="-811" rx="5.5" ry="5.5"/>
</g>
<!-- PLAYER.PLAYBACK.PLAYING -->
<g id="node8" class="node">
<title>PLAYER.PLAYBACK.PLAYING</title>
<polygon fill="#ffffff" stroke="transparent" stroke-width="2" points="446,-418 372,-418 372,-382 446,-382 446,-418"/>
<text text-anchor="start" x="382.9942" y="-396.2" font-family="Helvetica,sans-Serif" font-size="12.00" fill="#000000">PLAYING</text>
<path fill="none" stroke="#000000" stroke-width="2" d="M384.3333,-383C384.3333,-383 433.6667,-383 433.6667,-383 439.3333,-383 445,-388.6667 445,-394.3333 445,-394.3333 445,-405.6667 445,-405.6667 445,-411.3333 439.3333,-417 433.6667,-417 433.6667,-417 384.3333,-417 384.3333,-417 378.6667,-417 373,-411.3333 373,-405.6667 373,-405.6667 373,-394.3333 373,-394.3333 373,-388.6667 378.6667,-383 384.3333,-383"/>
</g>
<!-- PLAYER.PLAYBACK.initial&#45;&gt;PLAYER.PLAYBACK.PLAYING -->
<g id="edge10" class="edge">
<title>PLAYER.PLAYBACK.initial&#45;&gt;PLAYER.PLAYBACK.PLAYING</title>
<path fill="none" stroke="#000000" d="M409,-805.4905C409,-790.9991 409,-750.6181 409,-717 409,-717 409,-717 409,-455.5 409,-446.7318 409,-437.1843 409,-428.5196"/>
<polygon fill="#000000" stroke="#000000" points="412.5001,-428.5 409,-418.5 405.5001,-428.5 412.5001,-428.5"/>
<text text-anchor="middle" x="410.3895" y="-572" font-family="Helvetica,sans-Serif" font-size="10.00" fill="#000000"> </text>
</g>
<!-- PLAYER.PLAYBACK.PAUSED -->
<g id="node9" class="node">
<title>PLAYER.PLAYBACK.PAUSED</title>
<polygon fill="#ffffff" stroke="transparent" stroke-width="2" points="452.5,-68 381.5,-68 381.5,-32 452.5,-32 452.5,-68"/>
<text text-anchor="start" x="392.8316" y="-46.2" font-family="Helvetica,sans-Serif" font-size="12.00" fill="#000000">PAUSED</text>
<path fill="none" stroke="#000000" stroke-width="2" d="M393.8333,-33C393.8333,-33 440.1667,-33 440.1667,-33 445.8333,-33 451.5,-38.6667 451.5,-44.3333 451.5,-44.3333 451.5,-55.6667 451.5,-55.6667 451.5,-61.3333 445.8333,-67 440.1667,-67 440.1667,-67 393.8333,-67 393.8333,-67 388.1667,-67 382.5,-61.3333 382.5,-55.6667 382.5,-55.6667 382.5,-44.3333 382.5,-44.3333 382.5,-38.6667 388.1667,-33 393.8333,-33"/>
</g>
<!-- PLAYER.PLAYBACK.PLAYING&#45;&gt;PLAYER.PLAYBACK.PAUSED -->
<g id="edge11" class="edge">
<title>PLAYER.PLAYBACK.PLAYING&#45;&gt;PLAYER.PLAYBACK.PAUSED</title>
<path fill="none" stroke="#000000" d="M378.4768,-381.9809C366.6953,-372.5775 356,-359.8216 356,-344.5 356,-344.5 356,-344.5 356,-105.5 356,-92.7338 363.4,-82.1277 373.0451,-73.7257"/>
<polygon fill="#000000" stroke="#000000" points="375.3848,-76.3412 381.1632,-67.4608 371.1082,-70.7995 375.3848,-76.3412"/>
<text text-anchor="start" x="356" y="-222" font-family="Helvetica,sans-Serif" font-size="10.00" fill="#000000">player/PAUSE &#160;&#160;</text>
</g>
<!-- PLAYER.PLAYBACK.PAUSED&#45;&gt;PLAYER.PLAYBACK.PLAYING -->
<g id="edge12" class="edge">
<title>PLAYER.PLAYBACK.PAUSED&#45;&gt;PLAYER.PLAYBACK.PLAYING</title>
<path fill="none" stroke="#000000" d="M438.3257,-68.3831C447.4307,-78.2902 456,-91.3682 456,-105.5 456,-344.5 456,-344.5 456,-344.5 456,-355.907 450.1465,-366.1749 442.571,-374.6871"/>
<polygon fill="#000000" stroke="#000000" points="439.8554,-372.4524 435.2483,-381.9931 444.7995,-377.4078 439.8554,-372.4524"/>
<text text-anchor="start" x="456" y="-222" font-family="Helvetica,sans-Serif" font-size="10.00" fill="#000000">player/PLAY &#160;&#160;</text>
</g>
<!-- PLAYER.CONFIRM -->
<!-- PLAYER.CONFIRM.initial -->
<g id="node11" class="node">
<title>PLAYER.CONFIRM.initial</title>
<ellipse fill="#000000" stroke="#000000" stroke-width="2" cx="153" cy="-811" rx="5.5" ry="5.5"/>
</g>
<!-- PLAYER.CONFIRM.CONFIRM_HIDDEN -->
<g id="node12" class="node">
<title>PLAYER.CONFIRM.CONFIRM_HIDDEN</title>
<polygon fill="#ffffff" stroke="transparent" stroke-width="2" points="218,-418 88,-418 88,-382 218,-382 218,-418"/>
<text text-anchor="start" x="98.6784" y="-396.2" font-family="Helvetica,sans-Serif" font-size="12.00" fill="#000000">CONFIRM_HIDDEN</text>
<path fill="none" stroke="#000000" stroke-width="2" d="M100.3333,-383C100.3333,-383 205.6667,-383 205.6667,-383 211.3333,-383 217,-388.6667 217,-394.3333 217,-394.3333 217,-405.6667 217,-405.6667 217,-411.3333 211.3333,-417 205.6667,-417 205.6667,-417 100.3333,-417 100.3333,-417 94.6667,-417 89,-411.3333 89,-405.6667 89,-405.6667 89,-394.3333 89,-394.3333 89,-388.6667 94.6667,-383 100.3333,-383"/>
</g>
<!-- PLAYER.CONFIRM.initial&#45;&gt;PLAYER.CONFIRM.CONFIRM_HIDDEN -->
<g id="edge13" class="edge">
<title>PLAYER.CONFIRM.initial&#45;&gt;PLAYER.CONFIRM.CONFIRM_HIDDEN</title>
<path fill="none" stroke="#000000" d="M153,-805.4905C153,-790.9991 153,-750.6181 153,-717 153,-717 153,-717 153,-455.5 153,-446.7318 153,-437.1843 153,-428.5196"/>
<polygon fill="#000000" stroke="#000000" points="156.5001,-428.5 153,-418.5 149.5001,-428.5 156.5001,-428.5"/>
<text text-anchor="middle" x="154.3895" y="-572" font-family="Helvetica,sans-Serif" font-size="10.00" fill="#000000"> </text>
</g>
<!-- PLAYER.CONFIRM.CONFIRM_VISIBLE -->
<g id="node13" class="node">
<title>PLAYER.CONFIRM.CONFIRM_VISIBLE</title>
<polygon fill="#ffffff" stroke="transparent" stroke-width="2" points="220,-68 90,-68 90,-32 220,-32 220,-68"/>
<text text-anchor="start" x="100.997" y="-46.2" font-family="Helvetica,sans-Serif" font-size="12.00" fill="#000000">CONFIRM_VISIBLE</text>
<path fill="none" stroke="#000000" stroke-width="2" d="M102.3333,-33C102.3333,-33 207.6667,-33 207.6667,-33 213.3333,-33 219,-38.6667 219,-44.3333 219,-44.3333 219,-55.6667 219,-55.6667 219,-61.3333 213.3333,-67 207.6667,-67 207.6667,-67 102.3333,-67 102.3333,-67 96.6667,-67 91,-61.3333 91,-55.6667 91,-55.6667 91,-44.3333 91,-44.3333 91,-38.6667 96.6667,-33 102.3333,-33"/>
</g>
<!-- PLAYER.CONFIRM.CONFIRM_HIDDEN&#45;&gt;PLAYER.CONFIRM.CONFIRM_VISIBLE -->
<g id="edge14" class="edge">
<title>PLAYER.CONFIRM.CONFIRM_HIDDEN&#45;&gt;PLAYER.CONFIRM.CONFIRM_VISIBLE</title>
<path fill="none" stroke="#000000" d="M87.7933,-385.3639C69.2576,-377.1106 54,-364.3026 54,-344.5 54,-344.5 54,-344.5 54,-105.5 54,-88.2731 65.4252,-76.3559 80.5902,-68.1256"/>
<polygon fill="#000000" stroke="#000000" points="82.3708,-71.1543 89.8932,-63.6935 79.36,-64.8348 82.3708,-71.1543"/>
<text text-anchor="start" x="54" y="-222" font-family="Helvetica,sans-Serif" font-size="10.00" fill="#000000">player/SHOW_CONFIRM &#160;&#160;</text>
</g>
<!-- PLAYER.CONFIRM.CONFIRM_VISIBLE&#45;&gt;PLAYER.CONFIRM.CONFIRM_HIDDEN -->
<g id="edge15" class="edge">
<title>PLAYER.CONFIRM.CONFIRM_VISIBLE&#45;&gt;PLAYER.CONFIRM.CONFIRM_HIDDEN</title>
<path fill="none" stroke="#000000" d="M182.6504,-68.0177C193.765,-77.5765 204,-90.4615 204,-105.5 204,-344.5 204,-344.5 204,-344.5 204,-356.2404 197.7359,-366.5684 189.5984,-375.032"/>
<polygon fill="#000000" stroke="#000000" points="187.0481,-372.623 182.0754,-381.9784 191.7969,-377.7659 187.0481,-372.623"/>
<text text-anchor="start" x="204" y="-222" font-family="Helvetica,sans-Serif" font-size="10.00" fill="#000000">player/HIDE_CONFIRM &#160;&#160;</text>
</g>
</g>
</svg>
