<?xml version="1.0" encoding="UTF-8" standalone="no"?>
<!DOCTYPE svg PUBLIC "-//W3C//DTD SVG 1.1//EN"
 "http://www.w3.org/Graphics/SVG/1.1/DTD/svg11.dtd">
<!-- Generated by graphviz version 2.40.1 (20161225.0304)
 -->
<!-- Title: state transitions Pages: 1 -->
<svg width="1644pt" height="637pt"
 viewBox="0.00 0.00 1643.50 636.50" xmlns="http://www.w3.org/2000/svg" xmlns:xlink="http://www.w3.org/1999/xlink">
<g id="graph0" class="graph" transform="scale(1 1) rotate(0) translate(4 632.5)">
<title>state transitions</title>
<polygon fill="#ffffff" stroke="transparent" points="-4,4 -4,-632.5 1639.5,-632.5 1639.5,4 -4,4"/>
<g id="clust1" class="cluster">
<title>cluster_PLAYER</title>
<path fill="none" stroke="#000000" stroke-width="2" d="M20,-8C20,-8 564,-8 564,-8 570,-8 576,-14 576,-20 576,-20 576,-608.5 576,-608.5 576,-614.5 570,-620.5 564,-620.5 564,-620.5 20,-620.5 20,-620.5 14,-620.5 8,-614.5 8,-608.5 8,-608.5 8,-20 8,-20 8,-14 14,-8 20,-8"/>
<text text-anchor="start" x="268.3276" y="-601.7" font-family="Helvetica,sans-Serif" font-size="12.00" fill="#000000">PLAYER</text>
<text text-anchor="start" x="255.9934" y="-581.7" font-family="Helvetica,sans-Serif" font-size="12.00" fill="#000000">startPlayback</text>
<polygon fill="#000000" stroke="#000000" points="252,-595.5 252,-595.5 332,-595.5 332,-595.5 252,-595.5"/>
</g>
<g id="clust2" class="cluster">
<title>cluster_PLAYER.PLAYBACK</title>
<polygon fill="none" stroke="#000000" stroke-dasharray="5,2" points="342,-16 342,-542.5 560,-542.5 560,-16 342,-16"/>
<text text-anchor="start" x="419.8248" y="-523.7" font-family="Helvetica,sans-Serif" font-size="12.00" fill="#000000">PLAYBACK</text>
</g>
<g id="clust3" class="cluster">
<title>cluster_PLAYER.CONFIRM</title>
<polygon fill="none" stroke="#000000" stroke-dasharray="5,2" points="16,-16 16,-562.5 334,-562.5 334,-16 16,-16"/>
<text text-anchor="start" x="147.5082" y="-543.7" font-family="Helvetica,sans-Serif" font-size="12.00" fill="#000000">CONFIRM</text>
<text text-anchor="start" x="132.501" y="-523.7" font-family="Helvetica,sans-Serif" font-size="12.00" fill="#000000">exit/ exitConfirm</text>
<polygon fill="#000000" stroke="#000000" points="129,-537.5 129,-537.5 222,-537.5 222,-537.5 129,-537.5"/>
</g>
<!-- initial -->
<g id="node1" class="node">
<title>initial</title>
<ellipse fill="#000000" stroke="#000000" stroke-width="2" cx="1630" cy="-499" rx="5.5" ry="5.5"/>
</g>
<!-- APP -->
<g id="node2" class="node">
<title>APP</title>
<polygon fill="#ffffff" stroke="transparent" stroke-width="2" points="1036,-428 928,-428 928,-382 1036,-382 1036,-428"/>
<text text-anchor="start" x="969.9958" y="-411.2" font-family="Helvetica,sans-Serif" font-size="12.00" fill="#000000">APP</text>
<text text-anchor="start" x="933.985" y="-391.2" font-family="Helvetica,sans-Serif" font-size="12.00" fill="#000000">entry/ onEntryApp</text>
<polygon fill="#000000" stroke="#000000" points="928,-405 928,-405 1036,-405 1036,-405 928,-405"/>
<path fill="none" stroke="#000000" stroke-width="2" d="M941,-383C941,-383 1023,-383 1023,-383 1029,-383 1035,-389 1035,-395 1035,-395 1035,-415 1035,-415 1035,-421 1029,-427 1023,-427 1023,-427 941,-427 941,-427 935,-427 929,-421 929,-415 929,-415 929,-395 929,-395 929,-389 935,-383 941,-383"/>
</g>
<!-- initial&#45;&gt;APP -->
<g id="edge1" class="edge">
<title>initial&#45;&gt;APP</title>
<path fill="none" stroke="#000000" d="M1626.7272,-494.369C1618.7963,-483.5777 1597.3258,-456.8536 1572,-446 1524.6981,-425.7283 1189.6353,-412.0622 1046.5341,-407.0882"/>
<polygon fill="#000000" stroke="#000000" points="1046.2734,-403.5773 1036.1589,-406.7312 1046.0326,-410.5731 1046.2734,-403.5773"/>
<text text-anchor="middle" x="1591.3895" y="-449" font-family="Helvetica,sans-Serif" font-size="10.00" fill="#000000"> </text>
</g>
<!-- PLAYER -->
<!-- APP&#45;&gt;PLAYER -->
<g id="edge2" class="edge">
<title>APP&#45;&gt;PLAYER</title>
<path fill="none" stroke="#000000" d="M927.7773,-407.4512C866.7988,-411.3374 765.3418,-421.2202 681.533,-446 669.5088,-449.5552 667.3569,-452.6856 656,-458 627.3097,-471.4254 593.3168,-487.2357 577.2695,-494.6936"/>
<polygon fill="#000000" stroke="#000000" points="580.7058,-486.4416 576,-495.9343 585.5984,-491.448 580.7058,-486.4416"/>
<text text-anchor="start" x="681" y="-449" font-family="Helvetica,sans-Serif" font-size="10.00" fill="#000000">player/START_PLAYBACK &#160;&#160;</text>
</g>
<!-- SWITCHING -->
<g id="node3" class="node">
<title>SWITCHING</title>
<polygon fill="#ffffff" stroke="transparent" stroke-width="2" points="1221,-522 1141,-522 1141,-476 1221,-476 1221,-522"/>
<text text-anchor="start" x="1146.6734" y="-505.2" font-family="Helvetica,sans-Serif" font-size="12.00" fill="#000000">SWITCHING</text>
<text text-anchor="start" x="1147" y="-485.2" font-family="Helvetica,sans-Serif" font-size="12.00" fill="#000000">doSwitch</text>
<polygon fill="#000000" stroke="#000000" points="1141,-499 1141,-499 1221,-499 1221,-499 1141,-499"/>
<path fill="none" stroke="#000000" stroke-width="2" d="M1154,-477C1154,-477 1208,-477 1208,-477 1214,-477 1220,-483 1220,-489 1220,-489 1220,-509 1220,-509 1220,-515 1214,-521 1208,-521 1208,-521 1154,-521 1154,-521 1148,-521 1142,-515 1142,-509 1142,-509 1142,-489 1142,-489 1142,-483 1148,-477 1154,-477"/>
</g>
<!-- SWITCHING&#45;&gt;APP -->
<g id="edge7" class="edge">
<title>SWITCHING&#45;&gt;APP</title>
<path fill="none" stroke="#000000" d="M1174.7191,-475.9785C1170.7138,-465.3952 1164.4514,-453.5452 1155,-446 1138.1391,-432.5397 1088.106,-421.5541 1046.1568,-414.3542"/>
<polygon fill="#000000" stroke="#000000" points="1046.6853,-410.8941 1036.2449,-412.6963 1045.5304,-417.7982 1046.6853,-410.8941"/>
<text text-anchor="start" x="1165" y="-449" font-family="Helvetica,sans-Serif" font-size="10.00" fill="#000000">player/CLOSE_PLAYER/doCloseFromSwitching &#160;&#160;</text>
</g>
<!-- SWITCHING&#45;&gt;APP -->
<g id="edge8" class="edge">
<title>SWITCHING&#45;&gt;APP</title>
<path fill="none" stroke="#000000" d="M1221.0986,-495.55C1289.0308,-488.9294 1417.1554,-472.6849 1393,-446 1370.2149,-420.8288 1156.1966,-410.4614 1046.3672,-406.7704"/>
<polygon fill="#000000" stroke="#000000" points="1046.1828,-403.2626 1036.0737,-406.4338 1045.9539,-410.2589 1046.1828,-403.2626"/>
<text text-anchor="start" x="1395" y="-449" font-family="Helvetica,sans-Serif" font-size="10.00" fill="#000000">player/ERROR/showErrorNotification &#160;&#160;</text>
</g>
<!-- SWITCHING&#45;&gt;PLAYER -->
<g id="edge9" class="edge">
<title>SWITCHING&#45;&gt;PLAYER</title>
<path fill="none" stroke="#000000" d="M1140.9014,-499C1016.9972,-499 644.5989,-499 578.189,-499"/>
<polygon fill="#000000" stroke="#000000" points="586.0002,-495.5005 576,-499 585.9998,-502.5005 586.0002,-495.5005"/>
<text text-anchor="start" x="789.7665" y="-505" font-family="Helvetica,sans-Serif" font-size="10.00" fill="#000000">player/START_PLAYBACK &#160;&#160;</text>
</g>
<!-- PLAYER&#45;&gt;APP -->
<g id="edge3" class="edge">
<title>PLAYER&#45;&gt;APP</title>
<path fill="none" stroke="#000000" d="M575.9977,-498.4419C606.9989,-496.1154 721.9827,-485.9718 812,-458 824.0578,-454.2532 825.9184,-450.4067 837.751,-446 863.5978,-436.3742 892.7548,-427.694 918.0563,-420.8252"/>
<polygon fill="#000000" stroke="#000000" points="919.1564,-424.154 927.9115,-418.1876 917.3466,-417.392 919.1564,-424.154"/>
<text text-anchor="start" x="837" y="-449" font-family="Helvetica,sans-Serif" font-size="10.00" fill="#000000">player/CLOSE_PLAYER &#160;&#160;</text>
</g>
<!-- PLAYER&#45;&gt;APP -->
<g id="edge4" class="edge">
<title>PLAYER&#45;&gt;APP</title>
<path fill="none" stroke="#000000" d="M575.9964,-498.6166C628.5762,-496.0357 923.6488,-480.6109 956,-458 963.2454,-452.936 968.56,-445.2682 972.4223,-437.3259"/>
<polygon fill="#000000" stroke="#000000" points="975.6866,-438.5918 976.3179,-428.0158 969.2291,-435.8898 975.6866,-438.5918"/>
<text text-anchor="start" x="966" y="-449" font-family="Helvetica,sans-Serif" font-size="10.00" fill="#000000">player/ERROR/showErrorNotification &#160;&#160;</text>
</g>
<!-- PLAYER&#45;&gt;APP -->
<g id="edge6" class="edge">
<title>PLAYER&#45;&gt;APP</title>
<path fill="none" stroke="#000000" d="M575.9967,-458.7139C578.4845,-453.8392 581.7386,-449.3938 585.993,-446 611.3218,-425.7951 811.9952,-413.1926 917.5641,-407.8953"/>
<polygon fill="#000000" stroke="#000000" points="917.9689,-411.3797 927.784,-407.3904 917.6234,-404.3882 917.9689,-411.3797"/>
<text text-anchor="start" x="586" y="-449" font-family="Helvetica,sans-Serif" font-size="10.00" fill="#000000">player/NEXT &#160;&#160;</text>
</g>
<!-- PLAYER&#45;&gt;SWITCHING -->
<g id="edge5" class="edge">
<title>PLAYER&#45;&gt;SWITCHING</title>
<path fill="none" stroke="#000000" d="M575.9989,-499C634.3359,-499 995.8164,-499 1130.4985,-499"/>
<polygon fill="#000000" stroke="#000000" points="1130.9014,-502.5001 1140.9014,-499 1130.9013,-495.5001 1130.9014,-502.5001"/>
<text text-anchor="start" x="803.94" y="-505" font-family="Helvetica,sans-Serif" font-size="10.00" fill="#000000">player/NEXT [isNext] &#160;&#160;</text>
</g>
<!-- PLAYER.PLAYBACK -->
<!-- PLAYER.PLAYBACK.initial -->
<g id="node6" class="node">
<title>PLAYER.PLAYBACK.initial</title>
<ellipse fill="#000000" stroke="#000000" stroke-width="2" cx="420" cy="-499" rx="5.5" ry="5.5"/>
</g>
<!-- PLAYER.PLAYBACK.PLAYING -->
<g id="node7" class="node">
<title>PLAYER.PLAYBACK.PLAYING</title>
<polygon fill="#ffffff" stroke="transparent" stroke-width="2" points="457,-258 383,-258 383,-222 457,-222 457,-258"/>
<text text-anchor="start" x="393.9942" y="-236.2" font-family="Helvetica,sans-Serif" font-size="12.00" fill="#000000">PLAYING</text>
<path fill="none" stroke="#000000" stroke-width="2" d="M395.3333,-223C395.3333,-223 444.6667,-223 444.6667,-223 450.3333,-223 456,-228.6667 456,-234.3333 456,-234.3333 456,-245.6667 456,-245.6667 456,-251.3333 450.3333,-257 444.6667,-257 444.6667,-257 395.3333,-257 395.3333,-257 389.6667,-257 384,-251.3333 384,-245.6667 384,-245.6667 384,-234.3333 384,-234.3333 384,-228.6667 389.6667,-223 395.3333,-223"/>
</g>
<!-- PLAYER.PLAYBACK.initial&#45;&gt;PLAYER.PLAYBACK.PLAYING -->
<g id="edge10" class="edge">
<title>PLAYER.PLAYBACK.initial&#45;&gt;PLAYER.PLAYBACK.PLAYING</title>
<path fill="none" stroke="#000000" d="M420,-493.4905C420,-478.9991 420,-438.6181 420,-405 420,-405 420,-405 420,-295.5 420,-286.7318 420,-277.1843 420,-268.5196"/>
<polygon fill="#000000" stroke="#000000" points="423.5001,-268.5 420,-258.5 416.5001,-268.5 423.5001,-268.5"/>
<text text-anchor="middle" x="421.3895" y="-336" font-family="Helvetica,sans-Serif" font-size="10.00" fill="#000000"> </text>
</g>
<!-- PLAYER.PLAYBACK.PAUSED -->
<g id="node8" class="node">
<title>PLAYER.PLAYBACK.PAUSED</title>
<polygon fill="#ffffff" stroke="transparent" stroke-width="2" points="472.5,-60 401.5,-60 401.5,-24 472.5,-24 472.5,-60"/>
<text text-anchor="start" x="412.8316" y="-38.2" font-family="Helvetica,sans-Serif" font-size="12.00" fill="#000000">PAUSED</text>
<path fill="none" stroke="#000000" stroke-width="2" d="M413.8333,-25C413.8333,-25 460.1667,-25 460.1667,-25 465.8333,-25 471.5,-30.6667 471.5,-36.3333 471.5,-36.3333 471.5,-47.6667 471.5,-47.6667 471.5,-53.3333 465.8333,-59 460.1667,-59 460.1667,-59 413.8333,-59 413.8333,-59 408.1667,-59 402.5,-53.3333 402.5,-47.6667 402.5,-47.6667 402.5,-36.3333 402.5,-36.3333 402.5,-30.6667 408.1667,-25 413.8333,-25"/>
</g>
<!-- PLAYER.PLAYBACK.PLAYING&#45;&gt;PLAYER.PLAYBACK.PAUSED -->
<g id="edge11" class="edge">
<title>PLAYER.PLAYBACK.PLAYING&#45;&gt;PLAYER.PLAYBACK.PAUSED</title>
<path fill="none" stroke="#000000" d="M392.9139,-221.8641C382.0261,-212.2784 372,-199.4048 372,-184.5 372,-184.5 372,-184.5 372,-97.5 372,-83.0323 381.4285,-71.5344 393.1036,-62.8428"/>
<polygon fill="#000000" stroke="#000000" points="395.0794,-65.7321 401.4571,-57.2719 391.1955,-59.9084 395.0794,-65.7321"/>
<text text-anchor="start" x="372" y="-138" font-family="Helvetica,sans-Serif" font-size="10.00" fill="#000000">player/PAUSE &#160;&#160;</text>
</g>
<!-- PLAYER.PLAYBACK.PAUSED&#45;&gt;PLAYER.PLAYBACK.PLAYING -->
<g id="edge12" class="edge">
<title>PLAYER.PLAYBACK.PAUSED&#45;&gt;PLAYER.PLAYBACK.PLAYING</title>
<path fill="none" stroke="#000000" d="M466.0754,-60.0216C477.5286,-69.502 488,-82.3205 488,-97.5 488,-184.5 488,-184.5 488,-184.5 488,-199.3576 478.1363,-210.9483 465.9223,-219.6055"/>
<polygon fill="#000000" stroke="#000000" points="463.7628,-216.8301 457.1833,-225.1344 467.5054,-222.7456 463.7628,-216.8301"/>
<text text-anchor="start" x="488" y="-138" font-family="Helvetica,sans-Serif" font-size="10.00" fill="#000000">player/PLAY &#160;&#160;</text>
</g>
<!-- PLAYER.CONFIRM -->
<!-- PLAYER.CONFIRM.initial -->
<g id="node10" class="node">
<title>PLAYER.CONFIRM.initial</title>
<ellipse fill="#000000" stroke="#000000" stroke-width="2" cx="141" cy="-499" rx="5.5" ry="5.5"/>
</g>
<!-- PLAYER.CONFIRM.CONFIRM_HIDDEN -->
<g id="node11" class="node">
<title>PLAYER.CONFIRM.CONFIRM_HIDDEN</title>
<polygon fill="#ffffff" stroke="transparent" stroke-width="2" points="206,-258 76,-258 76,-222 206,-222 206,-258"/>
<text text-anchor="start" x="86.6784" y="-236.2" font-family="Helvetica,sans-Serif" font-size="12.00" fill="#000000">CONFIRM_HIDDEN</text>
<path fill="none" stroke="#000000" stroke-width="2" d="M88.3333,-223C88.3333,-223 193.6667,-223 193.6667,-223 199.3333,-223 205,-228.6667 205,-234.3333 205,-234.3333 205,-245.6667 205,-245.6667 205,-251.3333 199.3333,-257 193.6667,-257 193.6667,-257 88.3333,-257 88.3333,-257 82.6667,-257 77,-251.3333 77,-245.6667 77,-245.6667 77,-234.3333 77,-234.3333 77,-228.6667 82.6667,-223 88.3333,-223"/>
</g>
<!-- PLAYER.CONFIRM.initial&#45;&gt;PLAYER.CONFIRM.CONFIRM_HIDDEN -->
<g id="edge13" class="edge">
<title>PLAYER.CONFIRM.initial&#45;&gt;PLAYER.CONFIRM.CONFIRM_HIDDEN</title>
<path fill="none" stroke="#000000" d="M141,-493.4905C141,-478.9991 141,-438.6181 141,-405 141,-405 141,-405 141,-295.5 141,-286.7318 141,-277.1843 141,-268.5196"/>
<polygon fill="#000000" stroke="#000000" points="144.5001,-268.5 141,-258.5 137.5001,-268.5 144.5001,-268.5"/>
<text text-anchor="middle" x="142.3895" y="-336" font-family="Helvetica,sans-Serif" font-size="10.00" fill="#000000"> </text>
</g>
<!-- PLAYER.CONFIRM.CONFIRM_VISIBLE -->
<g id="node12" class="node">
<title>PLAYER.CONFIRM.CONFIRM_VISIBLE</title>
<polygon fill="#ffffff" stroke="transparent" stroke-width="2" points="216,-60 86,-60 86,-24 216,-24 216,-60"/>
<text text-anchor="start" x="96.997" y="-38.2" font-family="Helvetica,sans-Serif" font-size="12.00" fill="#000000">CONFIRM_VISIBLE</text>
<path fill="none" stroke="#000000" stroke-width="2" d="M98.3333,-25C98.3333,-25 203.6667,-25 203.6667,-25 209.3333,-25 215,-30.6667 215,-36.3333 215,-36.3333 215,-47.6667 215,-47.6667 215,-53.3333 209.3333,-59 203.6667,-59 203.6667,-59 98.3333,-59 98.3333,-59 92.6667,-59 87,-53.3333 87,-47.6667 87,-47.6667 87,-36.3333 87,-36.3333 87,-30.6667 92.6667,-25 98.3333,-25"/>
</g>
<!-- PLAYER.CONFIRM.CONFIRM_HIDDEN&#45;&gt;PLAYER.CONFIRM.CONFIRM_VISIBLE -->
<g id="edge14" class="edge">
<title>PLAYER.CONFIRM.CONFIRM_HIDDEN&#45;&gt;PLAYER.CONFIRM.CONFIRM_VISIBLE</title>
<path fill="none" stroke="#000000" d="M75.7979,-223.4192C59.2206,-215.0971 46,-202.7418 46,-184.5 46,-184.5 46,-184.5 46,-97.5 46,-78.6247 59.4264,-66.1519 76.6769,-57.9161"/>
<polygon fill="#000000" stroke="#000000" points="78.1428,-61.0965 85.9955,-53.9841 75.4215,-54.6471 78.1428,-61.0965"/>
<text text-anchor="start" x="46" y="-138" font-family="Helvetica,sans-Serif" font-size="10.00" fill="#000000">player/SHOW_CONFIRM &#160;&#160;</text>
</g>
<!-- PLAYER.CONFIRM.CONFIRM_VISIBLE&#45;&gt;PLAYER.CONFIRM.CONFIRM_HIDDEN -->
<g id="edge15" class="edge">
<title>PLAYER.CONFIRM.CONFIRM_VISIBLE&#45;&gt;PLAYER.CONFIRM.CONFIRM_HIDDEN</title>
<path fill="none" stroke="#000000" d="M187.8912,-60.1971C200.7375,-69.2888 212,-81.7506 212,-97.5 212,-184.5 212,-184.5 212,-184.5 212,-197.5909 204.4153,-208.0533 194.204,-216.207"/>
<polygon fill="#000000" stroke="#000000" points="192.1342,-213.3837 185.9654,-221.9974 196.1594,-219.1106 192.1342,-213.3837"/>
<text text-anchor="start" x="212" y="-138" font-family="Helvetica,sans-Serif" font-size="10.00" fill="#000000">player/HIDE_CONFIRM &#160;&#160;</text>
</g>
</g>
</svg>
