<?xml version="1.0" encoding="UTF-8" standalone="no"?>
<!DOCTYPE svg PUBLIC "-//W3C//DTD SVG 1.1//EN"
 "http://www.w3.org/Graphics/SVG/1.1/DTD/svg11.dtd">
<!-- Generated by graphviz version 2.40.1 (20161225.0304)
 -->
<!-- Title: state transitions Pages: 1 -->
<svg width="1179pt" height="987pt"
 viewBox="0.00 0.00 1178.50 986.50" xmlns="http://www.w3.org/2000/svg" xmlns:xlink="http://www.w3.org/1999/xlink">
<g id="graph0" class="graph" transform="scale(1 1) rotate(0) translate(4 982.5)">
<title>state transitions</title>
<polygon fill="#ffffff" stroke="transparent" points="-4,4 -4,-982.5 1174.5,-982.5 1174.5,4 -4,4"/>
<g id="clust1" class="cluster">
<title>cluster_PLAYER</title>
<path fill="none" stroke="#000000" stroke-width="2" d="M20,-8C20,-8 540,-8 540,-8 546,-8 552,-14 552,-20 552,-20 552,-958.5 552,-958.5 552,-964.5 546,-970.5 540,-970.5 540,-970.5 20,-970.5 20,-970.5 14,-970.5 8,-964.5 8,-958.5 8,-958.5 8,-20 8,-20 8,-14 14,-8 20,-8"/>
<text text-anchor="start" x="256.3276" y="-951.7" font-family="Helvetica,sans-Serif" font-size="12.00" fill="#000000">PLAYER</text>
<text text-anchor="start" x="243.9934" y="-931.7" font-family="Helvetica,sans-Serif" font-size="12.00" fill="#000000">startPlayback</text>
<polygon fill="#000000" stroke="#000000" points="240,-945.5 240,-945.5 320,-945.5 320,-945.5 240,-945.5"/>
</g>
<g id="clust2" class="cluster">
<title>cluster_PLAYER.parallel</title>
<path fill="none" stroke="#000000" stroke-width="2" d="M28,-16C28,-16 524,-16 524,-16 530,-16 536,-22 536,-28 536,-28 536,-900.5 536,-900.5 536,-906.5 530,-912.5 524,-912.5 524,-912.5 28,-912.5 28,-912.5 22,-912.5 16,-906.5 16,-900.5 16,-900.5 16,-28 16,-28 16,-22 22,-16 28,-16"/>
<text text-anchor="start" x="252.8276" y="-893.7" font-family="Helvetica,sans-Serif" font-size="12.00" fill="#000000">PLAYER</text>
</g>
<g id="clust3" class="cluster">
<title>cluster_PLAYER.PLAYBACK</title>
<polygon fill="none" stroke="#000000" stroke-dasharray="5,2" points="334,-24 334,-854.5 528,-854.5 528,-24 334,-24"/>
<text text-anchor="start" x="399.8248" y="-835.7" font-family="Helvetica,sans-Serif" font-size="12.00" fill="#000000">PLAYBACK</text>
</g>
<g id="clust4" class="cluster">
<title>cluster_PLAYER.CONFIRM</title>
<polygon fill="none" stroke="#000000" stroke-dasharray="5,2" points="32,-24 32,-874.5 326,-874.5 326,-24 32,-24"/>
<text text-anchor="start" x="151.5082" y="-855.7" font-family="Helvetica,sans-Serif" font-size="12.00" fill="#000000">CONFIRM</text>
<text text-anchor="start" x="136.501" y="-835.7" font-family="Helvetica,sans-Serif" font-size="12.00" fill="#000000">exit/ exitConfirm</text>
<polygon fill="#000000" stroke="#000000" points="133,-849.5 133,-849.5 226,-849.5 226,-849.5 133,-849.5"/>
</g>
<!-- initial -->
<g id="node1" class="node">
<title>initial</title>
<ellipse fill="#000000" stroke="#000000" stroke-width="2" cx="1165" cy="-811" rx="5.5" ry="5.5"/>
</g>
<!-- APP -->
<g id="node2" class="node">
<title>APP</title>
<polygon fill="#ffffff" stroke="transparent" stroke-width="2" points="914,-740 806,-740 806,-694 914,-694 914,-740"/>
<text text-anchor="start" x="847.9958" y="-723.2" font-family="Helvetica,sans-Serif" font-size="12.00" fill="#000000">APP</text>
<text text-anchor="start" x="811.985" y="-703.2" font-family="Helvetica,sans-Serif" font-size="12.00" fill="#000000">entry/ onEntryApp</text>
<polygon fill="#000000" stroke="#000000" points="806,-717 806,-717 914,-717 914,-717 806,-717"/>
<path fill="none" stroke="#000000" stroke-width="2" d="M819,-695C819,-695 901,-695 901,-695 907,-695 913,-701 913,-707 913,-707 913,-727 913,-727 913,-733 907,-739 901,-739 901,-739 819,-739 819,-739 813,-739 807,-733 807,-727 807,-727 807,-707 807,-707 807,-701 813,-695 819,-695"/>
</g>
<!-- initial&#45;&gt;APP -->
<g id="edge1" class="edge">
<title>initial&#45;&gt;APP</title>
<path fill="none" stroke="#000000" d="M1162.8806,-805.876C1158.0964,-795.0156 1145.3466,-769.7201 1126,-758 1093.0236,-738.0229 992.0233,-726.7639 924.4051,-721.2846"/>
<polygon fill="#000000" stroke="#000000" points="924.5132,-717.7824 914.2692,-720.486 923.9634,-724.7607 924.5132,-717.7824"/>
<text text-anchor="middle" x="1140.3895" y="-761" font-family="Helvetica,sans-Serif" font-size="10.00" fill="#000000"> </text>
</g>
<!-- PLAYER -->
<!-- APP&#45;&gt;PLAYER -->
<g id="edge2" class="edge">
<title>APP&#45;&gt;PLAYER</title>
<path fill="none" stroke="#000000" d="M805.5726,-721.781C760.8682,-727.0001 696.5158,-737.5155 643.54,-758 634.0345,-761.6755 632.8836,-765.0055 624,-770 598.96,-784.0777 568.571,-799.1069 553.4693,-806.4418"/>
<polygon fill="#000000" stroke="#000000" points="556.5099,-798.3507 552,-807.938 561.5042,-803.2556 556.5099,-798.3507"/>
<text text-anchor="start" x="643" y="-761" font-family="Helvetica,sans-Serif" font-size="10.00" fill="#000000">player/SHOW_PLAYER &#160;&#160;</text>
</g>
<!-- SWITCHING -->
<g id="node3" class="node">
<title>SWITCHING</title>
<polygon fill="#ffffff" stroke="transparent" stroke-width="2" points="997,-834 909,-834 909,-788 997,-788 997,-834"/>
<text text-anchor="start" x="918.6734" y="-817.2" font-family="Helvetica,sans-Serif" font-size="12.00" fill="#000000">SWITCHING</text>
<text text-anchor="start" x="914.6666" y="-797.2" font-family="Helvetica,sans-Serif" font-size="12.00" fill="#000000">switchTimeout</text>
<polygon fill="#000000" stroke="#000000" points="909,-811 909,-811 997,-811 997,-811 909,-811"/>
<path fill="none" stroke="#000000" stroke-width="2" d="M922,-789C922,-789 984,-789 984,-789 990,-789 996,-795 996,-801 996,-801 996,-821 996,-821 996,-827 990,-833 984,-833 984,-833 922,-833 922,-833 916,-833 910,-827 910,-821 910,-821 910,-801 910,-801 910,-795 916,-789 922,-789"/>
</g>
<!-- SWITCHING&#45;&gt;APP -->
<g id="edge7" class="edge">
<title>SWITCHING&#45;&gt;APP</title>
<path fill="none" stroke="#000000" d="M949.1086,-787.9974C946.4769,-777.918 942.1278,-766.4804 935,-758 931.3598,-753.6691 927.1405,-749.7188 922.5952,-746.1318"/>
<polygon fill="#000000" stroke="#000000" points="924.2853,-743.0375 914.1163,-740.064 920.2115,-748.73 924.2853,-743.0375"/>
<text text-anchor="start" x="942" y="-761" font-family="Helvetica,sans-Serif" font-size="10.00" fill="#000000">player/STOP/doStop &#160;&#160;</text>
</g>
<!-- SWITCHING&#45;&gt;APP -->
<g id="edge8" class="edge">
<title>SWITCHING&#45;&gt;APP</title>
<path fill="none" stroke="#000000" d="M997.1077,-802.1045C1028.4329,-793.7624 1062.1342,-779.3472 1045,-758 1029.9402,-739.2372 971.6963,-728.5305 924.5317,-722.7992"/>
<polygon fill="#000000" stroke="#000000" points="924.6869,-719.2938 914.3499,-721.6167 923.8794,-726.2471 924.6869,-719.2938"/>
<text text-anchor="start" x="1049" y="-761" font-family="Helvetica,sans-Serif" font-size="10.00" fill="#000000">player/ERROR &#160;&#160;</text>
</g>
<!-- SWITCHING&#45;&gt;PLAYER -->
<g id="edge9" class="edge">
<title>SWITCHING&#45;&gt;PLAYER</title>
<path fill="none" stroke="#000000" d="M908.7043,-811C815.3619,-811 603.0186,-811 554.1565,-811"/>
<polygon fill="#000000" stroke="#000000" points="562.0002,-807.5005 552,-811 561.9998,-814.5005 562.0002,-807.5005"/>
<text text-anchor="start" x="669.27" y="-817" font-family="Helvetica,sans-Serif" font-size="10.00" fill="#000000">player/SHOW_PLAYER &#160;&#160;</text>
</g>
<!-- PLAYER&#45;&gt;APP -->
<g id="edge3" class="edge">
<title>PLAYER&#45;&gt;APP</title>
<path fill="none" stroke="#000000" d="M551.997,-810.443C580.65,-808.2449 680.5345,-798.8334 757,-770 766.8543,-766.2842 768.1703,-763.0117 777.433,-758 785.6863,-753.5344 794.4902,-748.9637 803.1596,-744.5702"/>
<polygon fill="#000000" stroke="#000000" points="804.7538,-747.6861 812.1165,-740.0677 801.6099,-741.4319 804.7538,-747.6861"/>
<text text-anchor="start" x="777" y="-761" font-family="Helvetica,sans-Serif" font-size="10.00" fill="#000000">player/STOP &#160;&#160;</text>
</g>
<!-- PLAYER&#45;&gt;APP -->
<g id="edge4" class="edge">
<title>PLAYER&#45;&gt;APP</title>
<path fill="none" stroke="#000000" d="M551.9981,-810.3997C597.1396,-806.9466 818.8619,-789.099 842,-770 848.2179,-764.8675 852.2961,-757.4948 854.9684,-749.8731"/>
<polygon fill="#000000" stroke="#000000" points="858.3411,-750.8084 857.6567,-740.2357 851.5985,-748.9275 858.3411,-750.8084"/>
<text text-anchor="start" x="851" y="-761" font-family="Helvetica,sans-Serif" font-size="10.00" fill="#000000">player/ERROR &#160;&#160;</text>
</g>
<!-- PLAYER&#45;&gt;APP -->
<g id="edge6" class="edge">
<title>PLAYER&#45;&gt;APP</title>
<path fill="none" stroke="#000000" d="M551.9979,-762.4908C553.1754,-760.8733 554.5014,-759.3652 555.993,-758 573.3414,-742.1225 711.4759,-728.6365 795.4596,-721.8006"/>
<polygon fill="#000000" stroke="#000000" points="795.9853,-725.2697 805.673,-720.9803 795.4248,-718.2922 795.9853,-725.2697"/>
<text text-anchor="start" x="556" y="-761" font-family="Helvetica,sans-Serif" font-size="10.00" fill="#000000">player/NEXT &#160;&#160;</text>
</g>
<!-- PLAYER&#45;&gt;SWITCHING -->
<g id="edge5" class="edge">
<title>PLAYER&#45;&gt;SWITCHING</title>
<path fill="none" stroke="#000000" d="M551.996,-811C594.85,-811 799.0854,-811 898.4514,-811"/>
<polygon fill="#000000" stroke="#000000" points="898.7043,-814.5001 908.7043,-811 898.7043,-807.5001 898.7043,-814.5001"/>
<text text-anchor="start" x="675.94" y="-817" font-family="Helvetica,sans-Serif" font-size="10.00" fill="#000000">player/NEXT [isNext] &#160;&#160;</text>
</g>
<!-- PLAYER.parallel -->
<!-- PLAYER.PLAYBACK -->
<!-- PLAYER.PLAYBACK.initial -->
<g id="node7" class="node">
<title>PLAYER.PLAYBACK.initial</title>
<ellipse fill="#000000" stroke="#000000" stroke-width="2" cx="409" cy="-811" rx="5.5" ry="5.5"/>
</g>
<!-- PLAYER.PLAYBACK.PLAYING -->
<g id="node8" class="node">
<title>PLAYER.PLAYBACK.PLAYING</title>
<polygon fill="#ffffff" stroke="transparent" stroke-width="2" points="446,-418 372,-418 372,-382 446,-382 446,-418"/>
<text text-anchor="start" x="382.9942" y="-396.2" font-family="Helvetica,sans-Serif" font-size="12.00" fill="#000000">PLAYING</text>
<path fill="none" stroke="#000000" stroke-width="2" d="M384.3333,-383C384.3333,-383 433.6667,-383 433.6667,-383 439.3333,-383 445,-388.6667 445,-394.3333 445,-394.3333 445,-405.6667 445,-405.6667 445,-411.3333 439.3333,-417 433.6667,-417 433.6667,-417 384.3333,-417 384.3333,-417 378.6667,-417 373,-411.3333 373,-405.6667 373,-405.6667 373,-394.3333 373,-394.3333 373,-388.6667 378.6667,-383 384.3333,-383"/>
</g>
<!-- PLAYER.PLAYBACK.initial&#45;&gt;PLAYER.PLAYBACK.PLAYING -->
<g id="edge10" class="edge">
<title>PLAYER.PLAYBACK.initial&#45;&gt;PLAYER.PLAYBACK.PLAYING</title>
<path fill="none" stroke="#000000" d="M409,-805.4905C409,-790.9991 409,-750.6181 409,-717 409,-717 409,-717 409,-455.5 409,-446.7318 409,-437.1843 409,-428.5196"/>
<polygon fill="#000000" stroke="#000000" points="412.5001,-428.5 409,-418.5 405.5001,-428.5 412.5001,-428.5"/>
<text text-anchor="middle" x="410.3895" y="-572" font-family="Helvetica,sans-Serif" font-size="10.00" fill="#000000"> </text>
</g>
<!-- PLAYER.PLAYBACK.PAUSED -->
<g id="node9" class="node">
<title>PLAYER.PLAYBACK.PAUSED</title>
<polygon fill="#ffffff" stroke="transparent" stroke-width="2" points="452.5,-68 381.5,-68 381.5,-32 452.5,-32 452.5,-68"/>
<text text-anchor="start" x="392.8316" y="-46.2" font-family="Helvetica,sans-Serif" font-size="12.00" fill="#000000">PAUSED</text>
<path fill="none" stroke="#000000" stroke-width="2" d="M393.8333,-33C393.8333,-33 440.1667,-33 440.1667,-33 445.8333,-33 451.5,-38.6667 451.5,-44.3333 451.5,-44.3333 451.5,-55.6667 451.5,-55.6667 451.5,-61.3333 445.8333,-67 440.1667,-67 440.1667,-67 393.8333,-67 393.8333,-67 388.1667,-67 382.5,-61.3333 382.5,-55.6667 382.5,-55.6667 382.5,-44.3333 382.5,-44.3333 382.5,-38.6667 388.1667,-33 393.8333,-33"/>
</g>
<!-- PLAYER.PLAYBACK.PLAYING&#45;&gt;PLAYER.PLAYBACK.PAUSED -->
<g id="edge11" class="edge">
<title>PLAYER.PLAYBACK.PLAYING&#45;&gt;PLAYER.PLAYBACK.PAUSED</title>
<path fill="none" stroke="#000000" d="M378.4768,-381.9809C366.6953,-372.5775 356,-359.8216 356,-344.5 356,-344.5 356,-344.5 356,-105.5 356,-92.7338 363.4,-82.1277 373.0451,-73.7257"/>
<polygon fill="#000000" stroke="#000000" points="375.3848,-76.3412 381.1632,-67.4608 371.1082,-70.7995 375.3848,-76.3412"/>
<text text-anchor="start" x="356" y="-222" font-family="Helvetica,sans-Serif" font-size="10.00" fill="#000000">player/PAUSE &#160;&#160;</text>
</g>
<!-- PLAYER.PLAYBACK.PAUSED&#45;&gt;PLAYER.PLAYBACK.PLAYING -->
<g id="edge12" class="edge">
<title>PLAYER.PLAYBACK.PAUSED&#45;&gt;PLAYER.PLAYBACK.PLAYING</title>
<path fill="none" stroke="#000000" d="M438.3257,-68.3831C447.4307,-78.2902 456,-91.3682 456,-105.5 456,-344.5 456,-344.5 456,-344.5 456,-355.907 450.1465,-366.1749 442.571,-374.6871"/>
<polygon fill="#000000" stroke="#000000" points="439.8554,-372.4524 435.2483,-381.9931 444.7995,-377.4078 439.8554,-372.4524"/>
<text text-anchor="start" x="456" y="-222" font-family="Helvetica,sans-Serif" font-size="10.00" fill="#000000">player/PLAY &#160;&#160;</text>
</g>
<!-- PLAYER.CONFIRM -->
<!-- PLAYER.CONFIRM.initial -->
<g id="node11" class="node">
<title>PLAYER.CONFIRM.initial</title>
<ellipse fill="#000000" stroke="#000000" stroke-width="2" cx="153" cy="-811" rx="5.5" ry="5.5"/>
</g>
<!-- PLAYER.CONFIRM.CONFIRM_HIDDEN -->
<g id="node12" class="node">
<title>PLAYER.CONFIRM.CONFIRM_HIDDEN</title>
<polygon fill="#ffffff" stroke="transparent" stroke-width="2" points="218,-418 88,-418 88,-382 218,-382 218,-418"/>
<text text-anchor="start" x="98.6784" y="-396.2" font-family="Helvetica,sans-Serif" font-size="12.00" fill="#000000">CONFIRM_HIDDEN</text>
<path fill="none" stroke="#000000" stroke-width="2" d="M100.3333,-383C100.3333,-383 205.6667,-383 205.6667,-383 211.3333,-383 217,-388.6667 217,-394.3333 217,-394.3333 217,-405.6667 217,-405.6667 217,-411.3333 211.3333,-417 205.6667,-417 205.6667,-417 100.3333,-417 100.3333,-417 94.6667,-417 89,-411.3333 89,-405.6667 89,-405.6667 89,-394.3333 89,-394.3333 89,-388.6667 94.6667,-383 100.3333,-383"/>
</g>
<!-- PLAYER.CONFIRM.initial&#45;&gt;PLAYER.CONFIRM.CONFIRM_HIDDEN -->
<g id="edge13" class="edge">
<title>PLAYER.CONFIRM.initial&#45;&gt;PLAYER.CONFIRM.CONFIRM_HIDDEN</title>
<path fill="none" stroke="#000000" d="M153,-805.4905C153,-790.9991 153,-750.6181 153,-717 153,-717 153,-717 153,-455.5 153,-446.7318 153,-437.1843 153,-428.5196"/>
<polygon fill="#000000" stroke="#000000" points="156.5001,-428.5 153,-418.5 149.5001,-428.5 156.5001,-428.5"/>
<text text-anchor="middle" x="154.3895" y="-572" font-family="Helvetica,sans-Serif" font-size="10.00" fill="#000000"> </text>
</g>
<!-- PLAYER.CONFIRM.CONFIRM_VISIBLE -->
<g id="node13" class="node">
<title>PLAYER.CONFIRM.CONFIRM_VISIBLE</title>
<polygon fill="#ffffff" stroke="transparent" stroke-width="2" points="220,-68 90,-68 90,-32 220,-32 220,-68"/>
<text text-anchor="start" x="100.997" y="-46.2" font-family="Helvetica,sans-Serif" font-size="12.00" fill="#000000">CONFIRM_VISIBLE</text>
<path fill="none" stroke="#000000" stroke-width="2" d="M102.3333,-33C102.3333,-33 207.6667,-33 207.6667,-33 213.3333,-33 219,-38.6667 219,-44.3333 219,-44.3333 219,-55.6667 219,-55.6667 219,-61.3333 213.3333,-67 207.6667,-67 207.6667,-67 102.3333,-67 102.3333,-67 96.6667,-67 91,-61.3333 91,-55.6667 91,-55.6667 91,-44.3333 91,-44.3333 91,-38.6667 96.6667,-33 102.3333,-33"/>
</g>
<!-- PLAYER.CONFIRM.CONFIRM_HIDDEN&#45;&gt;PLAYER.CONFIRM.CONFIRM_VISIBLE -->
<g id="edge14" class="edge">
<title>PLAYER.CONFIRM.CONFIRM_HIDDEN&#45;&gt;PLAYER.CONFIRM.CONFIRM_VISIBLE</title>
<path fill="none" stroke="#000000" d="M87.7933,-385.3639C69.2576,-377.1106 54,-364.3026 54,-344.5 54,-344.5 54,-344.5 54,-105.5 54,-88.2731 65.4252,-76.3559 80.5902,-68.1256"/>
<polygon fill="#000000" stroke="#000000" points="82.3708,-71.1543 89.8932,-63.6935 79.36,-64.8348 82.3708,-71.1543"/>
<text text-anchor="start" x="54" y="-222" font-family="Helvetica,sans-Serif" font-size="10.00" fill="#000000">player/SHOW_CONFIRM &#160;&#160;</text>
</g>
<!-- PLAYER.CONFIRM.CONFIRM_VISIBLE&#45;&gt;PLAYER.CONFIRM.CONFIRM_HIDDEN -->
<g id="edge15" class="edge">
<title>PLAYER.CONFIRM.CONFIRM_VISIBLE&#45;&gt;PLAYER.CONFIRM.CONFIRM_HIDDEN</title>
<path fill="none" stroke="#000000" d="M182.6504,-68.0177C193.765,-77.5765 204,-90.4615 204,-105.5 204,-344.5 204,-344.5 204,-344.5 204,-356.2404 197.7359,-366.5684 189.5984,-375.032"/>
<polygon fill="#000000" stroke="#000000" points="187.0481,-372.623 182.0754,-381.9784 191.7969,-377.7659 187.0481,-372.623"/>
<text text-anchor="start" x="204" y="-222" font-family="Helvetica,sans-Serif" font-size="10.00" fill="#000000">player/HIDE_CONFIRM &#160;&#160;</text>
</g>
</g>
</svg>
