<?xml version="1.0" encoding="UTF-8" standalone="no"?>
<!DOCTYPE svg PUBLIC "-//W3C//DTD SVG 1.1//EN"
 "http://www.w3.org/Graphics/SVG/1.1/DTD/svg11.dtd">
<!-- Generated by graphviz version 2.40.1 (20161225.0304)
 -->
<!-- Title: state transitions Pages: 1 -->
<svg width="364pt" height="543pt"
 viewBox="0.00 0.00 364.34 543.00" xmlns="http://www.w3.org/2000/svg" xmlns:xlink="http://www.w3.org/1999/xlink">
<g id="graph0" class="graph" transform="scale(1 1) rotate(0) translate(4 539)">
<title>state transitions</title>
<polygon fill="#ffffff" stroke="transparent" points="-4,4 -4,-539 360.34,-539 360.34,4 -4,4"/>
<g id="clust1" class="cluster">
<title>cluster_RED</title>
<path fill="none" stroke="#000000" stroke-width="2" d="M20,-8C20,-8 153,-8 153,-8 159,-8 165,-14 165,-20 165,-20 165,-515 165,-515 165,-521 159,-527 153,-527 153,-527 20,-527 20,-527 14,-527 8,-521 8,-515 8,-515 8,-20 8,-20 8,-14 14,-8 20,-8"/>
<text text-anchor="start" x="74.3358" y="-508.2" font-family="Helvetica,sans-Serif" font-size="12.00" fill="#000000">RED</text>
<text text-anchor="start" x="55.0074" y="-488.2" font-family="Helvetica,sans-Serif" font-size="12.00" fill="#000000">switchTimer</text>
<polygon fill="#000000" stroke="#000000" points="51.5,-502 51.5,-502 122.5,-502 122.5,-502 51.5,-502"/>
</g>
<!-- initial -->
<g id="node1" class="node">
<title>initial</title>
<ellipse fill="#000000" stroke="#000000" stroke-width="2" cx="284" cy="-463.5" rx="5.5" ry="5.5"/>
</g>
<!-- GREEN -->
<g id="node2" class="node">
<title>GREEN</title>
<polygon fill="#ffffff" stroke="transparent" stroke-width="2" points="315.5,-410 240.5,-410 240.5,-364 315.5,-364 315.5,-410"/>
<text text-anchor="start" x="257.167" y="-393.2" font-family="Helvetica,sans-Serif" font-size="12.00" fill="#000000">GREEN</text>
<text text-anchor="start" x="246.5074" y="-373.2" font-family="Helvetica,sans-Serif" font-size="12.00" fill="#000000">switchTimer</text>
<polygon fill="#000000" stroke="#000000" points="241,-387 241,-387 316,-387 316,-387 241,-387"/>
<path fill="none" stroke="#000000" stroke-width="2" d="M253.5,-365C253.5,-365 302.5,-365 302.5,-365 308.5,-365 314.5,-371 314.5,-377 314.5,-377 314.5,-397 314.5,-397 314.5,-403 308.5,-409 302.5,-409 302.5,-409 253.5,-409 253.5,-409 247.5,-409 241.5,-403 241.5,-397 241.5,-397 241.5,-377 241.5,-377 241.5,-371 247.5,-365 253.5,-365"/>
</g>
<!-- initial&#45;&gt;GREEN -->
<g id="edge1" class="edge">
<title>initial&#45;&gt;GREEN</title>
<path fill="none" stroke="#000000" d="M283.5685,-457.9983C282.9458,-450.0587 281.7459,-434.7605 280.619,-420.3919"/>
<polygon fill="#000000" stroke="#000000" points="284.0918,-419.9078 279.8206,-410.2121 277.1133,-420.4552 284.0918,-419.9078"/>
<text text-anchor="middle" x="283.3895" y="-431" font-family="Helvetica,sans-Serif" font-size="10.00" fill="#000000"> </text>
</g>
<!-- YELLOW -->
<g id="node3" class="node">
<title>YELLOW</title>
<polygon fill="#ffffff" stroke="transparent" stroke-width="2" points="281.5,-316 206.5,-316 206.5,-270 281.5,-270 281.5,-316"/>
<text text-anchor="start" x="219.4956" y="-299.2" font-family="Helvetica,sans-Serif" font-size="12.00" fill="#000000">YELLOW</text>
<text text-anchor="start" x="212.5074" y="-279.2" font-family="Helvetica,sans-Serif" font-size="12.00" fill="#000000">switchTimer</text>
<polygon fill="#000000" stroke="#000000" points="207,-293 207,-293 282,-293 282,-293 207,-293"/>
<path fill="none" stroke="#000000" stroke-width="2" d="M219.5,-271C219.5,-271 268.5,-271 268.5,-271 274.5,-271 280.5,-277 280.5,-283 280.5,-283 280.5,-303 280.5,-303 280.5,-309 274.5,-315 268.5,-315 268.5,-315 219.5,-315 219.5,-315 213.5,-315 207.5,-309 207.5,-303 207.5,-303 207.5,-283 207.5,-283 207.5,-277 213.5,-271 219.5,-271"/>
</g>
<!-- GREEN&#45;&gt;YELLOW -->
<g id="edge2" class="edge">
<title>GREEN&#45;&gt;YELLOW</title>
<path fill="none" stroke="#000000" d="M269.5955,-363.764C265.468,-352.3528 260.4232,-338.4054 255.9068,-325.9188"/>
<polygon fill="#000000" stroke="#000000" points="259.1184,-324.5077 252.4256,-316.2944 252.5358,-326.8887 259.1184,-324.5077"/>
<text text-anchor="start" x="263" y="-337" font-family="Helvetica,sans-Serif" font-size="10.00" fill="#000000">trafficLights/TIMER &#160;&#160;</text>
</g>
<!-- RED -->
<!-- YELLOW&#45;&gt;RED -->
<g id="edge3" class="edge">
<title>YELLOW&#45;&gt;RED</title>
<path fill="none" stroke="#000000" d="M206.4454,-306.7932C195.863,-311.6218 184.2375,-317.7925 173.2488,-325.4204"/>
<polygon fill="#000000" stroke="#000000" points="170.9451,-322.7713 164.9977,-331.5394 175.1148,-328.3939 170.9451,-322.7713"/>
<text text-anchor="start" x="136" y="-384" font-family="Helvetica,sans-Serif" font-size="10.00" fill="#000000">trafficLights/TIMER &#160;&#160;</text>
</g>
<!-- RED&#45;&gt;GREEN -->
<g id="edge4" class="edge">
<title>RED&#45;&gt;GREEN</title>
<path fill="none" stroke="#000000" d="M164.9979,-441.8669C170.4567,-436.9244 176.5336,-431.9656 182.66,-428 197.4404,-418.4327 214.8287,-410.1954 230.6802,-403.6667"/>
<polygon fill="#000000" stroke="#000000" points="232.3215,-406.7804 240.3144,-399.8259 229.7292,-400.278 232.3215,-406.7804"/>
<text text-anchor="start" x="182" y="-431" font-family="Helvetica,sans-Serif" font-size="10.00" fill="#000000">trafficLights/TIMER &#160;&#160;</text>
</g>
<!-- RED.initial -->
<g id="node5" class="node">
<title>RED.initial</title>
<ellipse fill="#000000" stroke="#000000" stroke-width="2" cx="65" cy="-463.5" rx="5.5" ry="5.5"/>
</g>
<!-- RED.WALK -->
<g id="node6" class="node">
<title>RED.WALK</title>
<polygon fill="#ffffff" stroke="transparent" stroke-width="2" points="114,-316 16,-316 16,-270 114,-270 114,-316"/>
<text text-anchor="start" x="47.9984" y="-299.2" font-family="Helvetica,sans-Serif" font-size="12.00" fill="#000000">WALK</text>
<text text-anchor="start" x="21.9998" y="-279.2" font-family="Helvetica,sans-Serif" font-size="12.00" fill="#000000">pedSwitchTimer</text>
<polygon fill="#000000" stroke="#000000" points="16,-293 16,-293 114,-293 114,-293 16,-293"/>
<path fill="none" stroke="#000000" stroke-width="2" d="M29,-271C29,-271 101,-271 101,-271 107,-271 113,-277 113,-283 113,-283 113,-303 113,-303 113,-309 107,-315 101,-315 101,-315 29,-315 29,-315 23,-315 17,-309 17,-303 17,-303 17,-283 17,-283 17,-277 23,-271 29,-271"/>
</g>
<!-- RED.initial&#45;&gt;RED.WALK -->
<g id="edge5" class="edge">
<title>RED.initial&#45;&gt;RED.WALK</title>
<path fill="none" stroke="#000000" d="M65,-457.8272C65,-437.6387 65,-368.2478 65,-326.2075"/>
<polygon fill="#000000" stroke="#000000" points="68.5001,-326.1551 65,-316.1552 61.5001,-326.1552 68.5001,-326.1551"/>
<text text-anchor="middle" x="66.3895" y="-384" font-family="Helvetica,sans-Serif" font-size="10.00" fill="#000000"> </text>
</g>
<!-- RED.WAIT -->
<g id="node7" class="node">
<title>RED.WAIT</title>
<polygon fill="#ffffff" stroke="transparent" stroke-width="2" points="114,-184 16,-184 16,-138 114,-138 114,-184"/>
<text text-anchor="start" x="50.0024" y="-167.2" font-family="Helvetica,sans-Serif" font-size="12.00" fill="#000000">WAIT</text>
<text text-anchor="start" x="21.9998" y="-147.2" font-family="Helvetica,sans-Serif" font-size="12.00" fill="#000000">pedSwitchTimer</text>
<polygon fill="#000000" stroke="#000000" points="16,-161 16,-161 114,-161 114,-161 16,-161"/>
<path fill="none" stroke="#000000" stroke-width="2" d="M29,-139C29,-139 101,-139 101,-139 107,-139 113,-145 113,-151 113,-151 113,-171 113,-171 113,-177 107,-183 101,-183 101,-183 29,-183 29,-183 23,-183 17,-177 17,-171 17,-171 17,-151 17,-151 17,-145 23,-139 29,-139"/>
</g>
<!-- RED.WALK&#45;&gt;RED.WAIT -->
<g id="edge6" class="edge">
<title>RED.WALK&#45;&gt;RED.WAIT</title>
<path fill="none" stroke="#000000" d="M65,-269.7049C65,-248.7812 65,-217.8224 65,-194.2894"/>
<polygon fill="#000000" stroke="#000000" points="68.5001,-194.0622 65,-184.0622 61.5001,-194.0623 68.5001,-194.0622"/>
<text text-anchor="start" x="65" y="-224" font-family="Helvetica,sans-Serif" font-size="10.00" fill="#000000">trafficLights/PED_TIMER &#160;&#160;</text>
</g>
<!-- RED.STOP -->
<g id="node8" class="node">
<title>RED.STOP</title>
<polygon fill="#ffffff" stroke="transparent" stroke-width="2" points="72,-52 16,-52 16,-16 72,-16 72,-52"/>
<text text-anchor="start" x="27.6644" y="-30.2" font-family="Helvetica,sans-Serif" font-size="12.00" fill="#000000">STOP</text>
<path fill="none" stroke="#000000" stroke-width="2" d="M28.3333,-17C28.3333,-17 59.6667,-17 59.6667,-17 65.3333,-17 71,-22.6667 71,-28.3333 71,-28.3333 71,-39.6667 71,-39.6667 71,-45.3333 65.3333,-51 59.6667,-51 59.6667,-51 28.3333,-51 28.3333,-51 22.6667,-51 17,-45.3333 17,-39.6667 17,-39.6667 17,-28.3333 17,-28.3333 17,-22.6667 22.6667,-17 28.3333,-17"/>
</g>
<!-- RED.WAIT&#45;&gt;RED.STOP -->
<g id="edge7" class="edge">
<title>RED.WAIT&#45;&gt;RED.STOP</title>
<path fill="none" stroke="#000000" d="M61.1483,-137.7062C57.6319,-116.4406 52.4256,-84.955 48.6728,-62.2591"/>
<polygon fill="#000000" stroke="#000000" points="52.0962,-61.5079 47.0116,-52.2129 45.1899,-62.6499 52.0962,-61.5079"/>
<text text-anchor="start" x="56" y="-92" font-family="Helvetica,sans-Serif" font-size="10.00" fill="#000000">trafficLights/PED_TIMER &#160;&#160;</text>
</g>
</g>
</svg>
