<?xml version="1.0" encoding="UTF-8" standalone="no"?>
<!DOCTYPE svg PUBLIC "-//W3C//DTD SVG 1.1//EN"
 "http://www.w3.org/Graphics/SVG/1.1/DTD/svg11.dtd">
<!-- Generated by graphviz version 2.40.1 (20161225.0304)
 -->
<!-- Title: state transitions Pages: 1 -->
<svg width="348pt" height="543pt"
 viewBox="0.00 0.00 348.34 543.00" xmlns="http://www.w3.org/2000/svg" xmlns:xlink="http://www.w3.org/1999/xlink">
<g id="graph0" class="graph" transform="scale(1 1) rotate(0) translate(4 539)">
<title>state transitions</title>
<polygon fill="#ffffff" stroke="transparent" points="-4,4 -4,-539 344.34,-539 344.34,4 -4,4"/>
<g id="clust1" class="cluster">
<title>cluster_RED</title>
<path fill="none" stroke="#000000" stroke-width="2" d="M20,-8C20,-8 145,-8 145,-8 151,-8 157,-14 157,-20 157,-20 157,-515 157,-515 157,-521 151,-527 145,-527 145,-527 20,-527 20,-527 14,-527 8,-521 8,-515 8,-515 8,-20 8,-20 8,-14 14,-8 20,-8"/>
<text text-anchor="start" x="70.3358" y="-508.2" font-family="Helvetica,sans-Serif" font-size="12.00" fill="#000000">RED</text>
<text text-anchor="start" x="51.0074" y="-488.2" font-family="Helvetica,sans-Serif" font-size="12.00" fill="#000000">switchTimer</text>
<polygon fill="#000000" stroke="#000000" points="47.5,-502 47.5,-502 118.5,-502 118.5,-502 47.5,-502"/>
</g>
<!-- initial -->
<g id="node1" class="node">
<title>initial</title>
<ellipse fill="#000000" stroke="#000000" stroke-width="2" cx="261" cy="-463.5" rx="5.5" ry="5.5"/>
</g>
<!-- GREEN -->
<g id="node2" class="node">
<title>GREEN</title>
<polygon fill="#ffffff" stroke="transparent" stroke-width="2" points="298.5,-410 223.5,-410 223.5,-364 298.5,-364 298.5,-410"/>
<text text-anchor="start" x="240.167" y="-393.2" font-family="Helvetica,sans-Serif" font-size="12.00" fill="#000000">GREEN</text>
<text text-anchor="start" x="229.5074" y="-373.2" font-family="Helvetica,sans-Serif" font-size="12.00" fill="#000000">switchTimer</text>
<polygon fill="#000000" stroke="#000000" points="224,-387 224,-387 299,-387 299,-387 224,-387"/>
<path fill="none" stroke="#000000" stroke-width="2" d="M236.5,-365C236.5,-365 285.5,-365 285.5,-365 291.5,-365 297.5,-371 297.5,-377 297.5,-377 297.5,-397 297.5,-397 297.5,-403 291.5,-409 285.5,-409 285.5,-409 236.5,-409 236.5,-409 230.5,-409 224.5,-403 224.5,-397 224.5,-397 224.5,-377 224.5,-377 224.5,-371 230.5,-365 236.5,-365"/>
</g>
<!-- initial&#45;&gt;GREEN -->
<g id="edge1" class="edge">
<title>initial&#45;&gt;GREEN</title>
<path fill="none" stroke="#000000" d="M261,-457.9983C261,-450.0587 261,-434.7605 261,-420.3919"/>
<polygon fill="#000000" stroke="#000000" points="264.5001,-420.2121 261,-410.2121 257.5001,-420.2121 264.5001,-420.2121"/>
<text text-anchor="middle" x="262.3895" y="-431" font-family="Helvetica,sans-Serif" font-size="10.00" fill="#000000"> </text>
</g>
<!-- YELLOW -->
<g id="node3" class="node">
<title>YELLOW</title>
<polygon fill="#ffffff" stroke="transparent" stroke-width="2" points="268.5,-316 193.5,-316 193.5,-270 268.5,-270 268.5,-316"/>
<text text-anchor="start" x="206.4956" y="-299.2" font-family="Helvetica,sans-Serif" font-size="12.00" fill="#000000">YELLOW</text>
<text text-anchor="start" x="199.5074" y="-279.2" font-family="Helvetica,sans-Serif" font-size="12.00" fill="#000000">switchTimer</text>
<polygon fill="#000000" stroke="#000000" points="194,-293 194,-293 269,-293 269,-293 194,-293"/>
<path fill="none" stroke="#000000" stroke-width="2" d="M206.5,-271C206.5,-271 255.5,-271 255.5,-271 261.5,-271 267.5,-277 267.5,-283 267.5,-283 267.5,-303 267.5,-303 267.5,-309 261.5,-315 255.5,-315 255.5,-315 206.5,-315 206.5,-315 200.5,-315 194.5,-309 194.5,-303 194.5,-303 194.5,-283 194.5,-283 194.5,-277 200.5,-271 206.5,-271"/>
</g>
<!-- GREEN&#45;&gt;YELLOW -->
<g id="edge2" class="edge">
<title>GREEN&#45;&gt;YELLOW</title>
<path fill="none" stroke="#000000" d="M253.5843,-363.764C249.9424,-352.3528 245.4911,-338.4054 241.506,-325.9188"/>
<polygon fill="#000000" stroke="#000000" points="244.8092,-324.7569 238.4344,-316.2944 238.1406,-326.8852 244.8092,-324.7569"/>
<text text-anchor="start" x="247" y="-337" font-family="Helvetica,sans-Serif" font-size="10.00" fill="#000000">trafficLights/TIMER &#160;&#160;</text>
</g>
<!-- RED -->
<!-- YELLOW&#45;&gt;RED -->
<g id="edge3" class="edge">
<title>YELLOW&#45;&gt;RED</title>
<path fill="none" stroke="#000000" d="M193.4454,-306.7932C184.5395,-310.8568 174.8949,-315.871 165.5128,-321.9043"/>
<polygon fill="#000000" stroke="#000000" points="163.273,-319.196 156.9991,-327.7335 167.2277,-324.9719 163.273,-319.196"/>
<text text-anchor="start" x="123" y="-384" font-family="Helvetica,sans-Serif" font-size="10.00" fill="#000000">trafficLights/TIMER &#160;&#160;</text>
</g>
<!-- RED&#45;&gt;GREEN -->
<g id="edge4" class="edge">
<title>RED&#45;&gt;GREEN</title>
<path fill="none" stroke="#000000" d="M156.9964,-433.774C159.4941,-431.7046 162.063,-429.7492 164.66,-428 179.6575,-417.8984 197.5463,-409.4566 213.8149,-402.91"/>
<polygon fill="#000000" stroke="#000000" points="215.1176,-406.1588 223.1723,-399.2762 212.5835,-399.6336 215.1176,-406.1588"/>
<text text-anchor="start" x="164" y="-431" font-family="Helvetica,sans-Serif" font-size="10.00" fill="#000000">trafficLights/TIMER &#160;&#160;</text>
</g>
<!-- RED.initial -->
<g id="node5" class="node">
<title>RED.initial</title>
<ellipse fill="#000000" stroke="#000000" stroke-width="2" cx="65" cy="-463.5" rx="5.5" ry="5.5"/>
</g>
<!-- RED.WALK -->
<g id="node6" class="node">
<title>RED.WALK</title>
<polygon fill="#ffffff" stroke="transparent" stroke-width="2" points="114,-316 16,-316 16,-270 114,-270 114,-316"/>
<text text-anchor="start" x="47.9984" y="-299.2" font-family="Helvetica,sans-Serif" font-size="12.00" fill="#000000">WALK</text>
<text text-anchor="start" x="21.9998" y="-279.2" font-family="Helvetica,sans-Serif" font-size="12.00" fill="#000000">pedSwitchTimer</text>
<polygon fill="#000000" stroke="#000000" points="16,-293 16,-293 114,-293 114,-293 16,-293"/>
<path fill="none" stroke="#000000" stroke-width="2" d="M29,-271C29,-271 101,-271 101,-271 107,-271 113,-277 113,-283 113,-283 113,-303 113,-303 113,-309 107,-315 101,-315 101,-315 29,-315 29,-315 23,-315 17,-309 17,-303 17,-303 17,-283 17,-283 17,-277 23,-271 29,-271"/>
</g>
<!-- RED.initial&#45;&gt;RED.WALK -->
<g id="edge5" class="edge">
<title>RED.initial&#45;&gt;RED.WALK</title>
<path fill="none" stroke="#000000" d="M65,-457.8272C65,-437.6387 65,-368.2478 65,-326.2075"/>
<polygon fill="#000000" stroke="#000000" points="68.5001,-326.1551 65,-316.1552 61.5001,-326.1552 68.5001,-326.1551"/>
<text text-anchor="middle" x="66.3895" y="-384" font-family="Helvetica,sans-Serif" font-size="10.00" fill="#000000"> </text>
</g>
<!-- RED.WAIT -->
<g id="node7" class="node">
<title>RED.WAIT</title>
<polygon fill="#ffffff" stroke="transparent" stroke-width="2" points="114,-184 16,-184 16,-138 114,-138 114,-184"/>
<text text-anchor="start" x="50.0024" y="-167.2" font-family="Helvetica,sans-Serif" font-size="12.00" fill="#000000">WAIT</text>
<text text-anchor="start" x="21.9998" y="-147.2" font-family="Helvetica,sans-Serif" font-size="12.00" fill="#000000">pedSwitchTimer</text>
<polygon fill="#000000" stroke="#000000" points="16,-161 16,-161 114,-161 114,-161 16,-161"/>
<path fill="none" stroke="#000000" stroke-width="2" d="M29,-139C29,-139 101,-139 101,-139 107,-139 113,-145 113,-151 113,-151 113,-171 113,-171 113,-177 107,-183 101,-183 101,-183 29,-183 29,-183 23,-183 17,-177 17,-171 17,-171 17,-151 17,-151 17,-145 23,-139 29,-139"/>
</g>
<!-- RED.WALK&#45;&gt;RED.WAIT -->
<g id="edge6" class="edge">
<title>RED.WALK&#45;&gt;RED.WAIT</title>
<path fill="none" stroke="#000000" d="M65,-269.7049C65,-248.7812 65,-217.8224 65,-194.2894"/>
<polygon fill="#000000" stroke="#000000" points="68.5001,-194.0622 65,-184.0622 61.5001,-194.0623 68.5001,-194.0622"/>
<text text-anchor="start" x="65" y="-224" font-family="Helvetica,sans-Serif" font-size="10.00" fill="#000000">trafficLights/PED_TIMER &#160;&#160;</text>
</g>
<!-- RED.STOP -->
<g id="node8" class="node">
<title>RED.STOP</title>
<polygon fill="#ffffff" stroke="transparent" stroke-width="2" points="72,-52 16,-52 16,-16 72,-16 72,-52"/>
<text text-anchor="start" x="27.6644" y="-30.2" font-family="Helvetica,sans-Serif" font-size="12.00" fill="#000000">STOP</text>
<path fill="none" stroke="#000000" stroke-width="2" d="M28.3333,-17C28.3333,-17 59.6667,-17 59.6667,-17 65.3333,-17 71,-22.6667 71,-28.3333 71,-28.3333 71,-39.6667 71,-39.6667 71,-45.3333 65.3333,-51 59.6667,-51 59.6667,-51 28.3333,-51 28.3333,-51 22.6667,-51 17,-45.3333 17,-39.6667 17,-39.6667 17,-28.3333 17,-28.3333 17,-22.6667 22.6667,-17 28.3333,-17"/>
</g>
<!-- RED.WAIT&#45;&gt;RED.STOP -->
<g id="edge7" class="edge">
<title>RED.WAIT&#45;&gt;RED.STOP</title>
<path fill="none" stroke="#000000" d="M61.1483,-137.7062C57.6319,-116.4406 52.4256,-84.955 48.6728,-62.2591"/>
<polygon fill="#000000" stroke="#000000" points="52.0962,-61.5079 47.0116,-52.2129 45.1899,-62.6499 52.0962,-61.5079"/>
<text text-anchor="start" x="56" y="-92" font-family="Helvetica,sans-Serif" font-size="10.00" fill="#000000">trafficLights/PED_TIMER &#160;&#160;</text>
</g>
</g>
</svg>
