<?xml version="1.0" encoding="UTF-8" standalone="no"?>
<!DOCTYPE svg PUBLIC "-//W3C//DTD SVG 1.1//EN"
 "http://www.w3.org/Graphics/SVG/1.1/DTD/svg11.dtd">
<!-- Generated by graphviz version 2.40.1 (20161225.0304)
 -->
<!-- Title: state transitions Pages: 1 -->
<svg width="531pt" height="301pt"
 viewBox="0.00 0.00 530.86 301.00" xmlns="http://www.w3.org/2000/svg" xmlns:xlink="http://www.w3.org/1999/xlink">
<g id="graph0" class="graph" transform="scale(1 1) rotate(0) translate(4 297)">
<title>state transitions</title>
<polygon fill="#ffffff" stroke="transparent" points="-4,4 -4,-297 526.8617,-297 526.8617,4 -4,4"/>
<!-- initial -->
<g id="node1" class="node">
<title>initial</title>
<ellipse fill="#000000" stroke="#000000" stroke-width="2" cx="214.4157" cy="-287.5" rx="5.5" ry="5.5"/>
</g>
<!-- APP -->
<g id="node2" class="node">
<title>APP</title>
<polygon fill="#ffffff" stroke="transparent" stroke-width="2" points="266.4157,-234 162.4157,-234 162.4157,-188 266.4157,-188 266.4157,-234"/>
<text text-anchor="start" x="202.4115" y="-217.2" font-family="Helvetica,sans-Serif" font-size="12.00" fill="#000000">APP</text>
<text text-anchor="start" x="168.0681" y="-197.2" font-family="Helvetica,sans-Serif" font-size="12.00" fill="#000000">entry/onEntryApp</text>
<polygon fill="#000000" stroke="#000000" points="162.4157,-211 162.4157,-211 266.4157,-211 266.4157,-211 162.4157,-211"/>
<path fill="none" stroke="#000000" stroke-width="2" d="M175.4157,-189C175.4157,-189 253.4157,-189 253.4157,-189 259.4157,-189 265.4157,-195 265.4157,-201 265.4157,-201 265.4157,-221 265.4157,-221 265.4157,-227 259.4157,-233 253.4157,-233 253.4157,-233 175.4157,-233 175.4157,-233 169.4157,-233 163.4157,-227 163.4157,-221 163.4157,-221 163.4157,-201 163.4157,-201 163.4157,-195 169.4157,-189 175.4157,-189"/>
</g>
<!-- initial&#45;&gt;APP -->
<g id="edge1" class="edge">
<title>initial&#45;&gt;APP</title>
<path fill="none" stroke="#000000" d="M214.4157,-281.9983C214.4157,-274.0587 214.4157,-258.7605 214.4157,-244.3919"/>
<polygon fill="#000000" stroke="#000000" points="217.9158,-244.2121 214.4157,-234.2121 210.9158,-244.2121 217.9158,-244.2121"/>
<text text-anchor="middle" x="215.8052" y="-255" font-family="Helvetica,sans-Serif" font-size="10.00" fill="#000000"> </text>
</g>
<!-- PLAYING -->
<g id="node3" class="node">
<title>PLAYING</title>
<polygon fill="#ffffff" stroke="transparent" stroke-width="2" points="236.4157,-140 74.4157,-140 74.4157,-94 236.4157,-94 236.4157,-140"/>
<text text-anchor="start" x="129.4099" y="-123.2" font-family="Helvetica,sans-Serif" font-size="12.00" fill="#000000">PLAYING</text>
<text text-anchor="start" x="80.4109" y="-103.2" font-family="Helvetica,sans-Serif" font-size="12.00" fill="#000000">entry/(activity) startPlayback</text>
<polygon fill="#000000" stroke="#000000" points="74.4157,-117 74.4157,-117 236.4157,-117 236.4157,-117 74.4157,-117"/>
<path fill="none" stroke="#000000" stroke-width="2" d="M87.4157,-95C87.4157,-95 223.4157,-95 223.4157,-95 229.4157,-95 235.4157,-101 235.4157,-107 235.4157,-107 235.4157,-127 235.4157,-127 235.4157,-133 229.4157,-139 223.4157,-139 223.4157,-139 87.4157,-139 87.4157,-139 81.4157,-139 75.4157,-133 75.4157,-127 75.4157,-127 75.4157,-107 75.4157,-107 75.4157,-101 81.4157,-95 87.4157,-95"/>
</g>
<!-- APP&#45;&gt;PLAYING -->
<g id="edge2" class="edge">
<title>APP&#45;&gt;PLAYING</title>
<path fill="none" stroke="#000000" d="M162.356,-208.3118C106.28,-204.1985 22.3915,-194.0985 2.5087,-170 -.8855,-165.8861 -.7377,-162.2315 2.5087,-158 10.9265,-147.0278 36.355,-138.3462 64.1195,-131.85"/>
<polygon fill="#000000" stroke="#000000" points="65.0153,-135.2362 74.0135,-129.6431 63.4913,-128.4041 65.0153,-135.2362"/>
<text text-anchor="start" x="3.4157" y="-161" font-family="Helvetica,sans-Serif" font-size="10.00" fill="#000000">player/PLAY &#160;&#160;</text>
</g>
<!-- PLAYING&#45;&gt;APP -->
<g id="edge3" class="edge">
<title>PLAYING&#45;&gt;APP</title>
<path fill="none" stroke="#000000" d="M96.5887,-140.2319C84.4207,-148.4869 77.5177,-158.5989 85.8487,-170 94.2566,-181.5063 123.708,-191.3358 152.3037,-198.4836"/>
<polygon fill="#000000" stroke="#000000" points="151.8055,-201.9635 162.3467,-200.8984 153.4421,-195.1575 151.8055,-201.9635"/>
<text text-anchor="start" x="86.4157" y="-161" font-family="Helvetica,sans-Serif" font-size="10.00" fill="#000000">player/STOP &#160;&#160;</text>
</g>
<!-- PLAYING&#45;&gt;APP -->
<g id="edge4" class="edge">
<title>PLAYING&#45;&gt;APP</title>
<path fill="none" stroke="#000000" d="M158.833,-140.041C160.9943,-149.7872 164.462,-160.953 169.9697,-170 172.1806,-173.6317 174.8043,-177.1404 177.655,-180.4742"/>
<polygon fill="#000000" stroke="#000000" points="175.2367,-183.012 184.6308,-187.9112 180.3422,-178.2231 175.2367,-183.012"/>
<text text-anchor="start" x="170.4157" y="-161" font-family="Helvetica,sans-Serif" font-size="10.00" fill="#000000">player/ERROR &#160;&#160;</text>
</g>
<!-- PLAYING&#45;&gt;APP -->
<g id="edge6" class="edge">
<title>PLAYING&#45;&gt;APP</title>
<path fill="none" stroke="#000000" d="M225.858,-140.1135C232.7697,-144.9985 238.8865,-150.8932 243.4157,-158 247.6963,-164.7168 246.8857,-172.1123 243.6277,-179.1927"/>
<polygon fill="#000000" stroke="#000000" points="240.536,-177.5427 238.3908,-187.9181 246.538,-181.145 240.536,-177.5427"/>
<text text-anchor="start" x="246.4157" y="-161" font-family="Helvetica,sans-Serif" font-size="10.00" fill="#000000">player/NEXT &#160;&#160;</text>
</g>
<!-- SWITCHING -->
<g id="node4" class="node">
<title>SWITCHING</title>
<polygon fill="#ffffff" stroke="transparent" stroke-width="2" points="383.4157,-46 217.4157,-46 217.4157,0 383.4157,0 383.4157,-46"/>
<text text-anchor="start" x="266.0891" y="-29.2" font-family="Helvetica,sans-Serif" font-size="12.00" fill="#000000">SWITCHING</text>
<text text-anchor="start" x="223.0841" y="-9.2" font-family="Helvetica,sans-Serif" font-size="12.00" fill="#000000">entry/(activity) switchTimeout</text>
<polygon fill="#000000" stroke="#000000" points="217.4157,-23 217.4157,-23 383.4157,-23 383.4157,-23 217.4157,-23"/>
<path fill="none" stroke="#000000" stroke-width="2" d="M230.4157,-1C230.4157,-1 370.4157,-1 370.4157,-1 376.4157,-1 382.4157,-7 382.4157,-13 382.4157,-13 382.4157,-33 382.4157,-33 382.4157,-39 376.4157,-45 370.4157,-45 370.4157,-45 230.4157,-45 230.4157,-45 224.4157,-45 218.4157,-39 218.4157,-33 218.4157,-33 218.4157,-13 218.4157,-13 218.4157,-7 224.4157,-1 230.4157,-1"/>
</g>
<!-- PLAYING&#45;&gt;SWITCHING -->
<g id="edge5" class="edge">
<title>PLAYING&#45;&gt;SWITCHING</title>
<path fill="none" stroke="#000000" d="M142.8091,-93.7378C139.2135,-83.7247 137.8073,-72.4124 144.2957,-64 152.9074,-52.8347 178.8739,-44.1119 207.22,-37.6366"/>
<polygon fill="#000000" stroke="#000000" points="208.2933,-40.9851 217.321,-35.4396 206.8055,-34.145 208.2933,-40.9851"/>
<text text-anchor="start" x="144.4157" y="-67" font-family="Helvetica,sans-Serif" font-size="10.00" fill="#000000">player/NEXT [isNext] &#160;&#160;</text>
</g>
<!-- SWITCHING&#45;&gt;APP -->
<g id="edge7" class="edge">
<title>SWITCHING&#45;&gt;APP</title>
<path fill="none" stroke="#000000" d="M318.9317,-46.1024C322.4211,-51.6611 325.5562,-57.7953 327.4157,-64 341.0416,-109.4662 343.5003,-132.491 314.4157,-170 304.7481,-182.4678 290.6434,-191.1686 276.0592,-197.2318"/>
<polygon fill="#000000" stroke="#000000" points="274.5746,-194.0508 266.4479,-200.8485 277.0399,-200.6024 274.5746,-194.0508"/>
<text text-anchor="start" x="337.4157" y="-114" font-family="Helvetica,sans-Serif" font-size="10.00" fill="#000000">player/STOP/doStop &#160;&#160;</text>
</g>
<!-- SWITCHING&#45;&gt;APP -->
<g id="edge8" class="edge">
<title>SWITCHING&#45;&gt;APP</title>
<path fill="none" stroke="#000000" d="M381.5453,-46.0866C404.5734,-56.7991 427.01,-72.1703 440.4157,-94 451.1144,-111.4216 452.5132,-123.519 440.4157,-140 420.8327,-166.6788 336.5512,-187.8743 276.6588,-199.9368"/>
<polygon fill="#000000" stroke="#000000" points="275.6588,-196.5666 266.5264,-201.9378 277.0151,-203.4339 275.6588,-196.5666"/>
<text text-anchor="start" x="448.4157" y="-114" font-family="Helvetica,sans-Serif" font-size="10.00" fill="#000000">player/ERROR &#160;&#160;</text>
</g>
<!-- SWITCHING&#45;&gt;PLAYING -->
<g id="edge9" class="edge">
<title>SWITCHING&#45;&gt;PLAYING</title>
<path fill="none" stroke="#000000" d="M279.2441,-46.2029C269.3235,-56.2045 256.9443,-67.5242 244.4157,-76 237.4276,-80.7275 229.807,-85.162 222.0611,-89.2397"/>
<polygon fill="#000000" stroke="#000000" points="220.2806,-86.2181 212.9409,-93.8588 223.4434,-92.4629 220.2806,-86.2181"/>
<text text-anchor="start" x="260.4157" y="-67" font-family="Helvetica,sans-Serif" font-size="10.00" fill="#000000">player/PLAY &#160;&#160;</text>
</g>
</g>
</svg>
