<?xml version="1.0" encoding="UTF-8" standalone="no"?>
<!DOCTYPE svg PUBLIC "-//W3C//DTD SVG 1.1//EN"
 "http://www.w3.org/Graphics/SVG/1.1/DTD/svg11.dtd">
<!-- Generated by graphviz version 2.40.1 (20161225.0304)
 -->
<!-- Title: state transitions Pages: 1 -->
<svg width="530pt" height="281pt"
 viewBox="0.00 0.00 529.88 281.00" xmlns="http://www.w3.org/2000/svg" xmlns:xlink="http://www.w3.org/1999/xlink">
<g id="graph0" class="graph" transform="scale(1 1) rotate(0) translate(4 277)">
<title>state transitions</title>
<polygon fill="#ffffff" stroke="transparent" points="-4,4 -4,-277 525.8779,-277 525.8779,4 -4,4"/>
<!-- initial -->
<g id="node1" class="node">
<title>initial</title>
<ellipse fill="#000000" stroke="#000000" stroke-width="2" cx="214.4319" cy="-267.5" rx="5.5" ry="5.5"/>
</g>
<!-- APP -->
<g id="node2" class="node">
<title>APP</title>
<polygon fill="#ffffff" stroke="transparent" stroke-width="2" points="266.4319,-214 162.4319,-214 162.4319,-168 266.4319,-168 266.4319,-214"/>
<text text-anchor="start" x="202.4277" y="-197.2" font-family="Helvetica,sans-Serif" font-size="12.00" fill="#000000">APP</text>
<text text-anchor="start" x="168.0843" y="-177.2" font-family="Helvetica,sans-Serif" font-size="12.00" fill="#000000">entry/onEntryApp</text>
<polygon fill="#000000" stroke="#000000" points="162.4319,-191 162.4319,-191 266.4319,-191 266.4319,-191 162.4319,-191"/>
<path fill="none" stroke="#000000" stroke-width="2" d="M175.4319,-169C175.4319,-169 253.4319,-169 253.4319,-169 259.4319,-169 265.4319,-175 265.4319,-181 265.4319,-181 265.4319,-201 265.4319,-201 265.4319,-207 259.4319,-213 253.4319,-213 253.4319,-213 175.4319,-213 175.4319,-213 169.4319,-213 163.4319,-207 163.4319,-201 163.4319,-201 163.4319,-181 163.4319,-181 163.4319,-175 169.4319,-169 175.4319,-169"/>
</g>
<!-- initial&#45;&gt;APP -->
<g id="edge1" class="edge">
<title>initial&#45;&gt;APP</title>
<path fill="none" stroke="#000000" d="M214.4319,-261.9983C214.4319,-254.0587 214.4319,-238.7605 214.4319,-224.3919"/>
<polygon fill="#000000" stroke="#000000" points="217.932,-224.2121 214.4319,-214.2121 210.932,-224.2121 217.932,-224.2121"/>
<text text-anchor="middle" x="215.8214" y="-235" font-family="Helvetica,sans-Serif" font-size="10.00" fill="#000000"> </text>
</g>
<!-- PLAYING -->
<g id="node3" class="node">
<title>PLAYING</title>
<polygon fill="#ffffff" stroke="transparent" stroke-width="2" points="192.4319,-120 118.4319,-120 118.4319,-84 192.4319,-84 192.4319,-120"/>
<text text-anchor="start" x="129.4261" y="-98.2" font-family="Helvetica,sans-Serif" font-size="12.00" fill="#000000">PLAYING</text>
<path fill="none" stroke="#000000" stroke-width="2" d="M130.7652,-85C130.7652,-85 180.0985,-85 180.0985,-85 185.7652,-85 191.4319,-90.6667 191.4319,-96.3333 191.4319,-96.3333 191.4319,-107.6667 191.4319,-107.6667 191.4319,-113.3333 185.7652,-119 180.0985,-119 180.0985,-119 130.7652,-119 130.7652,-119 125.0985,-119 119.4319,-113.3333 119.4319,-107.6667 119.4319,-107.6667 119.4319,-96.3333 119.4319,-96.3333 119.4319,-90.6667 125.0985,-85 130.7652,-85"/>
</g>
<!-- APP&#45;&gt;PLAYING -->
<g id="edge2" class="edge">
<title>APP&#45;&gt;PLAYING</title>
<path fill="none" stroke="#000000" d="M162.3721,-188.3118C106.2962,-184.1985 22.4077,-174.0985 2.5249,-150 -.8693,-145.8861 -.7862,-142.1811 2.5249,-138 15.5691,-121.528 68.3067,-111.8428 108.2289,-106.7419"/>
<polygon fill="#000000" stroke="#000000" points="108.8247,-110.1953 118.3285,-105.5126 107.9788,-103.2466 108.8247,-110.1953"/>
<text text-anchor="start" x="3.4319" y="-141" font-family="Helvetica,sans-Serif" font-size="10.00" fill="#000000">player/PLAY &#160;&#160;</text>
</g>
<!-- PLAYING&#45;&gt;APP -->
<g id="edge3" class="edge">
<title>PLAYING&#45;&gt;APP</title>
<path fill="none" stroke="#000000" d="M118.0599,-112.4181C95.6865,-120.6129 73.7447,-133.4134 85.8649,-150 94.2727,-161.5063 123.7242,-171.3358 152.3198,-178.4836"/>
<polygon fill="#000000" stroke="#000000" points="151.8217,-181.9635 162.3629,-180.8984 153.4582,-175.1575 151.8217,-181.9635"/>
<text text-anchor="start" x="86.4319" y="-141" font-family="Helvetica,sans-Serif" font-size="10.00" fill="#000000">player/STOP &#160;&#160;</text>
</g>
<!-- PLAYING&#45;&gt;APP -->
<g id="edge4" class="edge">
<title>PLAYING&#45;&gt;APP</title>
<path fill="none" stroke="#000000" d="M158.5813,-120.288C160.7723,-129.676 164.3422,-140.9993 169.9859,-150 172.2445,-153.6022 174.9009,-157.0907 177.7726,-160.4115"/>
<polygon fill="#000000" stroke="#000000" points="175.3678,-162.9626 184.7785,-167.8299 180.4571,-158.1564 175.3678,-162.9626"/>
<text text-anchor="start" x="170.4319" y="-141" font-family="Helvetica,sans-Serif" font-size="10.00" fill="#000000">player/ERROR &#160;&#160;</text>
</g>
<!-- PLAYING&#45;&gt;APP -->
<g id="edge6" class="edge">
<title>PLAYING&#45;&gt;APP</title>
<path fill="none" stroke="#000000" d="M192.845,-107.4045C211.3581,-112.1741 232.115,-121.1432 243.4319,-138 247.8714,-144.6129 247.1254,-151.966 243.8797,-159.0384"/>
<polygon fill="#000000" stroke="#000000" points="240.7837,-157.3954 238.6336,-167.7698 246.784,-161.0006 240.7837,-157.3954"/>
<text text-anchor="start" x="247.4319" y="-141" font-family="Helvetica,sans-Serif" font-size="10.00" fill="#000000">player/NEXT &#160;&#160;</text>
</g>
<!-- SWITCHING -->
<g id="node4" class="node">
<title>SWITCHING</title>
<polygon fill="#ffffff" stroke="transparent" stroke-width="2" points="345.4319,-36 255.4319,-36 255.4319,0 345.4319,0 345.4319,-36"/>
<text text-anchor="start" x="266.1053" y="-14.2" font-family="Helvetica,sans-Serif" font-size="12.00" fill="#000000">SWITCHING</text>
<path fill="none" stroke="#000000" stroke-width="2" d="M267.7652,-1C267.7652,-1 333.0985,-1 333.0985,-1 338.7652,-1 344.4319,-6.6667 344.4319,-12.3333 344.4319,-12.3333 344.4319,-23.6667 344.4319,-23.6667 344.4319,-29.3333 338.7652,-35 333.0985,-35 333.0985,-35 267.7652,-35 267.7652,-35 262.0985,-35 256.4319,-29.3333 256.4319,-23.6667 256.4319,-23.6667 256.4319,-12.3333 256.4319,-12.3333 256.4319,-6.6667 262.0985,-1 267.7652,-1"/>
</g>
<!-- PLAYING&#45;&gt;SWITCHING -->
<g id="edge5" class="edge">
<title>PLAYING&#45;&gt;SWITCHING</title>
<path fill="none" stroke="#000000" d="M144.5501,-83.9624C140.1902,-74.1938 137.6012,-62.4341 144.3119,-54 156.8978,-38.1816 205.5183,-28.7206 245.1979,-23.4972"/>
<polygon fill="#000000" stroke="#000000" points="245.84,-26.9442 255.3272,-22.228 244.9696,-19.9985 245.84,-26.9442"/>
<text text-anchor="start" x="144.4319" y="-57" font-family="Helvetica,sans-Serif" font-size="10.00" fill="#000000">player/NEXT [isNext] &#160;&#160;</text>
</g>
<!-- SWITCHING&#45;&gt;APP -->
<g id="edge7" class="edge">
<title>SWITCHING&#45;&gt;APP</title>
<path fill="none" stroke="#000000" d="M317.5271,-36.1091C321.563,-41.4718 325.3072,-47.626 327.4319,-54 341.0292,-94.7922 341.9151,-116.1248 315.4319,-150 305.5837,-162.5969 291.2342,-171.3449 276.4274,-177.4123"/>
<polygon fill="#000000" stroke="#000000" points="274.8351,-174.2697 266.674,-181.026 277.267,-180.8337 274.8351,-174.2697"/>
<text text-anchor="start" x="337.4319" y="-99" font-family="Helvetica,sans-Serif" font-size="10.00" fill="#000000">player/STOP/doStop &#160;&#160;</text>
</g>
<!-- SWITCHING&#45;&gt;APP -->
<g id="edge8" class="edge">
<title>SWITCHING&#45;&gt;APP</title>
<path fill="none" stroke="#000000" d="M345.6457,-30.2709C397.3193,-46.5919 471.0386,-78.303 440.4319,-120 420.8489,-146.6788 336.5673,-167.8743 276.675,-179.9368"/>
<polygon fill="#000000" stroke="#000000" points="275.675,-176.5666 266.5426,-181.9378 277.0313,-183.4339 275.675,-176.5666"/>
<text text-anchor="start" x="447.4319" y="-99" font-family="Helvetica,sans-Serif" font-size="10.00" fill="#000000">player/ERROR &#160;&#160;</text>
</g>
<!-- SWITCHING&#45;&gt;PLAYING -->
<g id="edge9" class="edge">
<title>SWITCHING&#45;&gt;PLAYING</title>
<path fill="none" stroke="#000000" d="M282.4394,-36.0757C271.9974,-45.8561 258.2161,-57.615 244.4319,-66 231.3578,-73.9529 216.214,-80.8318 202.1667,-86.3841"/>
<polygon fill="#000000" stroke="#000000" points="200.7511,-83.1781 192.6557,-90.013 203.2465,-89.7182 200.7511,-83.1781"/>
<text text-anchor="start" x="261.4319" y="-57" font-family="Helvetica,sans-Serif" font-size="10.00" fill="#000000">player/PLAY &#160;&#160;</text>
</g>
</g>
</svg>
