<?xml version="1.0" encoding="UTF-8" standalone="no"?>
<!DOCTYPE svg PUBLIC "-//W3C//DTD SVG 1.1//EN"
 "http://www.w3.org/Graphics/SVG/1.1/DTD/svg11.dtd">
<!-- Generated by graphviz version 2.40.1 (20161225.0304)
 -->
<!-- Title: state transitions Pages: 1 -->
<svg width="597pt" height="293pt"
 viewBox="0.00 0.00 596.86 293.00" xmlns="http://www.w3.org/2000/svg" xmlns:xlink="http://www.w3.org/1999/xlink">
<g id="graph0" class="graph" transform="scale(1 1) rotate(0) translate(4 289)">
<title>state transitions</title>
<polygon fill="#ffffff" stroke="transparent" points="-4,4 -4,-289 592.8585,-289 592.8585,4 -4,4"/>
<!-- initial -->
<g id="node1" class="node">
<title>initial</title>
<ellipse fill="#000000" stroke="#000000" stroke-width="2" cx="214.4125" cy="-279.5" rx="5.5" ry="5.5"/>
</g>
<!-- APP -->
<g id="node2" class="node">
<title>APP</title>
<polygon fill="#ffffff" stroke="transparent" stroke-width="2" points="266.4125,-226 162.4125,-226 162.4125,-180 266.4125,-180 266.4125,-226"/>
<text text-anchor="start" x="202.4083" y="-209.2" font-family="Helvetica,sans-Serif" font-size="12.00" fill="#000000">APP</text>
<text text-anchor="start" x="168.0649" y="-189.2" font-family="Helvetica,sans-Serif" font-size="12.00" fill="#000000">entry/onEntryApp</text>
<polygon fill="#000000" stroke="#000000" points="162.4125,-203 162.4125,-203 266.4125,-203 266.4125,-203 162.4125,-203"/>
<path fill="none" stroke="#000000" stroke-width="2" d="M175.4125,-181C175.4125,-181 253.4125,-181 253.4125,-181 259.4125,-181 265.4125,-187 265.4125,-193 265.4125,-193 265.4125,-213 265.4125,-213 265.4125,-219 259.4125,-225 253.4125,-225 253.4125,-225 175.4125,-225 175.4125,-225 169.4125,-225 163.4125,-219 163.4125,-213 163.4125,-213 163.4125,-193 163.4125,-193 163.4125,-187 169.4125,-181 175.4125,-181"/>
</g>
<!-- initial&#45;&gt;APP -->
<g id="edge1" class="edge">
<title>initial&#45;&gt;APP</title>
<path fill="none" stroke="#000000" d="M214.4125,-273.9983C214.4125,-266.0587 214.4125,-250.7605 214.4125,-236.3919"/>
<polygon fill="#000000" stroke="#000000" points="217.9126,-236.2121 214.4125,-226.2121 210.9126,-236.2121 217.9126,-236.2121"/>
<text text-anchor="middle" x="215.802" y="-247" font-family="Helvetica,sans-Serif" font-size="10.00" fill="#000000"> </text>
</g>
<!-- PLAYING -->
<g id="node3" class="node">
<title>PLAYING</title>
<polygon fill="#ffffff" stroke="transparent" stroke-width="2" points="192.4125,-126 118.4125,-126 118.4125,-90 192.4125,-90 192.4125,-126"/>
<text text-anchor="start" x="129.4067" y="-104.2" font-family="Helvetica,sans-Serif" font-size="12.00" fill="#000000">PLAYING</text>
<path fill="none" stroke="#000000" stroke-width="2" d="M130.7458,-91C130.7458,-91 180.0791,-91 180.0791,-91 185.7458,-91 191.4125,-96.6667 191.4125,-102.3333 191.4125,-102.3333 191.4125,-113.6667 191.4125,-113.6667 191.4125,-119.3333 185.7458,-125 180.0791,-125 180.0791,-125 130.7458,-125 130.7458,-125 125.0791,-125 119.4125,-119.3333 119.4125,-113.6667 119.4125,-113.6667 119.4125,-102.3333 119.4125,-102.3333 119.4125,-96.6667 125.0791,-91 130.7458,-91"/>
</g>
<!-- APP&#45;&gt;PLAYING -->
<g id="edge2" class="edge">
<title>APP&#45;&gt;PLAYING</title>
<path fill="none" stroke="#000000" d="M162.3527,-200.3118C106.2768,-196.1985 22.3883,-186.0985 2.5055,-162 -.8887,-157.8861 -.728,-154.2414 2.5055,-150 9.1111,-141.3353 66.0201,-127.3258 108.4919,-117.8953"/>
<polygon fill="#000000" stroke="#000000" points="109.3784,-121.2841 118.395,-115.7206 107.8769,-114.447 109.3784,-121.2841"/>
<text text-anchor="start" x="3.4125" y="-153" font-family="Helvetica,sans-Serif" font-size="10.00" fill="#000000">player/PLAY &#160;&#160;</text>
</g>
<!-- PLAYING&#45;&gt;APP -->
<g id="edge3" class="edge">
<title>PLAYING&#45;&gt;APP</title>
<path fill="none" stroke="#000000" d="M118.2099,-120.3634C95.5222,-129.9804 73.1266,-144.594 85.8455,-162 94.2534,-173.5063 123.7048,-183.3358 152.3004,-190.4836"/>
<polygon fill="#000000" stroke="#000000" points="151.8023,-193.9635 162.3435,-192.8984 153.4388,-187.1575 151.8023,-193.9635"/>
<text text-anchor="start" x="86.4125" y="-153" font-family="Helvetica,sans-Serif" font-size="10.00" fill="#000000">player/STOP &#160;&#160;</text>
</g>
<!-- PLAYING&#45;&gt;APP -->
<g id="edge4" class="edge">
<title>PLAYING&#45;&gt;APP</title>
<path fill="none" stroke="#000000" d="M157.6758,-126.0182C159.6658,-137.0224 163.3278,-151.0368 169.9665,-162 172.1687,-165.6369 174.7866,-169.1492 177.6335,-172.4853"/>
<polygon fill="#000000" stroke="#000000" points="175.2127,-175.0207 184.6038,-179.9256 180.3212,-170.2349 175.2127,-175.0207"/>
<text text-anchor="start" x="170.4125" y="-153" font-family="Helvetica,sans-Serif" font-size="10.00" fill="#000000">player/ERROR &#160;&#160;</text>
</g>
<!-- PLAYING&#45;&gt;APP -->
<g id="edge6" class="edge">
<title>PLAYING&#45;&gt;APP</title>
<path fill="none" stroke="#000000" d="M192.5417,-115.823C211.2168,-121.8367 232.2132,-132.2455 243.4125,-150 247.6618,-156.7367 246.8385,-164.1402 243.578,-171.2222"/>
<polygon fill="#000000" stroke="#000000" points="240.4872,-169.5707 238.343,-179.9464 246.4895,-173.1725 240.4872,-169.5707"/>
<text text-anchor="start" x="246.4125" y="-153" font-family="Helvetica,sans-Serif" font-size="10.00" fill="#000000">player/NEXT &#160;&#160;</text>
</g>
<!-- SWITCHING -->
<g id="node4" class="node">
<title>SWITCHING</title>
<polygon fill="#ffffff" stroke="transparent" stroke-width="2" points="345.4125,-36 255.4125,-36 255.4125,0 345.4125,0 345.4125,-36"/>
<text text-anchor="start" x="266.0859" y="-14.2" font-family="Helvetica,sans-Serif" font-size="12.00" fill="#000000">SWITCHING</text>
<path fill="none" stroke="#000000" stroke-width="2" d="M267.7458,-1C267.7458,-1 333.0791,-1 333.0791,-1 338.7458,-1 344.4125,-6.6667 344.4125,-12.3333 344.4125,-12.3333 344.4125,-23.6667 344.4125,-23.6667 344.4125,-29.3333 338.7458,-35 333.0791,-35 333.0791,-35 267.7458,-35 267.7458,-35 262.0791,-35 256.4125,-29.3333 256.4125,-23.6667 256.4125,-23.6667 256.4125,-12.3333 256.4125,-12.3333 256.4125,-6.6667 262.0791,-1 267.7458,-1"/>
</g>
<!-- PLAYING&#45;&gt;SWITCHING -->
<g id="edge5" class="edge">
<title>PLAYING&#45;&gt;SWITCHING</title>
<path fill="none" stroke="#000000" d="M144.916,-89.9896C139.7795,-78.5756 136.2471,-64.1117 144.2925,-54 156.8784,-38.1816 205.4989,-28.7206 245.1785,-23.4972"/>
<polygon fill="#000000" stroke="#000000" points="245.8206,-26.9442 255.3078,-22.228 244.9502,-19.9985 245.8206,-26.9442"/>
<text text-anchor="start" x="144.4125" y="-57" font-family="Helvetica,sans-Serif" font-size="10.00" fill="#000000">player/NEXT [isNext] &#160;&#160;</text>
</g>
<!-- SWITCHING&#45;&gt;APP -->
<g id="edge7" class="edge">
<title>SWITCHING&#45;&gt;APP</title>
<path fill="none" stroke="#000000" d="M317.5077,-36.1091C321.5436,-41.4718 325.2878,-47.626 327.4125,-54 342.701,-99.8655 343.9837,-123.7518 314.4125,-162 304.7625,-174.4815 290.6639,-183.1869 276.0799,-189.2503"/>
<polygon fill="#000000" stroke="#000000" points="274.595,-186.0694 266.4679,-192.8664 277.0599,-192.6211 274.595,-186.0694"/>
<text text-anchor="start" x="338.4125" y="-123" font-family="Helvetica,sans-Serif" font-size="10.00" fill="#000000">player/STOP/function () { &#160;&#160;</text>
<text text-anchor="start" x="338.4125" y="-111" font-family="Helvetica,sans-Serif" font-size="10.00" fill="#000000">// tslint:disable&#45;next&#45;line:no&#45;console &#160;&#160;</text>
<text text-anchor="start" x="338.4125" y="-99" font-family="Helvetica,sans-Serif" font-size="10.00" fill="#000000">console.log(&#39;doStop&#39;); &#160;&#160;</text>
<text text-anchor="start" x="338.4125" y="-87" font-family="Helvetica,sans-Serif" font-size="10.00" fill="#000000">} &#160;&#160;</text>
</g>
<!-- SWITCHING&#45;&gt;APP -->
<g id="edge8" class="edge">
<title>SWITCHING&#45;&gt;APP</title>
<path fill="none" stroke="#000000" d="M345.5528,-26.1657C399.9453,-37.0304 486.4224,-57.9361 505.4125,-84 517.9751,-101.2422 518.5889,-115.2222 505.4125,-132 477.5167,-167.5202 353.5032,-187.5257 276.6506,-196.7175"/>
<polygon fill="#000000" stroke="#000000" points="276.1241,-193.2551 266.5972,-197.8906 276.9355,-200.2079 276.1241,-193.2551"/>
<text text-anchor="start" x="514.4125" y="-105" font-family="Helvetica,sans-Serif" font-size="10.00" fill="#000000">player/ERROR &#160;&#160;</text>
</g>
<!-- SWITCHING&#45;&gt;PLAYING -->
<g id="edge9" class="edge">
<title>SWITCHING&#45;&gt;PLAYING</title>
<path fill="none" stroke="#000000" d="M281.9817,-36.0078C271.513,-45.6503 257.8467,-57.2983 244.4125,-66 231.2465,-74.528 216.0767,-82.3412 202.0338,-88.8554"/>
<polygon fill="#000000" stroke="#000000" points="200.2014,-85.8426 192.5304,-93.1506 203.0844,-92.2214 200.2014,-85.8426"/>
<text text-anchor="start" x="261.4125" y="-57" font-family="Helvetica,sans-Serif" font-size="10.00" fill="#000000">player/PLAY &#160;&#160;</text>
</g>
</g>
</svg>
