<?xml version="1.0" encoding="UTF-8" standalone="no"?>
<!DOCTYPE svg PUBLIC "-//W3C//DTD SVG 1.1//EN"
 "http://www.w3.org/Graphics/SVG/1.1/DTD/svg11.dtd">
<!-- Generated by graphviz version 2.40.1 (20161225.0304)
 -->
<!-- Title: state transitions Pages: 1 -->
<svg width="531pt" height="301pt"
 viewBox="0.00 0.00 530.86 301.00" xmlns="http://www.w3.org/2000/svg" xmlns:xlink="http://www.w3.org/1999/xlink">
<g id="graph0" class="graph" transform="scale(1 1) rotate(0) translate(4 297)">
<title>state transitions</title>
<polygon fill="#ffffff" stroke="transparent" points="-4,4 -4,-297 526.8617,-297 526.8617,4 -4,4"/>
<!-- initial -->
<g id="node1" class="node">
<title>initial</title>
<ellipse fill="#000000" stroke="#000000" stroke-width="2" cx="214.4157" cy="-287.5" rx="5.5" ry="5.5"/>
</g>
<!-- APP -->
<g id="node2" class="node">
<title>APP</title>
<polygon fill="#ffffff" stroke="transparent" stroke-width="2" points="268.4157,-234 160.4157,-234 160.4157,-188 268.4157,-188 268.4157,-234"/>
<text text-anchor="start" x="202.4115" y="-217.2" font-family="Helvetica,sans-Serif" font-size="12.00" fill="#000000">APP</text>
<text text-anchor="start" x="166.4007" y="-197.2" font-family="Helvetica,sans-Serif" font-size="12.00" fill="#000000">entry/ onEntryApp</text>
<polygon fill="#000000" stroke="#000000" points="160.4157,-211 160.4157,-211 268.4157,-211 268.4157,-211 160.4157,-211"/>
<path fill="none" stroke="#000000" stroke-width="2" d="M173.4157,-189C173.4157,-189 255.4157,-189 255.4157,-189 261.4157,-189 267.4157,-195 267.4157,-201 267.4157,-201 267.4157,-221 267.4157,-221 267.4157,-227 261.4157,-233 255.4157,-233 255.4157,-233 173.4157,-233 173.4157,-233 167.4157,-233 161.4157,-227 161.4157,-221 161.4157,-221 161.4157,-201 161.4157,-201 161.4157,-195 167.4157,-189 173.4157,-189"/>
</g>
<!-- initial&#45;&gt;APP -->
<g id="edge1" class="edge">
<title>initial&#45;&gt;APP</title>
<path fill="none" stroke="#000000" d="M214.4157,-281.9983C214.4157,-274.0587 214.4157,-258.7605 214.4157,-244.3919"/>
<polygon fill="#000000" stroke="#000000" points="217.9158,-244.2121 214.4157,-234.2121 210.9158,-244.2121 217.9158,-244.2121"/>
<text text-anchor="middle" x="215.8052" y="-255" font-family="Helvetica,sans-Serif" font-size="10.00" fill="#000000"> </text>
</g>
<!-- PLAYING -->
<g id="node3" class="node">
<title>PLAYING</title>
<polygon fill="#ffffff" stroke="transparent" stroke-width="2" points="197.4157,-140 113.4157,-140 113.4157,-94 197.4157,-94 197.4157,-140"/>
<text text-anchor="start" x="129.4099" y="-123.2" font-family="Helvetica,sans-Serif" font-size="12.00" fill="#000000">PLAYING</text>
<text text-anchor="start" x="119.4091" y="-103.2" font-family="Helvetica,sans-Serif" font-size="12.00" fill="#000000">startPlayback</text>
<polygon fill="#000000" stroke="#000000" points="113.4157,-117 113.4157,-117 197.4157,-117 197.4157,-117 113.4157,-117"/>
<path fill="none" stroke="#000000" stroke-width="2" d="M126.4157,-95C126.4157,-95 184.4157,-95 184.4157,-95 190.4157,-95 196.4157,-101 196.4157,-107 196.4157,-107 196.4157,-127 196.4157,-127 196.4157,-133 190.4157,-139 184.4157,-139 184.4157,-139 126.4157,-139 126.4157,-139 120.4157,-139 114.4157,-133 114.4157,-127 114.4157,-127 114.4157,-107 114.4157,-107 114.4157,-101 120.4157,-95 126.4157,-95"/>
</g>
<!-- APP&#45;&gt;PLAYING -->
<g id="edge2" class="edge">
<title>APP&#45;&gt;PLAYING</title>
<path fill="none" stroke="#000000" d="M160.3264,-208.1612C104.2769,-203.9542 22.153,-193.8095 2.5087,-170 -.8855,-165.8861 -.7377,-162.2315 2.5087,-158 14.8589,-141.9019 63.8259,-130.7348 103.0642,-124.1655"/>
<polygon fill="#000000" stroke="#000000" points="103.7439,-127.6012 113.0594,-122.5543 102.6299,-120.6905 103.7439,-127.6012"/>
<text text-anchor="start" x="3.4157" y="-161" font-family="Helvetica,sans-Serif" font-size="10.00" fill="#000000">player/PLAY &#160;&#160;</text>
</g>
<!-- PLAYING&#45;&gt;APP -->
<g id="edge3" class="edge">
<title>PLAYING&#45;&gt;APP</title>
<path fill="none" stroke="#000000" d="M112.9841,-131.2968C92.3247,-140.6448 74.2033,-154.063 85.8487,-170 94.0711,-181.2525 122.419,-190.9013 150.4103,-198.0067"/>
<polygon fill="#000000" stroke="#000000" points="149.7179,-201.4404 160.2627,-200.4123 151.3783,-194.6401 149.7179,-201.4404"/>
<text text-anchor="start" x="86.4157" y="-161" font-family="Helvetica,sans-Serif" font-size="10.00" fill="#000000">player/STOP &#160;&#160;</text>
</g>
<!-- PLAYING&#45;&gt;APP -->
<g id="edge4" class="edge">
<title>PLAYING&#45;&gt;APP</title>
<path fill="none" stroke="#000000" d="M158.833,-140.041C160.9943,-149.7872 164.462,-160.953 169.9697,-170 172.1806,-173.6317 174.8043,-177.1404 177.655,-180.4742"/>
<polygon fill="#000000" stroke="#000000" points="175.2367,-183.012 184.6308,-187.9112 180.3422,-178.2231 175.2367,-183.012"/>
<text text-anchor="start" x="170.4157" y="-161" font-family="Helvetica,sans-Serif" font-size="10.00" fill="#000000">player/ERROR &#160;&#160;</text>
</g>
<!-- PLAYING&#45;&gt;APP -->
<g id="edge6" class="edge">
<title>PLAYING&#45;&gt;APP</title>
<path fill="none" stroke="#000000" d="M197.5331,-126.0523C214.8344,-132.0681 233.1798,-141.9387 243.4157,-158 247.6963,-164.7168 246.8857,-172.1123 243.6277,-179.1927"/>
<polygon fill="#000000" stroke="#000000" points="240.536,-177.5427 238.3908,-187.9181 246.538,-181.145 240.536,-177.5427"/>
<text text-anchor="start" x="246.4157" y="-161" font-family="Helvetica,sans-Serif" font-size="10.00" fill="#000000">player/NEXT &#160;&#160;</text>
</g>
<!-- SWITCHING -->
<g id="node4" class="node">
<title>SWITCHING</title>
<polygon fill="#ffffff" stroke="transparent" stroke-width="2" points="344.4157,-46 256.4157,-46 256.4157,0 344.4157,0 344.4157,-46"/>
<text text-anchor="start" x="266.0891" y="-29.2" font-family="Helvetica,sans-Serif" font-size="12.00" fill="#000000">SWITCHING</text>
<text text-anchor="start" x="262.0823" y="-9.2" font-family="Helvetica,sans-Serif" font-size="12.00" fill="#000000">switchTimeout</text>
<polygon fill="#000000" stroke="#000000" points="256.4157,-23 256.4157,-23 344.4157,-23 344.4157,-23 256.4157,-23"/>
<path fill="none" stroke="#000000" stroke-width="2" d="M269.4157,-1C269.4157,-1 331.4157,-1 331.4157,-1 337.4157,-1 343.4157,-7 343.4157,-13 343.4157,-13 343.4157,-33 343.4157,-33 343.4157,-39 337.4157,-45 331.4157,-45 331.4157,-45 269.4157,-45 269.4157,-45 263.4157,-45 257.4157,-39 257.4157,-33 257.4157,-33 257.4157,-13 257.4157,-13 257.4157,-7 263.4157,-1 269.4157,-1"/>
</g>
<!-- PLAYING&#45;&gt;SWITCHING -->
<g id="edge5" class="edge">
<title>PLAYING&#45;&gt;SWITCHING</title>
<path fill="none" stroke="#000000" d="M142.8091,-93.7378C139.2135,-83.7247 137.8073,-72.4124 144.2957,-64 156.8784,-47.6862 206.5112,-36.5867 246.482,-30.0937"/>
<polygon fill="#000000" stroke="#000000" points="247.0682,-33.5446 256.4074,-28.5418 245.9868,-26.6286 247.0682,-33.5446"/>
<text text-anchor="start" x="144.4157" y="-67" font-family="Helvetica,sans-Serif" font-size="10.00" fill="#000000">player/NEXT [isNext] &#160;&#160;</text>
</g>
<!-- SWITCHING&#45;&gt;APP -->
<g id="edge7" class="edge">
<title>SWITCHING&#45;&gt;APP</title>
<path fill="none" stroke="#000000" d="M318.9317,-46.1024C322.4211,-51.6611 325.5562,-57.7953 327.4157,-64 341.0416,-109.4662 343.5003,-132.491 314.4157,-170 305.2138,-181.8672 291.9921,-190.3215 278.1633,-196.337"/>
<polygon fill="#000000" stroke="#000000" points="276.5595,-193.2068 268.5344,-200.124 279.1216,-199.7211 276.5595,-193.2068"/>
<text text-anchor="start" x="337.4157" y="-114" font-family="Helvetica,sans-Serif" font-size="10.00" fill="#000000">player/STOP/doStop &#160;&#160;</text>
</g>
<!-- SWITCHING&#45;&gt;APP -->
<g id="edge8" class="edge">
<title>SWITCHING&#45;&gt;APP</title>
<path fill="none" stroke="#000000" d="M344.5515,-32.3787C377.2778,-41.8948 419.6654,-60.2104 440.4157,-94 451.1144,-111.4216 452.5132,-123.519 440.4157,-140 421.0627,-166.3654 338.5224,-187.3756 278.7795,-199.5079"/>
<polygon fill="#000000" stroke="#000000" points="277.7804,-196.138 268.6565,-201.5237 279.1475,-203.0032 277.7804,-196.138"/>
<text text-anchor="start" x="448.4157" y="-114" font-family="Helvetica,sans-Serif" font-size="10.00" fill="#000000">player/ERROR &#160;&#160;</text>
</g>
<!-- SWITCHING&#45;&gt;PLAYING -->
<g id="edge9" class="edge">
<title>SWITCHING&#45;&gt;PLAYING</title>
<path fill="none" stroke="#000000" d="M279.2441,-46.2029C269.3235,-56.2045 256.9443,-67.5242 244.4157,-76 232.8504,-83.8241 219.5524,-90.8457 206.8216,-96.7751"/>
<polygon fill="#000000" stroke="#000000" points="205.3618,-93.594 197.6847,-100.8955 208.2395,-99.9751 205.3618,-93.594"/>
<text text-anchor="start" x="260.4157" y="-67" font-family="Helvetica,sans-Serif" font-size="10.00" fill="#000000">player/PLAY &#160;&#160;</text>
</g>
</g>
</svg>
