<?xml version="1.0" encoding="UTF-8" standalone="no"?>
<!DOCTYPE svg PUBLIC "-//W3C//DTD SVG 1.1//EN"
 "http://www.w3.org/Graphics/SVG/1.1/DTD/svg11.dtd">
<!-- Generated by graphviz version 2.40.1 (20161225.0304)
 -->
<!-- Title: state transitions Pages: 1 -->
<svg width="492pt" height="282pt"
 viewBox="0.00 0.00 491.79 282.00" xmlns="http://www.w3.org/2000/svg" xmlns:xlink="http://www.w3.org/1999/xlink">
<g id="graph0" class="graph" transform="scale(1 1) rotate(0) translate(4 278)">
<title>state transitions</title>
<polygon fill="#ffffff" stroke="transparent" points="-4,4 -4,-278 487.7873,-278 487.7873,4 -4,4"/>
<!-- APP -->
<g id="node1" class="node">
<title>APP</title>
<polygon fill="#ffffff" stroke="transparent" stroke-width="2" points="307.3413,-274 121.3413,-274 121.3413,-168 307.3413,-168 307.3413,-274"/>
<text text-anchor="start" x="202.3371" y="-257.2" font-family="Helvetica,sans-Serif" font-size="12.00" fill="#000000">APP</text>
<text text-anchor="start" x="127.3413" y="-237.2" font-family="Helvetica,sans-Serif" font-size="12.00" fill="#000000">entry/function (_a) {</text>
<text text-anchor="start" x="127.3413" y="-217.2" font-family="Helvetica,sans-Serif" font-size="12.00" fill="#000000">var dispatch = _a.dispatch;</text>
<text text-anchor="start" x="126.9975" y="-197.2" font-family="Helvetica,sans-Serif" font-size="12.00" fill="#000000">dispatch(exports.actions.reset());</text>
<text text-anchor="start" x="127.3413" y="-177.2" font-family="Helvetica,sans-Serif" font-size="12.00" fill="#000000">}</text>
<polygon fill="#000000" stroke="#000000" points="121.3413,-251 121.3413,-251 307.3413,-251 307.3413,-251 121.3413,-251"/>
<path fill="none" stroke="#000000" stroke-width="2" d="M134.3413,-169C134.3413,-169 294.3413,-169 294.3413,-169 300.3413,-169 306.3413,-175 306.3413,-181 306.3413,-181 306.3413,-261 306.3413,-261 306.3413,-267 300.3413,-273 294.3413,-273 294.3413,-273 134.3413,-273 134.3413,-273 128.3413,-273 122.3413,-267 122.3413,-261 122.3413,-261 122.3413,-181 122.3413,-181 122.3413,-175 128.3413,-169 134.3413,-169"/>
</g>
<!-- PLAYING -->
<g id="node2" class="node">
<title>PLAYING</title>
<polygon fill="#ffffff" stroke="transparent" stroke-width="2" points="192.3413,-120 118.3413,-120 118.3413,-84 192.3413,-84 192.3413,-120"/>
<text text-anchor="start" x="129.3355" y="-98.2" font-family="Helvetica,sans-Serif" font-size="12.00" fill="#000000">PLAYING</text>
<path fill="none" stroke="#000000" stroke-width="2" d="M130.6746,-85C130.6746,-85 180.008,-85 180.008,-85 185.6746,-85 191.3413,-90.6667 191.3413,-96.3333 191.3413,-96.3333 191.3413,-107.6667 191.3413,-107.6667 191.3413,-113.3333 185.6746,-119 180.008,-119 180.008,-119 130.6746,-119 130.6746,-119 125.008,-119 119.3413,-113.3333 119.3413,-107.6667 119.3413,-107.6667 119.3413,-96.3333 119.3413,-96.3333 119.3413,-90.6667 125.008,-85 130.6746,-85"/>
</g>
<!-- APP&#45;&gt;PLAYING -->
<g id="edge1" class="edge">
<title>APP&#45;&gt;PLAYING</title>
<path fill="none" stroke="#000000" d="M121.2876,-201.1353C71.3706,-188.3906 17.1363,-170.4313 2.4343,-150 -.6808,-145.671 -.8767,-142.1811 2.4343,-138 15.4786,-121.528 68.2161,-111.8428 108.1383,-106.7419"/>
<polygon fill="#000000" stroke="#000000" points="108.7341,-110.1953 118.2379,-105.5126 107.8882,-103.2466 108.7341,-110.1953"/>
<text text-anchor="start" x="3.3413" y="-141" font-family="Helvetica,sans-Serif" font-size="10.00" fill="#000000">player/PLAY &#160;&#160;</text>
</g>
<!-- PLAYING&#45;&gt;APP -->
<g id="edge2" class="edge">
<title>PLAYING&#45;&gt;APP</title>
<path fill="none" stroke="#000000" d="M118.0662,-112.0775C96.5024,-119.9748 75.4831,-132.5606 85.7743,-150 92.5897,-161.5494 102.0312,-171.35 112.7322,-179.6329"/>
<polygon fill="#000000" stroke="#000000" points="110.9752,-182.6803 121.1381,-185.6749 115.0608,-176.9963 110.9752,-182.6803"/>
<text text-anchor="start" x="86.3413" y="-141" font-family="Helvetica,sans-Serif" font-size="10.00" fill="#000000">player/STOP &#160;&#160;</text>
</g>
<!-- PLAYING&#45;&gt;APP -->
<g id="edge3" class="edge">
<title>PLAYING&#45;&gt;APP</title>
<path fill="none" stroke="#000000" d="M159.6367,-120.1935C162.1007,-129.3467 165.569,-140.4881 169.8953,-150 171.25,-152.9784 172.7098,-155.9818 174.246,-158.9827"/>
<polygon fill="#000000" stroke="#000000" points="171.2442,-160.7911 179.0541,-167.9504 177.4134,-157.4834 171.2442,-160.7911"/>
<text text-anchor="start" x="170.3413" y="-141" font-family="Helvetica,sans-Serif" font-size="10.00" fill="#000000">player/ERROR &#160;&#160;</text>
</g>
<!-- PLAYING&#45;&gt;APP -->
<g id="edge5" class="edge">
<title>PLAYING&#45;&gt;APP</title>
<path fill="none" stroke="#000000" d="M192.7544,-107.4045C211.2675,-112.1741 232.0244,-121.1432 243.3413,-138 247.3999,-144.0454 248.9389,-150.7197 248.7565,-157.5788"/>
<polygon fill="#000000" stroke="#000000" points="245.2587,-157.3222 247.3505,-167.7084 252.1922,-158.2846 245.2587,-157.3222"/>
<text text-anchor="start" x="248.3413" y="-141" font-family="Helvetica,sans-Serif" font-size="10.00" fill="#000000">player/NEXT &#160;&#160;</text>
</g>
<!-- SWITCHING -->
<g id="node3" class="node">
<title>SWITCHING</title>
<polygon fill="#ffffff" stroke="transparent" stroke-width="2" points="345.3413,-36 255.3413,-36 255.3413,0 345.3413,0 345.3413,-36"/>
<text text-anchor="start" x="266.0147" y="-14.2" font-family="Helvetica,sans-Serif" font-size="12.00" fill="#000000">SWITCHING</text>
<path fill="none" stroke="#000000" stroke-width="2" d="M267.6746,-1C267.6746,-1 333.008,-1 333.008,-1 338.6746,-1 344.3413,-6.6667 344.3413,-12.3333 344.3413,-12.3333 344.3413,-23.6667 344.3413,-23.6667 344.3413,-29.3333 338.6746,-35 333.008,-35 333.008,-35 267.6746,-35 267.6746,-35 262.008,-35 256.3413,-29.3333 256.3413,-23.6667 256.3413,-23.6667 256.3413,-12.3333 256.3413,-12.3333 256.3413,-6.6667 262.008,-1 267.6746,-1"/>
</g>
<!-- PLAYING&#45;&gt;SWITCHING -->
<g id="edge4" class="edge">
<title>PLAYING&#45;&gt;SWITCHING</title>
<path fill="none" stroke="#000000" d="M144.4595,-83.9624C140.0996,-74.1938 137.5107,-62.4341 144.2213,-54 156.8072,-38.1816 205.4277,-28.7206 245.1074,-23.4972"/>
<polygon fill="#000000" stroke="#000000" points="245.7494,-26.9442 255.2367,-22.228 244.8791,-19.9985 245.7494,-26.9442"/>
<text text-anchor="start" x="144.3413" y="-57" font-family="Helvetica,sans-Serif" font-size="10.00" fill="#000000">player/NEXT [isNext] &#160;&#160;</text>
</g>
<!-- SWITCHING&#45;&gt;APP -->
<g id="edge6" class="edge">
<title>SWITCHING&#45;&gt;APP</title>
<path fill="none" stroke="#000000" d="M317.4366,-36.1091C321.4724,-41.4718 325.2166,-47.626 327.3413,-54 340.922,-94.742 338.6588,-113.3084 316.3413,-150 314.2565,-153.4276 311.9365,-156.7318 309.4264,-159.9125"/>
<polygon fill="#000000" stroke="#000000" points="306.7061,-157.7074 302.8212,-167.5643 312.005,-162.2815 306.7061,-157.7074"/>
<text text-anchor="start" x="335.3413" y="-99" font-family="Helvetica,sans-Serif" font-size="10.00" fill="#000000">player/STOP &#160;&#160;</text>
</g>
<!-- SWITCHING&#45;&gt;APP -->
<g id="edge7" class="edge">
<title>SWITCHING&#45;&gt;APP</title>
<path fill="none" stroke="#000000" d="M345.3949,-34.3975C367.3653,-44.9454 391.7212,-61.0443 404.3413,-84 412.0494,-98.0209 412.5826,-106.2857 404.3413,-120 384.8182,-152.4881 350.9254,-175.089 317.1199,-190.5368"/>
<polygon fill="#000000" stroke="#000000" points="315.3552,-187.4886 307.5993,-194.7064 318.1635,-193.9006 315.3552,-187.4886"/>
<text text-anchor="start" x="409.3413" y="-99" font-family="Helvetica,sans-Serif" font-size="10.00" fill="#000000">player/ERROR &#160;&#160;</text>
</g>
<!-- SWITCHING&#45;&gt;PLAYING -->
<g id="edge8" class="edge">
<title>SWITCHING&#45;&gt;PLAYING</title>
<path fill="none" stroke="#000000" d="M282.3489,-36.0757C271.9068,-45.8561 258.1255,-57.615 244.3413,-66 231.2673,-73.9529 216.1235,-80.8318 202.0762,-86.3841"/>
<polygon fill="#000000" stroke="#000000" points="200.6605,-83.1781 192.5652,-90.013 203.1559,-89.7182 200.6605,-83.1781"/>
<text text-anchor="start" x="261.3413" y="-57" font-family="Helvetica,sans-Serif" font-size="10.00" fill="#000000">player/PLAY &#160;&#160;</text>
</g>
</g>
</svg>
