<?xml version="1.0" encoding="UTF-8" standalone="no"?>
<!DOCTYPE svg PUBLIC "-//W3C//DTD SVG 1.1//EN"
 "http://www.w3.org/Graphics/SVG/1.1/DTD/svg11.dtd">
<!-- Generated by graphviz version 2.40.1 (20161225.0304)
 -->
<!-- Title: state transitions Pages: 1 -->
<svg width="243pt" height="212pt"
 viewBox="0.00 0.00 243.03 212.00" xmlns="http://www.w3.org/2000/svg" xmlns:xlink="http://www.w3.org/1999/xlink">
<g id="graph0" class="graph" transform="scale(1 1) rotate(0) translate(4 208)">
<title>state transitions</title>
<polygon fill="#ffffff" stroke="transparent" points="-4,4 -4,-208 239.0299,-208 239.0299,4 -4,4"/>
<!-- SWITCHING -->
<g id="node1" class="node">
<title>SWITCHING</title>
<polygon fill="#ffffff" stroke="transparent" stroke-width="2" points="147.5879,-204 57.5879,-204 57.5879,-168 147.5879,-168 147.5879,-204"/>
<text text-anchor="start" x="68.2613" y="-182.2" font-family="Helvetica,sans-Serif" font-size="12.00" fill="#000000">SWITCHING</text>
<path fill="none" stroke="#000000" stroke-width="2" d="M69.9213,-169C69.9213,-169 135.2546,-169 135.2546,-169 140.9213,-169 146.5879,-174.6667 146.5879,-180.3333 146.5879,-180.3333 146.5879,-191.6667 146.5879,-191.6667 146.5879,-197.3333 140.9213,-203 135.2546,-203 135.2546,-203 69.9213,-203 69.9213,-203 64.2546,-203 58.5879,-197.3333 58.5879,-191.6667 58.5879,-191.6667 58.5879,-180.3333 58.5879,-180.3333 58.5879,-174.6667 64.2546,-169 69.9213,-169"/>
</g>
<!-- PLAYING -->
<g id="node2" class="node">
<title>PLAYING</title>
<polygon fill="#ffffff" stroke="transparent" stroke-width="2" points="127.5879,-120 53.5879,-120 53.5879,-84 127.5879,-84 127.5879,-120"/>
<text text-anchor="start" x="64.5821" y="-98.2" font-family="Helvetica,sans-Serif" font-size="12.00" fill="#000000">PLAYING</text>
<path fill="none" stroke="#000000" stroke-width="2" d="M65.9213,-85C65.9213,-85 115.2546,-85 115.2546,-85 120.9213,-85 126.5879,-90.6667 126.5879,-96.3333 126.5879,-96.3333 126.5879,-107.6667 126.5879,-107.6667 126.5879,-113.3333 120.9213,-119 115.2546,-119 115.2546,-119 65.9213,-119 65.9213,-119 60.2546,-119 54.5879,-113.3333 54.5879,-107.6667 54.5879,-107.6667 54.5879,-96.3333 54.5879,-96.3333 54.5879,-90.6667 60.2546,-85 65.9213,-85"/>
</g>
<!-- SWITCHING&#45;&gt;PLAYING -->
<g id="edge8" class="edge">
<title>SWITCHING&#45;&gt;PLAYING</title>
<path fill="none" stroke="#000000" d="M99.9841,-167.7733C98.4273,-156.8758 96.4157,-142.7946 94.6534,-130.4587"/>
<polygon fill="#000000" stroke="#000000" points="98.0658,-129.5957 93.1867,-120.1912 91.1361,-130.5857 98.0658,-129.5957"/>
<text text-anchor="start" x="96.5879" y="-141" font-family="Helvetica,sans-Serif" font-size="10.00" fill="#000000">PLAY &#160;&#160;</text>
</g>
<!-- APP -->
<g id="node3" class="node">
<title>APP</title>
<polygon fill="#ffffff" stroke="transparent" stroke-width="2" points="114.5879,-36 58.5879,-36 58.5879,0 114.5879,0 114.5879,-36"/>
<text text-anchor="start" x="74.5837" y="-14.2" font-family="Helvetica,sans-Serif" font-size="12.00" fill="#000000">APP</text>
<path fill="none" stroke="#000000" stroke-width="2" d="M70.9213,-1C70.9213,-1 102.2546,-1 102.2546,-1 107.9213,-1 113.5879,-6.6667 113.5879,-12.3333 113.5879,-12.3333 113.5879,-23.6667 113.5879,-23.6667 113.5879,-29.3333 107.9213,-35 102.2546,-35 102.2546,-35 70.9213,-35 70.9213,-35 65.2546,-35 59.5879,-29.3333 59.5879,-23.6667 59.5879,-23.6667 59.5879,-12.3333 59.5879,-12.3333 59.5879,-6.6667 65.2546,-1 70.9213,-1"/>
</g>
<!-- SWITCHING&#45;&gt;APP -->
<g id="edge6" class="edge">
<title>SWITCHING&#45;&gt;APP</title>
<path fill="none" stroke="#000000" d="M64.9497,-167.8779C45.8098,-156.7203 23.9242,-140.5919 11.0249,-120 -1.909,-99.3528 3.6929,-90.2726 1.5879,-66 1.1271,-60.6866 -1.3575,-58.4462 1.5879,-54 12.0939,-38.141 31.1322,-29.249 48.5315,-24.2728"/>
<polygon fill="#000000" stroke="#000000" points="49.6603,-27.5982 58.5095,-21.7723 47.9587,-20.8082 49.6603,-27.5982"/>
<text text-anchor="start" x="10.5879" y="-99" font-family="Helvetica,sans-Serif" font-size="10.00" fill="#000000">STOP &#160;&#160;</text>
</g>
<!-- SWITCHING&#45;&gt;APP -->
<g id="edge7" class="edge">
<title>SWITCHING&#45;&gt;APP</title>
<path fill="none" stroke="#000000" d="M127.8983,-167.8651C160.7996,-142.0317 210.9919,-93.4009 183.5879,-54 176.4665,-43.7609 148.5286,-34.0371 124.4536,-27.2825"/>
<polygon fill="#000000" stroke="#000000" points="125.3543,-23.9004 114.7871,-24.6661 123.5253,-30.6573 125.3543,-23.9004"/>
<text text-anchor="start" x="190.5879" y="-99" font-family="Helvetica,sans-Serif" font-size="10.00" fill="#000000">ERROR &#160;&#160;</text>
</g>
<!-- PLAYING&#45;&gt;SWITCHING -->
<g id="edge4" class="edge">
<title>PLAYING&#45;&gt;SWITCHING</title>
<path fill="none" stroke="#000000" d="M93.1867,-120.1912C94.7424,-131.0817 96.7538,-145.1613 98.5166,-157.501"/>
<polygon fill="#000000" stroke="#000000" points="95.105,-158.3688 99.9841,-167.7733 102.0346,-157.3788 95.105,-158.3688"/>
<text text-anchor="start" x="96.5879" y="-141" font-family="Helvetica,sans-Serif" font-size="10.00" fill="#000000">NEXT &#160;&#160;</text>
</g>
<!-- PLAYING&#45;&gt;APP -->
<g id="edge2" class="edge">
<title>PLAYING&#45;&gt;APP</title>
<path fill="none" stroke="#000000" d="M72.2195,-83.6546C68.0639,-78.3798 64.2305,-72.3284 62.0249,-66 59.568,-58.9504 61.0256,-51.6348 64.1973,-44.9031"/>
<polygon fill="#000000" stroke="#000000" points="67.2886,-46.5519 69.378,-36.1651 61.2673,-42.9819 67.2886,-46.5519"/>
<text text-anchor="start" x="61.5879" y="-57" font-family="Helvetica,sans-Serif" font-size="10.00" fill="#000000">STOP &#160;&#160;</text>
</g>
<!-- PLAYING&#45;&gt;APP -->
<g id="edge3" class="edge">
<title>PLAYING&#45;&gt;APP</title>
<path fill="none" stroke="#000000" d="M95.1056,-83.7531C96.7561,-74.7844 97.9263,-63.8191 96.5879,-54 96.2227,-51.3207 95.7113,-48.5593 95.1109,-45.8137"/>
<polygon fill="#000000" stroke="#000000" points="98.5015,-44.9453 92.6493,-36.1134 91.7166,-46.6671 98.5015,-44.9453"/>
<text text-anchor="start" x="96.5879" y="-57" font-family="Helvetica,sans-Serif" font-size="10.00" fill="#000000">ERROR &#160;&#160;</text>
</g>
<!-- PLAYING&#45;&gt;APP -->
<g id="edge5" class="edge">
<title>PLAYING&#45;&gt;APP</title>
<path fill="none" stroke="#000000" d="M127.7237,-85.5184C140.6563,-77.2683 150.4192,-66.3942 143.5879,-54 138.9825,-45.6443 131.5307,-38.9598 123.5122,-33.7293"/>
<polygon fill="#000000" stroke="#000000" points="125.1026,-30.6057 114.6966,-28.6142 121.5894,-36.6603 125.1026,-30.6057"/>
<text text-anchor="start" x="145.5879" y="-57" font-family="Helvetica,sans-Serif" font-size="10.00" fill="#000000">NEXT &#160;&#160;</text>
</g>
<!-- APP&#45;&gt;PLAYING -->
<g id="edge1" class="edge">
<title>APP&#45;&gt;PLAYING</title>
<path fill="none" stroke="#000000" d="M58.371,-23.6261C30.6402,-30.5378 -5.5999,-44.1173 8.6849,-66 16.8251,-78.4698 30.3557,-86.6487 44.0975,-92.0018"/>
<polygon fill="#000000" stroke="#000000" points="42.9864,-95.3208 53.5811,-95.2743 45.2698,-88.7037 42.9864,-95.3208"/>
<text text-anchor="start" x="8.5879" y="-57" font-family="Helvetica,sans-Serif" font-size="10.00" fill="#000000">PLAY &#160;&#160;</text>
</g>
</g>
</svg>
