<?xml version="1.0" encoding="UTF-8" standalone="no"?>
<!DOCTYPE svg PUBLIC "-//W3C//DTD SVG 1.1//EN"
 "http://www.w3.org/Graphics/SVG/1.1/DTD/svg11.dtd">
<!-- Generated by graphviz version 2.40.1 (20161225.0304)
 -->
<!-- Title: state transitions Pages: 1 -->
<svg width="305pt" height="282pt"
 viewBox="0.00 0.00 304.82 282.00" xmlns="http://www.w3.org/2000/svg" xmlns:xlink="http://www.w3.org/1999/xlink">
<g id="graph0" class="graph" transform="scale(1 1) rotate(0) translate(4 278)">
<title>state transitions</title>
<polygon fill="#ffffff" stroke="transparent" points="-4,4 -4,-278 300.8172,-278 300.8172,4 -4,4"/>
<!-- APP -->
<g id="node1" class="node">
<title>APP</title>
<polygon fill="#ffffff" stroke="transparent" stroke-width="2" points="233.3752,-274 47.3752,-274 47.3752,-168 233.3752,-168 233.3752,-274"/>
<text text-anchor="start" x="128.371" y="-257.2" font-family="Helvetica,sans-Serif" font-size="12.00" fill="#000000">APP</text>
<text text-anchor="start" x="53.3752" y="-237.2" font-family="Helvetica,sans-Serif" font-size="12.00" fill="#000000">entry/function (_a) {</text>
<text text-anchor="start" x="53.3752" y="-217.2" font-family="Helvetica,sans-Serif" font-size="12.00" fill="#000000">var dispatch = _a.dispatch;</text>
<text text-anchor="start" x="53.0314" y="-197.2" font-family="Helvetica,sans-Serif" font-size="12.00" fill="#000000">dispatch(exports.actions.reset());</text>
<text text-anchor="start" x="53.3752" y="-177.2" font-family="Helvetica,sans-Serif" font-size="12.00" fill="#000000">}</text>
<polygon fill="#000000" stroke="#000000" points="47.3752,-251 47.3752,-251 233.3752,-251 233.3752,-251 47.3752,-251"/>
<path fill="none" stroke="#000000" stroke-width="2" d="M60.3752,-169C60.3752,-169 220.3752,-169 220.3752,-169 226.3752,-169 232.3752,-175 232.3752,-181 232.3752,-181 232.3752,-261 232.3752,-261 232.3752,-267 226.3752,-273 220.3752,-273 220.3752,-273 60.3752,-273 60.3752,-273 54.3752,-273 48.3752,-267 48.3752,-261 48.3752,-261 48.3752,-181 48.3752,-181 48.3752,-175 54.3752,-169 60.3752,-169"/>
</g>
<!-- PLAYING -->
<g id="node2" class="node">
<title>PLAYING</title>
<polygon fill="#ffffff" stroke="transparent" stroke-width="2" points="133.3752,-120 59.3752,-120 59.3752,-84 133.3752,-84 133.3752,-120"/>
<text text-anchor="start" x="70.3694" y="-98.2" font-family="Helvetica,sans-Serif" font-size="12.00" fill="#000000">PLAYING</text>
<path fill="none" stroke="#000000" stroke-width="2" d="M71.7086,-85C71.7086,-85 121.0419,-85 121.0419,-85 126.7086,-85 132.3752,-90.6667 132.3752,-96.3333 132.3752,-96.3333 132.3752,-107.6667 132.3752,-107.6667 132.3752,-113.3333 126.7086,-119 121.0419,-119 121.0419,-119 71.7086,-119 71.7086,-119 66.0419,-119 60.3752,-113.3333 60.3752,-107.6667 60.3752,-107.6667 60.3752,-96.3333 60.3752,-96.3333 60.3752,-90.6667 66.0419,-85 71.7086,-85"/>
</g>
<!-- APP&#45;&gt;PLAYING -->
<g id="edge1" class="edge">
<title>APP&#45;&gt;PLAYING</title>
<path fill="none" stroke="#000000" d="M47.131,-190.2423C29.758,-180.1819 13.8332,-167.0447 3.4722,-150 -9.8716,-128.048 19.921,-115.6984 49.2397,-109.0428"/>
<polygon fill="#000000" stroke="#000000" points="50.0202,-112.4555 59.1014,-106.9983 48.5991,-105.6012 50.0202,-112.4555"/>
<text text-anchor="start" x="4.3752" y="-141" font-family="Helvetica,sans-Serif" font-size="10.00" fill="#000000">PLAY &#160;&#160;</text>
</g>
<!-- PLAYING&#45;&gt;APP -->
<g id="edge2" class="edge">
<title>PLAYING&#45;&gt;APP</title>
<path fill="none" stroke="#000000" d="M68.0841,-120.0565C58.6723,-128.4628 51.7345,-139.0225 56.8122,-150 58.2958,-153.2072 60.0035,-156.3227 61.8952,-159.3427"/>
<polygon fill="#000000" stroke="#000000" points="59.0749,-161.417 67.6796,-167.5984 64.8077,-157.4002 59.0749,-161.417"/>
<text text-anchor="start" x="57.3752" y="-141" font-family="Helvetica,sans-Serif" font-size="10.00" fill="#000000">STOP &#160;&#160;</text>
</g>
<!-- PLAYING&#45;&gt;APP -->
<g id="edge3" class="edge">
<title>PLAYING&#45;&gt;APP</title>
<path fill="none" stroke="#000000" d="M101.4862,-120.373C104.1062,-129.3716 107.4698,-140.3256 110.9332,-150 111.9031,-152.709 112.9184,-155.4653 113.9646,-158.2418"/>
<polygon fill="#000000" stroke="#000000" points="110.7561,-159.6493 117.6201,-167.72 117.2872,-157.1304 110.7561,-159.6493"/>
<text text-anchor="start" x="111.3752" y="-141" font-family="Helvetica,sans-Serif" font-size="10.00" fill="#000000">ERROR &#160;&#160;</text>
</g>
<!-- PLAYING&#45;&gt;APP -->
<g id="edge5" class="edge">
<title>PLAYING&#45;&gt;APP</title>
<path fill="none" stroke="#000000" d="M133.4868,-117.324C141.8154,-122.5975 149.5934,-129.4038 154.3752,-138 157.764,-144.0919 159.4038,-150.7954 159.8286,-157.6711"/>
<polygon fill="#000000" stroke="#000000" points="156.3266,-157.7548 159.644,-167.8168 163.3254,-157.8822 156.3266,-157.7548"/>
<text text-anchor="start" x="159.3752" y="-141" font-family="Helvetica,sans-Serif" font-size="10.00" fill="#000000">NEXT &#160;&#160;</text>
</g>
<!-- SWITCHING -->
<g id="node3" class="node">
<title>SWITCHING</title>
<polygon fill="#ffffff" stroke="transparent" stroke-width="2" points="241.3752,-36 151.3752,-36 151.3752,0 241.3752,0 241.3752,-36"/>
<text text-anchor="start" x="162.0486" y="-14.2" font-family="Helvetica,sans-Serif" font-size="12.00" fill="#000000">SWITCHING</text>
<path fill="none" stroke="#000000" stroke-width="2" d="M163.7086,-1C163.7086,-1 229.0419,-1 229.0419,-1 234.7086,-1 240.3752,-6.6667 240.3752,-12.3333 240.3752,-12.3333 240.3752,-23.6667 240.3752,-23.6667 240.3752,-29.3333 234.7086,-35 229.0419,-35 229.0419,-35 163.7086,-35 163.7086,-35 158.0419,-35 152.3752,-29.3333 152.3752,-23.6667 152.3752,-23.6667 152.3752,-12.3333 152.3752,-12.3333 152.3752,-6.6667 158.0419,-1 163.7086,-1"/>
</g>
<!-- PLAYING&#45;&gt;SWITCHING -->
<g id="edge4" class="edge">
<title>PLAYING&#45;&gt;SWITCHING</title>
<path fill="none" stroke="#000000" d="M85.5812,-83.7176C81.4342,-74.1082 79.0211,-62.5785 85.2592,-54 92.387,-44.1982 117.0833,-35.7012 141.3881,-29.4275"/>
<polygon fill="#000000" stroke="#000000" points="142.4958,-32.7592 151.3648,-26.9634 140.8173,-25.9634 142.4958,-32.7592"/>
<text text-anchor="start" x="85.3752" y="-57" font-family="Helvetica,sans-Serif" font-size="10.00" fill="#000000">NEXT [isNext] &#160;&#160;</text>
</g>
<!-- SWITCHING&#45;&gt;APP -->
<g id="edge6" class="edge">
<title>SWITCHING&#45;&gt;APP</title>
<path fill="none" stroke="#000000" d="M201.832,-36.1509C203.285,-41.8136 204.6511,-48.1174 205.3752,-54 210.6065,-96.4938 213.4826,-110.3309 197.3752,-150 196.1942,-152.9086 194.8534,-155.7932 193.3848,-158.64"/>
<polygon fill="#000000" stroke="#000000" points="190.1982,-157.1633 188.2981,-167.5864 196.2834,-160.6232 190.1982,-157.1633"/>
<text text-anchor="start" x="210.3752" y="-99" font-family="Helvetica,sans-Serif" font-size="10.00" fill="#000000">STOP &#160;&#160;</text>
</g>
<!-- SWITCHING&#45;&gt;APP -->
<g id="edge7" class="edge">
<title>SWITCHING&#45;&gt;APP</title>
<path fill="none" stroke="#000000" d="M216.7004,-36.0637C236.7265,-56.1739 262.553,-89.8241 249.3752,-120 242.9199,-134.7821 233.116,-148.3683 221.9842,-160.461"/>
<polygon fill="#000000" stroke="#000000" points="219.3302,-158.1708 214.8996,-167.7947 224.3647,-163.0343 219.3302,-158.1708"/>
<text text-anchor="start" x="252.3752" y="-99" font-family="Helvetica,sans-Serif" font-size="10.00" fill="#000000">ERROR &#160;&#160;</text>
</g>
<!-- SWITCHING&#45;&gt;PLAYING -->
<g id="edge8" class="edge">
<title>SWITCHING&#45;&gt;PLAYING</title>
<path fill="none" stroke="#000000" d="M183.1638,-36.0932C175.6603,-45.6471 165.7177,-57.1843 155.3752,-66 150.2214,-70.3931 144.4724,-74.5988 138.6413,-78.4864"/>
<polygon fill="#000000" stroke="#000000" points="136.6448,-75.6084 130.0988,-83.9391 140.4112,-81.5088 136.6448,-75.6084"/>
<text text-anchor="start" x="168.3752" y="-57" font-family="Helvetica,sans-Serif" font-size="10.00" fill="#000000">PLAY &#160;&#160;</text>
</g>
</g>
</svg>
