<?xml version="1.0" encoding="UTF-8" standalone="no"?>
<!DOCTYPE svg PUBLIC "-//W3C//DTD SVG 1.1//EN"
 "http://www.w3.org/Graphics/SVG/1.1/DTD/svg11.dtd">
<!-- Generated by graphviz version 2.40.1 (20161225.0304)
 -->
<!-- Title: state transitions Pages: 1 -->
<svg width="492pt" height="302pt"
 viewBox="0.00 0.00 491.76 302.00" xmlns="http://www.w3.org/2000/svg" xmlns:xlink="http://www.w3.org/1999/xlink">
<g id="graph0" class="graph" transform="scale(1 1) rotate(0) translate(4 298)">
<title>state transitions</title>
<polygon fill="#ffffff" stroke="transparent" points="-4,4 -4,-298 487.7645,-298 487.7645,4 -4,4"/>
<!-- APP -->
<g id="node1" class="node">
<title>APP</title>
<polygon fill="#ffffff" stroke="transparent" stroke-width="2" points="307.3185,-294 121.3185,-294 121.3185,-168 307.3185,-168 307.3185,-294"/>
<text text-anchor="start" x="202.3143" y="-277.2" font-family="Helvetica,sans-Serif" font-size="12.00" fill="#000000">APP</text>
<text text-anchor="start" x="127.3185" y="-257.2" font-family="Helvetica,sans-Serif" font-size="12.00" fill="#000000">entry/function (_a) {</text>
<text text-anchor="start" x="127.3185" y="-237.2" font-family="Helvetica,sans-Serif" font-size="12.00" fill="#000000">var dispatch = _a.dispatch;</text>
<text text-anchor="start" x="127.3185" y="-217.2" font-family="Helvetica,sans-Serif" font-size="12.00" fill="#000000">console.log(&#39;onEntry!&#39;);</text>
<text text-anchor="start" x="126.9747" y="-197.2" font-family="Helvetica,sans-Serif" font-size="12.00" fill="#000000">dispatch(exports.actions.reset());</text>
<text text-anchor="start" x="127.3185" y="-177.2" font-family="Helvetica,sans-Serif" font-size="12.00" fill="#000000">}</text>
<polygon fill="#000000" stroke="#000000" points="121.3185,-271 121.3185,-271 307.3185,-271 307.3185,-271 121.3185,-271"/>
<path fill="none" stroke="#000000" stroke-width="2" d="M134.3185,-169C134.3185,-169 294.3185,-169 294.3185,-169 300.3185,-169 306.3185,-175 306.3185,-181 306.3185,-181 306.3185,-281 306.3185,-281 306.3185,-287 300.3185,-293 294.3185,-293 294.3185,-293 134.3185,-293 134.3185,-293 128.3185,-293 122.3185,-287 122.3185,-281 122.3185,-281 122.3185,-181 122.3185,-181 122.3185,-175 128.3185,-169 134.3185,-169"/>
</g>
<!-- PLAYING -->
<g id="node2" class="node">
<title>PLAYING</title>
<polygon fill="#ffffff" stroke="transparent" stroke-width="2" points="192.3185,-120 118.3185,-120 118.3185,-84 192.3185,-84 192.3185,-120"/>
<text text-anchor="start" x="129.3127" y="-98.2" font-family="Helvetica,sans-Serif" font-size="12.00" fill="#000000">PLAYING</text>
<path fill="none" stroke="#000000" stroke-width="2" d="M130.6518,-85C130.6518,-85 179.9852,-85 179.9852,-85 185.6518,-85 191.3185,-90.6667 191.3185,-96.3333 191.3185,-96.3333 191.3185,-107.6667 191.3185,-107.6667 191.3185,-113.3333 185.6518,-119 179.9852,-119 179.9852,-119 130.6518,-119 130.6518,-119 124.9852,-119 119.3185,-113.3333 119.3185,-107.6667 119.3185,-107.6667 119.3185,-96.3333 119.3185,-96.3333 119.3185,-90.6667 124.9852,-85 130.6518,-85"/>
</g>
<!-- APP&#45;&gt;PLAYING -->
<g id="edge1" class="edge">
<title>APP&#45;&gt;PLAYING</title>
<path fill="none" stroke="#000000" d="M121.1081,-206.6873C71.136,-191.567 16.8988,-171.0473 2.4115,-150 -.6124,-145.6068 -.8995,-142.1811 2.4115,-138 15.4558,-121.528 68.1934,-111.8428 108.1155,-106.7419"/>
<polygon fill="#000000" stroke="#000000" points="108.7113,-110.1953 118.2151,-105.5126 107.8655,-103.2466 108.7113,-110.1953"/>
<text text-anchor="start" x="3.3185" y="-141" font-family="Helvetica,sans-Serif" font-size="10.00" fill="#000000">player/PLAY &#160;&#160;</text>
</g>
<!-- PLAYING&#45;&gt;APP -->
<g id="edge2" class="edge">
<title>PLAYING&#45;&gt;APP</title>
<path fill="none" stroke="#000000" d="M117.9009,-112.0637C96.6444,-119.8904 76.038,-132.3997 85.7515,-150 92.5727,-162.3596 102.1598,-173.0914 113.0585,-182.3358"/>
<polygon fill="#000000" stroke="#000000" points="111.1978,-185.3276 121.2053,-188.8063 115.5514,-179.8461 111.1978,-185.3276"/>
<text text-anchor="start" x="86.3185" y="-141" font-family="Helvetica,sans-Serif" font-size="10.00" fill="#000000">player/STOP &#160;&#160;</text>
</g>
<!-- PLAYING&#45;&gt;APP -->
<g id="edge3" class="edge">
<title>PLAYING&#45;&gt;APP</title>
<path fill="none" stroke="#000000" d="M159.8467,-120.0916C162.3702,-129.2188 165.8213,-140.3677 169.8725,-150 171.0774,-152.8648 172.3545,-155.7599 173.6859,-158.6643"/>
<polygon fill="#000000" stroke="#000000" points="170.645,-160.4194 178.1014,-167.9462 176.9662,-157.4123 170.645,-160.4194"/>
<text text-anchor="start" x="170.3185" y="-141" font-family="Helvetica,sans-Serif" font-size="10.00" fill="#000000">player/ERROR &#160;&#160;</text>
</g>
<!-- PLAYING&#45;&gt;APP -->
<g id="edge5" class="edge">
<title>PLAYING&#45;&gt;APP</title>
<path fill="none" stroke="#000000" d="M192.7316,-107.4045C211.2448,-112.1741 232.0016,-121.1432 243.3185,-138 247.3721,-144.0379 249.2457,-150.6714 249.5574,-157.5299"/>
<polygon fill="#000000" stroke="#000000" points="246.0527,-157.5106 248.9683,-167.6963 253.041,-157.9155 246.0527,-157.5106"/>
<text text-anchor="start" x="249.3185" y="-141" font-family="Helvetica,sans-Serif" font-size="10.00" fill="#000000">player/NEXT &#160;&#160;</text>
</g>
<!-- SWITCHING -->
<g id="node3" class="node">
<title>SWITCHING</title>
<polygon fill="#ffffff" stroke="transparent" stroke-width="2" points="345.3185,-36 255.3185,-36 255.3185,0 345.3185,0 345.3185,-36"/>
<text text-anchor="start" x="265.9919" y="-14.2" font-family="Helvetica,sans-Serif" font-size="12.00" fill="#000000">SWITCHING</text>
<path fill="none" stroke="#000000" stroke-width="2" d="M267.6518,-1C267.6518,-1 332.9852,-1 332.9852,-1 338.6518,-1 344.3185,-6.6667 344.3185,-12.3333 344.3185,-12.3333 344.3185,-23.6667 344.3185,-23.6667 344.3185,-29.3333 338.6518,-35 332.9852,-35 332.9852,-35 267.6518,-35 267.6518,-35 261.9852,-35 256.3185,-29.3333 256.3185,-23.6667 256.3185,-23.6667 256.3185,-12.3333 256.3185,-12.3333 256.3185,-6.6667 261.9852,-1 267.6518,-1"/>
</g>
<!-- PLAYING&#45;&gt;SWITCHING -->
<g id="edge4" class="edge">
<title>PLAYING&#45;&gt;SWITCHING</title>
<path fill="none" stroke="#000000" d="M144.4367,-83.9624C140.0768,-74.1938 137.4879,-62.4341 144.1985,-54 156.7844,-38.1816 205.4049,-28.7206 245.0846,-23.4972"/>
<polygon fill="#000000" stroke="#000000" points="245.7266,-26.9442 255.2139,-22.228 244.8563,-19.9985 245.7266,-26.9442"/>
<text text-anchor="start" x="144.3185" y="-57" font-family="Helvetica,sans-Serif" font-size="10.00" fill="#000000">player/NEXT [isNext] &#160;&#160;</text>
</g>
<!-- SWITCHING&#45;&gt;APP -->
<g id="edge6" class="edge">
<title>SWITCHING&#45;&gt;APP</title>
<path fill="none" stroke="#000000" d="M317.4138,-36.1091C321.4496,-41.4718 325.1938,-47.626 327.3185,-54 340.8839,-94.6962 338.3141,-112.5917 317.3185,-150 315.4553,-153.3198 313.3955,-156.5516 311.1728,-159.6929"/>
<polygon fill="#000000" stroke="#000000" points="308.2618,-157.7366 304.9321,-167.7946 313.8073,-162.0083 308.2618,-157.7366"/>
<text text-anchor="start" x="335.3185" y="-99" font-family="Helvetica,sans-Serif" font-size="10.00" fill="#000000">player/STOP &#160;&#160;</text>
</g>
<!-- SWITCHING&#45;&gt;APP -->
<g id="edge7" class="edge">
<title>SWITCHING&#45;&gt;APP</title>
<path fill="none" stroke="#000000" d="M345.3721,-34.3975C367.3425,-44.9454 391.6984,-61.0443 404.3185,-84 412.0266,-98.0209 412.2829,-106.1231 404.3185,-120 384.8545,-153.9132 350.5822,-178.4521 316.4543,-195.6914"/>
<polygon fill="#000000" stroke="#000000" points="314.7777,-192.6149 307.3193,-200.1397 317.8423,-198.9084 314.7777,-192.6149"/>
<text text-anchor="start" x="409.3185" y="-99" font-family="Helvetica,sans-Serif" font-size="10.00" fill="#000000">player/ERROR &#160;&#160;</text>
</g>
<!-- SWITCHING&#45;&gt;PLAYING -->
<g id="edge8" class="edge">
<title>SWITCHING&#45;&gt;PLAYING</title>
<path fill="none" stroke="#000000" d="M282.3261,-36.0757C271.884,-45.8561 258.1027,-57.615 244.3185,-66 231.2445,-73.9529 216.1007,-80.8318 202.0534,-86.3841"/>
<polygon fill="#000000" stroke="#000000" points="200.6377,-83.1781 192.5424,-90.013 203.1331,-89.7182 200.6377,-83.1781"/>
<text text-anchor="start" x="261.3185" y="-57" font-family="Helvetica,sans-Serif" font-size="10.00" fill="#000000">player/PLAY &#160;&#160;</text>
</g>
</g>
</svg>
