<?xml version="1.0" encoding="UTF-8" standalone="no"?>
<!DOCTYPE svg PUBLIC "-//W3C//DTD SVG 1.1//EN"
 "http://www.w3.org/Graphics/SVG/1.1/DTD/svg11.dtd">
<!-- Generated by graphviz version 2.40.1 (20161225.0304)
 -->
<!-- Title: state transitions Pages: 1 -->
<svg width="385pt" height="543pt"
 viewBox="0.00 0.00 385.34 543.00" xmlns="http://www.w3.org/2000/svg" xmlns:xlink="http://www.w3.org/1999/xlink">
<g id="graph0" class="graph" transform="scale(1 1) rotate(0) translate(4 539)">
<title>state transitions</title>
<polygon fill="#ffffff" stroke="transparent" points="-4,4 -4,-539 381.34,-539 381.34,4 -4,4"/>
<g id="clust1" class="cluster">
<title>cluster_RED</title>
<path fill="none" stroke="#000000" stroke-width="2" d="M20,-8C20,-8 150,-8 150,-8 156,-8 162,-14 162,-20 162,-20 162,-515 162,-515 162,-521 156,-527 150,-527 150,-527 20,-527 20,-527 14,-527 8,-521 8,-515 8,-515 8,-20 8,-20 8,-14 14,-8 20,-8"/>
<text text-anchor="start" x="72.8358" y="-508.2" font-family="Helvetica,sans-Serif" font-size="12.00" fill="#000000">RED</text>
<text text-anchor="start" x="33.507" y="-488.2" font-family="Helvetica,sans-Serif" font-size="12.00" fill="#000000">activity/switchTimer</text>
<polygon fill="#000000" stroke="#000000" points="30,-502 30,-502 141,-502 141,-502 30,-502"/>
</g>
<!-- initial -->
<g id="node1" class="node">
<title>initial</title>
<ellipse fill="#000000" stroke="#000000" stroke-width="2" cx="300" cy="-463.5" rx="5.5" ry="5.5"/>
</g>
<!-- GREEN -->
<g id="node2" class="node">
<title>GREEN</title>
<polygon fill="#ffffff" stroke="transparent" stroke-width="2" points="357.5,-410 242.5,-410 242.5,-364 357.5,-364 357.5,-410"/>
<text text-anchor="start" x="279.167" y="-393.2" font-family="Helvetica,sans-Serif" font-size="12.00" fill="#000000">GREEN</text>
<text text-anchor="start" x="248.507" y="-373.2" font-family="Helvetica,sans-Serif" font-size="12.00" fill="#000000">activity/switchTimer</text>
<polygon fill="#000000" stroke="#000000" points="243,-387 243,-387 358,-387 358,-387 243,-387"/>
<path fill="none" stroke="#000000" stroke-width="2" d="M255.5,-365C255.5,-365 344.5,-365 344.5,-365 350.5,-365 356.5,-371 356.5,-377 356.5,-377 356.5,-397 356.5,-397 356.5,-403 350.5,-409 344.5,-409 344.5,-409 255.5,-409 255.5,-409 249.5,-409 243.5,-403 243.5,-397 243.5,-397 243.5,-377 243.5,-377 243.5,-371 249.5,-365 255.5,-365"/>
</g>
<!-- initial&#45;&gt;GREEN -->
<g id="edge1" class="edge">
<title>initial&#45;&gt;GREEN</title>
<path fill="none" stroke="#000000" d="M300,-457.9983C300,-450.0587 300,-434.7605 300,-420.3919"/>
<polygon fill="#000000" stroke="#000000" points="303.5001,-420.2121 300,-410.2121 296.5001,-420.2121 303.5001,-420.2121"/>
<text text-anchor="middle" x="301.3895" y="-431" font-family="Helvetica,sans-Serif" font-size="10.00" fill="#000000"> </text>
</g>
<!-- YELLOW -->
<g id="node3" class="node">
<title>YELLOW</title>
<polygon fill="#ffffff" stroke="transparent" stroke-width="2" points="321.5,-316 206.5,-316 206.5,-270 321.5,-270 321.5,-316"/>
<text text-anchor="start" x="239.4956" y="-299.2" font-family="Helvetica,sans-Serif" font-size="12.00" fill="#000000">YELLOW</text>
<text text-anchor="start" x="212.507" y="-279.2" font-family="Helvetica,sans-Serif" font-size="12.00" fill="#000000">activity/switchTimer</text>
<polygon fill="#000000" stroke="#000000" points="207,-293 207,-293 322,-293 322,-293 207,-293"/>
<path fill="none" stroke="#000000" stroke-width="2" d="M219.5,-271C219.5,-271 308.5,-271 308.5,-271 314.5,-271 320.5,-277 320.5,-283 320.5,-283 320.5,-303 320.5,-303 320.5,-309 314.5,-315 308.5,-315 308.5,-315 219.5,-315 219.5,-315 213.5,-315 207.5,-309 207.5,-303 207.5,-303 207.5,-283 207.5,-283 207.5,-277 213.5,-271 219.5,-271"/>
</g>
<!-- GREEN&#45;&gt;YELLOW -->
<g id="edge2" class="edge">
<title>GREEN&#45;&gt;YELLOW</title>
<path fill="none" stroke="#000000" d="M291.1011,-363.764C286.7309,-352.3528 281.3893,-338.4054 276.6072,-325.9188"/>
<polygon fill="#000000" stroke="#000000" points="279.7663,-324.3812 272.9213,-316.2944 273.2293,-326.8848 279.7663,-324.3812"/>
<text text-anchor="start" x="284" y="-337" font-family="Helvetica,sans-Serif" font-size="10.00" fill="#000000">trafficLights/TIMER &#160;&#160;</text>
</g>
<!-- RED -->
<!-- YELLOW&#45;&gt;RED -->
<g id="edge3" class="edge">
<title>YELLOW&#45;&gt;RED</title>
<path fill="none" stroke="#000000" d="M206.1927,-312.0218C193.9119,-317.6857 181.2522,-324.8015 169.9562,-333.6093"/>
<polygon fill="#000000" stroke="#000000" points="167.3826,-331.2014 161.997,-340.3253 171.8969,-336.5513 167.3826,-331.2014"/>
<text text-anchor="start" x="142" y="-384" font-family="Helvetica,sans-Serif" font-size="10.00" fill="#000000">trafficLights/TIMER &#160;&#160;</text>
</g>
<!-- RED&#45;&gt;GREEN -->
<g id="edge4" class="edge">
<title>RED&#45;&gt;GREEN</title>
<path fill="none" stroke="#000000" d="M161.9989,-451.9278C173.6561,-444.6504 189.2895,-435.2918 203.66,-428 212.9959,-423.2628 223.0073,-418.582 232.9176,-414.1719"/>
<polygon fill="#000000" stroke="#000000" points="234.6081,-417.2525 242.363,-410.0336 231.799,-410.8408 234.6081,-417.2525"/>
<text text-anchor="start" x="203" y="-431" font-family="Helvetica,sans-Serif" font-size="10.00" fill="#000000">trafficLights/TIMER &#160;&#160;</text>
</g>
<!-- RED.initial -->
<g id="node5" class="node">
<title>RED.initial</title>
<ellipse fill="#000000" stroke="#000000" stroke-width="2" cx="85" cy="-463.5" rx="5.5" ry="5.5"/>
</g>
<!-- RED.WALK -->
<g id="node6" class="node">
<title>RED.WALK</title>
<polygon fill="#ffffff" stroke="transparent" stroke-width="2" points="154,-316 16,-316 16,-270 154,-270 154,-316"/>
<text text-anchor="start" x="67.9984" y="-299.2" font-family="Helvetica,sans-Serif" font-size="12.00" fill="#000000">WALK</text>
<text text-anchor="start" x="21.9994" y="-279.2" font-family="Helvetica,sans-Serif" font-size="12.00" fill="#000000">activity/pedSwitchTimer</text>
<polygon fill="#000000" stroke="#000000" points="16,-293 16,-293 154,-293 154,-293 16,-293"/>
<path fill="none" stroke="#000000" stroke-width="2" d="M29,-271C29,-271 141,-271 141,-271 147,-271 153,-277 153,-283 153,-283 153,-303 153,-303 153,-309 147,-315 141,-315 141,-315 29,-315 29,-315 23,-315 17,-309 17,-303 17,-303 17,-283 17,-283 17,-277 23,-271 29,-271"/>
</g>
<!-- RED.initial&#45;&gt;RED.WALK -->
<g id="edge5" class="edge">
<title>RED.initial&#45;&gt;RED.WALK</title>
<path fill="none" stroke="#000000" d="M85,-457.8272C85,-437.6387 85,-368.2478 85,-326.2075"/>
<polygon fill="#000000" stroke="#000000" points="88.5001,-326.1551 85,-316.1552 81.5001,-326.1552 88.5001,-326.1551"/>
<text text-anchor="middle" x="86.3895" y="-384" font-family="Helvetica,sans-Serif" font-size="10.00" fill="#000000"> </text>
</g>
<!-- RED.WAIT -->
<g id="node7" class="node">
<title>RED.WAIT</title>
<polygon fill="#ffffff" stroke="transparent" stroke-width="2" points="154,-184 16,-184 16,-138 154,-138 154,-184"/>
<text text-anchor="start" x="70.0024" y="-167.2" font-family="Helvetica,sans-Serif" font-size="12.00" fill="#000000">WAIT</text>
<text text-anchor="start" x="21.9994" y="-147.2" font-family="Helvetica,sans-Serif" font-size="12.00" fill="#000000">activity/pedSwitchTimer</text>
<polygon fill="#000000" stroke="#000000" points="16,-161 16,-161 154,-161 154,-161 16,-161"/>
<path fill="none" stroke="#000000" stroke-width="2" d="M29,-139C29,-139 141,-139 141,-139 147,-139 153,-145 153,-151 153,-151 153,-171 153,-171 153,-177 147,-183 141,-183 141,-183 29,-183 29,-183 23,-183 17,-177 17,-171 17,-171 17,-151 17,-151 17,-145 23,-139 29,-139"/>
</g>
<!-- RED.WALK&#45;&gt;RED.WAIT -->
<g id="edge6" class="edge">
<title>RED.WALK&#45;&gt;RED.WAIT</title>
<path fill="none" stroke="#000000" d="M85,-269.7049C85,-248.7812 85,-217.8224 85,-194.2894"/>
<polygon fill="#000000" stroke="#000000" points="88.5001,-194.0622 85,-184.0622 81.5001,-194.0623 88.5001,-194.0622"/>
<text text-anchor="start" x="85" y="-224" font-family="Helvetica,sans-Serif" font-size="10.00" fill="#000000">trafficLights/PED_TIMER &#160;&#160;</text>
</g>
<!-- RED.STOP -->
<g id="node8" class="node">
<title>RED.STOP</title>
<polygon fill="#ffffff" stroke="transparent" stroke-width="2" points="72,-52 16,-52 16,-16 72,-16 72,-52"/>
<text text-anchor="start" x="27.6644" y="-30.2" font-family="Helvetica,sans-Serif" font-size="12.00" fill="#000000">STOP</text>
<path fill="none" stroke="#000000" stroke-width="2" d="M28.3333,-17C28.3333,-17 59.6667,-17 59.6667,-17 65.3333,-17 71,-22.6667 71,-28.3333 71,-28.3333 71,-39.6667 71,-39.6667 71,-45.3333 65.3333,-51 59.6667,-51 59.6667,-51 28.3333,-51 28.3333,-51 22.6667,-51 17,-45.3333 17,-39.6667 17,-39.6667 17,-28.3333 17,-28.3333 17,-22.6667 22.6667,-17 28.3333,-17"/>
</g>
<!-- RED.WAIT&#45;&gt;RED.STOP -->
<g id="edge7" class="edge">
<title>RED.WAIT&#45;&gt;RED.STOP</title>
<path fill="none" stroke="#000000" d="M77.48,-137.7062C70.5836,-116.3444 60.358,-84.6698 53.0237,-61.9516"/>
<polygon fill="#000000" stroke="#000000" points="56.2828,-60.654 49.8798,-52.2129 49.6213,-62.8046 56.2828,-60.654"/>
<text text-anchor="start" x="65" y="-92" font-family="Helvetica,sans-Serif" font-size="10.00" fill="#000000">trafficLights/PED_TIMER &#160;&#160;</text>
</g>
</g>
</svg>
