<?xml version="1.0" encoding="UTF-8" standalone="no"?>
<!DOCTYPE svg PUBLIC "-//W3C//DTD SVG 1.1//EN"
 "http://www.w3.org/Graphics/SVG/1.1/DTD/svg11.dtd">
<!-- Generated by graphviz version 2.40.1 (20161225.0304)
 -->
<!-- Title: state transitions Pages: 1 -->
<svg width="423pt" height="543pt"
 viewBox="0.00 0.00 423.34 543.00" xmlns="http://www.w3.org/2000/svg" xmlns:xlink="http://www.w3.org/1999/xlink">
<g id="graph0" class="graph" transform="scale(1 1) rotate(0) translate(4 539)">
<title>state transitions</title>
<polygon fill="#ffffff" stroke="transparent" points="-4,4 -4,-539 419.34,-539 419.34,4 -4,4"/>
<g id="clust1" class="cluster">
<title>cluster_RED</title>
<path fill="none" stroke="#000000" stroke-width="2" d="M20,-8C20,-8 188,-8 188,-8 194,-8 200,-14 200,-20 200,-20 200,-515 200,-515 200,-521 194,-527 188,-527 188,-527 20,-527 20,-527 14,-527 8,-521 8,-515 8,-515 8,-20 8,-20 8,-14 14,-8 20,-8"/>
<text text-anchor="start" x="91.8358" y="-508.2" font-family="Helvetica,sans-Serif" font-size="12.00" fill="#000000">RED</text>
<text text-anchor="start" x="33.5092" y="-488.2" font-family="Helvetica,sans-Serif" font-size="12.00" fill="#000000">entry/(activity) switchTimer</text>
<polygon fill="#000000" stroke="#000000" points="30,-502 30,-502 179,-502 179,-502 30,-502"/>
</g>
<!-- initial -->
<g id="node1" class="node">
<title>initial</title>
<ellipse fill="#000000" stroke="#000000" stroke-width="2" cx="333" cy="-463.5" rx="5.5" ry="5.5"/>
</g>
<!-- GREEN -->
<g id="node2" class="node">
<title>GREEN</title>
<polygon fill="#ffffff" stroke="transparent" stroke-width="2" points="409.5,-410 256.5,-410 256.5,-364 409.5,-364 409.5,-410"/>
<text text-anchor="start" x="312.167" y="-393.2" font-family="Helvetica,sans-Serif" font-size="12.00" fill="#000000">GREEN</text>
<text text-anchor="start" x="262.5092" y="-373.2" font-family="Helvetica,sans-Serif" font-size="12.00" fill="#000000">entry/(activity) switchTimer</text>
<polygon fill="#000000" stroke="#000000" points="257,-387 257,-387 410,-387 410,-387 257,-387"/>
<path fill="none" stroke="#000000" stroke-width="2" d="M269.5,-365C269.5,-365 396.5,-365 396.5,-365 402.5,-365 408.5,-371 408.5,-377 408.5,-377 408.5,-397 408.5,-397 408.5,-403 402.5,-409 396.5,-409 396.5,-409 269.5,-409 269.5,-409 263.5,-409 257.5,-403 257.5,-397 257.5,-397 257.5,-377 257.5,-377 257.5,-371 263.5,-365 269.5,-365"/>
</g>
<!-- initial&#45;&gt;GREEN -->
<g id="edge1" class="edge">
<title>initial&#45;&gt;GREEN</title>
<path fill="none" stroke="#000000" d="M333,-457.9983C333,-450.0587 333,-434.7605 333,-420.3919"/>
<polygon fill="#000000" stroke="#000000" points="336.5001,-420.2121 333,-410.2121 329.5001,-420.2121 336.5001,-420.2121"/>
<text text-anchor="middle" x="334.3895" y="-431" font-family="Helvetica,sans-Serif" font-size="10.00" fill="#000000"> </text>
</g>
<!-- YELLOW -->
<g id="node3" class="node">
<title>YELLOW</title>
<polygon fill="#ffffff" stroke="transparent" stroke-width="2" points="385.5,-316 232.5,-316 232.5,-270 385.5,-270 385.5,-316"/>
<text text-anchor="start" x="284.4956" y="-299.2" font-family="Helvetica,sans-Serif" font-size="12.00" fill="#000000">YELLOW</text>
<text text-anchor="start" x="238.5092" y="-279.2" font-family="Helvetica,sans-Serif" font-size="12.00" fill="#000000">entry/(activity) switchTimer</text>
<polygon fill="#000000" stroke="#000000" points="233,-293 233,-293 386,-293 386,-293 233,-293"/>
<path fill="none" stroke="#000000" stroke-width="2" d="M245.5,-271C245.5,-271 372.5,-271 372.5,-271 378.5,-271 384.5,-277 384.5,-283 384.5,-283 384.5,-303 384.5,-303 384.5,-309 378.5,-315 372.5,-315 372.5,-315 245.5,-315 245.5,-315 239.5,-315 233.5,-309 233.5,-303 233.5,-303 233.5,-283 233.5,-283 233.5,-277 239.5,-271 245.5,-271"/>
</g>
<!-- GREEN&#45;&gt;YELLOW -->
<g id="edge2" class="edge">
<title>GREEN&#45;&gt;YELLOW</title>
<path fill="none" stroke="#000000" d="M327.0674,-363.764C324.1828,-352.4658 320.6633,-338.6813 317.4996,-326.2902"/>
<polygon fill="#000000" stroke="#000000" points="320.8126,-325.1177 314.9475,-316.2944 314.0302,-326.8495 320.8126,-325.1177"/>
<text text-anchor="start" x="322" y="-337" font-family="Helvetica,sans-Serif" font-size="10.00" fill="#000000">trafficLights/TIMER &#160;&#160;</text>
</g>
<!-- RED -->
<!-- YELLOW&#45;&gt;RED -->
<g id="edge3" class="edge">
<title>YELLOW&#45;&gt;RED</title>
<path fill="none" stroke="#000000" d="M232.1034,-310.1046C224.3382,-312.9487 216.4993,-316.2494 208.8594,-320.0763"/>
<polygon fill="#000000" stroke="#000000" points="207.1663,-317.0126 199.9984,-324.8147 210.4672,-323.1855 207.1663,-317.0126"/>
<text text-anchor="start" x="156" y="-384" font-family="Helvetica,sans-Serif" font-size="10.00" fill="#000000">trafficLights/TIMER &#160;&#160;</text>
</g>
<!-- RED&#45;&gt;GREEN -->
<g id="edge4" class="edge">
<title>RED&#45;&gt;GREEN</title>
<path fill="none" stroke="#000000" d="M199.9956,-448.8332C210.912,-442.1272 224.2564,-434.2938 236.66,-428 245.9959,-423.2628 256.0073,-418.582 265.9176,-414.1719"/>
<polygon fill="#000000" stroke="#000000" points="267.6081,-417.2525 275.363,-410.0336 264.799,-410.8408 267.6081,-417.2525"/>
<text text-anchor="start" x="236" y="-431" font-family="Helvetica,sans-Serif" font-size="10.00" fill="#000000">trafficLights/TIMER &#160;&#160;</text>
</g>
<!-- RED.initial -->
<g id="node5" class="node">
<title>RED.initial</title>
<ellipse fill="#000000" stroke="#000000" stroke-width="2" cx="104" cy="-463.5" rx="5.5" ry="5.5"/>
</g>
<!-- RED.WALK -->
<g id="node6" class="node">
<title>RED.WALK</title>
<polygon fill="#ffffff" stroke="transparent" stroke-width="2" points="191.5,-316 16.5,-316 16.5,-270 191.5,-270 191.5,-316"/>
<text text-anchor="start" x="87.4984" y="-299.2" font-family="Helvetica,sans-Serif" font-size="12.00" fill="#000000">WALK</text>
<text text-anchor="start" x="22.5016" y="-279.2" font-family="Helvetica,sans-Serif" font-size="12.00" fill="#000000">entry/(activity) pedSwitchTimer</text>
<polygon fill="#000000" stroke="#000000" points="17,-293 17,-293 192,-293 192,-293 17,-293"/>
<path fill="none" stroke="#000000" stroke-width="2" d="M29.5,-271C29.5,-271 178.5,-271 178.5,-271 184.5,-271 190.5,-277 190.5,-283 190.5,-283 190.5,-303 190.5,-303 190.5,-309 184.5,-315 178.5,-315 178.5,-315 29.5,-315 29.5,-315 23.5,-315 17.5,-309 17.5,-303 17.5,-303 17.5,-283 17.5,-283 17.5,-277 23.5,-271 29.5,-271"/>
</g>
<!-- RED.initial&#45;&gt;RED.WALK -->
<g id="edge5" class="edge">
<title>RED.initial&#45;&gt;RED.WALK</title>
<path fill="none" stroke="#000000" d="M104,-457.8272C104,-437.6387 104,-368.2478 104,-326.2075"/>
<polygon fill="#000000" stroke="#000000" points="107.5001,-326.1551 104,-316.1552 100.5001,-326.1552 107.5001,-326.1551"/>
<text text-anchor="middle" x="105.3895" y="-384" font-family="Helvetica,sans-Serif" font-size="10.00" fill="#000000"> </text>
</g>
<!-- RED.WAIT -->
<g id="node7" class="node">
<title>RED.WAIT</title>
<polygon fill="#ffffff" stroke="transparent" stroke-width="2" points="191.5,-184 16.5,-184 16.5,-138 191.5,-138 191.5,-184"/>
<text text-anchor="start" x="89.5024" y="-167.2" font-family="Helvetica,sans-Serif" font-size="12.00" fill="#000000">WAIT</text>
<text text-anchor="start" x="22.5016" y="-147.2" font-family="Helvetica,sans-Serif" font-size="12.00" fill="#000000">entry/(activity) pedSwitchTimer</text>
<polygon fill="#000000" stroke="#000000" points="17,-161 17,-161 192,-161 192,-161 17,-161"/>
<path fill="none" stroke="#000000" stroke-width="2" d="M29.5,-139C29.5,-139 178.5,-139 178.5,-139 184.5,-139 190.5,-145 190.5,-151 190.5,-151 190.5,-171 190.5,-171 190.5,-177 184.5,-183 178.5,-183 178.5,-183 29.5,-183 29.5,-183 23.5,-183 17.5,-177 17.5,-171 17.5,-171 17.5,-151 17.5,-151 17.5,-145 23.5,-139 29.5,-139"/>
</g>
<!-- RED.WALK&#45;&gt;RED.WAIT -->
<g id="edge6" class="edge">
<title>RED.WALK&#45;&gt;RED.WAIT</title>
<path fill="none" stroke="#000000" d="M104,-269.7049C104,-248.7812 104,-217.8224 104,-194.2894"/>
<polygon fill="#000000" stroke="#000000" points="107.5001,-194.0622 104,-184.0622 100.5001,-194.0623 107.5001,-194.0622"/>
<text text-anchor="start" x="104" y="-224" font-family="Helvetica,sans-Serif" font-size="10.00" fill="#000000">trafficLights/PED_TIMER &#160;&#160;</text>
</g>
<!-- RED.STOP -->
<g id="node8" class="node">
<title>RED.STOP</title>
<polygon fill="#ffffff" stroke="transparent" stroke-width="2" points="101,-52 45,-52 45,-16 101,-16 101,-52"/>
<text text-anchor="start" x="56.6644" y="-30.2" font-family="Helvetica,sans-Serif" font-size="12.00" fill="#000000">STOP</text>
<path fill="none" stroke="#000000" stroke-width="2" d="M57.3333,-17C57.3333,-17 88.6667,-17 88.6667,-17 94.3333,-17 100,-22.6667 100,-28.3333 100,-28.3333 100,-39.6667 100,-39.6667 100,-45.3333 94.3333,-51 88.6667,-51 88.6667,-51 57.3333,-51 57.3333,-51 51.6667,-51 46,-45.3333 46,-39.6667 46,-39.6667 46,-28.3333 46,-28.3333 46,-22.6667 51.6667,-17 57.3333,-17"/>
</g>
<!-- RED.WAIT&#45;&gt;RED.STOP -->
<g id="edge7" class="edge">
<title>RED.WAIT&#45;&gt;RED.STOP</title>
<path fill="none" stroke="#000000" d="M98.3141,-137.7062C93.0998,-116.3444 85.3682,-84.6698 79.8228,-61.9516"/>
<polygon fill="#000000" stroke="#000000" points="83.2172,-61.0977 77.4457,-52.2129 76.4169,-62.7577 83.2172,-61.0977"/>
<text text-anchor="start" x="89" y="-92" font-family="Helvetica,sans-Serif" font-size="10.00" fill="#000000">trafficLights/PED_TIMER &#160;&#160;</text>
</g>
</g>
</svg>
