<?xml version="1.0" encoding="UTF-8" standalone="no"?>
<!DOCTYPE svg PUBLIC "-//W3C//DTD SVG 1.1//EN"
 "http://www.w3.org/Graphics/SVG/1.1/DTD/svg11.dtd">
<!-- Generated by graphviz version 2.40.1 (20161225.0304)
 -->
<!-- Title: state transitions Pages: 1 -->
<svg width="335pt" height="493pt"
 viewBox="0.00 0.00 335.34 493.00" xmlns="http://www.w3.org/2000/svg" xmlns:xlink="http://www.w3.org/1999/xlink">
<g id="graph0" class="graph" transform="scale(1 1) rotate(0) translate(4 489)">
<title>state transitions</title>
<polygon fill="#ffffff" stroke="transparent" points="-4,4 -4,-489 331.34,-489 331.34,4 -4,4"/>
<g id="clust1" class="cluster">
<title>cluster_RED</title>
<path fill="none" stroke="#000000" stroke-width="2" d="M20,-8C20,-8 145,-8 145,-8 151,-8 157,-14 157,-20 157,-20 157,-465 157,-465 157,-471 151,-477 145,-477 145,-477 20,-477 20,-477 14,-477 8,-471 8,-465 8,-465 8,-20 8,-20 8,-14 14,-8 20,-8"/>
<text text-anchor="start" x="70.3358" y="-458.2" font-family="Helvetica,sans-Serif" font-size="12.00" fill="#000000">RED</text>
</g>
<!-- initial -->
<g id="node1" class="node">
<title>initial</title>
<ellipse fill="#000000" stroke="#000000" stroke-width="2" cx="244" cy="-433.5" rx="5.5" ry="5.5"/>
</g>
<!-- GREEN -->
<g id="node2" class="node">
<title>GREEN</title>
<polygon fill="#ffffff" stroke="transparent" stroke-width="2" points="276,-380 212,-380 212,-344 276,-344 276,-380"/>
<text text-anchor="start" x="222.667" y="-358.2" font-family="Helvetica,sans-Serif" font-size="12.00" fill="#000000">GREEN</text>
<path fill="none" stroke="#000000" stroke-width="2" d="M224.3333,-345C224.3333,-345 263.6667,-345 263.6667,-345 269.3333,-345 275,-350.6667 275,-356.3333 275,-356.3333 275,-367.6667 275,-367.6667 275,-373.3333 269.3333,-379 263.6667,-379 263.6667,-379 224.3333,-379 224.3333,-379 218.6667,-379 213,-373.3333 213,-367.6667 213,-367.6667 213,-356.3333 213,-356.3333 213,-350.6667 218.6667,-345 224.3333,-345"/>
</g>
<!-- initial&#45;&gt;GREEN -->
<g id="edge1" class="edge">
<title>initial&#45;&gt;GREEN</title>
<path fill="none" stroke="#000000" d="M244,-427.8895C244,-419.8095 244,-404.335 244,-390.4122"/>
<polygon fill="#000000" stroke="#000000" points="247.5001,-390.2159 244,-380.2159 240.5001,-390.2159 247.5001,-390.2159"/>
<text text-anchor="middle" x="245.3895" y="-401" font-family="Helvetica,sans-Serif" font-size="10.00" fill="#000000"> </text>
</g>
<!-- YELLOW -->
<g id="node3" class="node">
<title>YELLOW</title>
<polygon fill="#ffffff" stroke="transparent" stroke-width="2" points="258,-296 186,-296 186,-260 258,-260 258,-296"/>
<text text-anchor="start" x="196.9956" y="-274.2" font-family="Helvetica,sans-Serif" font-size="12.00" fill="#000000">YELLOW</text>
<path fill="none" stroke="#000000" stroke-width="2" d="M198.3333,-261C198.3333,-261 245.6667,-261 245.6667,-261 251.3333,-261 257,-266.6667 257,-272.3333 257,-272.3333 257,-283.6667 257,-283.6667 257,-289.3333 251.3333,-295 245.6667,-295 245.6667,-295 198.3333,-295 198.3333,-295 192.6667,-295 187,-289.3333 187,-283.6667 187,-283.6667 187,-272.3333 187,-272.3333 187,-266.6667 192.6667,-261 198.3333,-261"/>
</g>
<!-- GREEN&#45;&gt;YELLOW -->
<g id="edge2" class="edge">
<title>GREEN&#45;&gt;YELLOW</title>
<path fill="none" stroke="#000000" d="M239.2263,-343.7733C236.3434,-332.7657 232.6097,-318.5098 229.3557,-306.0854"/>
<polygon fill="#000000" stroke="#000000" points="232.6838,-304.9781 226.7644,-296.1912 225.9122,-306.7517 232.6838,-304.9781"/>
<text text-anchor="start" x="234" y="-317" font-family="Helvetica,sans-Serif" font-size="10.00" fill="#000000">trafficLights/TIMER &#160;&#160;</text>
</g>
<!-- RED -->
<!-- YELLOW&#45;&gt;RED -->
<g id="edge3" class="edge">
<title>YELLOW&#45;&gt;RED</title>
<path fill="none" stroke="#000000" d="M185.9565,-288.8925C179.6814,-291.3013 172.9893,-294.1549 166.2273,-297.497"/>
<polygon fill="#000000" stroke="#000000" points="164.2113,-294.6031 156.996,-302.3614 167.4745,-300.796 164.2113,-294.6031"/>
<text text-anchor="start" x="111" y="-359" font-family="Helvetica,sans-Serif" font-size="10.00" fill="#000000">trafficLights/TIMER &#160;&#160;</text>
</g>
<!-- RED&#45;&gt;GREEN -->
<g id="edge4" class="edge">
<title>RED&#45;&gt;GREEN</title>
<path fill="none" stroke="#000000" d="M156.999,-391.9732C171.2923,-383.5365 187.5092,-377.1478 202.0369,-372.4828"/>
<polygon fill="#000000" stroke="#000000" points="203.0751,-375.8254 211.6254,-369.569 201.0397,-369.1278 203.0751,-375.8254"/>
<text text-anchor="start" x="147" y="-401" font-family="Helvetica,sans-Serif" font-size="10.00" fill="#000000">trafficLights/TIMER &#160;&#160;</text>
</g>
<!-- RED.initial -->
<g id="node5" class="node">
<title>RED.initial</title>
<ellipse fill="#000000" stroke="#000000" stroke-width="2" cx="44" cy="-433.5" rx="5.5" ry="5.5"/>
</g>
<!-- RED.WALK -->
<g id="node6" class="node">
<title>RED.WALK</title>
<polygon fill="#ffffff" stroke="transparent" stroke-width="2" points="72,-296 16,-296 16,-260 72,-260 72,-296"/>
<text text-anchor="start" x="26.9984" y="-274.2" font-family="Helvetica,sans-Serif" font-size="12.00" fill="#000000">WALK</text>
<path fill="none" stroke="#000000" stroke-width="2" d="M28.3333,-261C28.3333,-261 59.6667,-261 59.6667,-261 65.3333,-261 71,-266.6667 71,-272.3333 71,-272.3333 71,-283.6667 71,-283.6667 71,-289.3333 65.3333,-295 59.6667,-295 59.6667,-295 28.3333,-295 28.3333,-295 22.6667,-295 17,-289.3333 17,-283.6667 17,-283.6667 17,-272.3333 17,-272.3333 17,-266.6667 22.6667,-261 28.3333,-261"/>
</g>
<!-- RED.initial&#45;&gt;RED.WALK -->
<g id="edge5" class="edge">
<title>RED.initial&#45;&gt;RED.WALK</title>
<path fill="none" stroke="#000000" d="M44,-427.9657C44,-408.8105 44,-344.4366 44,-306.5416"/>
<polygon fill="#000000" stroke="#000000" points="47.5001,-306.1624 44,-296.1624 40.5001,-306.1625 47.5001,-306.1624"/>
<text text-anchor="middle" x="45.3895" y="-359" font-family="Helvetica,sans-Serif" font-size="10.00" fill="#000000"> </text>
</g>
<!-- RED.WAIT -->
<g id="node7" class="node">
<title>RED.WAIT</title>
<polygon fill="#ffffff" stroke="transparent" stroke-width="2" points="72,-174 16,-174 16,-138 72,-138 72,-174"/>
<text text-anchor="start" x="29.0024" y="-152.2" font-family="Helvetica,sans-Serif" font-size="12.00" fill="#000000">WAIT</text>
<path fill="none" stroke="#000000" stroke-width="2" d="M28.3333,-139C28.3333,-139 59.6667,-139 59.6667,-139 65.3333,-139 71,-144.6667 71,-150.3333 71,-150.3333 71,-161.6667 71,-161.6667 71,-167.3333 65.3333,-173 59.6667,-173 59.6667,-173 28.3333,-173 28.3333,-173 22.6667,-173 17,-167.3333 17,-161.6667 17,-161.6667 17,-150.3333 17,-150.3333 17,-144.6667 22.6667,-139 28.3333,-139"/>
</g>
<!-- RED.WALK&#45;&gt;RED.WAIT -->
<g id="edge6" class="edge">
<title>RED.WALK&#45;&gt;RED.WAIT</title>
<path fill="none" stroke="#000000" d="M44,-259.9985C44,-239.9958 44,-207.4427 44,-184.0831"/>
<polygon fill="#000000" stroke="#000000" points="47.5001,-184.0753 44,-174.0754 40.5001,-184.0754 47.5001,-184.0753"/>
<text text-anchor="start" x="44" y="-214" font-family="Helvetica,sans-Serif" font-size="10.00" fill="#000000">trafficLights/PED_TIMER &#160;&#160;</text>
</g>
<!-- RED.STOP -->
<g id="node8" class="node">
<title>RED.STOP</title>
<polygon fill="#ffffff" stroke="transparent" stroke-width="2" points="72,-52 16,-52 16,-16 72,-16 72,-52"/>
<text text-anchor="start" x="27.6644" y="-30.2" font-family="Helvetica,sans-Serif" font-size="12.00" fill="#000000">STOP</text>
<path fill="none" stroke="#000000" stroke-width="2" d="M28.3333,-17C28.3333,-17 59.6667,-17 59.6667,-17 65.3333,-17 71,-22.6667 71,-28.3333 71,-28.3333 71,-39.6667 71,-39.6667 71,-45.3333 65.3333,-51 59.6667,-51 59.6667,-51 28.3333,-51 28.3333,-51 22.6667,-51 17,-45.3333 17,-39.6667 17,-39.6667 17,-28.3333 17,-28.3333 17,-22.6667 22.6667,-17 28.3333,-17"/>
</g>
<!-- RED.WAIT&#45;&gt;RED.STOP -->
<g id="edge7" class="edge">
<title>RED.WAIT&#45;&gt;RED.STOP</title>
<path fill="none" stroke="#000000" d="M44,-137.9985C44,-117.9958 44,-85.4427 44,-62.0831"/>
<polygon fill="#000000" stroke="#000000" points="47.5001,-62.0753 44,-52.0754 40.5001,-62.0754 47.5001,-62.0753"/>
<text text-anchor="start" x="44" y="-92" font-family="Helvetica,sans-Serif" font-size="10.00" fill="#000000">trafficLights/PED_TIMER &#160;&#160;</text>
</g>
</g>
</svg>
