<?xml version="1.0" encoding="UTF-8" standalone="no"?>
<!DOCTYPE svg PUBLIC "-//W3C//DTD SVG 1.1//EN"
 "http://www.w3.org/Graphics/SVG/1.1/DTD/svg11.dtd">
<!-- Generated by graphviz version 2.40.1 (20161225.0304)
 -->
<!-- Title: state transitions Pages: 1 -->
<svg width="76pt" height="257pt"
 viewBox="0.00 0.00 76.00 257.00" xmlns="http://www.w3.org/2000/svg" xmlns:xlink="http://www.w3.org/1999/xlink">
<g id="graph0" class="graph" transform="scale(1 1) rotate(0) translate(4 253)">
<title>state transitions</title>
<polygon fill="#ffffff" stroke="transparent" points="-4,4 -4,-253 72,-253 72,4 -4,4"/>
<!-- initial -->
<g id="node1" class="node">
<title>initial</title>
<ellipse fill="#000000" stroke="#000000" stroke-width="2" cx="34" cy="-243.5" rx="5.5" ry="5.5"/>
</g>
<!-- app -->
<g id="node2" class="node">
<title>app</title>
<polygon fill="#ffffff" stroke="transparent" stroke-width="2" points="68,-190 0,-190 0,-84 68,-84 68,-190"/>
<text text-anchor="start" x="23.9938" y="-173.2" font-family="Helvetica,sans-Serif" font-size="12.00" fill="#000000">app</text>
<text text-anchor="start" x="5.662" y="-153.2" font-family="Helvetica,sans-Serif" font-size="12.00" fill="#000000">entry/ start</text>
<text text-anchor="start" x="6" y="-133.2" font-family="Helvetica,sans-Serif" font-size="12.00" fill="#000000">doA</text>
<text text-anchor="start" x="6" y="-113.2" font-family="Helvetica,sans-Serif" font-size="12.00" fill="#000000">doB</text>
<text text-anchor="start" x="6" y="-93.2" font-family="Helvetica,sans-Serif" font-size="12.00" fill="#000000">exit/ finish</text>
<polygon fill="#000000" stroke="#000000" points="0,-167 0,-167 68,-167 68,-167 0,-167"/>
<path fill="none" stroke="#000000" stroke-width="2" d="M13,-85C13,-85 55,-85 55,-85 61,-85 67,-91 67,-97 67,-97 67,-177 67,-177 67,-183 61,-189 55,-189 55,-189 13,-189 13,-189 7,-189 1,-183 1,-177 1,-177 1,-97 1,-97 1,-91 7,-85 13,-85"/>
</g>
<!-- initial&#45;&gt;app -->
<g id="edge1" class="edge">
<title>initial&#45;&gt;app</title>
<path fill="none" stroke="#000000" d="M34,-237.7741C34,-230.1541 34,-215.8262 34,-200.3158"/>
<polygon fill="#000000" stroke="#000000" points="37.5001,-200.0111 34,-190.0111 30.5001,-200.0112 37.5001,-200.0111"/>
<text text-anchor="middle" x="35.3895" y="-211" font-family="Helvetica,sans-Serif" font-size="10.00" fill="#000000"> </text>
</g>
<!-- player -->
<g id="node3" class="node">
<title>player</title>
<polygon fill="#ffffff" stroke="transparent" stroke-width="2" points="62,-36 6,-36 6,0 62,0 62,-36"/>
<text text-anchor="start" x="17.665" y="-14.2" font-family="Helvetica,sans-Serif" font-size="12.00" fill="#000000">player</text>
<path fill="none" stroke="#000000" stroke-width="2" d="M18.3333,-1C18.3333,-1 49.6667,-1 49.6667,-1 55.3333,-1 61,-6.6667 61,-12.3333 61,-12.3333 61,-23.6667 61,-23.6667 61,-29.3333 55.3333,-35 49.6667,-35 49.6667,-35 18.3333,-35 18.3333,-35 12.6667,-35 7,-29.3333 7,-23.6667 7,-23.6667 7,-12.3333 7,-12.3333 7,-6.6667 12.6667,-1 18.3333,-1"/>
</g>
<!-- app&#45;&gt;player -->
<g id="edge2" class="edge">
<title>app&#45;&gt;player</title>
<path fill="none" stroke="#000000" d="M34,-83.765C34,-70.8217 34,-57.4785 34,-46.2221"/>
<polygon fill="#000000" stroke="#000000" points="37.5001,-46.1504 34,-36.1504 30.5001,-46.1504 37.5001,-46.1504"/>
<text text-anchor="start" x="34" y="-57" font-family="Helvetica,sans-Serif" font-size="10.00" fill="#000000">PLAY &#160;&#160;</text>
</g>
</g>
</svg>
