<?xml version="1.0" encoding="UTF-8" standalone="no"?>
<!DOCTYPE svg PUBLIC "-//W3C//DTD SVG 1.1//EN"
 "http://www.w3.org/Graphics/SVG/1.1/DTD/svg11.dtd">
<!-- Generated by graphviz version 2.40.1 (20161225.0304)
 -->
<!-- Title: state transitions Pages: 1 -->
<svg width="187pt" height="207pt"
 viewBox="0.00 0.00 187.00 207.00" xmlns="http://www.w3.org/2000/svg" xmlns:xlink="http://www.w3.org/1999/xlink">
<g id="graph0" class="graph" transform="scale(1 1) rotate(0) translate(4 203)">
<title>state transitions</title>
<polygon fill="#ffffff" stroke="transparent" points="-4,4 -4,-203 183,-203 183,4 -4,4"/>
<!-- initial -->
<g id="node1" class="node">
<title>initial</title>
<ellipse fill="#000000" stroke="#000000" stroke-width="2" cx="89.5" cy="-193.5" rx="5.5" ry="5.5"/>
</g>
<!-- home -->
<g id="node2" class="node">
<title>home</title>
<polygon fill="#ffffff" stroke="transparent" stroke-width="2" points="139.5,-140 39.5,-140 39.5,-94 139.5,-94 139.5,-140"/>
<text text-anchor="start" x="74.4964" y="-123.2" font-family="Helvetica,sans-Serif" font-size="12.00" fill="#000000">home</text>
<text text-anchor="start" x="45.151" y="-103.2" font-family="Helvetica,sans-Serif" font-size="12.00" fill="#000000">entry/getContent</text>
<polygon fill="#000000" stroke="#000000" points="39.5,-117 39.5,-117 139.5,-117 139.5,-117 39.5,-117"/>
<path fill="none" stroke="#000000" stroke-width="2" d="M52.5,-95C52.5,-95 126.5,-95 126.5,-95 132.5,-95 138.5,-101 138.5,-107 138.5,-107 138.5,-127 138.5,-127 138.5,-133 132.5,-139 126.5,-139 126.5,-139 52.5,-139 52.5,-139 46.5,-139 40.5,-133 40.5,-127 40.5,-127 40.5,-107 40.5,-107 40.5,-101 46.5,-95 52.5,-95"/>
</g>
<!-- initial&#45;&gt;home -->
<g id="edge1" class="edge">
<title>initial&#45;&gt;home</title>
<path fill="none" stroke="#000000" d="M89.5,-187.9983C89.5,-180.0587 89.5,-164.7605 89.5,-150.3919"/>
<polygon fill="#000000" stroke="#000000" points="93.0001,-150.2121 89.5,-140.2121 86.0001,-150.2121 93.0001,-150.2121"/>
<text text-anchor="middle" x="90.8895" y="-161" font-family="Helvetica,sans-Serif" font-size="10.00" fill="#000000"> </text>
</g>
<!-- player -->
<g id="node3" class="node">
<title>player</title>
<polygon fill="#ffffff" stroke="transparent" stroke-width="2" points="179,-46 0,-46 0,0 179,0 179,-46"/>
<text text-anchor="start" x="73.665" y="-29.2" font-family="Helvetica,sans-Serif" font-size="12.00" fill="#000000">player</text>
<text text-anchor="start" x="6.3144" y="-9.2" font-family="Helvetica,sans-Serif" font-size="12.00" fill="#000000">entry/trackPlay,getNextEpisode</text>
<polygon fill="#000000" stroke="#000000" points=".5,-23 .5,-23 179.5,-23 179.5,-23 .5,-23"/>
<path fill="none" stroke="#000000" stroke-width="2" d="M13,-1C13,-1 166,-1 166,-1 172,-1 178,-7 178,-13 178,-13 178,-33 178,-33 178,-39 172,-45 166,-45 166,-45 13,-45 13,-45 7,-45 1,-39 1,-33 1,-33 1,-13 1,-13 1,-7 7,-1 13,-1"/>
</g>
<!-- home&#45;&gt;player -->
<g id="edge2" class="edge">
<title>home&#45;&gt;player</title>
<path fill="none" stroke="#000000" d="M73.0889,-93.6609C70.0008,-88.1145 67.2305,-82.0451 65.597,-76 63.7571,-69.1911 64.7024,-62.1506 67.0496,-55.5122"/>
<polygon fill="#000000" stroke="#000000" points="70.356,-56.6976 71.3303,-46.1477 63.9896,-53.7874 70.356,-56.6976"/>
<text text-anchor="start" x="66.5" y="-67" font-family="Helvetica,sans-Serif" font-size="10.00" fill="#000000">PLAY &#160;&#160;</text>
</g>
<!-- player&#45;&gt;home -->
<g id="edge3" class="edge">
<title>player&#45;&gt;home</title>
<path fill="none" stroke="#000000" d="M96.2475,-46.1346C98.2071,-55.3874 99.5668,-66.1646 98.5,-76 98.225,-78.5358 97.8569,-81.1445 97.4264,-83.7589"/>
<polygon fill="#000000" stroke="#000000" points="93.9606,-83.2486 95.5212,-93.7279 100.8362,-84.5627 93.9606,-83.2486"/>
<text text-anchor="start" x="98.5" y="-67" font-family="Helvetica,sans-Serif" font-size="10.00" fill="#000000">CLOSE &#160;&#160;</text>
</g>
</g>
</svg>
