<?xml version="1.0" encoding="UTF-8" standalone="no"?>
<!DOCTYPE svg PUBLIC "-//W3C//DTD SVG 1.1//EN"
 "http://www.w3.org/Graphics/SVG/1.1/DTD/svg11.dtd">
<!-- Generated by graphviz version 2.40.1 (20161225.0304)
 -->
<!-- Title: state transitions Pages: 1 -->
<svg width="134pt" height="227pt"
 viewBox="0.00 0.00 134.00 227.00" xmlns="http://www.w3.org/2000/svg" xmlns:xlink="http://www.w3.org/1999/xlink">
<g id="graph0" class="graph" transform="scale(1 1) rotate(0) translate(4 223)">
<title>state transitions</title>
<polygon fill="#ffffff" stroke="transparent" points="-4,4 -4,-223 130,-223 130,4 -4,4"/>
<!-- initial -->
<g id="node1" class="node">
<title>initial</title>
<ellipse fill="#000000" stroke="#000000" stroke-width="2" cx="63" cy="-213.5" rx="5.5" ry="5.5"/>
</g>
<!-- home -->
<g id="node2" class="node">
<title>home</title>
<polygon fill="#ffffff" stroke="transparent" stroke-width="2" points="113,-160 13,-160 13,-114 113,-114 113,-160"/>
<text text-anchor="start" x="47.9964" y="-143.2" font-family="Helvetica,sans-Serif" font-size="12.00" fill="#000000">home</text>
<text text-anchor="start" x="18.651" y="-123.2" font-family="Helvetica,sans-Serif" font-size="12.00" fill="#000000">entry/getContent</text>
<polygon fill="#000000" stroke="#000000" points="13,-137 13,-137 113,-137 113,-137 13,-137"/>
<path fill="none" stroke="#000000" stroke-width="2" d="M26,-115C26,-115 100,-115 100,-115 106,-115 112,-121 112,-127 112,-127 112,-147 112,-147 112,-153 106,-159 100,-159 100,-159 26,-159 26,-159 20,-159 14,-153 14,-147 14,-147 14,-127 14,-127 14,-121 20,-115 26,-115"/>
</g>
<!-- initial&#45;&gt;home -->
<g id="edge1" class="edge">
<title>initial&#45;&gt;home</title>
<path fill="none" stroke="#000000" d="M63,-207.9983C63,-200.0587 63,-184.7605 63,-170.3919"/>
<polygon fill="#000000" stroke="#000000" points="66.5001,-170.2121 63,-160.2121 59.5001,-170.2121 66.5001,-170.2121"/>
<text text-anchor="middle" x="64.3895" y="-181" font-family="Helvetica,sans-Serif" font-size="10.00" fill="#000000"> </text>
</g>
<!-- player -->
<g id="node3" class="node">
<title>player</title>
<polygon fill="#ffffff" stroke="transparent" stroke-width="2" points="126,-66 0,-66 0,0 126,0 126,-66"/>
<text text-anchor="start" x="46.665" y="-49.2" font-family="Helvetica,sans-Serif" font-size="12.00" fill="#000000">player</text>
<text text-anchor="start" x="6" y="-29.2" font-family="Helvetica,sans-Serif" font-size="12.00" fill="#000000">entry/trackPlay</text>
<text text-anchor="start" x="5.6502" y="-9.2" font-family="Helvetica,sans-Serif" font-size="12.00" fill="#000000">entry/getNextEpisode</text>
<polygon fill="#000000" stroke="#000000" points="0,-43 0,-43 126,-43 126,-43 0,-43"/>
<path fill="none" stroke="#000000" stroke-width="2" d="M13,-1C13,-1 113,-1 113,-1 119,-1 125,-7 125,-13 125,-13 125,-53 125,-53 125,-59 119,-65 113,-65 113,-65 13,-65 13,-65 7,-65 1,-59 1,-53 1,-53 1,-13 1,-13 1,-7 7,-1 13,-1"/>
</g>
<!-- home&#45;&gt;player -->
<g id="edge2" class="edge">
<title>home&#45;&gt;player</title>
<path fill="none" stroke="#000000" d="M46.5889,-113.6609C43.5008,-108.1145 40.7305,-102.0451 39.097,-96 37.3132,-89.3987 37.5903,-82.5275 39.08,-75.8537"/>
<polygon fill="#000000" stroke="#000000" points="42.4326,-76.8588 42.0315,-66.2716 35.7428,-74.7982 42.4326,-76.8588"/>
<text text-anchor="start" x="40" y="-87" font-family="Helvetica,sans-Serif" font-size="10.00" fill="#000000">PLAY &#160;&#160;</text>
</g>
<!-- player&#45;&gt;home -->
<g id="edge3" class="edge">
<title>player&#45;&gt;home</title>
<path fill="none" stroke="#000000" d="M70.8953,-66.2965C72.3126,-75.869 73.0484,-86.334 72,-96 71.725,-98.5358 71.3569,-101.1445 70.9264,-103.7589"/>
<polygon fill="#000000" stroke="#000000" points="67.4606,-103.2486 69.0212,-113.7279 74.3362,-104.5627 67.4606,-103.2486"/>
<text text-anchor="start" x="72" y="-87" font-family="Helvetica,sans-Serif" font-size="10.00" fill="#000000">CLOSE &#160;&#160;</text>
</g>
</g>
</svg>
