<?xml version="1.0" encoding="UTF-8" standalone="no"?>
<!DOCTYPE svg PUBLIC "-//W3C//DTD SVG 1.1//EN"
 "http://www.w3.org/Graphics/SVG/1.1/DTD/svg11.dtd">
<!-- Generated by graphviz version 2.40.1 (20161225.0304)
 -->
<!-- Title: state transitions Pages: 1 -->
<svg width="134pt" height="207pt"
 viewBox="0.00 0.00 134.00 207.00" xmlns="http://www.w3.org/2000/svg" xmlns:xlink="http://www.w3.org/1999/xlink">
<g id="graph0" class="graph" transform="scale(1 1) rotate(0) translate(4 203)">
<title>state transitions</title>
<polygon fill="#ffffff" stroke="transparent" points="-4,4 -4,-203 130,-203 130,4 -4,4"/>
<!-- initial -->
<g id="node1" class="node">
<title>initial</title>
<ellipse fill="#000000" stroke="#000000" stroke-width="2" cx="63" cy="-193.5" rx="5.5" ry="5.5"/>
</g>
<!-- home -->
<g id="node2" class="node">
<title>home</title>
<polygon fill="#ffffff" stroke="transparent" stroke-width="2" points="113,-140 13,-140 13,-94 113,-94 113,-140"/>
<text text-anchor="start" x="47.9964" y="-123.2" font-family="Helvetica,sans-Serif" font-size="12.00" fill="#000000">home</text>
<text text-anchor="start" x="18.651" y="-103.2" font-family="Helvetica,sans-Serif" font-size="12.00" fill="#000000">entry/getContent</text>
<polygon fill="#000000" stroke="#000000" points="13,-117 13,-117 113,-117 113,-117 13,-117"/>
<path fill="none" stroke="#000000" stroke-width="2" d="M26,-95C26,-95 100,-95 100,-95 106,-95 112,-101 112,-107 112,-107 112,-127 112,-127 112,-133 106,-139 100,-139 100,-139 26,-139 26,-139 20,-139 14,-133 14,-127 14,-127 14,-107 14,-107 14,-101 20,-95 26,-95"/>
</g>
<!-- initial&#45;&gt;home -->
<g id="edge1" class="edge">
<title>initial&#45;&gt;home</title>
<path fill="none" stroke="#000000" d="M63,-187.9983C63,-180.0587 63,-164.7605 63,-150.3919"/>
<polygon fill="#000000" stroke="#000000" points="66.5001,-150.2121 63,-140.2121 59.5001,-150.2121 66.5001,-150.2121"/>
<text text-anchor="middle" x="64.3895" y="-161" font-family="Helvetica,sans-Serif" font-size="10.00" fill="#000000"> </text>
</g>
<!-- player -->
<g id="node3" class="node">
<title>player</title>
<polygon fill="#ffffff" stroke="transparent" stroke-width="2" points="126,-46 0,-46 0,0 126,0 126,-46"/>
<text text-anchor="start" x="46.665" y="-29.2" font-family="Helvetica,sans-Serif" font-size="12.00" fill="#000000">player</text>
<text text-anchor="start" x="5.6502" y="-9.2" font-family="Helvetica,sans-Serif" font-size="12.00" fill="#000000">entry/getNextEpisode</text>
<polygon fill="#000000" stroke="#000000" points="0,-23 0,-23 126,-23 126,-23 0,-23"/>
<path fill="none" stroke="#000000" stroke-width="2" d="M13,-1C13,-1 113,-1 113,-1 119,-1 125,-7 125,-13 125,-13 125,-33 125,-33 125,-39 119,-45 113,-45 113,-45 13,-45 13,-45 7,-45 1,-39 1,-33 1,-33 1,-13 1,-13 1,-7 7,-1 13,-1"/>
</g>
<!-- home&#45;&gt;player -->
<g id="edge2" class="edge">
<title>home&#45;&gt;player</title>
<path fill="none" stroke="#000000" d="M46.5889,-93.6609C43.5008,-88.1145 40.7305,-82.0451 39.097,-76 37.2571,-69.1911 38.2024,-62.1506 40.5496,-55.5122"/>
<polygon fill="#000000" stroke="#000000" points="43.856,-56.6976 44.8303,-46.1477 37.4896,-53.7874 43.856,-56.6976"/>
<text text-anchor="start" x="40" y="-67" font-family="Helvetica,sans-Serif" font-size="10.00" fill="#000000">PLAY &#160;&#160;</text>
</g>
<!-- player&#45;&gt;home -->
<g id="edge3" class="edge">
<title>player&#45;&gt;home</title>
<path fill="none" stroke="#000000" d="M69.7475,-46.1346C71.7071,-55.3874 73.0668,-66.1646 72,-76 71.725,-78.5358 71.3569,-81.1445 70.9264,-83.7589"/>
<polygon fill="#000000" stroke="#000000" points="67.4606,-83.2486 69.0212,-93.7279 74.3362,-84.5627 67.4606,-83.2486"/>
<text text-anchor="start" x="72" y="-67" font-family="Helvetica,sans-Serif" font-size="10.00" fill="#000000">CLOSE &#160;&#160;</text>
</g>
</g>
</svg>
