<?xml version="1.0" encoding="UTF-8" standalone="no"?>
<!DOCTYPE svg PUBLIC "-//W3C//DTD SVG 1.1//EN"
 "http://www.w3.org/Graphics/SVG/1.1/DTD/svg11.dtd">
<!-- Generated by graphviz version 2.40.1 (20161225.0304)
 -->
<!-- Title: state transitions Pages: 1 -->
<svg width="138pt" height="227pt"
 viewBox="0.00 0.00 138.00 227.00" xmlns="http://www.w3.org/2000/svg" xmlns:xlink="http://www.w3.org/1999/xlink">
<g id="graph0" class="graph" transform="scale(1 1) rotate(0) translate(4 223)">
<title>state transitions</title>
<polygon fill="#ffffff" stroke="transparent" points="-4,4 -4,-223 134,-223 134,4 -4,4"/>
<!-- initial -->
<g id="node1" class="node">
<title>initial</title>
<ellipse fill="#000000" stroke="#000000" stroke-width="2" cx="65" cy="-213.5" rx="5.5" ry="5.5"/>
</g>
<!-- home -->
<g id="node2" class="node">
<title>home</title>
<polygon fill="#ffffff" stroke="transparent" stroke-width="2" points="117,-160 13,-160 13,-114 117,-114 117,-160"/>
<text text-anchor="start" x="49.9964" y="-143.2" font-family="Helvetica,sans-Serif" font-size="12.00" fill="#000000">home</text>
<text text-anchor="start" x="18.9836" y="-123.2" font-family="Helvetica,sans-Serif" font-size="12.00" fill="#000000">entry/ getContent</text>
<polygon fill="#000000" stroke="#000000" points="13,-137 13,-137 117,-137 117,-137 13,-137"/>
<path fill="none" stroke="#000000" stroke-width="2" d="M26,-115C26,-115 104,-115 104,-115 110,-115 116,-121 116,-127 116,-127 116,-147 116,-147 116,-153 110,-159 104,-159 104,-159 26,-159 26,-159 20,-159 14,-153 14,-147 14,-147 14,-127 14,-127 14,-121 20,-115 26,-115"/>
</g>
<!-- initial&#45;&gt;home -->
<g id="edge1" class="edge">
<title>initial&#45;&gt;home</title>
<path fill="none" stroke="#000000" d="M65,-207.9983C65,-200.0587 65,-184.7605 65,-170.3919"/>
<polygon fill="#000000" stroke="#000000" points="68.5001,-170.2121 65,-160.2121 61.5001,-170.2121 68.5001,-170.2121"/>
<text text-anchor="middle" x="66.3895" y="-181" font-family="Helvetica,sans-Serif" font-size="10.00" fill="#000000"> </text>
</g>
<!-- player -->
<g id="node3" class="node">
<title>player</title>
<polygon fill="#ffffff" stroke="transparent" stroke-width="2" points="130,-66 0,-66 0,0 130,0 130,-66"/>
<text text-anchor="start" x="48.665" y="-49.2" font-family="Helvetica,sans-Serif" font-size="12.00" fill="#000000">player</text>
<text text-anchor="start" x="6" y="-29.2" font-family="Helvetica,sans-Serif" font-size="12.00" fill="#000000">entry/ trackPlay</text>
<text text-anchor="start" x="5.9828" y="-9.2" font-family="Helvetica,sans-Serif" font-size="12.00" fill="#000000">entry/ getNextEpisode</text>
<polygon fill="#000000" stroke="#000000" points="0,-43 0,-43 130,-43 130,-43 0,-43"/>
<path fill="none" stroke="#000000" stroke-width="2" d="M13,-1C13,-1 117,-1 117,-1 123,-1 129,-7 129,-13 129,-13 129,-53 129,-53 129,-59 123,-65 117,-65 117,-65 13,-65 13,-65 7,-65 1,-59 1,-53 1,-53 1,-13 1,-13 1,-7 7,-1 13,-1"/>
</g>
<!-- home&#45;&gt;player -->
<g id="edge2" class="edge">
<title>home&#45;&gt;player</title>
<path fill="none" stroke="#000000" d="M44.2117,-113.6958C40.4682,-108.2394 37.1173,-102.1986 35.097,-96 32.9039,-89.2714 33.2714,-82.331 35.1444,-75.6263"/>
<polygon fill="#000000" stroke="#000000" points="38.5147,-76.6136 38.8429,-66.0239 31.9825,-74.0976 38.5147,-76.6136"/>
<text text-anchor="start" x="36" y="-87" font-family="Helvetica,sans-Serif" font-size="10.00" fill="#000000">PLAY &#160;&#160;</text>
</g>
<!-- player&#45;&gt;home -->
<g id="edge3" class="edge">
<title>player&#45;&gt;home</title>
<path fill="none" stroke="#000000" d="M69.3632,-66.0074C70.1682,-75.6687 70.5921,-86.253 70,-96 69.8532,-98.4157 69.6583,-100.907 69.4304,-103.4121"/>
<polygon fill="#000000" stroke="#000000" points="65.9211,-103.3153 68.3471,-113.6287 72.8821,-104.0535 65.9211,-103.3153"/>
<text text-anchor="start" x="70" y="-87" font-family="Helvetica,sans-Serif" font-size="10.00" fill="#000000">CLOSE &#160;&#160;</text>
</g>
</g>
</svg>
