<?xml version="1.0" encoding="UTF-8" standalone="no"?>
<!DOCTYPE svg PUBLIC "-//W3C//DTD SVG 1.1//EN"
 "http://www.w3.org/Graphics/SVG/1.1/DTD/svg11.dtd">
<!-- Generated by graphviz version 2.40.1 (20161225.0304)
 -->
<!-- Title: state transitions Pages: 1 -->
<svg width="250pt" height="187pt"
 viewBox="0.00 0.00 250.23 187.00" xmlns="http://www.w3.org/2000/svg" xmlns:xlink="http://www.w3.org/1999/xlink">
<g id="graph0" class="graph" transform="scale(1 1) rotate(0) translate(4 183)">
<title>state transitions</title>
<polygon fill="#ffffff" stroke="transparent" points="-4,4 -4,-183 246.232,-183 246.232,4 -4,4"/>
<!-- initial -->
<g id="node1" class="node">
<title>initial</title>
<ellipse fill="#000000" stroke="#000000" stroke-width="2" cx="129" cy="-173.5" rx="5.5" ry="5.5"/>
</g>
<!-- closed -->
<g id="node2" class="node">
<title>closed</title>
<polygon fill="#ffffff" stroke="transparent" stroke-width="2" points="157,-120 101,-120 101,-84 157,-84 157,-120"/>
<text text-anchor="start" x="111.6624" y="-98.2" font-family="Helvetica,sans-Serif" font-size="12.00" fill="#000000">closed</text>
<path fill="none" stroke="#000000" stroke-width="2" d="M113.3333,-85C113.3333,-85 144.6667,-85 144.6667,-85 150.3333,-85 156,-90.6667 156,-96.3333 156,-96.3333 156,-107.6667 156,-107.6667 156,-113.3333 150.3333,-119 144.6667,-119 144.6667,-119 113.3333,-119 113.3333,-119 107.6667,-119 102,-113.3333 102,-107.6667 102,-107.6667 102,-96.3333 102,-96.3333 102,-90.6667 107.6667,-85 113.3333,-85"/>
</g>
<!-- initial&#45;&gt;closed -->
<g id="edge1" class="edge">
<title>initial&#45;&gt;closed</title>
<path fill="none" stroke="#000000" d="M129,-167.8895C129,-159.8095 129,-144.335 129,-130.4122"/>
<polygon fill="#000000" stroke="#000000" points="132.5001,-130.2159 129,-120.2159 125.5001,-130.2159 132.5001,-130.2159"/>
<text text-anchor="middle" x="130.3895" y="-141" font-family="Helvetica,sans-Serif" font-size="10.00" fill="#000000"> </text>
</g>
<!-- closed&#45;&gt;closed -->
<g id="edge4" class="edge">
<title>closed&#45;&gt;closed</title>
<path fill="none" stroke="#000000" d="M157.2662,-109.8269C165.051,-109.4488 171,-106.8398 171,-102 171,-99.5801 169.5128,-97.7179 167.0524,-96.4134"/>
<polygon fill="#000000" stroke="#000000" points="167.7951,-92.9929 157.2662,-94.1731 166.233,-99.8164 167.7951,-92.9929"/>
<text text-anchor="start" x="171" y="-99" font-family="Helvetica,sans-Serif" font-size="10.00" fill="#000000">OPEN &#160;&#160;</text>
</g>
<!-- opened -->
<g id="node3" class="node">
<title>opened</title>
<polygon fill="#ffffff" stroke="transparent" stroke-width="2" points="62,-36 0,-36 0,0 62,0 62,-36"/>
<text text-anchor="start" x="10.9876" y="-14.2" font-family="Helvetica,sans-Serif" font-size="12.00" fill="#000000">opened</text>
<path fill="none" stroke="#000000" stroke-width="2" d="M12.3333,-1C12.3333,-1 49.6667,-1 49.6667,-1 55.3333,-1 61,-6.6667 61,-12.3333 61,-12.3333 61,-23.6667 61,-23.6667 61,-29.3333 55.3333,-35 49.6667,-35 49.6667,-35 12.3333,-35 12.3333,-35 6.6667,-35 1,-29.3333 1,-23.6667 1,-23.6667 1,-12.3333 1,-12.3333 1,-6.6667 6.6667,-1 12.3333,-1"/>
</g>
<!-- closed&#45;&gt;opened -->
<g id="edge2" class="edge">
<title>closed&#45;&gt;opened</title>
<path fill="none" stroke="#000000" d="M100.8496,-96.4879C72.1291,-90.2249 30.4672,-79.1485 20.99,-66 16.8431,-60.2467 16.4555,-53.1543 17.8196,-46.2039"/>
<polygon fill="#000000" stroke="#000000" points="21.2721,-46.8806 20.8375,-36.2946 14.5758,-44.8411 21.2721,-46.8806"/>
<text text-anchor="start" x="21" y="-57" font-family="Helvetica,sans-Serif" font-size="10.00" fill="#000000">OPEN [isAdmin]/track &#160;&#160;</text>
</g>
<!-- stuck -->
<g id="node4" class="node">
<title>stuck</title>
<polygon fill="#ffffff" stroke="transparent" stroke-width="2" points="157,-36 101,-36 101,0 157,0 157,-36"/>
<text text-anchor="start" x="114.9972" y="-14.2" font-family="Helvetica,sans-Serif" font-size="12.00" fill="#000000">stuck</text>
<path fill="none" stroke="#000000" stroke-width="2" d="M113.3333,-1C113.3333,-1 144.6667,-1 144.6667,-1 150.3333,-1 156,-6.6667 156,-12.3333 156,-12.3333 156,-23.6667 156,-23.6667 156,-29.3333 150.3333,-35 144.6667,-35 144.6667,-35 113.3333,-35 113.3333,-35 107.6667,-35 102,-29.3333 102,-23.6667 102,-23.6667 102,-12.3333 102,-12.3333 102,-6.6667 107.6667,-1 113.3333,-1"/>
</g>
<!-- closed&#45;&gt;stuck -->
<g id="edge3" class="edge">
<title>closed&#45;&gt;stuck</title>
<path fill="none" stroke="#000000" d="M129,-83.7733C129,-72.8758 129,-58.7946 129,-46.4587"/>
<polygon fill="#000000" stroke="#000000" points="132.5001,-46.1911 129,-36.1912 125.5001,-46.1912 132.5001,-46.1911"/>
<text text-anchor="start" x="129" y="-57" font-family="Helvetica,sans-Serif" font-size="10.00" fill="#000000">OPEN [cond] &#160;&#160;</text>
</g>
<!-- opened&#45;&gt;closed -->
<g id="edge5" class="edge">
<title>opened&#45;&gt;closed</title>
<path fill="none" stroke="#000000" d="M62.2356,-27.6274C72.3161,-30.5452 83.5784,-33.6076 94,-36 116.6467,-41.1989 182.0508,-36.2117 197,-54 209.8767,-69.3222 188.9154,-82.1151 166.9618,-90.6305"/>
<polygon fill="#000000" stroke="#000000" points="165.4802,-87.444 157.2568,-94.1243 167.8512,-94.0302 165.4802,-87.444"/>
<text text-anchor="start" x="200" y="-57" font-family="Helvetica,sans-Serif" font-size="10.00" fill="#000000">CLOSE &#160;&#160;</text>
</g>
</g>
</svg>
