<?xml version="1.0" encoding="UTF-8" standalone="no"?>
<!DOCTYPE svg PUBLIC "-//W3C//DTD SVG 1.1//EN"
 "http://www.w3.org/Graphics/SVG/1.1/DTD/svg11.dtd">
<!-- Generated by graphviz version 2.40.1 (20161225.0304)
 -->
<!-- Title: state transitions Pages: 1 -->
<svg width="121pt" height="187pt"
 viewBox="0.00 0.00 121.00 187.00" xmlns="http://www.w3.org/2000/svg" xmlns:xlink="http://www.w3.org/1999/xlink">
<g id="graph0" class="graph" transform="scale(1 1) rotate(0) translate(4 183)">
<title>state transitions</title>
<polygon fill="#ffffff" stroke="transparent" points="-4,4 -4,-183 117,-183 117,4 -4,4"/>
<!-- initial -->
<g id="node1" class="node">
<title>initial</title>
<ellipse fill="#000000" stroke="#000000" stroke-width="2" cx="31" cy="-173.5" rx="5.5" ry="5.5"/>
</g>
<!-- closed -->
<g id="node2" class="node">
<title>closed</title>
<polygon fill="#ffffff" stroke="transparent" stroke-width="2" points="59,-120 3,-120 3,-84 59,-84 59,-120"/>
<text text-anchor="start" x="13.6624" y="-98.2" font-family="Helvetica,sans-Serif" font-size="12.00" fill="#000000">closed</text>
<path fill="none" stroke="#000000" stroke-width="2" d="M15.3333,-85C15.3333,-85 46.6667,-85 46.6667,-85 52.3333,-85 58,-90.6667 58,-96.3333 58,-96.3333 58,-107.6667 58,-107.6667 58,-113.3333 52.3333,-119 46.6667,-119 46.6667,-119 15.3333,-119 15.3333,-119 9.6667,-119 4,-113.3333 4,-107.6667 4,-107.6667 4,-96.3333 4,-96.3333 4,-90.6667 9.6667,-85 15.3333,-85"/>
</g>
<!-- initial&#45;&gt;closed -->
<g id="edge1" class="edge">
<title>initial&#45;&gt;closed</title>
<path fill="none" stroke="#000000" d="M31,-167.8895C31,-159.8095 31,-144.335 31,-130.4122"/>
<polygon fill="#000000" stroke="#000000" points="34.5001,-130.2159 31,-120.2159 27.5001,-130.2159 34.5001,-130.2159"/>
<text text-anchor="middle" x="32.3895" y="-141" font-family="Helvetica,sans-Serif" font-size="10.00" fill="#000000"> </text>
</g>
<!-- closed&#45;&gt;closed -->
<g id="edge3" class="edge">
<title>closed&#45;&gt;closed</title>
<path fill="none" stroke="#000000" d="M59.2662,-109.8269C67.051,-109.4488 73,-106.8398 73,-102 73,-99.5801 71.5128,-97.7179 69.0524,-96.4134"/>
<polygon fill="#000000" stroke="#000000" points="69.7951,-92.9929 59.2662,-94.1731 68.233,-99.8164 69.7951,-92.9929"/>
<text text-anchor="start" x="73" y="-99" font-family="Helvetica,sans-Serif" font-size="10.00" fill="#000000">OPEN &#160;&#160;</text>
</g>
<!-- opened -->
<g id="node3" class="node">
<title>opened</title>
<polygon fill="#ffffff" stroke="transparent" stroke-width="2" points="62,-36 0,-36 0,0 62,0 62,-36"/>
<text text-anchor="start" x="10.9876" y="-14.2" font-family="Helvetica,sans-Serif" font-size="12.00" fill="#000000">opened</text>
<path fill="none" stroke="#000000" stroke-width="2" d="M12.3333,-1C12.3333,-1 49.6667,-1 49.6667,-1 55.3333,-1 61,-6.6667 61,-12.3333 61,-12.3333 61,-23.6667 61,-23.6667 61,-29.3333 55.3333,-35 49.6667,-35 49.6667,-35 12.3333,-35 12.3333,-35 6.6667,-35 1,-29.3333 1,-23.6667 1,-23.6667 1,-12.3333 1,-12.3333 1,-6.6667 6.6667,-1 12.3333,-1"/>
</g>
<!-- closed&#45;&gt;opened -->
<g id="edge2" class="edge">
<title>closed&#45;&gt;opened</title>
<path fill="none" stroke="#000000" d="M14.7345,-83.7767C10.8969,-78.4135 7.3393,-72.2876 5.327,-66 3.0693,-58.9457 4.6003,-51.7118 7.8118,-45.0694"/>
<polygon fill="#000000" stroke="#000000" points="10.8453,-46.8169 13.0347,-36.4507 4.8588,-43.189 10.8453,-46.8169"/>
<text text-anchor="start" x="6" y="-57" font-family="Helvetica,sans-Serif" font-size="10.00" fill="#000000">OPEN &#160;&#160;</text>
</g>
<!-- opened&#45;&gt;closed -->
<g id="edge4" class="edge">
<title>opened&#45;&gt;closed</title>
<path fill="none" stroke="#000000" d="M37.7674,-36.1306C40.3379,-45.0718 42.3566,-56.0476 41,-66 40.6348,-68.6793 40.1233,-71.4407 39.523,-74.1863"/>
<polygon fill="#000000" stroke="#000000" points="36.1287,-73.3329 37.0614,-83.8866 42.9136,-75.0547 36.1287,-73.3329"/>
<text text-anchor="start" x="41" y="-57" font-family="Helvetica,sans-Serif" font-size="10.00" fill="#000000">CLOSE &#160;&#160;</text>
</g>
</g>
</svg>
