<?xml version="1.0" encoding="UTF-8" standalone="no"?>
<!DOCTYPE svg PUBLIC "-//W3C//DTD SVG 1.1//EN"
 "http://www.w3.org/Graphics/SVG/1.1/DTD/svg11.dtd">
<!-- Generated by graphviz version 2.40.1 (20161225.0304)
 -->
<!-- Title: state transitions Pages: 1 -->
<svg width="176pt" height="416pt"
 viewBox="0.00 0.00 175.67 416.00" xmlns="http://www.w3.org/2000/svg" xmlns:xlink="http://www.w3.org/1999/xlink">
<g id="graph0" class="graph" transform="scale(1 1) rotate(0) translate(4 412)">
<title>state transitions</title>
<polygon fill="#ffffff" stroke="transparent" points="-4,4 -4,-412 171.673,-412 171.673,4 -4,4"/>
<g id="clust1" class="cluster">
<title>cluster_closed</title>
<path fill="none" stroke="#000000" stroke-width="2" d="M20,-8C20,-8 114,-8 114,-8 120,-8 126,-14 126,-20 126,-20 126,-322 126,-322 126,-328 120,-334 114,-334 114,-334 20,-334 20,-334 14,-334 8,-328 8,-322 8,-322 8,-20 8,-20 8,-14 14,-8 20,-8"/>
<text text-anchor="start" x="49.6624" y="-315.2" font-family="Helvetica,sans-Serif" font-size="12.00" fill="#000000">closed</text>
</g>
<!-- initial -->
<g id="node1" class="node">
<title>initial</title>
<ellipse fill="#000000" stroke="#000000" stroke-width="2" cx="64" cy="-390" rx="5.5" ry="5.5"/>
</g>
<!-- closed -->
<!-- initial&#45;&gt;closed -->
<g id="edge1" class="edge">
<title>initial&#45;&gt;closed</title>
<path fill="none" stroke="#000000" d="M63.7625,-384.3459C63.6009,-375.0184 64.2574,-356.0426 71.221,-342 71.3587,-341.7223 71.5012,-341.4655 71.6479,-341.2271"/>
<polygon fill="#000000" stroke="#000000" points="74.3221,-343.5062 79,-334 69.4149,-338.5142 74.3221,-343.5062"/>
<text text-anchor="middle" x="73.3895" y="-345" font-family="Helvetica,sans-Serif" font-size="10.00" fill="#000000"> </text>
</g>
<!-- opened -->
<g id="node2" class="node">
<title>opened</title>
<polygon fill="#ffffff" stroke="transparent" stroke-width="2" points="162,-408 100,-408 100,-372 162,-372 162,-408"/>
<text text-anchor="start" x="110.9876" y="-386.2" font-family="Helvetica,sans-Serif" font-size="12.00" fill="#000000">opened</text>
<path fill="none" stroke="#000000" stroke-width="2" d="M112.3333,-373C112.3333,-373 149.6667,-373 149.6667,-373 155.3333,-373 161,-378.6667 161,-384.3333 161,-384.3333 161,-395.6667 161,-395.6667 161,-401.3333 155.3333,-407 149.6667,-407 149.6667,-407 112.3333,-407 112.3333,-407 106.6667,-407 101,-401.3333 101,-395.6667 101,-395.6667 101,-384.3333 101,-384.3333 101,-378.6667 106.6667,-373 112.3333,-373"/>
</g>
<!-- opened&#45;&gt;closed -->
<g id="edge4" class="edge">
<title>opened&#45;&gt;closed</title>
<path fill="none" stroke="#000000" d="M99.9126,-372.8308C93.4131,-367.6792 87.4281,-361.3917 83.768,-354 82.605,-351.6513 81.8565,-348.2025 81.4219,-344.0516"/>
<polygon fill="#000000" stroke="#000000" points="84.9147,-343.8152 80.9329,-333.997 77.9229,-344.1553 84.9147,-343.8152"/>
<text text-anchor="start" x="84" y="-345" font-family="Helvetica,sans-Serif" font-size="10.00" fill="#000000">CLOSE &#160;&#160;</text>
</g>
<!-- closed&#45;&gt;opened -->
<g id="edge2" class="edge">
<title>closed&#45;&gt;opened</title>
<path fill="none" stroke="#000000" d="M125.9554,-333.999C127.0969,-336.6471 128.1218,-339.3197 129,-342 130.9964,-348.0931 131.9741,-354.8552 132.3649,-361.3351"/>
<polygon fill="#000000" stroke="#000000" points="128.8735,-361.8675 132.5449,-371.8058 135.8724,-361.7472 128.8735,-361.8675"/>
<text text-anchor="start" x="131" y="-345" font-family="Helvetica,sans-Serif" font-size="10.00" fill="#000000">OPEN &#160;&#160;</text>
</g>
<!-- closed.error -->
<g id="node4" class="node">
<title>closed.error</title>
<polygon fill="#ffffff" stroke="transparent" stroke-width="2" points="90,-174 34,-174 34,-138 90,-138 90,-174"/>
<text text-anchor="start" x="49.337" y="-152.2" font-family="Helvetica,sans-Serif" font-size="12.00" fill="#000000">error</text>
<path fill="none" stroke="#000000" stroke-width="2" d="M46.3333,-139C46.3333,-139 77.6667,-139 77.6667,-139 83.3333,-139 89,-144.6667 89,-150.3333 89,-150.3333 89,-161.6667 89,-161.6667 89,-167.3333 83.3333,-173 77.6667,-173 77.6667,-173 46.3333,-173 46.3333,-173 40.6667,-173 35,-167.3333 35,-161.6667 35,-161.6667 35,-150.3333 35,-150.3333 35,-144.6667 40.6667,-139 46.3333,-139"/>
</g>
<!-- closed&#45;&gt;closed.error -->
<g id="edge3" class="edge">
<title>closed&#45;&gt;closed.error</title>
<path fill="none" stroke="#000000" d="M85.9826,-277.9116C85.4861,-275.3875 74.473,-219.4042 67.5455,-184.1895"/>
<polygon fill="#000000" stroke="#000000" points="70.9074,-183.1461 65.5429,-174.0097 64.039,-184.4973 70.9074,-183.1461"/>
<text text-anchor="start" x="75" y="-214" font-family="Helvetica,sans-Serif" font-size="10.00" fill="#000000">OPEN &#160;&#160;</text>
</g>
<!-- closed.#closed -->
<g id="node6" class="node">
<title>closed.#closed</title>
<polygon fill="#ffffff" stroke="transparent" stroke-width="2" points="117.5,-52 16.5,-52 16.5,-16 117.5,-16 117.5,-52"/>
<text text-anchor="start" x="27.822" y="-30.2" font-family="Helvetica,sans-Serif" font-size="12.00" fill="#000000">closed.#closed</text>
<path fill="none" stroke="#000000" stroke-width="2" d="M28.8333,-17C28.8333,-17 105.1667,-17 105.1667,-17 110.8333,-17 116.5,-22.6667 116.5,-28.3333 116.5,-28.3333 116.5,-39.6667 116.5,-39.6667 116.5,-45.3333 110.8333,-51 105.1667,-51 105.1667,-51 28.8333,-51 28.8333,-51 23.1667,-51 17.5,-45.3333 17.5,-39.6667 17.5,-39.6667 17.5,-28.3333 17.5,-28.3333 17.5,-22.6667 23.1667,-17 28.8333,-17"/>
</g>
<!-- closed.error&#45;&gt;closed.#closed -->
<g id="edge5" class="edge">
<title>closed.error&#45;&gt;closed.#closed</title>
<path fill="none" stroke="#000000" d="M62.7378,-137.9985C63.5575,-117.9958 64.8917,-85.4427 65.8491,-62.0831"/>
<polygon fill="#000000" stroke="#000000" points="69.3467,-62.2103 66.2592,-52.0754 62.3526,-61.9236 69.3467,-62.2103"/>
<text text-anchor="start" x="65" y="-92" font-family="Helvetica,sans-Serif" font-size="10.00" fill="#000000">CLEAR_ERROR &#160;&#160;</text>
</g>
<!-- closed.idle -->
<g id="node5" class="node">
<title>closed.idle</title>
<polygon fill="#ffffff" stroke="transparent" stroke-width="2" points="72,-296 16,-296 16,-260 72,-260 72,-296"/>
<text text-anchor="start" x="34.6664" y="-274.2" font-family="Helvetica,sans-Serif" font-size="12.00" fill="#000000">idle</text>
<path fill="none" stroke="#000000" stroke-width="2" d="M28.3333,-261C28.3333,-261 59.6667,-261 59.6667,-261 65.3333,-261 71,-266.6667 71,-272.3333 71,-272.3333 71,-283.6667 71,-283.6667 71,-289.3333 65.3333,-295 59.6667,-295 59.6667,-295 28.3333,-295 28.3333,-295 22.6667,-295 17,-289.3333 17,-283.6667 17,-283.6667 17,-272.3333 17,-272.3333 17,-266.6667 22.6667,-261 28.3333,-261"/>
</g>
</g>
</svg>
