<?xml version="1.0" encoding="UTF-8" standalone="no"?>
<!DOCTYPE svg PUBLIC "-//W3C//DTD SVG 1.1//EN"
 "http://www.w3.org/Graphics/SVG/1.1/DTD/svg11.dtd">
<!-- Generated by graphviz version 2.40.1 (20161225.0304)
 -->
<!-- Title: state transitions Pages: 1 -->
<svg width="195pt" height="391pt"
 viewBox="0.00 0.00 194.67 391.00" xmlns="http://www.w3.org/2000/svg" xmlns:xlink="http://www.w3.org/1999/xlink">
<g id="graph0" class="graph" transform="scale(1 1) rotate(0) translate(4 387)">
<title>state transitions</title>
<polygon fill="#ffffff" stroke="transparent" points="-4,4 -4,-387 190.673,-387 190.673,4 -4,4"/>
<g id="clust1" class="cluster">
<title>cluster_closed</title>
<path fill="none" stroke="#000000" stroke-width="2" d="M20,-8C20,-8 138,-8 138,-8 144,-8 150,-14 150,-20 150,-20 150,-297 150,-297 150,-303 144,-309 138,-309 138,-309 20,-309 20,-309 14,-309 8,-303 8,-297 8,-297 8,-20 8,-20 8,-14 14,-8 20,-8"/>
<text text-anchor="start" x="61.6624" y="-290.2" font-family="Helvetica,sans-Serif" font-size="12.00" fill="#000000">closed</text>
</g>
<!-- initial -->
<g id="node1" class="node">
<title>initial</title>
<ellipse fill="#000000" stroke="#000000" stroke-width="2" cx="83" cy="-365" rx="5.5" ry="5.5"/>
</g>
<!-- closed -->
<!-- initial&#45;&gt;closed -->
<g id="edge1" class="edge">
<title>initial&#45;&gt;closed</title>
<path fill="none" stroke="#000000" d="M83.6094,-359.3405C84.4828,-351.6583 86.2709,-337.3431 89.973,-318.9654"/>
<polygon fill="#000000" stroke="#000000" points="93.4359,-319.5072 92.0887,-308.9984 86.5885,-318.0537 93.4359,-319.5072"/>
<text text-anchor="middle" x="91.3895" y="-320" font-family="Helvetica,sans-Serif" font-size="10.00" fill="#000000"> </text>
</g>
<!-- opened -->
<g id="node2" class="node">
<title>opened</title>
<polygon fill="#ffffff" stroke="transparent" stroke-width="2" points="181,-383 119,-383 119,-347 181,-347 181,-383"/>
<text text-anchor="start" x="129.9876" y="-361.2" font-family="Helvetica,sans-Serif" font-size="12.00" fill="#000000">opened</text>
<path fill="none" stroke="#000000" stroke-width="2" d="M131.3333,-348C131.3333,-348 168.6667,-348 168.6667,-348 174.3333,-348 180,-353.6667 180,-359.3333 180,-359.3333 180,-370.6667 180,-370.6667 180,-376.3333 174.3333,-382 168.6667,-382 168.6667,-382 131.3333,-382 131.3333,-382 125.6667,-382 120,-376.3333 120,-370.6667 120,-370.6667 120,-359.3333 120,-359.3333 120,-353.6667 125.6667,-348 131.3333,-348"/>
</g>
<!-- opened&#45;&gt;closed -->
<g id="edge4" class="edge">
<title>opened&#45;&gt;closed</title>
<path fill="none" stroke="#000000" d="M118.9126,-347.8308C112.4131,-342.6792 106.4281,-336.3917 102.768,-329 101.1976,-325.8285 100.0559,-322.4547 99.26,-318.979"/>
<polygon fill="#000000" stroke="#000000" points="102.7155,-318.4166 97.8642,-308.9977 95.783,-319.3861 102.7155,-318.4166"/>
<text text-anchor="start" x="102" y="-320" font-family="Helvetica,sans-Serif" font-size="10.00" fill="#000000">CLOSE &#160;&#160;</text>
</g>
<!-- closed&#45;&gt;opened -->
<g id="edge2" class="edge">
<title>closed&#45;&gt;opened</title>
<path fill="none" stroke="#000000" d="M144.2907,-308.9952C145.6986,-311.612 146.9516,-314.2864 148,-317 150.367,-323.1269 151.467,-330.0264 151.8555,-336.6435"/>
<polygon fill="#000000" stroke="#000000" points="148.3558,-336.6949 151.9602,-346.6577 155.3554,-336.6216 148.3558,-336.6949"/>
<text text-anchor="start" x="150" y="-320" font-family="Helvetica,sans-Serif" font-size="10.00" fill="#000000">OPEN &#160;&#160;</text>
</g>
<!-- closed.error -->
<g id="node5" class="node">
<title>closed.error</title>
<polygon fill="#ffffff" stroke="transparent" stroke-width="2" points="142,-174 86,-174 86,-138 142,-138 142,-174"/>
<text text-anchor="start" x="101.337" y="-152.2" font-family="Helvetica,sans-Serif" font-size="12.00" fill="#000000">error</text>
<path fill="none" stroke="#000000" stroke-width="2" d="M98.3333,-139C98.3333,-139 129.6667,-139 129.6667,-139 135.3333,-139 141,-144.6667 141,-150.3333 141,-150.3333 141,-161.6667 141,-161.6667 141,-167.3333 135.3333,-173 129.6667,-173 129.6667,-173 98.3333,-173 98.3333,-173 92.6667,-173 87,-167.3333 87,-161.6667 87,-161.6667 87,-150.3333 87,-150.3333 87,-144.6667 92.6667,-139 98.3333,-139"/>
</g>
<!-- closed&#45;&gt;closed.error -->
<g id="edge3" class="edge">
<title>closed&#45;&gt;closed.error</title>
<path fill="none" stroke="#000000" d="M105.0065,-265.4206C105.1873,-263.2213 109.0851,-215.7982 111.6894,-184.1128"/>
<polygon fill="#000000" stroke="#000000" points="115.1847,-184.3118 112.5157,-174.0587 108.2082,-183.7383 115.1847,-184.3118"/>
<text text-anchor="start" x="109" y="-214" font-family="Helvetica,sans-Serif" font-size="10.00" fill="#000000">OPEN &#160;&#160;</text>
</g>
<!-- closed.initial -->
<g id="node4" class="node">
<title>closed.initial</title>
<ellipse fill="#000000" stroke="#000000" stroke-width="2" cx="44" cy="-265.5" rx="5.5" ry="5.5"/>
</g>
<!-- closed.idle -->
<g id="node6" class="node">
<title>closed.idle</title>
<polygon fill="#ffffff" stroke="transparent" stroke-width="2" points="72,-174 16,-174 16,-138 72,-138 72,-174"/>
<text text-anchor="start" x="34.6664" y="-152.2" font-family="Helvetica,sans-Serif" font-size="12.00" fill="#000000">idle</text>
<path fill="none" stroke="#000000" stroke-width="2" d="M28.3333,-139C28.3333,-139 59.6667,-139 59.6667,-139 65.3333,-139 71,-144.6667 71,-150.3333 71,-150.3333 71,-161.6667 71,-161.6667 71,-167.3333 65.3333,-173 59.6667,-173 59.6667,-173 28.3333,-173 28.3333,-173 22.6667,-173 17,-167.3333 17,-161.6667 17,-161.6667 17,-150.3333 17,-150.3333 17,-144.6667 22.6667,-139 28.3333,-139"/>
</g>
<!-- closed.initial&#45;&gt;closed.idle -->
<g id="edge5" class="edge">
<title>closed.initial&#45;&gt;closed.idle</title>
<path fill="none" stroke="#000000" d="M44,-259.9193C44,-246.2673 44,-210.4213 44,-184.6489"/>
<polygon fill="#000000" stroke="#000000" points="47.5001,-184.3143 44,-174.3143 40.5001,-184.3144 47.5001,-184.3143"/>
<text text-anchor="middle" x="45.3895" y="-214" font-family="Helvetica,sans-Serif" font-size="10.00" fill="#000000"> </text>
</g>
<!-- closed.#closed -->
<g id="node7" class="node">
<title>closed.#closed</title>
<polygon fill="#ffffff" stroke="transparent" stroke-width="2" points="117.5,-52 16.5,-52 16.5,-16 117.5,-16 117.5,-52"/>
<text text-anchor="start" x="27.822" y="-30.2" font-family="Helvetica,sans-Serif" font-size="12.00" fill="#000000">closed.#closed</text>
<path fill="none" stroke="#000000" stroke-width="2" d="M28.8333,-17C28.8333,-17 105.1667,-17 105.1667,-17 110.8333,-17 116.5,-22.6667 116.5,-28.3333 116.5,-28.3333 116.5,-39.6667 116.5,-39.6667 116.5,-45.3333 110.8333,-51 105.1667,-51 105.1667,-51 28.8333,-51 28.8333,-51 23.1667,-51 17.5,-45.3333 17.5,-39.6667 17.5,-39.6667 17.5,-28.3333 17.5,-28.3333 17.5,-22.6667 23.1667,-17 28.8333,-17"/>
</g>
<!-- closed.error&#45;&gt;closed.#closed -->
<g id="edge6" class="edge">
<title>closed.error&#45;&gt;closed.#closed</title>
<path fill="none" stroke="#000000" d="M107.065,-137.9985C99.2896,-117.8156 86.5917,-84.8551 77.5765,-61.454"/>
<polygon fill="#000000" stroke="#000000" points="80.8245,-60.1486 73.9635,-52.0754 74.2924,-62.6651 80.8245,-60.1486"/>
<text text-anchor="start" x="92" y="-92" font-family="Helvetica,sans-Serif" font-size="10.00" fill="#000000">CLEAR_ERROR &#160;&#160;</text>
</g>
</g>
</svg>
