<?xml version="1.0" encoding="UTF-8" standalone="no"?>
<!DOCTYPE svg PUBLIC "-//W3C//DTD SVG 1.1//EN"
 "http://www.w3.org/Graphics/SVG/1.1/DTD/svg11.dtd">
<!-- Generated by graphviz version 2.40.1 (20161225.0304)
 -->
<!-- Title: state transitions Pages: 1 -->
<svg width="158pt" height="187pt"
 viewBox="0.00 0.00 157.88 187.00" xmlns="http://www.w3.org/2000/svg" xmlns:xlink="http://www.w3.org/1999/xlink">
<g id="graph0" class="graph" transform="scale(1 1) rotate(0) translate(4 183)">
<title>state transitions</title>
<polygon fill="#ffffff" stroke="transparent" points="-4,4 -4,-183 153.8751,-183 153.8751,4 -4,4"/>
<!-- initial -->
<g id="node1" class="node">
<title>initial</title>
<ellipse fill="#000000" stroke="#000000" stroke-width="2" cx="62.6431" cy="-173.5" rx="5.5" ry="5.5"/>
</g>
<!-- closed -->
<g id="node2" class="node">
<title>closed</title>
<polygon fill="#ffffff" stroke="transparent" stroke-width="2" points="90.6431,-120 34.6431,-120 34.6431,-84 90.6431,-84 90.6431,-120"/>
<text text-anchor="start" x="45.3055" y="-98.2" font-family="Helvetica,sans-Serif" font-size="12.00" fill="#000000">closed</text>
<path fill="none" stroke="#000000" stroke-width="2" d="M46.9764,-85C46.9764,-85 78.3097,-85 78.3097,-85 83.9764,-85 89.6431,-90.6667 89.6431,-96.3333 89.6431,-96.3333 89.6431,-107.6667 89.6431,-107.6667 89.6431,-113.3333 83.9764,-119 78.3097,-119 78.3097,-119 46.9764,-119 46.9764,-119 41.3097,-119 35.6431,-113.3333 35.6431,-107.6667 35.6431,-107.6667 35.6431,-96.3333 35.6431,-96.3333 35.6431,-90.6667 41.3097,-85 46.9764,-85"/>
</g>
<!-- initial&#45;&gt;closed -->
<g id="edge1" class="edge">
<title>initial&#45;&gt;closed</title>
<path fill="none" stroke="#000000" d="M62.6431,-167.8895C62.6431,-159.8095 62.6431,-144.335 62.6431,-130.4122"/>
<polygon fill="#000000" stroke="#000000" points="66.1432,-130.2159 62.6431,-120.2159 59.1432,-130.2159 66.1432,-130.2159"/>
<text text-anchor="middle" x="64.0326" y="-141" font-family="Helvetica,sans-Serif" font-size="10.00" fill="#000000"> </text>
</g>
<!-- closed&#45;&gt;closed -->
<g id="edge3" class="edge">
<title>closed&#45;&gt;closed</title>
<path fill="none" stroke="#000000" d="M90.9093,-109.8269C98.6941,-109.4488 104.6431,-106.8398 104.6431,-102 104.6431,-99.5801 103.1558,-97.7179 100.6955,-96.4134"/>
<polygon fill="#000000" stroke="#000000" points="101.4382,-92.9929 90.9093,-94.1731 99.8761,-99.8164 101.4382,-92.9929"/>
<text text-anchor="start" x="104.6431" y="-99" font-family="Helvetica,sans-Serif" font-size="10.00" fill="#000000">OPEN &#160;&#160;</text>
</g>
<!-- opened -->
<g id="node3" class="node">
<title>opened</title>
<polygon fill="#ffffff" stroke="transparent" stroke-width="2" points="93.6431,-36 31.6431,-36 31.6431,0 93.6431,0 93.6431,-36"/>
<text text-anchor="start" x="42.6307" y="-14.2" font-family="Helvetica,sans-Serif" font-size="12.00" fill="#000000">opened</text>
<path fill="none" stroke="#000000" stroke-width="2" d="M43.9764,-1C43.9764,-1 81.3097,-1 81.3097,-1 86.9764,-1 92.6431,-6.6667 92.6431,-12.3333 92.6431,-12.3333 92.6431,-23.6667 92.6431,-23.6667 92.6431,-29.3333 86.9764,-35 81.3097,-35 81.3097,-35 43.9764,-35 43.9764,-35 38.3097,-35 32.6431,-29.3333 32.6431,-23.6667 32.6431,-23.6667 32.6431,-12.3333 32.6431,-12.3333 32.6431,-6.6667 38.3097,-1 43.9764,-1"/>
</g>
<!-- closed&#45;&gt;opened -->
<g id="edge2" class="edge">
<title>closed&#45;&gt;opened</title>
<path fill="none" stroke="#000000" d="M34.348,-92.3319C22.3264,-86.6574 9.5174,-78.1579 2.6331,-66 -5.1151,-52.3165 6.9928,-41.058 22.315,-32.8921"/>
<polygon fill="#000000" stroke="#000000" points="24.0797,-35.9275 31.5822,-28.4466 21.0521,-29.6161 24.0797,-35.9275"/>
<text text-anchor="start" x="2.6431" y="-57" font-family="Helvetica,sans-Serif" font-size="10.00" fill="#000000">OPEN [isAdmin]/track &#160;&#160;</text>
</g>
<!-- opened&#45;&gt;closed -->
<g id="edge4" class="edge">
<title>opened&#45;&gt;closed</title>
<path fill="none" stroke="#000000" d="M93.8932,-35.6159C104.3209,-43.9407 112.065,-54.5584 106.6431,-66 104.5351,-70.4484 101.5783,-74.53 98.1836,-78.2187"/>
<polygon fill="#000000" stroke="#000000" points="95.6163,-75.8286 90.732,-85.2304 100.4133,-80.9266 95.6163,-75.8286"/>
<text text-anchor="start" x="107.6431" y="-57" font-family="Helvetica,sans-Serif" font-size="10.00" fill="#000000">CLOSE &#160;&#160;</text>
</g>
</g>
</svg>
