<?xml version="1.0" encoding="UTF-8" standalone="no"?>
<!DOCTYPE svg PUBLIC "-//W3C//DTD SVG 1.1//EN"
 "http://www.w3.org/Graphics/SVG/1.1/DTD/svg11.dtd">
<!-- Generated by graphviz version 2.40.1 (20161225.0304)
 -->
<!-- Title: state transitions Pages: 1 -->
<svg width="154pt" height="380pt"
 viewBox="0.00 0.00 154.34 380.00" xmlns="http://www.w3.org/2000/svg" xmlns:xlink="http://www.w3.org/1999/xlink">
<g id="graph0" class="graph" transform="scale(1 1) rotate(0) translate(4 376)">
<title>state transitions</title>
<polygon fill="#ffffff" stroke="transparent" points="-4,4 -4,-376 150.336,-376 150.336,4 -4,4"/>
<g id="clust1" class="cluster">
<title>cluster_closed</title>
<path fill="none" stroke="#000000" stroke-width="2" d="M20,-8C20,-8 114,-8 114,-8 120,-8 126,-14 126,-20 126,-20 126,-286 126,-286 126,-292 120,-298 114,-298 114,-298 20,-298 20,-298 14,-298 8,-292 8,-286 8,-286 8,-20 8,-20 8,-14 14,-8 20,-8"/>
<text text-anchor="start" x="49.6624" y="-279.2" font-family="Helvetica,sans-Serif" font-size="12.00" fill="#000000">closed</text>
</g>
<!-- initial -->
<g id="node1" class="node">
<title>initial</title>
<ellipse fill="#000000" stroke="#000000" stroke-width="2" cx="37" cy="-354" rx="5.5" ry="5.5"/>
</g>
<!-- closed -->
<!-- initial&#45;&gt;closed -->
<g id="edge1" class="edge">
<title>initial&#45;&gt;closed</title>
<path fill="none" stroke="#000000" d="M37.5531,-348.3278C38.3606,-340.6307 40.0637,-326.2962 43.9995,-307.9463"/>
<polygon fill="#000000" stroke="#000000" points="47.457,-308.5262 46.2683,-297.9983 40.6323,-306.9697 47.457,-308.5262"/>
<text text-anchor="middle" x="45.3895" y="-309" font-family="Helvetica,sans-Serif" font-size="10.00" fill="#000000"> </text>
</g>
<!-- opened -->
<g id="node2" class="node">
<title>opened</title>
<polygon fill="#ffffff" stroke="transparent" stroke-width="2" points="135,-372 73,-372 73,-336 135,-336 135,-372"/>
<text text-anchor="start" x="83.9876" y="-350.2" font-family="Helvetica,sans-Serif" font-size="12.00" fill="#000000">opened</text>
<path fill="none" stroke="#000000" stroke-width="2" d="M85.3333,-337C85.3333,-337 122.6667,-337 122.6667,-337 128.3333,-337 134,-342.6667 134,-348.3333 134,-348.3333 134,-359.6667 134,-359.6667 134,-365.3333 128.3333,-371 122.6667,-371 122.6667,-371 85.3333,-371 85.3333,-371 79.6667,-371 74,-365.3333 74,-359.6667 74,-359.6667 74,-348.3333 74,-348.3333 74,-342.6667 79.6667,-337 85.3333,-337"/>
</g>
<!-- opened&#45;&gt;closed -->
<g id="edge4" class="edge">
<title>opened&#45;&gt;closed</title>
<path fill="none" stroke="#000000" d="M72.9126,-336.8308C66.4131,-331.6792 60.4281,-325.3917 56.768,-318 55.2029,-314.8392 54.1075,-311.4585 53.3826,-307.9771"/>
<polygon fill="#000000" stroke="#000000" points="56.8549,-307.5344 52.2384,-297.9982 49.9004,-308.3318 56.8549,-307.5344"/>
<text text-anchor="start" x="56" y="-309" font-family="Helvetica,sans-Serif" font-size="10.00" fill="#000000">CLOSE &#160;&#160;</text>
</g>
<!-- closed&#45;&gt;opened -->
<g id="edge2" class="edge">
<title>closed&#45;&gt;opened</title>
<path fill="none" stroke="#000000" d="M97.9042,-297.9973C99.4672,-300.5901 100.8537,-303.2634 102,-306 104.5376,-312.0582 105.7033,-318.9313 106.1009,-325.5448"/>
<polygon fill="#000000" stroke="#000000" points="102.6011,-325.5972 106.1804,-335.5691 109.6009,-325.5416 102.6011,-325.5972"/>
<text text-anchor="start" x="105" y="-309" font-family="Helvetica,sans-Serif" font-size="10.00" fill="#000000">OPEN &#160;&#160;</text>
</g>
<!-- closed.error -->
<g id="node4" class="node">
<title>closed.error</title>
<polygon fill="#ffffff" stroke="transparent" stroke-width="2" points="101.5,-174 16.5,-174 16.5,-138 101.5,-138 101.5,-174"/>
<text text-anchor="start" x="27.832" y="-152.2" font-family="Helvetica,sans-Serif" font-size="12.00" fill="#000000">closed.error</text>
<path fill="none" stroke="#000000" stroke-width="2" d="M28.8333,-139C28.8333,-139 89.1667,-139 89.1667,-139 94.8333,-139 100.5,-144.6667 100.5,-150.3333 100.5,-150.3333 100.5,-161.6667 100.5,-161.6667 100.5,-167.3333 94.8333,-173 89.1667,-173 89.1667,-173 28.8333,-173 28.8333,-173 23.1667,-173 17.5,-167.3333 17.5,-161.6667 17.5,-161.6667 17.5,-150.3333 17.5,-150.3333 17.5,-144.6667 23.1667,-139 28.8333,-139"/>
</g>
<!-- closed&#45;&gt;closed.error -->
<g id="edge3" class="edge">
<title>closed&#45;&gt;closed.error</title>
<path fill="none" stroke="#000000" d="M59,-259.9246C59,-257.8758 59,-214.5071 59,-184.4489"/>
<polygon fill="#000000" stroke="#000000" points="62.5001,-184.0783 59,-174.0783 55.5001,-184.0783 62.5001,-184.0783"/>
<text text-anchor="start" x="59" y="-214" font-family="Helvetica,sans-Serif" font-size="10.00" fill="#000000">OPEN &#160;&#160;</text>
</g>
<!-- closed.#closed -->
<g id="node5" class="node">
<title>closed.#closed</title>
<polygon fill="#ffffff" stroke="transparent" stroke-width="2" points="117.5,-52 16.5,-52 16.5,-16 117.5,-16 117.5,-52"/>
<text text-anchor="start" x="27.822" y="-30.2" font-family="Helvetica,sans-Serif" font-size="12.00" fill="#000000">closed.#closed</text>
<path fill="none" stroke="#000000" stroke-width="2" d="M28.8333,-17C28.8333,-17 105.1667,-17 105.1667,-17 110.8333,-17 116.5,-22.6667 116.5,-28.3333 116.5,-28.3333 116.5,-39.6667 116.5,-39.6667 116.5,-45.3333 110.8333,-51 105.1667,-51 105.1667,-51 28.8333,-51 28.8333,-51 23.1667,-51 17.5,-45.3333 17.5,-39.6667 17.5,-39.6667 17.5,-28.3333 17.5,-28.3333 17.5,-22.6667 23.1667,-17 28.8333,-17"/>
</g>
<!-- closed.error&#45;&gt;closed.#closed -->
<g id="edge5" class="edge">
<title>closed.error&#45;&gt;closed.#closed</title>
<path fill="none" stroke="#000000" d="M60.1804,-137.9985C61.4921,-117.9958 63.6267,-85.4427 65.1585,-62.0831"/>
<polygon fill="#000000" stroke="#000000" points="68.6528,-62.283 65.8147,-52.0754 61.6678,-61.8249 68.6528,-62.283"/>
<text text-anchor="start" x="63" y="-92" font-family="Helvetica,sans-Serif" font-size="10.00" fill="#000000">CLEAR_ERROR &#160;&#160;</text>
</g>
</g>
</svg>
