<?xml version="1.0" encoding="UTF-8" standalone="no"?>
<!DOCTYPE svg PUBLIC "-//W3C//DTD SVG 1.1//EN"
 "http://www.w3.org/Graphics/SVG/1.1/DTD/svg11.dtd">
<!-- Generated by graphviz version 2.40.1 (20161225.0304)
 -->
<!-- Title: state transitions Pages: 1 -->
<svg width="258pt" height="187pt"
 viewBox="0.00 0.00 258.23 187.00" xmlns="http://www.w3.org/2000/svg" xmlns:xlink="http://www.w3.org/1999/xlink">
<g id="graph0" class="graph" transform="scale(1 1) rotate(0) translate(4 183)">
<title>state transitions</title>
<polygon fill="#ffffff" stroke="transparent" points="-4,4 -4,-183 254.232,-183 254.232,4 -4,4"/>
<!-- initial -->
<g id="node1" class="node">
<title>initial</title>
<ellipse fill="#000000" stroke="#000000" stroke-width="2" cx="137" cy="-173.5" rx="5.5" ry="5.5"/>
</g>
<!-- closed -->
<g id="node2" class="node">
<title>closed</title>
<polygon fill="#ffffff" stroke="transparent" stroke-width="2" points="165,-120 109,-120 109,-84 165,-84 165,-120"/>
<text text-anchor="start" x="119.6624" y="-98.2" font-family="Helvetica,sans-Serif" font-size="12.00" fill="#000000">closed</text>
<path fill="none" stroke="#000000" stroke-width="2" d="M121.3333,-85C121.3333,-85 152.6667,-85 152.6667,-85 158.3333,-85 164,-90.6667 164,-96.3333 164,-96.3333 164,-107.6667 164,-107.6667 164,-113.3333 158.3333,-119 152.6667,-119 152.6667,-119 121.3333,-119 121.3333,-119 115.6667,-119 110,-113.3333 110,-107.6667 110,-107.6667 110,-96.3333 110,-96.3333 110,-90.6667 115.6667,-85 121.3333,-85"/>
</g>
<!-- initial&#45;&gt;closed -->
<g id="edge1" class="edge">
<title>initial&#45;&gt;closed</title>
<path fill="none" stroke="#000000" d="M137,-167.8895C137,-159.8095 137,-144.335 137,-130.4122"/>
<polygon fill="#000000" stroke="#000000" points="140.5001,-130.2159 137,-120.2159 133.5001,-130.2159 140.5001,-130.2159"/>
<text text-anchor="middle" x="138.3895" y="-141" font-family="Helvetica,sans-Serif" font-size="10.00" fill="#000000"> </text>
</g>
<!-- closed&#45;&gt;closed -->
<g id="edge4" class="edge">
<title>closed&#45;&gt;closed</title>
<path fill="none" stroke="#000000" d="M165.0183,-109.7938C176.888,-110.3811 187,-107.7832 187,-102 187,-98.024 182.2205,-95.5536 175.3762,-94.5888"/>
<polygon fill="#000000" stroke="#000000" points="175.1406,-91.0778 165.0183,-94.2062 174.8822,-98.073 175.1406,-91.0778"/>
<text text-anchor="start" x="187" y="-99" font-family="Helvetica,sans-Serif" font-size="10.00" fill="#000000">OPEN &#160;&#160;</text>
</g>
<!-- opened -->
<g id="node3" class="node">
<title>opened</title>
<polygon fill="#ffffff" stroke="transparent" stroke-width="2" points="62,-36 0,-36 0,0 62,0 62,-36"/>
<text text-anchor="start" x="10.9876" y="-14.2" font-family="Helvetica,sans-Serif" font-size="12.00" fill="#000000">opened</text>
<path fill="none" stroke="#000000" stroke-width="2" d="M12.3333,-1C12.3333,-1 49.6667,-1 49.6667,-1 55.3333,-1 61,-6.6667 61,-12.3333 61,-12.3333 61,-23.6667 61,-23.6667 61,-29.3333 55.3333,-35 49.6667,-35 49.6667,-35 12.3333,-35 12.3333,-35 6.6667,-35 1,-29.3333 1,-23.6667 1,-23.6667 1,-12.3333 1,-12.3333 1,-6.6667 6.6667,-1 12.3333,-1"/>
</g>
<!-- closed&#45;&gt;opened -->
<g id="edge2" class="edge">
<title>closed&#45;&gt;opened</title>
<path fill="none" stroke="#000000" d="M108.8692,-96.6755C79.6083,-90.4979 36.7207,-79.4228 26.99,-66 22.9009,-60.3594 21.898,-53.3064 22.4056,-46.3577"/>
<polygon fill="#000000" stroke="#000000" points="25.8691,-46.8653 24.0467,-36.4284 18.9628,-45.7238 25.8691,-46.8653"/>
<text text-anchor="start" x="27" y="-57" font-family="Helvetica,sans-Serif" font-size="10.00" fill="#000000">OPEN [isAdmin]/track &#160;&#160;</text>
</g>
<!-- stuck -->
<g id="node4" class="node">
<title>stuck</title>
<polygon fill="#ffffff" stroke="transparent" stroke-width="2" points="165,-36 109,-36 109,0 165,0 165,-36"/>
<text text-anchor="start" x="122.9972" y="-14.2" font-family="Helvetica,sans-Serif" font-size="12.00" fill="#000000">stuck</text>
<path fill="none" stroke="#000000" stroke-width="2" d="M121.3333,-1C121.3333,-1 152.6667,-1 152.6667,-1 158.3333,-1 164,-6.6667 164,-12.3333 164,-12.3333 164,-23.6667 164,-23.6667 164,-29.3333 158.3333,-35 152.6667,-35 152.6667,-35 121.3333,-35 121.3333,-35 115.6667,-35 110,-29.3333 110,-23.6667 110,-23.6667 110,-12.3333 110,-12.3333 110,-6.6667 115.6667,-1 121.3333,-1"/>
</g>
<!-- closed&#45;&gt;stuck -->
<g id="edge3" class="edge">
<title>closed&#45;&gt;stuck</title>
<path fill="none" stroke="#000000" d="M137,-83.7733C137,-72.8758 137,-58.7946 137,-46.4587"/>
<polygon fill="#000000" stroke="#000000" points="140.5001,-46.1911 137,-36.1912 133.5001,-46.1912 140.5001,-46.1911"/>
<text text-anchor="start" x="137" y="-57" font-family="Helvetica,sans-Serif" font-size="10.00" fill="#000000">OPEN [cond] &#160;&#160;</text>
</g>
<!-- opened&#45;&gt;closed -->
<g id="edge5" class="edge">
<title>opened&#45;&gt;closed</title>
<path fill="none" stroke="#000000" d="M62.2069,-27.0492C73.4341,-30.128 86.2318,-33.4355 98,-36 121.559,-41.1339 189.4286,-35.5904 205,-54 217.9832,-69.3497 196.7713,-82.1922 174.6969,-90.7191"/>
<polygon fill="#000000" stroke="#000000" points="173.5072,-87.4275 165.2808,-94.104 175.8753,-94.0148 173.5072,-87.4275"/>
<text text-anchor="start" x="208" y="-57" font-family="Helvetica,sans-Serif" font-size="10.00" fill="#000000">CLOSE &#160;&#160;</text>
</g>
</g>
</svg>
