<?xml version="1.0" encoding="UTF-8" standalone="no"?>
<!DOCTYPE svg PUBLIC "-//W3C//DTD SVG 1.1//EN"
 "http://www.w3.org/Graphics/SVG/1.1/DTD/svg11.dtd">
<!-- Generated by graphviz version 2.40.1 (20161225.0304)
 -->
<!-- Title: state transitions Pages: 1 -->
<svg width="241pt" height="396pt"
 viewBox="0.00 0.00 241.00 396.00" xmlns="http://www.w3.org/2000/svg" xmlns:xlink="http://www.w3.org/1999/xlink">
<g id="graph0" class="graph" transform="scale(1 1) rotate(0) translate(4 392)">
<title>state transitions</title>
<polygon fill="#ffffff" stroke="transparent" points="-4,4 -4,-392 237,-392 237,4 -4,4"/>
<g id="clust1" class="cluster">
<title>cluster_red</title>
<path fill="none" stroke="#000000" stroke-width="2" d="M20,-8C20,-8 92,-8 92,-8 98,-8 104,-14 104,-20 104,-20 104,-368 104,-368 104,-374 98,-380 92,-380 92,-380 20,-380 20,-380 14,-380 8,-374 8,-368 8,-368 8,-20 8,-20 8,-14 14,-8 20,-8"/>
<text text-anchor="start" x="47.8318" y="-361.2" font-family="Helvetica,sans-Serif" font-size="12.00" fill="#000000">red</text>
</g>
<!-- initial -->
<g id="node1" class="node">
<title>initial</title>
<ellipse fill="#000000" stroke="#000000" stroke-width="2" cx="209" cy="-324" rx="5.5" ry="5.5"/>
</g>
<!-- green -->
<g id="node2" class="node">
<title>green</title>
<polygon fill="#ffffff" stroke="transparent" stroke-width="2" points="233,-258 177,-258 177,-222 233,-222 233,-258"/>
<text text-anchor="start" x="189.661" y="-236.2" font-family="Helvetica,sans-Serif" font-size="12.00" fill="#000000">green</text>
<path fill="none" stroke="#000000" stroke-width="2" d="M189.3333,-223C189.3333,-223 220.6667,-223 220.6667,-223 226.3333,-223 232,-228.6667 232,-234.3333 232,-234.3333 232,-245.6667 232,-245.6667 232,-251.3333 226.3333,-257 220.6667,-257 220.6667,-257 189.3333,-257 189.3333,-257 183.6667,-257 178,-251.3333 178,-245.6667 178,-245.6667 178,-234.3333 178,-234.3333 178,-228.6667 183.6667,-223 189.3333,-223"/>
</g>
<!-- initial&#45;&gt;green -->
<g id="edge1" class="edge">
<title>initial&#45;&gt;green</title>
<path fill="none" stroke="#000000" d="M208.7375,-318.4885C208.2581,-308.4198 207.2103,-286.4163 206.3458,-268.2615"/>
<polygon fill="#000000" stroke="#000000" points="209.8354,-267.9584 205.8636,-258.1362 202.8433,-268.2914 209.8354,-267.9584"/>
<text text-anchor="middle" x="208.3895" y="-279" font-family="Helvetica,sans-Serif" font-size="10.00" fill="#000000"> </text>
</g>
<!-- yellow -->
<g id="node3" class="node">
<title>yellow</title>
<polygon fill="#ffffff" stroke="transparent" stroke-width="2" points="187,-174 131,-174 131,-138 187,-138 187,-174"/>
<text text-anchor="start" x="142.335" y="-152.2" font-family="Helvetica,sans-Serif" font-size="12.00" fill="#000000">yellow</text>
<path fill="none" stroke="#000000" stroke-width="2" d="M143.3333,-139C143.3333,-139 174.6667,-139 174.6667,-139 180.3333,-139 186,-144.6667 186,-150.3333 186,-150.3333 186,-161.6667 186,-161.6667 186,-167.3333 180.3333,-173 174.6667,-173 174.6667,-173 143.3333,-173 143.3333,-173 137.6667,-173 132,-167.3333 132,-161.6667 132,-161.6667 132,-150.3333 132,-150.3333 132,-144.6667 137.6667,-139 143.3333,-139"/>
</g>
<!-- green&#45;&gt;yellow -->
<g id="edge2" class="edge">
<title>green&#45;&gt;yellow</title>
<path fill="none" stroke="#000000" d="M195.0187,-221.7733C188.8099,-210.4355 180.7139,-195.6515 173.7705,-182.9723"/>
<polygon fill="#000000" stroke="#000000" points="176.8349,-181.281 168.9618,-174.1912 170.6952,-184.6433 176.8349,-181.281"/>
<text text-anchor="start" x="184" y="-195" font-family="Helvetica,sans-Serif" font-size="10.00" fill="#000000">TIMER &#160;&#160;</text>
</g>
<!-- red -->
<!-- yellow&#45;&gt;red -->
<g id="edge3" class="edge">
<title>yellow&#45;&gt;red</title>
<path fill="none" stroke="#000000" d="M150.7574,-174.0479C144.8543,-187.2237 136.8669,-205.5775 130.558,-222 122.0835,-244.0598 113.5533,-269.2001 107.088,-289.002"/>
<polygon fill="#000000" stroke="#000000" points="103.7502,-287.9489 103.9982,-298.5408 110.4095,-290.1061 103.7502,-287.9489"/>
<text text-anchor="start" x="130" y="-237" font-family="Helvetica,sans-Serif" font-size="10.00" fill="#000000">TIMER &#160;&#160;</text>
</g>
<!-- red&#45;&gt;green -->
<g id="edge4" class="edge">
<title>red&#45;&gt;green</title>
<path fill="none" stroke="#000000" d="M103.9953,-317.8385C118.4116,-306.7287 149.4832,-282.7836 173.3821,-264.3661"/>
<polygon fill="#000000" stroke="#000000" points="175.6817,-267.0127 181.4661,-258.1362 171.4087,-261.4681 175.6817,-267.0127"/>
<text text-anchor="start" x="157" y="-279" font-family="Helvetica,sans-Serif" font-size="10.00" fill="#000000">TIMER &#160;&#160;</text>
</g>
<!-- red.walk -->
<g id="node5" class="node">
<title>red.walk</title>
<polygon fill="#ffffff" stroke="transparent" stroke-width="2" points="82,-342 16,-342 16,-306 82,-306 82,-342"/>
<text text-anchor="start" x="26.6662" y="-320.2" font-family="Helvetica,sans-Serif" font-size="12.00" fill="#000000">red.walk</text>
<path fill="none" stroke="#000000" stroke-width="2" d="M28.3333,-307C28.3333,-307 69.6667,-307 69.6667,-307 75.3333,-307 81,-312.6667 81,-318.3333 81,-318.3333 81,-329.6667 81,-329.6667 81,-335.3333 75.3333,-341 69.6667,-341 69.6667,-341 28.3333,-341 28.3333,-341 22.6667,-341 17,-335.3333 17,-329.6667 17,-329.6667 17,-318.3333 17,-318.3333 17,-312.6667 22.6667,-307 28.3333,-307"/>
</g>
<!-- red.wait -->
<g id="node6" class="node">
<title>red.wait</title>
<polygon fill="#ffffff" stroke="transparent" stroke-width="2" points="80,-174 16,-174 16,-138 80,-138 80,-174"/>
<text text-anchor="start" x="26.9988" y="-152.2" font-family="Helvetica,sans-Serif" font-size="12.00" fill="#000000">red.wait</text>
<path fill="none" stroke="#000000" stroke-width="2" d="M28.3333,-139C28.3333,-139 67.6667,-139 67.6667,-139 73.3333,-139 79,-144.6667 79,-150.3333 79,-150.3333 79,-161.6667 79,-161.6667 79,-167.3333 73.3333,-173 67.6667,-173 67.6667,-173 28.3333,-173 28.3333,-173 22.6667,-173 17,-167.3333 17,-161.6667 17,-161.6667 17,-150.3333 17,-150.3333 17,-144.6667 22.6667,-139 28.3333,-139"/>
</g>
<!-- red.walk&#45;&gt;red.wait -->
<g id="edge5" class="edge">
<title>red.walk&#45;&gt;red.wait</title>
<path fill="none" stroke="#000000" d="M46.3557,-305.8389C44.5673,-292.6083 42.3686,-274.2354 41.442,-258 40.0193,-233.0716 42.1419,-204.7311 44.3422,-184.2607"/>
<polygon fill="#000000" stroke="#000000" points="47.8507,-184.3862 45.516,-174.0519 40.8966,-183.5866 47.8507,-184.3862"/>
<text text-anchor="start" x="42" y="-237" font-family="Helvetica,sans-Serif" font-size="10.00" fill="#000000">PED_TIMER &#160;&#160;</text>
</g>
<!-- red.stop -->
<g id="node7" class="node">
<title>red.stop</title>
<polygon fill="#ffffff" stroke="transparent" stroke-width="2" points="81.5,-52 16.5,-52 16.5,-16 81.5,-16 81.5,-52"/>
<text text-anchor="start" x="27.8262" y="-30.2" font-family="Helvetica,sans-Serif" font-size="12.00" fill="#000000">red.stop</text>
<path fill="none" stroke="#000000" stroke-width="2" d="M28.8333,-17C28.8333,-17 69.1667,-17 69.1667,-17 74.8333,-17 80.5,-22.6667 80.5,-28.3333 80.5,-28.3333 80.5,-39.6667 80.5,-39.6667 80.5,-45.3333 74.8333,-51 69.1667,-51 69.1667,-51 28.8333,-51 28.8333,-51 23.1667,-51 17.5,-45.3333 17.5,-39.6667 17.5,-39.6667 17.5,-28.3333 17.5,-28.3333 17.5,-22.6667 23.1667,-17 28.8333,-17"/>
</g>
<!-- red.wait&#45;&gt;red.stop -->
<g id="edge6" class="edge">
<title>red.wait&#45;&gt;red.stop</title>
<path fill="none" stroke="#000000" d="M48.1476,-137.9985C48.3115,-117.9958 48.5783,-85.4427 48.7698,-62.0831"/>
<polygon fill="#000000" stroke="#000000" points="52.2697,-62.1038 48.8518,-52.0754 45.2699,-62.0463 52.2697,-62.1038"/>
<text text-anchor="start" x="49" y="-92" font-family="Helvetica,sans-Serif" font-size="10.00" fill="#000000">PED_TIMER &#160;&#160;</text>
</g>
</g>
</svg>
