<?xml version="1.0" encoding="UTF-8" standalone="no"?>
<!DOCTYPE svg PUBLIC "-//W3C//DTD SVG 1.1//EN"
 "http://www.w3.org/Graphics/SVG/1.1/DTD/svg11.dtd">
<!-- Generated by graphviz version 2.40.1 (20161225.0304)
 -->
<!-- Title: state transitions Pages: 1 -->
<svg width="203pt" height="493pt"
 viewBox="0.00 0.00 203.44 493.00" xmlns="http://www.w3.org/2000/svg" xmlns:xlink="http://www.w3.org/1999/xlink">
<g id="graph0" class="graph" transform="scale(1 1) rotate(0) translate(4 489)">
<title>state transitions</title>
<polygon fill="#ffffff" stroke="transparent" points="-4,4 -4,-489 199.442,-489 199.442,4 -4,4"/>
<g id="clust1" class="cluster">
<title>cluster_red</title>
<path fill="none" stroke="#000000" stroke-width="2" d="M20,-8C20,-8 92,-8 92,-8 98,-8 104,-14 104,-20 104,-20 104,-465 104,-465 104,-471 98,-477 92,-477 92,-477 20,-477 20,-477 14,-477 8,-471 8,-465 8,-465 8,-20 8,-20 8,-14 14,-8 20,-8"/>
<text text-anchor="start" x="47.8318" y="-458.2" font-family="Helvetica,sans-Serif" font-size="12.00" fill="#000000">red</text>
</g>
<!-- initial -->
<g id="node1" class="node">
<title>initial</title>
<ellipse fill="#000000" stroke="#000000" stroke-width="2" cx="165" cy="-433.5" rx="5.5" ry="5.5"/>
</g>
<!-- green -->
<g id="node3" class="node">
<title>green</title>
<polygon fill="#ffffff" stroke="transparent" stroke-width="2" points="189,-380 133,-380 133,-344 189,-344 189,-380"/>
<text text-anchor="start" x="145.661" y="-358.2" font-family="Helvetica,sans-Serif" font-size="12.00" fill="#000000">green</text>
<path fill="none" stroke="#000000" stroke-width="2" d="M145.3333,-345C145.3333,-345 176.6667,-345 176.6667,-345 182.3333,-345 188,-350.6667 188,-356.3333 188,-356.3333 188,-367.6667 188,-367.6667 188,-373.3333 182.3333,-379 176.6667,-379 176.6667,-379 145.3333,-379 145.3333,-379 139.6667,-379 134,-373.3333 134,-367.6667 134,-367.6667 134,-356.3333 134,-356.3333 134,-350.6667 139.6667,-345 145.3333,-345"/>
</g>
<!-- initial&#45;&gt;green -->
<g id="edge1" class="edge">
<title>initial&#45;&gt;green</title>
<path fill="none" stroke="#000000" d="M164.6861,-427.8895C164.2341,-419.8095 163.3684,-404.335 162.5895,-390.4122"/>
<polygon fill="#000000" stroke="#000000" points="166.0723,-390.0047 162.0191,-380.2159 159.0832,-390.3958 166.0723,-390.0047"/>
<text text-anchor="middle" x="164.3895" y="-401" font-family="Helvetica,sans-Serif" font-size="10.00" fill="#000000"> </text>
</g>
<!-- yellow -->
<g id="node2" class="node">
<title>yellow</title>
<polygon fill="#ffffff" stroke="transparent" stroke-width="2" points="178,-296 122,-296 122,-260 178,-260 178,-296"/>
<text text-anchor="start" x="133.335" y="-274.2" font-family="Helvetica,sans-Serif" font-size="12.00" fill="#000000">yellow</text>
<path fill="none" stroke="#000000" stroke-width="2" d="M134.3333,-261C134.3333,-261 165.6667,-261 165.6667,-261 171.3333,-261 177,-266.6667 177,-272.3333 177,-272.3333 177,-283.6667 177,-283.6667 177,-289.3333 171.3333,-295 165.6667,-295 165.6667,-295 134.3333,-295 134.3333,-295 128.6667,-295 123,-289.3333 123,-283.6667 123,-283.6667 123,-272.3333 123,-272.3333 123,-266.6667 128.6667,-261 134.3333,-261"/>
</g>
<!-- red -->
<!-- yellow&#45;&gt;red -->
<g id="edge3" class="edge">
<title>yellow&#45;&gt;red</title>
<path fill="none" stroke="#000000" d="M124.9567,-296.0259C120.3384,-299.8761 115.4829,-304.2558 110.7657,-309.0782"/>
<polygon fill="#000000" stroke="#000000" points="108.1821,-306.717 103.997,-316.4502 113.3384,-311.4512 108.1821,-306.717"/>
<text text-anchor="start" x="86" y="-359" font-family="Helvetica,sans-Serif" font-size="10.00" fill="#000000">TIMER &#160;&#160;</text>
</g>
<!-- green&#45;&gt;yellow -->
<g id="edge2" class="edge">
<title>green&#45;&gt;yellow</title>
<path fill="none" stroke="#000000" d="M158.6132,-343.7733C157.1861,-332.8758 155.3422,-318.7946 153.7267,-306.4587"/>
<polygon fill="#000000" stroke="#000000" points="157.1511,-305.652 152.3822,-296.1912 150.2103,-306.561 157.1511,-305.652"/>
<text text-anchor="start" x="156" y="-317" font-family="Helvetica,sans-Serif" font-size="10.00" fill="#000000">TIMER &#160;&#160;</text>
</g>
<!-- red&#45;&gt;green -->
<g id="edge4" class="edge">
<title>red&#45;&gt;green</title>
<path fill="none" stroke="#000000" d="M103.9953,-416.3183C109.0502,-410.3648 114.9062,-403.7465 120.558,-398 124.1729,-394.3245 128.0951,-390.5715 132.0269,-386.943"/>
<polygon fill="#000000" stroke="#000000" points="134.4479,-389.4727 139.5218,-380.1717 129.7552,-384.2785 134.4479,-389.4727"/>
<text text-anchor="start" x="120" y="-401" font-family="Helvetica,sans-Serif" font-size="10.00" fill="#000000">TIMER &#160;&#160;</text>
</g>
<!-- red.initial -->
<g id="node5" class="node">
<title>red.initial</title>
<ellipse fill="#000000" stroke="#000000" stroke-width="2" cx="44" cy="-433.5" rx="5.5" ry="5.5"/>
</g>
<!-- red.walk -->
<g id="node8" class="node">
<title>red.walk</title>
<polygon fill="#ffffff" stroke="transparent" stroke-width="2" points="72,-296 16,-296 16,-260 72,-260 72,-296"/>
<text text-anchor="start" x="32.0018" y="-274.2" font-family="Helvetica,sans-Serif" font-size="12.00" fill="#000000">walk</text>
<path fill="none" stroke="#000000" stroke-width="2" d="M28.3333,-261C28.3333,-261 59.6667,-261 59.6667,-261 65.3333,-261 71,-266.6667 71,-272.3333 71,-272.3333 71,-283.6667 71,-283.6667 71,-289.3333 65.3333,-295 59.6667,-295 59.6667,-295 28.3333,-295 28.3333,-295 22.6667,-295 17,-289.3333 17,-283.6667 17,-283.6667 17,-272.3333 17,-272.3333 17,-266.6667 22.6667,-261 28.3333,-261"/>
</g>
<!-- red.initial&#45;&gt;red.walk -->
<g id="edge5" class="edge">
<title>red.initial&#45;&gt;red.walk</title>
<path fill="none" stroke="#000000" d="M44,-427.9657C44,-408.8105 44,-344.4366 44,-306.5416"/>
<polygon fill="#000000" stroke="#000000" points="47.5001,-306.1624 44,-296.1624 40.5001,-306.1625 47.5001,-306.1624"/>
<text text-anchor="middle" x="45.3895" y="-359" font-family="Helvetica,sans-Serif" font-size="10.00" fill="#000000"> </text>
</g>
<!-- red.stop -->
<g id="node6" class="node">
<title>red.stop</title>
<polygon fill="#ffffff" stroke="transparent" stroke-width="2" points="72,-52 16,-52 16,-16 72,-16 72,-52"/>
<text text-anchor="start" x="32.6618" y="-30.2" font-family="Helvetica,sans-Serif" font-size="12.00" fill="#000000">stop</text>
<path fill="none" stroke="#000000" stroke-width="2" d="M28.3333,-17C28.3333,-17 59.6667,-17 59.6667,-17 65.3333,-17 71,-22.6667 71,-28.3333 71,-28.3333 71,-39.6667 71,-39.6667 71,-45.3333 65.3333,-51 59.6667,-51 59.6667,-51 28.3333,-51 28.3333,-51 22.6667,-51 17,-45.3333 17,-39.6667 17,-39.6667 17,-28.3333 17,-28.3333 17,-22.6667 22.6667,-17 28.3333,-17"/>
</g>
<!-- red.wait -->
<g id="node7" class="node">
<title>red.wait</title>
<polygon fill="#ffffff" stroke="transparent" stroke-width="2" points="72,-174 16,-174 16,-138 72,-138 72,-174"/>
<text text-anchor="start" x="33.3344" y="-152.2" font-family="Helvetica,sans-Serif" font-size="12.00" fill="#000000">wait</text>
<path fill="none" stroke="#000000" stroke-width="2" d="M28.3333,-139C28.3333,-139 59.6667,-139 59.6667,-139 65.3333,-139 71,-144.6667 71,-150.3333 71,-150.3333 71,-161.6667 71,-161.6667 71,-167.3333 65.3333,-173 59.6667,-173 59.6667,-173 28.3333,-173 28.3333,-173 22.6667,-173 17,-167.3333 17,-161.6667 17,-161.6667 17,-150.3333 17,-150.3333 17,-144.6667 22.6667,-139 28.3333,-139"/>
</g>
<!-- red.wait&#45;&gt;red.stop -->
<g id="edge7" class="edge">
<title>red.wait&#45;&gt;red.stop</title>
<path fill="none" stroke="#000000" d="M44,-137.9985C44,-117.9958 44,-85.4427 44,-62.0831"/>
<polygon fill="#000000" stroke="#000000" points="47.5001,-62.0753 44,-52.0754 40.5001,-62.0754 47.5001,-62.0753"/>
<text text-anchor="start" x="44" y="-92" font-family="Helvetica,sans-Serif" font-size="10.00" fill="#000000">PED_TIMER &#160;&#160;</text>
</g>
<!-- red.walk&#45;&gt;red.wait -->
<g id="edge6" class="edge">
<title>red.walk&#45;&gt;red.wait</title>
<path fill="none" stroke="#000000" d="M44,-259.9985C44,-239.9958 44,-207.4427 44,-184.0831"/>
<polygon fill="#000000" stroke="#000000" points="47.5001,-184.0753 44,-174.0754 40.5001,-184.0754 47.5001,-184.0753"/>
<text text-anchor="start" x="44" y="-214" font-family="Helvetica,sans-Serif" font-size="10.00" fill="#000000">PED_TIMER &#160;&#160;</text>
</g>
</g>
</svg>
