<?xml version="1.0" encoding="UTF-8" standalone="no"?>
<!DOCTYPE svg PUBLIC "-//W3C//DTD SVG 1.1//EN"
 "http://www.w3.org/Graphics/SVG/1.1/DTD/svg11.dtd">
<!-- Generated by graphviz version 2.40.1 (20161225.0304)
 -->
<!-- Title: state transitions Pages: 1 -->
<svg width="241pt" height="396pt"
 viewBox="0.00 0.00 241.00 396.00" xmlns="http://www.w3.org/2000/svg" xmlns:xlink="http://www.w3.org/1999/xlink">
<g id="graph0" class="graph" transform="scale(1 1) rotate(0) translate(4 392)">
<title>state transitions</title>
<polygon fill="#ffffff" stroke="transparent" points="-4,4 -4,-392 237,-392 237,4 -4,4"/>
<g id="clust1" class="cluster">
<title>cluster_red</title>
<path fill="none" stroke="#000000" stroke-width="2" d="M20,-8C20,-8 92,-8 92,-8 98,-8 104,-14 104,-20 104,-20 104,-368 104,-368 104,-374 98,-380 92,-380 92,-380 20,-380 20,-380 14,-380 8,-374 8,-368 8,-368 8,-20 8,-20 8,-14 14,-8 20,-8"/>
<text text-anchor="start" x="47.8318" y="-361.2" font-family="Helvetica,sans-Serif" font-size="12.00" fill="#000000">red</text>
</g>
<!-- initial -->
<g id="node1" class="node">
<title>initial</title>
<ellipse fill="#000000" stroke="#000000" stroke-width="2" cx="209" cy="-324" rx="5.5" ry="5.5"/>
</g>
<!-- green -->
<g id="node3" class="node">
<title>green</title>
<polygon fill="#ffffff" stroke="transparent" stroke-width="2" points="233,-258 177,-258 177,-222 233,-222 233,-258"/>
<text text-anchor="start" x="189.661" y="-236.2" font-family="Helvetica,sans-Serif" font-size="12.00" fill="#000000">green</text>
<path fill="none" stroke="#000000" stroke-width="2" d="M189.3333,-223C189.3333,-223 220.6667,-223 220.6667,-223 226.3333,-223 232,-228.6667 232,-234.3333 232,-234.3333 232,-245.6667 232,-245.6667 232,-251.3333 226.3333,-257 220.6667,-257 220.6667,-257 189.3333,-257 189.3333,-257 183.6667,-257 178,-251.3333 178,-245.6667 178,-245.6667 178,-234.3333 178,-234.3333 178,-228.6667 183.6667,-223 189.3333,-223"/>
</g>
<!-- initial&#45;&gt;green -->
<g id="edge1" class="edge">
<title>initial&#45;&gt;green</title>
<path fill="none" stroke="#000000" d="M208.7375,-318.4885C208.2581,-308.4198 207.2103,-286.4163 206.3458,-268.2615"/>
<polygon fill="#000000" stroke="#000000" points="209.8354,-267.9584 205.8636,-258.1362 202.8433,-268.2914 209.8354,-267.9584"/>
<text text-anchor="middle" x="208.3895" y="-279" font-family="Helvetica,sans-Serif" font-size="10.00" fill="#000000"> </text>
</g>
<!-- yellow -->
<g id="node2" class="node">
<title>yellow</title>
<polygon fill="#ffffff" stroke="transparent" stroke-width="2" points="187,-174 131,-174 131,-138 187,-138 187,-174"/>
<text text-anchor="start" x="142.335" y="-152.2" font-family="Helvetica,sans-Serif" font-size="12.00" fill="#000000">yellow</text>
<path fill="none" stroke="#000000" stroke-width="2" d="M143.3333,-139C143.3333,-139 174.6667,-139 174.6667,-139 180.3333,-139 186,-144.6667 186,-150.3333 186,-150.3333 186,-161.6667 186,-161.6667 186,-167.3333 180.3333,-173 174.6667,-173 174.6667,-173 143.3333,-173 143.3333,-173 137.6667,-173 132,-167.3333 132,-161.6667 132,-161.6667 132,-150.3333 132,-150.3333 132,-144.6667 137.6667,-139 143.3333,-139"/>
</g>
<!-- red -->
<!-- yellow&#45;&gt;red -->
<g id="edge3" class="edge">
<title>yellow&#45;&gt;red</title>
<path fill="none" stroke="#000000" d="M150.7574,-174.0479C144.8543,-187.2237 136.8669,-205.5775 130.558,-222 122.0835,-244.0598 113.5533,-269.2001 107.088,-289.002"/>
<polygon fill="#000000" stroke="#000000" points="103.7502,-287.9489 103.9982,-298.5408 110.4095,-290.1061 103.7502,-287.9489"/>
<text text-anchor="start" x="130" y="-237" font-family="Helvetica,sans-Serif" font-size="10.00" fill="#000000">TIMER &#160;&#160;</text>
</g>
<!-- green&#45;&gt;yellow -->
<g id="edge2" class="edge">
<title>green&#45;&gt;yellow</title>
<path fill="none" stroke="#000000" d="M195.0187,-221.7733C188.8099,-210.4355 180.7139,-195.6515 173.7705,-182.9723"/>
<polygon fill="#000000" stroke="#000000" points="176.8349,-181.281 168.9618,-174.1912 170.6952,-184.6433 176.8349,-181.281"/>
<text text-anchor="start" x="184" y="-195" font-family="Helvetica,sans-Serif" font-size="10.00" fill="#000000">TIMER &#160;&#160;</text>
</g>
<!-- red&#45;&gt;green -->
<g id="edge4" class="edge">
<title>red&#45;&gt;green</title>
<path fill="none" stroke="#000000" d="M103.9953,-317.8385C118.4116,-306.7287 149.4832,-282.7836 173.3821,-264.3661"/>
<polygon fill="#000000" stroke="#000000" points="175.6817,-267.0127 181.4661,-258.1362 171.4087,-261.4681 175.6817,-267.0127"/>
<text text-anchor="start" x="157" y="-279" font-family="Helvetica,sans-Serif" font-size="10.00" fill="#000000">TIMER &#160;&#160;</text>
</g>
<!-- red.stop -->
<g id="node5" class="node">
<title>red.stop</title>
<polygon fill="#ffffff" stroke="transparent" stroke-width="2" points="72,-52 16,-52 16,-16 72,-16 72,-52"/>
<text text-anchor="start" x="32.6618" y="-30.2" font-family="Helvetica,sans-Serif" font-size="12.00" fill="#000000">stop</text>
<path fill="none" stroke="#000000" stroke-width="2" d="M28.3333,-17C28.3333,-17 59.6667,-17 59.6667,-17 65.3333,-17 71,-22.6667 71,-28.3333 71,-28.3333 71,-39.6667 71,-39.6667 71,-45.3333 65.3333,-51 59.6667,-51 59.6667,-51 28.3333,-51 28.3333,-51 22.6667,-51 17,-45.3333 17,-39.6667 17,-39.6667 17,-28.3333 17,-28.3333 17,-22.6667 22.6667,-17 28.3333,-17"/>
</g>
<!-- red.wait -->
<g id="node6" class="node">
<title>red.wait</title>
<polygon fill="#ffffff" stroke="transparent" stroke-width="2" points="72,-174 16,-174 16,-138 72,-138 72,-174"/>
<text text-anchor="start" x="33.3344" y="-152.2" font-family="Helvetica,sans-Serif" font-size="12.00" fill="#000000">wait</text>
<path fill="none" stroke="#000000" stroke-width="2" d="M28.3333,-139C28.3333,-139 59.6667,-139 59.6667,-139 65.3333,-139 71,-144.6667 71,-150.3333 71,-150.3333 71,-161.6667 71,-161.6667 71,-167.3333 65.3333,-173 59.6667,-173 59.6667,-173 28.3333,-173 28.3333,-173 22.6667,-173 17,-167.3333 17,-161.6667 17,-161.6667 17,-150.3333 17,-150.3333 17,-144.6667 22.6667,-139 28.3333,-139"/>
</g>
<!-- red.wait&#45;&gt;red.stop -->
<g id="edge6" class="edge">
<title>red.wait&#45;&gt;red.stop</title>
<path fill="none" stroke="#000000" d="M44,-137.9985C44,-117.9958 44,-85.4427 44,-62.0831"/>
<polygon fill="#000000" stroke="#000000" points="47.5001,-62.0753 44,-52.0754 40.5001,-62.0754 47.5001,-62.0753"/>
<text text-anchor="start" x="44" y="-92" font-family="Helvetica,sans-Serif" font-size="10.00" fill="#000000">PED_TIMER &#160;&#160;</text>
</g>
<!-- red.walk -->
<g id="node7" class="node">
<title>red.walk</title>
<polygon fill="#ffffff" stroke="transparent" stroke-width="2" points="72,-342 16,-342 16,-306 72,-306 72,-342"/>
<text text-anchor="start" x="32.0018" y="-320.2" font-family="Helvetica,sans-Serif" font-size="12.00" fill="#000000">walk</text>
<path fill="none" stroke="#000000" stroke-width="2" d="M28.3333,-307C28.3333,-307 59.6667,-307 59.6667,-307 65.3333,-307 71,-312.6667 71,-318.3333 71,-318.3333 71,-329.6667 71,-329.6667 71,-335.3333 65.3333,-341 59.6667,-341 59.6667,-341 28.3333,-341 28.3333,-341 22.6667,-341 17,-335.3333 17,-329.6667 17,-329.6667 17,-318.3333 17,-318.3333 17,-312.6667 22.6667,-307 28.3333,-307"/>
</g>
<!-- red.walk&#45;&gt;red.wait -->
<g id="edge5" class="edge">
<title>red.walk&#45;&gt;red.wait</title>
<path fill="none" stroke="#000000" d="M43.1048,-305.7964C42.4993,-292.5453 41.7551,-274.1653 41.442,-258 41.1321,-242.003 41.1321,-237.997 41.442,-222 41.6818,-209.6234 42.1742,-195.9486 42.6635,-184.2714"/>
<polygon fill="#000000" stroke="#000000" points="46.1635,-184.3472 43.1048,-174.2036 39.1702,-184.0407 46.1635,-184.3472"/>
<text text-anchor="start" x="42" y="-237" font-family="Helvetica,sans-Serif" font-size="10.00" fill="#000000">PED_TIMER &#160;&#160;</text>
</g>
</g>
</svg>
