<?xml version="1.0" encoding="UTF-8" standalone="no"?>
<!DOCTYPE svg PUBLIC "-//W3C//DTD SVG 1.1//EN"
 "http://www.w3.org/Graphics/SVG/1.1/DTD/svg11.dtd">
<!-- Generated by graphviz version 2.40.1 (20161225.0304)
 -->
<!-- Title: state transitions Pages: 1 -->
<svg width="222pt" height="493pt"
 viewBox="0.00 0.00 222.44 493.00" xmlns="http://www.w3.org/2000/svg" xmlns:xlink="http://www.w3.org/1999/xlink">
<g id="graph0" class="graph" transform="scale(1 1) rotate(0) translate(4 489)">
<title>state transitions</title>
<polygon fill="#ffffff" stroke="transparent" points="-4,4 -4,-489 218.442,-489 218.442,4 -4,4"/>
<g id="clust1" class="cluster">
<title>cluster_red</title>
<path fill="none" stroke="#000000" stroke-width="2" d="M20,-8C20,-8 100,-8 100,-8 106,-8 112,-14 112,-20 112,-20 112,-465 112,-465 112,-471 106,-477 100,-477 100,-477 20,-477 20,-477 14,-477 8,-471 8,-465 8,-465 8,-20 8,-20 8,-14 14,-8 20,-8"/>
<text text-anchor="start" x="51.8318" y="-458.2" font-family="Helvetica,sans-Serif" font-size="12.00" fill="#000000">red</text>
</g>
<!-- initial -->
<g id="node1" class="node">
<title>initial</title>
<ellipse fill="#000000" stroke="#000000" stroke-width="2" cx="199" cy="-433.5" rx="5.5" ry="5.5"/>
</g>
<!-- green -->
<g id="node2" class="node">
<title>green</title>
<polygon fill="#ffffff" stroke="transparent" stroke-width="2" points="211,-380 155,-380 155,-344 211,-344 211,-380"/>
<text text-anchor="start" x="167.661" y="-358.2" font-family="Helvetica,sans-Serif" font-size="12.00" fill="#000000">green</text>
<path fill="none" stroke="#000000" stroke-width="2" d="M167.3333,-345C167.3333,-345 198.6667,-345 198.6667,-345 204.3333,-345 210,-350.6667 210,-356.3333 210,-356.3333 210,-367.6667 210,-367.6667 210,-373.3333 204.3333,-379 198.6667,-379 198.6667,-379 167.3333,-379 167.3333,-379 161.6667,-379 156,-373.3333 156,-367.6667 156,-367.6667 156,-356.3333 156,-356.3333 156,-350.6667 161.6667,-345 167.3333,-345"/>
</g>
<!-- initial&#45;&gt;green -->
<g id="edge1" class="edge">
<title>initial&#45;&gt;green</title>
<path fill="none" stroke="#000000" d="M197.7445,-427.8895C195.9187,-419.7303 192.4055,-404.0309 189.2664,-390.0031"/>
<polygon fill="#000000" stroke="#000000" points="192.6756,-389.2102 187.0763,-380.2159 185.8446,-390.7389 192.6756,-389.2102"/>
<text text-anchor="middle" x="194.3895" y="-401" font-family="Helvetica,sans-Serif" font-size="10.00" fill="#000000"> </text>
</g>
<!-- yellow -->
<g id="node3" class="node">
<title>yellow</title>
<polygon fill="#ffffff" stroke="transparent" stroke-width="2" points="193,-296 137,-296 137,-260 193,-260 193,-296"/>
<text text-anchor="start" x="148.335" y="-274.2" font-family="Helvetica,sans-Serif" font-size="12.00" fill="#000000">yellow</text>
<path fill="none" stroke="#000000" stroke-width="2" d="M149.3333,-261C149.3333,-261 180.6667,-261 180.6667,-261 186.3333,-261 192,-266.6667 192,-272.3333 192,-272.3333 192,-283.6667 192,-283.6667 192,-289.3333 186.3333,-295 180.6667,-295 180.6667,-295 149.3333,-295 149.3333,-295 143.6667,-295 138,-289.3333 138,-283.6667 138,-283.6667 138,-272.3333 138,-272.3333 138,-266.6667 143.6667,-261 149.3333,-261"/>
</g>
<!-- green&#45;&gt;yellow -->
<g id="edge2" class="edge">
<title>green&#45;&gt;yellow</title>
<path fill="none" stroke="#000000" d="M179.0943,-343.7733C176.7355,-332.7657 173.6807,-318.5098 171.0183,-306.0854"/>
<polygon fill="#000000" stroke="#000000" points="174.4158,-305.2358 168.8981,-296.1912 167.5712,-306.7026 174.4158,-305.2358"/>
<text text-anchor="start" x="175" y="-317" font-family="Helvetica,sans-Serif" font-size="10.00" fill="#000000">TIMER &#160;&#160;</text>
</g>
<!-- red -->
<!-- yellow&#45;&gt;red -->
<g id="edge3" class="edge">
<title>yellow&#45;&gt;red</title>
<path fill="none" stroke="#000000" d="M141.7657,-296.1363C133.9291,-303.1096 125.2967,-311.7647 117.8883,-321.5098"/>
<polygon fill="#000000" stroke="#000000" points="114.857,-319.7374 111.9976,-329.9391 120.5947,-323.7472 114.857,-319.7374"/>
<text text-anchor="start" x="104" y="-359" font-family="Helvetica,sans-Serif" font-size="10.00" fill="#000000">TIMER &#160;&#160;</text>
</g>
<!-- red&#45;&gt;green -->
<g id="edge4" class="edge">
<title>red&#45;&gt;green</title>
<path fill="none" stroke="#000000" d="M111.9973,-423.165C122.9854,-413.6994 139.6876,-399.3112 154.1327,-386.8676"/>
<polygon fill="#000000" stroke="#000000" points="156.4815,-389.4639 161.7736,-380.2854 151.9128,-384.1604 156.4815,-389.4639"/>
<text text-anchor="start" x="139" y="-401" font-family="Helvetica,sans-Serif" font-size="10.00" fill="#000000">TIMER &#160;&#160;</text>
</g>
<!-- red.initial -->
<g id="node5" class="node">
<title>red.initial</title>
<ellipse fill="#000000" stroke="#000000" stroke-width="2" cx="44" cy="-433.5" rx="5.5" ry="5.5"/>
</g>
<!-- red.walk -->
<g id="node6" class="node">
<title>red.walk</title>
<polygon fill="#ffffff" stroke="transparent" stroke-width="2" points="72,-296 16,-296 16,-260 72,-260 72,-296"/>
<text text-anchor="start" x="32.0018" y="-274.2" font-family="Helvetica,sans-Serif" font-size="12.00" fill="#000000">walk</text>
<path fill="none" stroke="#000000" stroke-width="2" d="M28.3333,-261C28.3333,-261 59.6667,-261 59.6667,-261 65.3333,-261 71,-266.6667 71,-272.3333 71,-272.3333 71,-283.6667 71,-283.6667 71,-289.3333 65.3333,-295 59.6667,-295 59.6667,-295 28.3333,-295 28.3333,-295 22.6667,-295 17,-289.3333 17,-283.6667 17,-283.6667 17,-272.3333 17,-272.3333 17,-266.6667 22.6667,-261 28.3333,-261"/>
</g>
<!-- red.initial&#45;&gt;red.walk -->
<g id="edge5" class="edge">
<title>red.initial&#45;&gt;red.walk</title>
<path fill="none" stroke="#000000" d="M44,-427.9657C44,-408.8105 44,-344.4366 44,-306.5416"/>
<polygon fill="#000000" stroke="#000000" points="47.5001,-306.1624 44,-296.1624 40.5001,-306.1625 47.5001,-306.1624"/>
<text text-anchor="middle" x="45.3895" y="-359" font-family="Helvetica,sans-Serif" font-size="10.00" fill="#000000"> </text>
</g>
<!-- red.wait -->
<g id="node7" class="node">
<title>red.wait</title>
<polygon fill="#ffffff" stroke="transparent" stroke-width="2" points="72,-174 16,-174 16,-138 72,-138 72,-174"/>
<text text-anchor="start" x="33.3344" y="-152.2" font-family="Helvetica,sans-Serif" font-size="12.00" fill="#000000">wait</text>
<path fill="none" stroke="#000000" stroke-width="2" d="M28.3333,-139C28.3333,-139 59.6667,-139 59.6667,-139 65.3333,-139 71,-144.6667 71,-150.3333 71,-150.3333 71,-161.6667 71,-161.6667 71,-167.3333 65.3333,-173 59.6667,-173 59.6667,-173 28.3333,-173 28.3333,-173 22.6667,-173 17,-167.3333 17,-161.6667 17,-161.6667 17,-150.3333 17,-150.3333 17,-144.6667 22.6667,-139 28.3333,-139"/>
</g>
<!-- red.walk&#45;&gt;red.wait -->
<g id="edge6" class="edge">
<title>red.walk&#45;&gt;red.wait</title>
<path fill="none" stroke="#000000" d="M44,-259.9985C44,-239.9958 44,-207.4427 44,-184.0831"/>
<polygon fill="#000000" stroke="#000000" points="47.5001,-184.0753 44,-174.0754 40.5001,-184.0754 47.5001,-184.0753"/>
<text text-anchor="start" x="44" y="-214" font-family="Helvetica,sans-Serif" font-size="10.00" fill="#000000">PED_TIMER &#160;&#160;</text>
</g>
<!-- red.stop -->
<g id="node8" class="node">
<title>red.stop</title>
<polygon fill="#ffffff" stroke="transparent" stroke-width="2" points="72,-52 16,-52 16,-16 72,-16 72,-52"/>
<text text-anchor="start" x="32.6618" y="-30.2" font-family="Helvetica,sans-Serif" font-size="12.00" fill="#000000">stop</text>
<path fill="none" stroke="#000000" stroke-width="2" d="M28.3333,-17C28.3333,-17 59.6667,-17 59.6667,-17 65.3333,-17 71,-22.6667 71,-28.3333 71,-28.3333 71,-39.6667 71,-39.6667 71,-45.3333 65.3333,-51 59.6667,-51 59.6667,-51 28.3333,-51 28.3333,-51 22.6667,-51 17,-45.3333 17,-39.6667 17,-39.6667 17,-28.3333 17,-28.3333 17,-22.6667 22.6667,-17 28.3333,-17"/>
</g>
<!-- red.wait&#45;&gt;red.stop -->
<g id="edge7" class="edge">
<title>red.wait&#45;&gt;red.stop</title>
<path fill="none" stroke="#000000" d="M44,-137.9985C44,-117.9958 44,-85.4427 44,-62.0831"/>
<polygon fill="#000000" stroke="#000000" points="47.5001,-62.0753 44,-52.0754 40.5001,-62.0754 47.5001,-62.0753"/>
<text text-anchor="start" x="44" y="-92" font-family="Helvetica,sans-Serif" font-size="10.00" fill="#000000">PED_TIMER &#160;&#160;</text>
</g>
</g>
</svg>
