<?xml version="1.0" encoding="UTF-8" standalone="no"?>
<!DOCTYPE svg PUBLIC "-//W3C//DTD SVG 1.1//EN"
 "http://www.w3.org/Graphics/SVG/1.1/DTD/svg11.dtd">
<!-- Generated by graphviz version 2.40.1 (20161225.0304)
 -->
<!-- Title: state transitions Pages: 1 -->
<svg width="1047pt" height="721pt"
 viewBox="0.00 0.00 1047.00 721.00" xmlns="http://www.w3.org/2000/svg" xmlns:xlink="http://www.w3.org/1999/xlink">
<g id="graph0" class="graph" transform="scale(1 1) rotate(0) translate(4 717)">
<title>state transitions</title>
<polygon fill="#ffffff" stroke="transparent" points="-4,4 -4,-717 1043,-717 1043,4 -4,4"/>
<g id="clust1" class="cluster">
<title>cluster_parallel</title>
<path fill="none" stroke="#000000" stroke-width="2" d="M20,-8C20,-8 1019,-8 1019,-8 1025,-8 1031,-14 1031,-20 1031,-20 1031,-693 1031,-693 1031,-699 1025,-705 1019,-705 1019,-705 20,-705 20,-705 14,-705 8,-699 8,-693 8,-693 8,-20 8,-20 8,-14 14,-8 20,-8"/>
<text text-anchor="start" x="493.3348" y="-686.2" font-family="Helvetica,sans-Serif" font-size="12.00" fill="#000000">(machine)</text>
</g>
<g id="clust2" class="cluster">
<title>cluster_bold</title>
<polygon fill="none" stroke="#000000" stroke-dasharray="5,2" points="799,-214 799,-667 1023,-667 1023,-214 799,-214"/>
<text text-anchor="start" x="899.6624" y="-648.2" font-family="Helvetica,sans-Serif" font-size="12.00" fill="#000000">bold</text>
</g>
<g id="clust3" class="cluster">
<title>cluster_underline</title>
<polygon fill="none" stroke="#000000" stroke-dasharray="5,2" points="507,-214 507,-667 791,-667 791,-214 507,-214"/>
<text text-anchor="start" x="624.8274" y="-648.2" font-family="Helvetica,sans-Serif" font-size="12.00" fill="#000000">underline</text>
</g>
<g id="clust4" class="cluster">
<title>cluster_italics</title>
<polygon fill="none" stroke="#000000" stroke-dasharray="5,2" points="255,-214 255,-667 499,-667 499,-214 255,-214"/>
<text text-anchor="start" x="362.503" y="-648.2" font-family="Helvetica,sans-Serif" font-size="12.00" fill="#000000">italics</text>
</g>
<g id="clust5" class="cluster">
<title>cluster_list</title>
<polygon fill="none" stroke="#000000" stroke-dasharray="5,2" points="24,-16 24,-667 247,-667 247,-16 24,-16"/>
<text text-anchor="start" x="128.1698" y="-648.2" font-family="Helvetica,sans-Serif" font-size="12.00" fill="#000000">list</text>
</g>
<!-- parallel -->
<!-- bold -->
<!-- bold.initial -->
<g id="node3" class="node">
<title>bold.initial</title>
<ellipse fill="#000000" stroke="#000000" stroke-width="2" cx="875" cy="-623.5" rx="5.5" ry="5.5"/>
</g>
<!-- bold.off -->
<g id="node5" class="node">
<title>bold.off</title>
<polygon fill="#ffffff" stroke="transparent" stroke-width="2" points="903,-456 847,-456 847,-420 903,-420 903,-456"/>
<text text-anchor="start" x="868.3298" y="-434.2" font-family="Helvetica,sans-Serif" font-size="12.00" fill="#000000">off</text>
<path fill="none" stroke="#000000" stroke-width="2" d="M859.3333,-421C859.3333,-421 890.6667,-421 890.6667,-421 896.3333,-421 902,-426.6667 902,-432.3333 902,-432.3333 902,-443.6667 902,-443.6667 902,-449.3333 896.3333,-455 890.6667,-455 890.6667,-455 859.3333,-455 859.3333,-455 853.6667,-455 848,-449.3333 848,-443.6667 848,-443.6667 848,-432.3333 848,-432.3333 848,-426.6667 853.6667,-421 859.3333,-421"/>
</g>
<!-- bold.initial&#45;&gt;bold.off -->
<g id="edge1" class="edge">
<title>bold.initial&#45;&gt;bold.off</title>
<path fill="none" stroke="#000000" d="M875,-617.9337C875,-609.7371 875,-593.9375 875,-580.5 875,-580.5 875,-580.5 875,-493.5 875,-484.7318 875,-475.1843 875,-466.5196"/>
<polygon fill="#000000" stroke="#000000" points="878.5001,-466.5 875,-456.5 871.5001,-466.5 878.5001,-466.5"/>
<text text-anchor="middle" x="876.3895" y="-534" font-family="Helvetica,sans-Serif" font-size="10.00" fill="#000000"> </text>
</g>
<!-- bold.on -->
<g id="node4" class="node">
<title>bold.on</title>
<polygon fill="#ffffff" stroke="transparent" stroke-width="2" points="912,-258 856,-258 856,-222 912,-222 912,-258"/>
<text text-anchor="start" x="877.3292" y="-236.2" font-family="Helvetica,sans-Serif" font-size="12.00" fill="#000000">on</text>
<path fill="none" stroke="#000000" stroke-width="2" d="M868.3333,-223C868.3333,-223 899.6667,-223 899.6667,-223 905.3333,-223 911,-228.6667 911,-234.3333 911,-234.3333 911,-245.6667 911,-245.6667 911,-251.3333 905.3333,-257 899.6667,-257 899.6667,-257 868.3333,-257 868.3333,-257 862.6667,-257 857,-251.3333 857,-245.6667 857,-245.6667 857,-234.3333 857,-234.3333 857,-228.6667 862.6667,-223 868.3333,-223"/>
</g>
<!-- bold.on&#45;&gt;bold.off -->
<g id="edge2" class="edge">
<title>bold.on&#45;&gt;bold.off</title>
<path fill="none" stroke="#000000" d="M855.8168,-251.883C839.0427,-261.0397 821,-275.5304 821,-295.5 821,-382.5 821,-382.5 821,-382.5 821,-395.784 829.0452,-407.0818 838.925,-415.9476"/>
<polygon fill="#000000" stroke="#000000" points="836.7535,-418.6927 846.7348,-422.2459 841.1478,-413.2438 836.7535,-418.6927"/>
<text text-anchor="start" x="821" y="-336" font-family="Helvetica,sans-Serif" font-size="10.00" fill="#000000">TOGGLE_BOLD &#160;&#160;</text>
</g>
<!-- bold.off&#45;&gt;bold.on -->
<g id="edge3" class="edge">
<title>bold.off&#45;&gt;bold.on</title>
<path fill="none" stroke="#000000" d="M903.166,-423.7302C917.5265,-414.2708 932,-400.3174 932,-382.5 932,-382.5 932,-382.5 932,-295.5 932,-283.9721 926.0023,-273.6592 918.2471,-265.1429"/>
<polygon fill="#000000" stroke="#000000" points="920.6815,-262.6281 911.0861,-258.1359 915.7858,-267.6313 920.6815,-262.6281"/>
<text text-anchor="start" x="932" y="-336" font-family="Helvetica,sans-Serif" font-size="10.00" fill="#000000">TOGGLE_BOLD &#160;&#160;</text>
</g>
<!-- underline -->
<!-- underline.initial -->
<g id="node7" class="node">
<title>underline.initial</title>
<ellipse fill="#000000" stroke="#000000" stroke-width="2" cx="598" cy="-623.5" rx="5.5" ry="5.5"/>
</g>
<!-- underline.off -->
<g id="node9" class="node">
<title>underline.off</title>
<polygon fill="#ffffff" stroke="transparent" stroke-width="2" points="626,-456 570,-456 570,-420 626,-420 626,-456"/>
<text text-anchor="start" x="591.3298" y="-434.2" font-family="Helvetica,sans-Serif" font-size="12.00" fill="#000000">off</text>
<path fill="none" stroke="#000000" stroke-width="2" d="M582.3333,-421C582.3333,-421 613.6667,-421 613.6667,-421 619.3333,-421 625,-426.6667 625,-432.3333 625,-432.3333 625,-443.6667 625,-443.6667 625,-449.3333 619.3333,-455 613.6667,-455 613.6667,-455 582.3333,-455 582.3333,-455 576.6667,-455 571,-449.3333 571,-443.6667 571,-443.6667 571,-432.3333 571,-432.3333 571,-426.6667 576.6667,-421 582.3333,-421"/>
</g>
<!-- underline.initial&#45;&gt;underline.off -->
<g id="edge4" class="edge">
<title>underline.initial&#45;&gt;underline.off</title>
<path fill="none" stroke="#000000" d="M598,-617.9337C598,-609.7371 598,-593.9375 598,-580.5 598,-580.5 598,-580.5 598,-493.5 598,-484.7318 598,-475.1843 598,-466.5196"/>
<polygon fill="#000000" stroke="#000000" points="601.5001,-466.5 598,-456.5 594.5001,-466.5 601.5001,-466.5"/>
<text text-anchor="middle" x="599.3895" y="-534" font-family="Helvetica,sans-Serif" font-size="10.00" fill="#000000"> </text>
</g>
<!-- underline.on -->
<g id="node8" class="node">
<title>underline.on</title>
<polygon fill="#ffffff" stroke="transparent" stroke-width="2" points="635,-258 579,-258 579,-222 635,-222 635,-258"/>
<text text-anchor="start" x="600.3292" y="-236.2" font-family="Helvetica,sans-Serif" font-size="12.00" fill="#000000">on</text>
<path fill="none" stroke="#000000" stroke-width="2" d="M591.3333,-223C591.3333,-223 622.6667,-223 622.6667,-223 628.3333,-223 634,-228.6667 634,-234.3333 634,-234.3333 634,-245.6667 634,-245.6667 634,-251.3333 628.3333,-257 622.6667,-257 622.6667,-257 591.3333,-257 591.3333,-257 585.6667,-257 580,-251.3333 580,-245.6667 580,-245.6667 580,-234.3333 580,-234.3333 580,-228.6667 585.6667,-223 591.3333,-223"/>
</g>
<!-- underline.on&#45;&gt;underline.off -->
<g id="edge5" class="edge">
<title>underline.on&#45;&gt;underline.off</title>
<path fill="none" stroke="#000000" d="M578.8402,-247.5291C556.498,-255.4086 529,-270.2379 529,-295.5 529,-382.5 529,-382.5 529,-382.5 529,-401.1787 544.5425,-414.6288 560.8743,-423.606"/>
<polygon fill="#000000" stroke="#000000" points="559.4257,-426.7948 569.9351,-428.1379 562.5571,-420.5342 559.4257,-426.7948"/>
<text text-anchor="start" x="529" y="-336" font-family="Helvetica,sans-Serif" font-size="10.00" fill="#000000">TOGGLE_UNDERLINE &#160;&#160;</text>
</g>
<!-- underline.off&#45;&gt;underline.on -->
<g id="edge6" class="edge">
<title>underline.off&#45;&gt;underline.on</title>
<path fill="none" stroke="#000000" d="M626.0432,-429.0013C646.2596,-420.5565 670,-405.7005 670,-382.5 670,-382.5 670,-382.5 670,-295.5 670,-278.9627 657.6265,-266.1828 643.8467,-257.0779"/>
<polygon fill="#000000" stroke="#000000" points="645.5595,-254.0239 635.1832,-251.883 641.9596,-260.0274 645.5595,-254.0239"/>
<text text-anchor="start" x="670" y="-336" font-family="Helvetica,sans-Serif" font-size="10.00" fill="#000000">TOGGLE_UNDERLINE &#160;&#160;</text>
</g>
<!-- italics -->
<!-- italics.initial -->
<g id="node11" class="node">
<title>italics.initial</title>
<ellipse fill="#000000" stroke="#000000" stroke-width="2" cx="336" cy="-623.5" rx="5.5" ry="5.5"/>
</g>
<!-- italics.off -->
<g id="node13" class="node">
<title>italics.off</title>
<polygon fill="#ffffff" stroke="transparent" stroke-width="2" points="364,-456 308,-456 308,-420 364,-420 364,-456"/>
<text text-anchor="start" x="329.3298" y="-434.2" font-family="Helvetica,sans-Serif" font-size="12.00" fill="#000000">off</text>
<path fill="none" stroke="#000000" stroke-width="2" d="M320.3333,-421C320.3333,-421 351.6667,-421 351.6667,-421 357.3333,-421 363,-426.6667 363,-432.3333 363,-432.3333 363,-443.6667 363,-443.6667 363,-449.3333 357.3333,-455 351.6667,-455 351.6667,-455 320.3333,-455 320.3333,-455 314.6667,-455 309,-449.3333 309,-443.6667 309,-443.6667 309,-432.3333 309,-432.3333 309,-426.6667 314.6667,-421 320.3333,-421"/>
</g>
<!-- italics.initial&#45;&gt;italics.off -->
<g id="edge7" class="edge">
<title>italics.initial&#45;&gt;italics.off</title>
<path fill="none" stroke="#000000" d="M336,-617.9337C336,-609.7371 336,-593.9375 336,-580.5 336,-580.5 336,-580.5 336,-493.5 336,-484.7318 336,-475.1843 336,-466.5196"/>
<polygon fill="#000000" stroke="#000000" points="339.5001,-466.5 336,-456.5 332.5001,-466.5 339.5001,-466.5"/>
<text text-anchor="middle" x="337.3895" y="-534" font-family="Helvetica,sans-Serif" font-size="10.00" fill="#000000"> </text>
</g>
<!-- italics.on -->
<g id="node12" class="node">
<title>italics.on</title>
<polygon fill="#ffffff" stroke="transparent" stroke-width="2" points="373,-258 317,-258 317,-222 373,-222 373,-258"/>
<text text-anchor="start" x="338.3292" y="-236.2" font-family="Helvetica,sans-Serif" font-size="12.00" fill="#000000">on</text>
<path fill="none" stroke="#000000" stroke-width="2" d="M329.3333,-223C329.3333,-223 360.6667,-223 360.6667,-223 366.3333,-223 372,-228.6667 372,-234.3333 372,-234.3333 372,-245.6667 372,-245.6667 372,-251.3333 366.3333,-257 360.6667,-257 360.6667,-257 329.3333,-257 329.3333,-257 323.6667,-257 318,-251.3333 318,-245.6667 318,-245.6667 318,-234.3333 318,-234.3333 318,-228.6667 323.6667,-223 329.3333,-223"/>
</g>
<!-- italics.on&#45;&gt;italics.off -->
<g id="edge8" class="edge">
<title>italics.on&#45;&gt;italics.off</title>
<path fill="none" stroke="#000000" d="M316.9492,-250.1571C298.2178,-258.9451 277,-273.7089 277,-295.5 277,-382.5 277,-382.5 277,-382.5 277,-397.5823 287.3554,-409.7684 299.3895,-418.8378"/>
<polygon fill="#000000" stroke="#000000" points="297.6456,-421.8846 307.8824,-424.616 301.5833,-416.097 297.6456,-421.8846"/>
<text text-anchor="start" x="277" y="-336" font-family="Helvetica,sans-Serif" font-size="10.00" fill="#000000">TOGGLE_ITALICS &#160;&#160;</text>
</g>
<!-- italics.off&#45;&gt;italics.on -->
<g id="edge9" class="edge">
<title>italics.off&#45;&gt;italics.on</title>
<path fill="none" stroke="#000000" d="M364.0975,-425.7993C380.502,-416.5829 398,-402.1473 398,-382.5 398,-382.5 398,-382.5 398,-295.5 398,-282.5692 390.3822,-271.466 380.9227,-262.6631"/>
<polygon fill="#000000" stroke="#000000" points="382.9752,-259.8176 373.0519,-256.1056 378.4945,-265.1956 382.9752,-259.8176"/>
<text text-anchor="start" x="398" y="-336" font-family="Helvetica,sans-Serif" font-size="10.00" fill="#000000">TOGGLE_ITALICS &#160;&#160;</text>
</g>
<!-- list -->
<!-- list.initial -->
<g id="node15" class="node">
<title>list.initial</title>
<ellipse fill="#000000" stroke="#000000" stroke-width="2" cx="107" cy="-623.5" rx="5.5" ry="5.5"/>
</g>
<!-- list.none -->
<g id="node16" class="node">
<title>list.none</title>
<polygon fill="#ffffff" stroke="transparent" stroke-width="2" points="135,-456 79,-456 79,-420 135,-420 135,-456"/>
<text text-anchor="start" x="93.6584" y="-434.2" font-family="Helvetica,sans-Serif" font-size="12.00" fill="#000000">none</text>
<path fill="none" stroke="#000000" stroke-width="2" d="M91.3333,-421C91.3333,-421 122.6667,-421 122.6667,-421 128.3333,-421 134,-426.6667 134,-432.3333 134,-432.3333 134,-443.6667 134,-443.6667 134,-449.3333 128.3333,-455 122.6667,-455 122.6667,-455 91.3333,-455 91.3333,-455 85.6667,-455 80,-449.3333 80,-443.6667 80,-443.6667 80,-432.3333 80,-432.3333 80,-426.6667 85.6667,-421 91.3333,-421"/>
</g>
<!-- list.initial&#45;&gt;list.none -->
<g id="edge10" class="edge">
<title>list.initial&#45;&gt;list.none</title>
<path fill="none" stroke="#000000" d="M107,-617.9337C107,-609.7371 107,-593.9375 107,-580.5 107,-580.5 107,-580.5 107,-493.5 107,-484.7318 107,-475.1843 107,-466.5196"/>
<polygon fill="#000000" stroke="#000000" points="110.5001,-466.5 107,-456.5 103.5001,-466.5 110.5001,-466.5"/>
<text text-anchor="middle" x="108.3895" y="-534" font-family="Helvetica,sans-Serif" font-size="10.00" fill="#000000"> </text>
</g>
<!-- list.bullets -->
<g id="node17" class="node">
<title>list.bullets</title>
<polygon fill="#ffffff" stroke="transparent" stroke-width="2" points="174,-258 118,-258 118,-222 174,-222 174,-258"/>
<text text-anchor="start" x="128.6636" y="-236.2" font-family="Helvetica,sans-Serif" font-size="12.00" fill="#000000">bullets</text>
<path fill="none" stroke="#000000" stroke-width="2" d="M130.3333,-223C130.3333,-223 161.6667,-223 161.6667,-223 167.3333,-223 173,-228.6667 173,-234.3333 173,-234.3333 173,-245.6667 173,-245.6667 173,-251.3333 167.3333,-257 161.6667,-257 161.6667,-257 130.3333,-257 130.3333,-257 124.6667,-257 119,-251.3333 119,-245.6667 119,-245.6667 119,-234.3333 119,-234.3333 119,-228.6667 124.6667,-223 130.3333,-223"/>
</g>
<!-- list.none&#45;&gt;list.bullets -->
<g id="edge11" class="edge">
<title>list.none&#45;&gt;list.bullets</title>
<path fill="none" stroke="#000000" d="M87.2002,-419.9129C78.4031,-409.895 70,-396.628 70,-382.5 70,-382.5 70,-382.5 70,-295.5 70,-284.8738 89.622,-270.7172 108.9253,-259.3613"/>
<polygon fill="#000000" stroke="#000000" points="110.743,-262.354 117.7004,-254.3636 107.2787,-256.2713 110.743,-262.354"/>
<text text-anchor="start" x="70" y="-336" font-family="Helvetica,sans-Serif" font-size="10.00" fill="#000000">BULLETS &#160;&#160;</text>
</g>
<!-- list.numbers -->
<g id="node18" class="node">
<title>list.numbers</title>
<polygon fill="#ffffff" stroke="transparent" stroke-width="2" points="141,-60 73,-60 73,-24 141,-24 141,-60"/>
<text text-anchor="start" x="83.6636" y="-38.2" font-family="Helvetica,sans-Serif" font-size="12.00" fill="#000000">numbers</text>
<path fill="none" stroke="#000000" stroke-width="2" d="M85.3333,-25C85.3333,-25 128.6667,-25 128.6667,-25 134.3333,-25 140,-30.6667 140,-36.3333 140,-36.3333 140,-47.6667 140,-47.6667 140,-53.3333 134.3333,-59 128.6667,-59 128.6667,-59 85.3333,-59 85.3333,-59 79.6667,-59 74,-53.3333 74,-47.6667 74,-47.6667 74,-36.3333 74,-36.3333 74,-30.6667 79.6667,-25 85.3333,-25"/>
</g>
<!-- list.none&#45;&gt;list.numbers -->
<g id="edge12" class="edge">
<title>list.none&#45;&gt;list.numbers</title>
<path fill="none" stroke="#000000" d="M86.3502,-419.9314C81.1245,-414.5688 75.8962,-408.4046 72,-402 58.1214,-379.1862 57.6762,-371.2911 53,-345 36.6493,-253.0713 31.6808,-227.1062 47,-135 51.4048,-108.5163 51.9409,-100.2264 67,-78 69.5449,-74.2438 72.5637,-70.6173 75.785,-67.2063"/>
<polygon fill="#000000" stroke="#000000" points="78.3391,-69.6043 83.0551,-60.117 73.452,-64.5927 78.3391,-69.6043"/>
<text text-anchor="start" x="40" y="-237" font-family="Helvetica,sans-Serif" font-size="10.00" fill="#000000">NUMBERS &#160;&#160;</text>
</g>
<!-- list.bullets&#45;&gt;list.none -->
<g id="edge13" class="edge">
<title>list.bullets&#45;&gt;list.none</title>
<path fill="none" stroke="#000000" d="M148.5,-258.4625C149.75,-269.2417 151,-283.1167 151,-295.5 151,-382.5 151,-382.5 151,-382.5 151,-393.7029 145.4269,-403.9614 138.2475,-412.5287"/>
<polygon fill="#000000" stroke="#000000" points="135.6169,-410.217 131.3165,-419.8998 140.7166,-415.0122 135.6169,-410.217"/>
<text text-anchor="start" x="151" y="-336" font-family="Helvetica,sans-Serif" font-size="10.00" fill="#000000">NONE &#160;&#160;</text>
</g>
<!-- list.bullets&#45;&gt;list.numbers -->
<g id="edge14" class="edge">
<title>list.bullets&#45;&gt;list.numbers</title>
<path fill="none" stroke="#000000" d="M118.6952,-221.7085C94.8413,-205.7005 64,-184.9217 64,-184.5 64,-184.5 64,-184.5 64,-97.5 64,-86.3947 69.4465,-76.1643 76.4626,-67.5927"/>
<polygon fill="#000000" stroke="#000000" points="79.0548,-69.9445 83.2362,-60.2097 73.8967,-65.2122 79.0548,-69.9445"/>
<text text-anchor="start" x="64" y="-138" font-family="Helvetica,sans-Serif" font-size="10.00" fill="#000000">NUMBERS &#160;&#160;</text>
</g>
<!-- list.numbers&#45;&gt;list.none -->
<g id="edge16" class="edge">
<title>list.numbers&#45;&gt;list.none</title>
<path fill="none" stroke="#000000" d="M137.3806,-60.1461C161.2225,-76.359 192.5537,-102.5378 206,-135 223.9041,-178.2242 207.0245,-301.0443 191,-345 181.0447,-372.3078 158.6042,-396.4409 139.4204,-413.2761"/>
<polygon fill="#000000" stroke="#000000" points="137.0808,-410.671 131.7178,-419.8082 141.6083,-416.0098 137.0808,-410.671"/>
<text text-anchor="start" x="214" y="-237" font-family="Helvetica,sans-Serif" font-size="10.00" fill="#000000">NONE &#160;&#160;</text>
</g>
<!-- list.numbers&#45;&gt;list.bullets -->
<g id="edge15" class="edge">
<title>list.numbers&#45;&gt;list.bullets</title>
<path fill="none" stroke="#000000" d="M130.7638,-60.2097C140.7086,-69.9828 150,-82.9951 150,-97.5 150,-184.5 150,-184.5 150,-184.5 150,-193.291 149.4946,-202.845 148.843,-211.5088"/>
<polygon fill="#000000" stroke="#000000" points="145.3512,-211.2656 148,-221.524 152.3265,-211.8528 145.3512,-211.2656"/>
<text text-anchor="start" x="150" y="-138" font-family="Helvetica,sans-Serif" font-size="10.00" fill="#000000">BULLETS &#160;&#160;</text>
</g>
</g>
</svg>
