<?xml version="1.0" encoding="UTF-8" standalone="no"?>
<!DOCTYPE svg PUBLIC "-//W3C//DTD SVG 1.1//EN"
 "http://www.w3.org/Graphics/SVG/1.1/DTD/svg11.dtd">
<!-- Generated by graphviz version 2.40.1 (20161225.0304)
 -->
<!-- Title: state transitions Pages: 1 -->
<svg width="1054pt" height="721pt"
 viewBox="0.00 0.00 1054.00 721.00" xmlns="http://www.w3.org/2000/svg" xmlns:xlink="http://www.w3.org/1999/xlink">
<g id="graph0" class="graph" transform="scale(1 1) rotate(0) translate(4 717)">
<title>state transitions</title>
<polygon fill="#ffffff" stroke="transparent" points="-4,4 -4,-717 1050,-717 1050,4 -4,4"/>
<g id="clust1" class="cluster">
<title>cluster_parallel</title>
<path fill="none" stroke="#000000" stroke-width="2" d="M20,-8C20,-8 1026,-8 1026,-8 1032,-8 1038,-14 1038,-20 1038,-20 1038,-693 1038,-693 1038,-699 1032,-705 1026,-705 1026,-705 20,-705 20,-705 14,-705 8,-699 8,-693 8,-693 8,-20 8,-20 8,-14 14,-8 20,-8"/>
<text text-anchor="start" x="496.8348" y="-686.2" font-family="Helvetica,sans-Serif" font-size="12.00" fill="#000000">(machine)</text>
</g>
<g id="clust2" class="cluster">
<title>cluster_list</title>
<polygon fill="none" stroke="#000000" stroke-dasharray="5,2" points="800,-16 800,-667 1030,-667 1030,-16 800,-16"/>
<text text-anchor="start" x="907.6698" y="-648.2" font-family="Helvetica,sans-Serif" font-size="12.00" fill="#000000">list</text>
</g>
<g id="clust3" class="cluster">
<title>cluster_italics</title>
<polygon fill="none" stroke="#000000" stroke-dasharray="5,2" points="548,-214 548,-667 792,-667 792,-214 548,-214"/>
<text text-anchor="start" x="655.503" y="-648.2" font-family="Helvetica,sans-Serif" font-size="12.00" fill="#000000">italics</text>
</g>
<g id="clust4" class="cluster">
<title>cluster_underline</title>
<polygon fill="none" stroke="#000000" stroke-dasharray="5,2" points="256,-214 256,-667 540,-667 540,-214 256,-214"/>
<text text-anchor="start" x="373.8274" y="-648.2" font-family="Helvetica,sans-Serif" font-size="12.00" fill="#000000">underline</text>
</g>
<g id="clust5" class="cluster">
<title>cluster_bold</title>
<polygon fill="none" stroke="#000000" stroke-dasharray="5,2" points="24,-214 24,-667 248,-667 248,-214 24,-214"/>
<text text-anchor="start" x="124.6624" y="-648.2" font-family="Helvetica,sans-Serif" font-size="12.00" fill="#000000">bold</text>
</g>
<!-- parallel -->
<!-- list -->
<!-- list.initial -->
<g id="node3" class="node">
<title>list.initial</title>
<ellipse fill="#000000" stroke="#000000" stroke-width="2" cx="885" cy="-623.5" rx="5.5" ry="5.5"/>
</g>
<!-- list.none -->
<g id="node6" class="node">
<title>list.none</title>
<polygon fill="#ffffff" stroke="transparent" stroke-width="2" points="913,-456 857,-456 857,-420 913,-420 913,-456"/>
<text text-anchor="start" x="871.6584" y="-434.2" font-family="Helvetica,sans-Serif" font-size="12.00" fill="#000000">none</text>
<path fill="none" stroke="#000000" stroke-width="2" d="M869.3333,-421C869.3333,-421 900.6667,-421 900.6667,-421 906.3333,-421 912,-426.6667 912,-432.3333 912,-432.3333 912,-443.6667 912,-443.6667 912,-449.3333 906.3333,-455 900.6667,-455 900.6667,-455 869.3333,-455 869.3333,-455 863.6667,-455 858,-449.3333 858,-443.6667 858,-443.6667 858,-432.3333 858,-432.3333 858,-426.6667 863.6667,-421 869.3333,-421"/>
</g>
<!-- list.initial&#45;&gt;list.none -->
<g id="edge1" class="edge">
<title>list.initial&#45;&gt;list.none</title>
<path fill="none" stroke="#000000" d="M885,-617.9337C885,-609.7371 885,-593.9375 885,-580.5 885,-580.5 885,-580.5 885,-493.5 885,-484.7318 885,-475.1843 885,-466.5196"/>
<polygon fill="#000000" stroke="#000000" points="888.5001,-466.5 885,-456.5 881.5001,-466.5 888.5001,-466.5"/>
<text text-anchor="middle" x="886.3895" y="-534" font-family="Helvetica,sans-Serif" font-size="10.00" fill="#000000"> </text>
</g>
<!-- list.numbers -->
<g id="node4" class="node">
<title>list.numbers</title>
<polygon fill="#ffffff" stroke="transparent" stroke-width="2" points="1022,-258 954,-258 954,-222 1022,-222 1022,-258"/>
<text text-anchor="start" x="964.6636" y="-236.2" font-family="Helvetica,sans-Serif" font-size="12.00" fill="#000000">numbers</text>
<path fill="none" stroke="#000000" stroke-width="2" d="M966.3333,-223C966.3333,-223 1009.6667,-223 1009.6667,-223 1015.3333,-223 1021,-228.6667 1021,-234.3333 1021,-234.3333 1021,-245.6667 1021,-245.6667 1021,-251.3333 1015.3333,-257 1009.6667,-257 1009.6667,-257 966.3333,-257 966.3333,-257 960.6667,-257 955,-251.3333 955,-245.6667 955,-245.6667 955,-234.3333 955,-234.3333 955,-228.6667 960.6667,-223 966.3333,-223"/>
</g>
<!-- list.bullets -->
<g id="node5" class="node">
<title>list.bullets</title>
<polygon fill="#ffffff" stroke="transparent" stroke-width="2" points="897,-60 841,-60 841,-24 897,-24 897,-60"/>
<text text-anchor="start" x="851.6636" y="-38.2" font-family="Helvetica,sans-Serif" font-size="12.00" fill="#000000">bullets</text>
<path fill="none" stroke="#000000" stroke-width="2" d="M853.3333,-25C853.3333,-25 884.6667,-25 884.6667,-25 890.3333,-25 896,-30.6667 896,-36.3333 896,-36.3333 896,-47.6667 896,-47.6667 896,-53.3333 890.3333,-59 884.6667,-59 884.6667,-59 853.3333,-59 853.3333,-59 847.6667,-59 842,-53.3333 842,-47.6667 842,-47.6667 842,-36.3333 842,-36.3333 842,-30.6667 847.6667,-25 853.3333,-25"/>
</g>
<!-- list.numbers&#45;&gt;list.bullets -->
<g id="edge6" class="edge">
<title>list.numbers&#45;&gt;list.bullets</title>
<path fill="none" stroke="#000000" d="M978.3887,-221.7776C973.6761,-211.1943 969,-197.4342 969,-184.5 969,-184.5 969,-184.5 969,-97.5 969,-68.0561 935.4465,-54.101 907.2114,-47.5703"/>
<polygon fill="#000000" stroke="#000000" points="907.6231,-44.0815 897.1217,-45.4852 906.2064,-50.9366 907.6231,-44.0815"/>
<text text-anchor="start" x="969" y="-138" font-family="Helvetica,sans-Serif" font-size="10.00" fill="#000000">BULLETS &#160;&#160;</text>
</g>
<!-- list.numbers&#45;&gt;list.none -->
<g id="edge7" class="edge">
<title>list.numbers&#45;&gt;list.none</title>
<path fill="none" stroke="#000000" d="M986.5,-258.4865C985.75,-269.2737 985,-283.1487 985,-295.5 985,-382.5 985,-382.5 985,-382.5 985,-411.9439 951.4465,-425.899 923.2114,-432.4297"/>
<polygon fill="#000000" stroke="#000000" points="922.2064,-429.0634 913.1217,-434.5148 923.6231,-435.9185 922.2064,-429.0634"/>
<text text-anchor="start" x="985" y="-336" font-family="Helvetica,sans-Serif" font-size="10.00" fill="#000000">NONE &#160;&#160;</text>
</g>
<!-- list.bullets&#45;&gt;list.numbers -->
<g id="edge5" class="edge">
<title>list.bullets&#45;&gt;list.numbers</title>
<path fill="none" stroke="#000000" d="M876,-60.2102C879.5,-70.9053 883,-84.7803 883,-97.5 883,-184.5 883,-184.5 883,-184.5 883,-214.2155 916.7872,-200.0036 943,-214 944.7311,-214.9243 946.4929,-215.8793 948.2677,-216.853"/>
<polygon fill="#000000" stroke="#000000" points="946.7301,-220.0031 957.1675,-221.8226 950.1429,-213.8913 946.7301,-220.0031"/>
<text text-anchor="start" x="883" y="-138" font-family="Helvetica,sans-Serif" font-size="10.00" fill="#000000">NUMBERS &#160;&#160;</text>
</g>
<!-- list.bullets&#45;&gt;list.none -->
<g id="edge4" class="edge">
<title>list.bullets&#45;&gt;list.none</title>
<path fill="none" stroke="#000000" d="M868.2405,-60.1725C867.4978,-78.9158 866.4193,-108.9951 866,-135 865.914,-140.3326 865.528,-141.6876 866,-147 868.6772,-177.1329 874.8633,-183.9114 878,-214 884.0398,-271.9354 880.1721,-286.7793 882,-345 882.6823,-366.7306 883.4763,-391.3166 884.0761,-409.7496"/>
<polygon fill="#000000" stroke="#000000" points="880.5804,-409.9429 884.4044,-419.8236 887.5767,-409.7148 880.5804,-409.9429"/>
<text text-anchor="start" x="881" y="-237" font-family="Helvetica,sans-Serif" font-size="10.00" fill="#000000">NONE &#160;&#160;</text>
</g>
<!-- list.none&#45;&gt;list.numbers -->
<g id="edge3" class="edge">
<title>list.none&#45;&gt;list.numbers</title>
<path fill="none" stroke="#000000" d="M892,-419.7898C895.5,-409.0947 899,-395.2197 899,-382.5 899,-382.5 899,-382.5 899,-295.5 899,-283.6567 921.9783,-269.5198 944.5836,-258.4779"/>
<polygon fill="#000000" stroke="#000000" points="946.2971,-261.5394 953.8448,-254.1042 943.3078,-255.2097 946.2971,-261.5394"/>
<text text-anchor="start" x="899" y="-336" font-family="Helvetica,sans-Serif" font-size="10.00" fill="#000000">NUMBERS &#160;&#160;</text>
</g>
<!-- list.none&#45;&gt;list.bullets -->
<g id="edge2" class="edge">
<title>list.none&#45;&gt;list.bullets</title>
<path fill="none" stroke="#000000" d="M856.8168,-426.117C840.0427,-416.9603 822,-402.4696 822,-382.5 822,-382.5 822,-382.5 822,-97.5 822,-86.093 827.8535,-75.8251 835.429,-67.3129"/>
<polygon fill="#000000" stroke="#000000" points="838.1446,-69.5476 842.7517,-60.0069 833.2005,-64.5922 838.1446,-69.5476"/>
<text text-anchor="start" x="822" y="-237" font-family="Helvetica,sans-Serif" font-size="10.00" fill="#000000">BULLETS &#160;&#160;</text>
</g>
<!-- italics -->
<!-- italics.initial -->
<g id="node8" class="node">
<title>italics.initial</title>
<ellipse fill="#000000" stroke="#000000" stroke-width="2" cx="629" cy="-623.5" rx="5.5" ry="5.5"/>
</g>
<!-- italics.off -->
<g id="node9" class="node">
<title>italics.off</title>
<polygon fill="#ffffff" stroke="transparent" stroke-width="2" points="657,-456 601,-456 601,-420 657,-420 657,-456"/>
<text text-anchor="start" x="622.3298" y="-434.2" font-family="Helvetica,sans-Serif" font-size="12.00" fill="#000000">off</text>
<path fill="none" stroke="#000000" stroke-width="2" d="M613.3333,-421C613.3333,-421 644.6667,-421 644.6667,-421 650.3333,-421 656,-426.6667 656,-432.3333 656,-432.3333 656,-443.6667 656,-443.6667 656,-449.3333 650.3333,-455 644.6667,-455 644.6667,-455 613.3333,-455 613.3333,-455 607.6667,-455 602,-449.3333 602,-443.6667 602,-443.6667 602,-432.3333 602,-432.3333 602,-426.6667 607.6667,-421 613.3333,-421"/>
</g>
<!-- italics.initial&#45;&gt;italics.off -->
<g id="edge8" class="edge">
<title>italics.initial&#45;&gt;italics.off</title>
<path fill="none" stroke="#000000" d="M629,-617.9337C629,-609.7371 629,-593.9375 629,-580.5 629,-580.5 629,-580.5 629,-493.5 629,-484.7318 629,-475.1843 629,-466.5196"/>
<polygon fill="#000000" stroke="#000000" points="632.5001,-466.5 629,-456.5 625.5001,-466.5 632.5001,-466.5"/>
<text text-anchor="middle" x="630.3895" y="-534" font-family="Helvetica,sans-Serif" font-size="10.00" fill="#000000"> </text>
</g>
<!-- italics.on -->
<g id="node10" class="node">
<title>italics.on</title>
<polygon fill="#ffffff" stroke="transparent" stroke-width="2" points="666,-258 610,-258 610,-222 666,-222 666,-258"/>
<text text-anchor="start" x="631.3292" y="-236.2" font-family="Helvetica,sans-Serif" font-size="12.00" fill="#000000">on</text>
<path fill="none" stroke="#000000" stroke-width="2" d="M622.3333,-223C622.3333,-223 653.6667,-223 653.6667,-223 659.3333,-223 665,-228.6667 665,-234.3333 665,-234.3333 665,-245.6667 665,-245.6667 665,-251.3333 659.3333,-257 653.6667,-257 653.6667,-257 622.3333,-257 622.3333,-257 616.6667,-257 611,-251.3333 611,-245.6667 611,-245.6667 611,-234.3333 611,-234.3333 611,-228.6667 616.6667,-223 622.3333,-223"/>
</g>
<!-- italics.off&#45;&gt;italics.on -->
<g id="edge10" class="edge">
<title>italics.off&#45;&gt;italics.on</title>
<path fill="none" stroke="#000000" d="M657.0975,-425.7993C673.502,-416.5829 691,-402.1473 691,-382.5 691,-382.5 691,-382.5 691,-295.5 691,-282.5692 683.3822,-271.466 673.9227,-262.6631"/>
<polygon fill="#000000" stroke="#000000" points="675.9752,-259.8176 666.0519,-256.1056 671.4945,-265.1956 675.9752,-259.8176"/>
<text text-anchor="start" x="691" y="-336" font-family="Helvetica,sans-Serif" font-size="10.00" fill="#000000">TOGGLE_ITALICS &#160;&#160;</text>
</g>
<!-- italics.on&#45;&gt;italics.off -->
<g id="edge9" class="edge">
<title>italics.on&#45;&gt;italics.off</title>
<path fill="none" stroke="#000000" d="M609.9492,-250.1571C591.2178,-258.9451 570,-273.7089 570,-295.5 570,-382.5 570,-382.5 570,-382.5 570,-397.5823 580.3554,-409.7684 592.3895,-418.8378"/>
<polygon fill="#000000" stroke="#000000" points="590.6456,-421.8846 600.8824,-424.616 594.5833,-416.097 590.6456,-421.8846"/>
<text text-anchor="start" x="570" y="-336" font-family="Helvetica,sans-Serif" font-size="10.00" fill="#000000">TOGGLE_ITALICS &#160;&#160;</text>
</g>
<!-- underline -->
<!-- underline.initial -->
<g id="node12" class="node">
<title>underline.initial</title>
<ellipse fill="#000000" stroke="#000000" stroke-width="2" cx="347" cy="-623.5" rx="5.5" ry="5.5"/>
</g>
<!-- underline.off -->
<g id="node13" class="node">
<title>underline.off</title>
<polygon fill="#ffffff" stroke="transparent" stroke-width="2" points="375,-456 319,-456 319,-420 375,-420 375,-456"/>
<text text-anchor="start" x="340.3298" y="-434.2" font-family="Helvetica,sans-Serif" font-size="12.00" fill="#000000">off</text>
<path fill="none" stroke="#000000" stroke-width="2" d="M331.3333,-421C331.3333,-421 362.6667,-421 362.6667,-421 368.3333,-421 374,-426.6667 374,-432.3333 374,-432.3333 374,-443.6667 374,-443.6667 374,-449.3333 368.3333,-455 362.6667,-455 362.6667,-455 331.3333,-455 331.3333,-455 325.6667,-455 320,-449.3333 320,-443.6667 320,-443.6667 320,-432.3333 320,-432.3333 320,-426.6667 325.6667,-421 331.3333,-421"/>
</g>
<!-- underline.initial&#45;&gt;underline.off -->
<g id="edge11" class="edge">
<title>underline.initial&#45;&gt;underline.off</title>
<path fill="none" stroke="#000000" d="M347,-617.9337C347,-609.7371 347,-593.9375 347,-580.5 347,-580.5 347,-580.5 347,-493.5 347,-484.7318 347,-475.1843 347,-466.5196"/>
<polygon fill="#000000" stroke="#000000" points="350.5001,-466.5 347,-456.5 343.5001,-466.5 350.5001,-466.5"/>
<text text-anchor="middle" x="348.3895" y="-534" font-family="Helvetica,sans-Serif" font-size="10.00" fill="#000000"> </text>
</g>
<!-- underline.on -->
<g id="node14" class="node">
<title>underline.on</title>
<polygon fill="#ffffff" stroke="transparent" stroke-width="2" points="383,-258 327,-258 327,-222 383,-222 383,-258"/>
<text text-anchor="start" x="348.3292" y="-236.2" font-family="Helvetica,sans-Serif" font-size="12.00" fill="#000000">on</text>
<path fill="none" stroke="#000000" stroke-width="2" d="M339.3333,-223C339.3333,-223 370.6667,-223 370.6667,-223 376.3333,-223 382,-228.6667 382,-234.3333 382,-234.3333 382,-245.6667 382,-245.6667 382,-251.3333 376.3333,-257 370.6667,-257 370.6667,-257 339.3333,-257 339.3333,-257 333.6667,-257 328,-251.3333 328,-245.6667 328,-245.6667 328,-234.3333 328,-234.3333 328,-228.6667 333.6667,-223 339.3333,-223"/>
</g>
<!-- underline.off&#45;&gt;underline.on -->
<g id="edge13" class="edge">
<title>underline.off&#45;&gt;underline.on</title>
<path fill="none" stroke="#000000" d="M375.0432,-429.0013C395.2596,-420.5565 419,-405.7005 419,-382.5 419,-382.5 419,-382.5 419,-295.5 419,-278.6926 406.2459,-265.831 392.1248,-256.7417"/>
<polygon fill="#000000" stroke="#000000" points="393.6589,-253.5846 383.2576,-251.5683 390.1313,-259.6308 393.6589,-253.5846"/>
<text text-anchor="start" x="419" y="-336" font-family="Helvetica,sans-Serif" font-size="10.00" fill="#000000">TOGGLE_UNDERLINE &#160;&#160;</text>
</g>
<!-- underline.on&#45;&gt;underline.off -->
<g id="edge12" class="edge">
<title>underline.on&#45;&gt;underline.off</title>
<path fill="none" stroke="#000000" d="M326.7653,-247.7931C304.7895,-255.779 278,-270.6172 278,-295.5 278,-382.5 278,-382.5 278,-382.5 278,-401.1787 293.5425,-414.6288 309.8743,-423.606"/>
<polygon fill="#000000" stroke="#000000" points="308.4257,-426.7948 318.9351,-428.1379 311.5571,-420.5342 308.4257,-426.7948"/>
<text text-anchor="start" x="278" y="-336" font-family="Helvetica,sans-Serif" font-size="10.00" fill="#000000">TOGGLE_UNDERLINE &#160;&#160;</text>
</g>
<!-- bold -->
<!-- bold.initial -->
<g id="node16" class="node">
<title>bold.initial</title>
<ellipse fill="#000000" stroke="#000000" stroke-width="2" cx="100" cy="-623.5" rx="5.5" ry="5.5"/>
</g>
<!-- bold.off -->
<g id="node17" class="node">
<title>bold.off</title>
<polygon fill="#ffffff" stroke="transparent" stroke-width="2" points="128,-456 72,-456 72,-420 128,-420 128,-456"/>
<text text-anchor="start" x="93.3298" y="-434.2" font-family="Helvetica,sans-Serif" font-size="12.00" fill="#000000">off</text>
<path fill="none" stroke="#000000" stroke-width="2" d="M84.3333,-421C84.3333,-421 115.6667,-421 115.6667,-421 121.3333,-421 127,-426.6667 127,-432.3333 127,-432.3333 127,-443.6667 127,-443.6667 127,-449.3333 121.3333,-455 115.6667,-455 115.6667,-455 84.3333,-455 84.3333,-455 78.6667,-455 73,-449.3333 73,-443.6667 73,-443.6667 73,-432.3333 73,-432.3333 73,-426.6667 78.6667,-421 84.3333,-421"/>
</g>
<!-- bold.initial&#45;&gt;bold.off -->
<g id="edge14" class="edge">
<title>bold.initial&#45;&gt;bold.off</title>
<path fill="none" stroke="#000000" d="M100,-617.9337C100,-609.7371 100,-593.9375 100,-580.5 100,-580.5 100,-580.5 100,-493.5 100,-484.7318 100,-475.1843 100,-466.5196"/>
<polygon fill="#000000" stroke="#000000" points="103.5001,-466.5 100,-456.5 96.5001,-466.5 103.5001,-466.5"/>
<text text-anchor="middle" x="101.3895" y="-534" font-family="Helvetica,sans-Serif" font-size="10.00" fill="#000000"> </text>
</g>
<!-- bold.on -->
<g id="node18" class="node">
<title>bold.on</title>
<polygon fill="#ffffff" stroke="transparent" stroke-width="2" points="136,-258 80,-258 80,-222 136,-222 136,-258"/>
<text text-anchor="start" x="101.3292" y="-236.2" font-family="Helvetica,sans-Serif" font-size="12.00" fill="#000000">on</text>
<path fill="none" stroke="#000000" stroke-width="2" d="M92.3333,-223C92.3333,-223 123.6667,-223 123.6667,-223 129.3333,-223 135,-228.6667 135,-234.3333 135,-234.3333 135,-245.6667 135,-245.6667 135,-251.3333 129.3333,-257 123.6667,-257 123.6667,-257 92.3333,-257 92.3333,-257 86.6667,-257 81,-251.3333 81,-245.6667 81,-245.6667 81,-234.3333 81,-234.3333 81,-228.6667 86.6667,-223 92.3333,-223"/>
</g>
<!-- bold.off&#45;&gt;bold.on -->
<g id="edge16" class="edge">
<title>bold.off&#45;&gt;bold.on</title>
<path fill="none" stroke="#000000" d="M128.166,-423.7302C142.5265,-414.2708 157,-400.3174 157,-382.5 157,-382.5 157,-382.5 157,-295.5 157,-283.8687 150.8774,-273.5256 142.9606,-265.0132"/>
<polygon fill="#000000" stroke="#000000" points="145.2952,-262.4029 135.6504,-258.0177 140.4554,-267.4603 145.2952,-262.4029"/>
<text text-anchor="start" x="157" y="-336" font-family="Helvetica,sans-Serif" font-size="10.00" fill="#000000">TOGGLE_BOLD &#160;&#160;</text>
</g>
<!-- bold.on&#45;&gt;bold.off -->
<g id="edge15" class="edge">
<title>bold.on&#45;&gt;bold.off</title>
<path fill="none" stroke="#000000" d="M79.9025,-252.2007C63.498,-261.4171 46,-275.8527 46,-295.5 46,-382.5 46,-382.5 46,-382.5 46,-395.784 54.0452,-407.0818 63.925,-415.9476"/>
<polygon fill="#000000" stroke="#000000" points="61.7535,-418.6927 71.7348,-422.2459 66.1478,-413.2438 61.7535,-418.6927"/>
<text text-anchor="start" x="46" y="-336" font-family="Helvetica,sans-Serif" font-size="10.00" fill="#000000">TOGGLE_BOLD &#160;&#160;</text>
</g>
</g>
</svg>
