<?xml version="1.0" encoding="UTF-8" standalone="no"?>
<!DOCTYPE svg PUBLIC "-//W3C//DTD SVG 1.1//EN"
 "http://www.w3.org/Graphics/SVG/1.1/DTD/svg11.dtd">
<!-- Generated by graphviz version 2.40.1 (20161225.0304)
 -->
<!-- Title: state transitions Pages: 1 -->
<svg width="1151pt" height="721pt"
 viewBox="0.00 0.00 1151.00 721.00" xmlns="http://www.w3.org/2000/svg" xmlns:xlink="http://www.w3.org/1999/xlink">
<g id="graph0" class="graph" transform="scale(1 1) rotate(0) translate(4 717)">
<title>state transitions</title>
<polygon fill="#ffffff" stroke="transparent" points="-4,4 -4,-717 1147,-717 1147,4 -4,4"/>
<g id="clust1" class="cluster">
<title>cluster_parallel</title>
<path fill="none" stroke="#000000" stroke-width="2" d="M20,-8C20,-8 1123,-8 1123,-8 1129,-8 1135,-14 1135,-20 1135,-20 1135,-693 1135,-693 1135,-699 1129,-705 1123,-705 1123,-705 20,-705 20,-705 14,-705 8,-699 8,-693 8,-693 8,-20 8,-20 8,-14 14,-8 20,-8"/>
<text text-anchor="start" x="545.3348" y="-686.2" font-family="Helvetica,sans-Serif" font-size="12.00" fill="#000000">(machine)</text>
</g>
<g id="clust2" class="cluster">
<title>cluster_bold</title>
<polygon fill="none" stroke="#000000" stroke-dasharray="5,2" points="879,-214 879,-667 1127,-667 1127,-214 879,-214"/>
<text text-anchor="start" x="991.6624" y="-648.2" font-family="Helvetica,sans-Serif" font-size="12.00" fill="#000000">bold</text>
</g>
<g id="clust3" class="cluster">
<title>cluster_underline</title>
<polygon fill="none" stroke="#000000" stroke-dasharray="5,2" points="563,-214 563,-667 871,-667 871,-214 563,-214"/>
<text text-anchor="start" x="692.8274" y="-648.2" font-family="Helvetica,sans-Serif" font-size="12.00" fill="#000000">underline</text>
</g>
<g id="clust4" class="cluster">
<title>cluster_italics</title>
<polygon fill="none" stroke="#000000" stroke-dasharray="5,2" points="287,-214 287,-667 555,-667 555,-214 287,-214"/>
<text text-anchor="start" x="406.503" y="-648.2" font-family="Helvetica,sans-Serif" font-size="12.00" fill="#000000">italics</text>
</g>
<g id="clust5" class="cluster">
<title>cluster_list</title>
<polygon fill="none" stroke="#000000" stroke-dasharray="5,2" points="24,-16 24,-667 279,-667 279,-16 24,-16"/>
<text text-anchor="start" x="144.1698" y="-648.2" font-family="Helvetica,sans-Serif" font-size="12.00" fill="#000000">list</text>
</g>
<!-- parallel -->
<!-- bold -->
<!-- bold.initial -->
<g id="node3" class="node">
<title>bold.initial</title>
<ellipse fill="#000000" stroke="#000000" stroke-width="2" cx="959" cy="-623.5" rx="5.5" ry="5.5"/>
</g>
<!-- bold.off -->
<g id="node5" class="node">
<title>bold.off</title>
<polygon fill="#ffffff" stroke="transparent" stroke-width="2" points="987,-456 931,-456 931,-420 987,-420 987,-456"/>
<text text-anchor="start" x="952.3298" y="-434.2" font-family="Helvetica,sans-Serif" font-size="12.00" fill="#000000">off</text>
<path fill="none" stroke="#000000" stroke-width="2" d="M943.3333,-421C943.3333,-421 974.6667,-421 974.6667,-421 980.3333,-421 986,-426.6667 986,-432.3333 986,-432.3333 986,-443.6667 986,-443.6667 986,-449.3333 980.3333,-455 974.6667,-455 974.6667,-455 943.3333,-455 943.3333,-455 937.6667,-455 932,-449.3333 932,-443.6667 932,-443.6667 932,-432.3333 932,-432.3333 932,-426.6667 937.6667,-421 943.3333,-421"/>
</g>
<!-- bold.initial&#45;&gt;bold.off -->
<g id="edge1" class="edge">
<title>bold.initial&#45;&gt;bold.off</title>
<path fill="none" stroke="#000000" d="M959,-617.9337C959,-609.7371 959,-593.9375 959,-580.5 959,-580.5 959,-580.5 959,-493.5 959,-484.7318 959,-475.1843 959,-466.5196"/>
<polygon fill="#000000" stroke="#000000" points="962.5001,-466.5 959,-456.5 955.5001,-466.5 962.5001,-466.5"/>
<text text-anchor="middle" x="960.3895" y="-534" font-family="Helvetica,sans-Serif" font-size="10.00" fill="#000000"> </text>
</g>
<!-- bold.on -->
<g id="node4" class="node">
<title>bold.on</title>
<polygon fill="#ffffff" stroke="transparent" stroke-width="2" points="1004,-258 948,-258 948,-222 1004,-222 1004,-258"/>
<text text-anchor="start" x="969.3292" y="-236.2" font-family="Helvetica,sans-Serif" font-size="12.00" fill="#000000">on</text>
<path fill="none" stroke="#000000" stroke-width="2" d="M960.3333,-223C960.3333,-223 991.6667,-223 991.6667,-223 997.3333,-223 1003,-228.6667 1003,-234.3333 1003,-234.3333 1003,-245.6667 1003,-245.6667 1003,-251.3333 997.3333,-257 991.6667,-257 991.6667,-257 960.3333,-257 960.3333,-257 954.6667,-257 949,-251.3333 949,-245.6667 949,-245.6667 949,-234.3333 949,-234.3333 949,-228.6667 954.6667,-223 960.3333,-223"/>
</g>
<!-- bold.on&#45;&gt;bold.off -->
<g id="edge2" class="edge">
<title>bold.on&#45;&gt;bold.off</title>
<path fill="none" stroke="#000000" d="M947.9742,-250.4556C929.6144,-259.3215 909,-274.0517 909,-295.5 909,-382.5 909,-382.5 909,-382.5 909,-394.2359 915.2476,-404.6097 923.3259,-413.1179"/>
<polygon fill="#000000" stroke="#000000" points="921.0933,-415.8222 930.7853,-420.1019 925.8776,-410.7123 921.0933,-415.8222"/>
<text text-anchor="start" x="909" y="-336" font-family="Helvetica,sans-Serif" font-size="10.00" fill="#000000">TOGGLE_BOLD &#160;&#160;</text>
</g>
<!-- bold.off&#45;&gt;bold.on -->
<g id="edge3" class="edge">
<title>bold.off&#45;&gt;bold.on</title>
<path fill="none" stroke="#000000" d="M987.2347,-430.2069C1009.2105,-422.221 1036,-407.3828 1036,-382.5 1036,-382.5 1036,-382.5 1036,-295.5 1036,-280.0188 1025.1023,-267.6527 1012.5957,-258.5585"/>
<polygon fill="#000000" stroke="#000000" points="1014.5191,-255.6343 1004.2431,-253.0548 1010.6676,-261.4795 1014.5191,-255.6343"/>
<text text-anchor="start" x="1036" y="-336" font-family="Helvetica,sans-Serif" font-size="10.00" fill="#000000">TOGGLE_BOLD &#160;&#160;</text>
</g>
<!-- underline -->
<!-- underline.initial -->
<g id="node7" class="node">
<title>underline.initial</title>
<ellipse fill="#000000" stroke="#000000" stroke-width="2" cx="658" cy="-623.5" rx="5.5" ry="5.5"/>
</g>
<!-- underline.off -->
<g id="node9" class="node">
<title>underline.off</title>
<polygon fill="#ffffff" stroke="transparent" stroke-width="2" points="686,-456 630,-456 630,-420 686,-420 686,-456"/>
<text text-anchor="start" x="651.3298" y="-434.2" font-family="Helvetica,sans-Serif" font-size="12.00" fill="#000000">off</text>
<path fill="none" stroke="#000000" stroke-width="2" d="M642.3333,-421C642.3333,-421 673.6667,-421 673.6667,-421 679.3333,-421 685,-426.6667 685,-432.3333 685,-432.3333 685,-443.6667 685,-443.6667 685,-449.3333 679.3333,-455 673.6667,-455 673.6667,-455 642.3333,-455 642.3333,-455 636.6667,-455 631,-449.3333 631,-443.6667 631,-443.6667 631,-432.3333 631,-432.3333 631,-426.6667 636.6667,-421 642.3333,-421"/>
</g>
<!-- underline.initial&#45;&gt;underline.off -->
<g id="edge4" class="edge">
<title>underline.initial&#45;&gt;underline.off</title>
<path fill="none" stroke="#000000" d="M658,-617.9337C658,-609.7371 658,-593.9375 658,-580.5 658,-580.5 658,-580.5 658,-493.5 658,-484.7318 658,-475.1843 658,-466.5196"/>
<polygon fill="#000000" stroke="#000000" points="661.5001,-466.5 658,-456.5 654.5001,-466.5 661.5001,-466.5"/>
<text text-anchor="middle" x="659.3895" y="-534" font-family="Helvetica,sans-Serif" font-size="10.00" fill="#000000"> </text>
</g>
<!-- underline.on -->
<g id="node8" class="node">
<title>underline.on</title>
<polygon fill="#ffffff" stroke="transparent" stroke-width="2" points="703,-258 647,-258 647,-222 703,-222 703,-258"/>
<text text-anchor="start" x="668.3292" y="-236.2" font-family="Helvetica,sans-Serif" font-size="12.00" fill="#000000">on</text>
<path fill="none" stroke="#000000" stroke-width="2" d="M659.3333,-223C659.3333,-223 690.6667,-223 690.6667,-223 696.3333,-223 702,-228.6667 702,-234.3333 702,-234.3333 702,-245.6667 702,-245.6667 702,-251.3333 696.3333,-257 690.6667,-257 690.6667,-257 659.3333,-257 659.3333,-257 653.6667,-257 648,-251.3333 648,-245.6667 648,-245.6667 648,-234.3333 648,-234.3333 648,-228.6667 653.6667,-223 659.3333,-223"/>
</g>
<!-- underline.on&#45;&gt;underline.off -->
<g id="edge5" class="edge">
<title>underline.on&#45;&gt;underline.off</title>
<path fill="none" stroke="#000000" d="M646.7803,-246.6577C623.0606,-254.1295 593,-268.855 593,-295.5 593,-382.5 593,-382.5 593,-382.5 593,-399.5807 606.1418,-412.5219 620.6071,-421.5929"/>
<polygon fill="#000000" stroke="#000000" points="619.2548,-424.8499 629.6791,-426.7431 622.7107,-418.7624 619.2548,-424.8499"/>
<text text-anchor="start" x="593" y="-336" font-family="Helvetica,sans-Serif" font-size="10.00" fill="#000000">TOGGLE_UNDERLINE &#160;&#160;</text>
</g>
<!-- underline.off&#45;&gt;underline.on -->
<g id="edge6" class="edge">
<title>underline.off&#45;&gt;underline.on</title>
<path fill="none" stroke="#000000" d="M686.1029,-433.2694C713.1584,-426.9169 750,-412.7187 750,-382.5 750,-382.5 750,-382.5 750,-295.5 750,-274.8529 731.4065,-261.0074 712.7352,-252.309"/>
<polygon fill="#000000" stroke="#000000" points="713.9273,-249.0129 703.3543,-248.333 711.1956,-255.4579 713.9273,-249.0129"/>
<text text-anchor="start" x="750" y="-336" font-family="Helvetica,sans-Serif" font-size="10.00" fill="#000000">TOGGLE_UNDERLINE &#160;&#160;</text>
</g>
<!-- italics -->
<!-- italics.initial -->
<g id="node11" class="node">
<title>italics.initial</title>
<ellipse fill="#000000" stroke="#000000" stroke-width="2" cx="372" cy="-623.5" rx="5.5" ry="5.5"/>
</g>
<!-- italics.off -->
<g id="node13" class="node">
<title>italics.off</title>
<polygon fill="#ffffff" stroke="transparent" stroke-width="2" points="400,-456 344,-456 344,-420 400,-420 400,-456"/>
<text text-anchor="start" x="365.3298" y="-434.2" font-family="Helvetica,sans-Serif" font-size="12.00" fill="#000000">off</text>
<path fill="none" stroke="#000000" stroke-width="2" d="M356.3333,-421C356.3333,-421 387.6667,-421 387.6667,-421 393.3333,-421 399,-426.6667 399,-432.3333 399,-432.3333 399,-443.6667 399,-443.6667 399,-449.3333 393.3333,-455 387.6667,-455 387.6667,-455 356.3333,-455 356.3333,-455 350.6667,-455 345,-449.3333 345,-443.6667 345,-443.6667 345,-432.3333 345,-432.3333 345,-426.6667 350.6667,-421 356.3333,-421"/>
</g>
<!-- italics.initial&#45;&gt;italics.off -->
<g id="edge7" class="edge">
<title>italics.initial&#45;&gt;italics.off</title>
<path fill="none" stroke="#000000" d="M372,-617.9337C372,-609.7371 372,-593.9375 372,-580.5 372,-580.5 372,-580.5 372,-493.5 372,-484.7318 372,-475.1843 372,-466.5196"/>
<polygon fill="#000000" stroke="#000000" points="375.5001,-466.5 372,-456.5 368.5001,-466.5 375.5001,-466.5"/>
<text text-anchor="middle" x="373.3895" y="-534" font-family="Helvetica,sans-Serif" font-size="10.00" fill="#000000"> </text>
</g>
<!-- italics.on -->
<g id="node12" class="node">
<title>italics.on</title>
<polygon fill="#ffffff" stroke="transparent" stroke-width="2" points="416,-258 360,-258 360,-222 416,-222 416,-258"/>
<text text-anchor="start" x="381.3292" y="-236.2" font-family="Helvetica,sans-Serif" font-size="12.00" fill="#000000">on</text>
<path fill="none" stroke="#000000" stroke-width="2" d="M372.3333,-223C372.3333,-223 403.6667,-223 403.6667,-223 409.3333,-223 415,-228.6667 415,-234.3333 415,-234.3333 415,-245.6667 415,-245.6667 415,-251.3333 409.3333,-257 403.6667,-257 403.6667,-257 372.3333,-257 372.3333,-257 366.6667,-257 361,-251.3333 361,-245.6667 361,-245.6667 361,-234.3333 361,-234.3333 361,-228.6667 366.6667,-223 372.3333,-223"/>
</g>
<!-- italics.on&#45;&gt;italics.off -->
<g id="edge8" class="edge">
<title>italics.on&#45;&gt;italics.off</title>
<path fill="none" stroke="#000000" d="M359.9389,-249.2828C340.0932,-257.8181 317,-272.6576 317,-295.5 317,-382.5 317,-382.5 317,-382.5 317,-396.1204 325.4607,-407.5942 335.7452,-416.51"/>
<polygon fill="#000000" stroke="#000000" points="333.8144,-419.4424 343.8555,-422.8226 338.1139,-413.9184 333.8144,-419.4424"/>
<text text-anchor="start" x="317" y="-336" font-family="Helvetica,sans-Serif" font-size="10.00" fill="#000000">TOGGLE_ITALICS &#160;&#160;</text>
</g>
<!-- italics.off&#45;&gt;italics.on -->
<g id="edge9" class="edge">
<title>italics.off&#45;&gt;italics.on</title>
<path fill="none" stroke="#000000" d="M400.2197,-431.3423C423.9394,-423.8705 454,-409.145 454,-382.5 454,-382.5 454,-382.5 454,-295.5 454,-277.9791 440.2067,-264.8788 425.2314,-255.8189"/>
<polygon fill="#000000" stroke="#000000" points="426.8222,-252.6994 416.373,-250.9487 423.4497,-258.8335 426.8222,-252.6994"/>
<text text-anchor="start" x="454" y="-336" font-family="Helvetica,sans-Serif" font-size="10.00" fill="#000000">TOGGLE_ITALICS &#160;&#160;</text>
</g>
<!-- list -->
<!-- list.initial -->
<g id="node15" class="node">
<title>list.initial</title>
<ellipse fill="#000000" stroke="#000000" stroke-width="2" cx="129" cy="-623.5" rx="5.5" ry="5.5"/>
</g>
<!-- list.none -->
<g id="node16" class="node">
<title>list.none</title>
<polygon fill="#ffffff" stroke="transparent" stroke-width="2" points="157,-456 101,-456 101,-420 157,-420 157,-456"/>
<text text-anchor="start" x="115.6584" y="-434.2" font-family="Helvetica,sans-Serif" font-size="12.00" fill="#000000">none</text>
<path fill="none" stroke="#000000" stroke-width="2" d="M113.3333,-421C113.3333,-421 144.6667,-421 144.6667,-421 150.3333,-421 156,-426.6667 156,-432.3333 156,-432.3333 156,-443.6667 156,-443.6667 156,-449.3333 150.3333,-455 144.6667,-455 144.6667,-455 113.3333,-455 113.3333,-455 107.6667,-455 102,-449.3333 102,-443.6667 102,-443.6667 102,-432.3333 102,-432.3333 102,-426.6667 107.6667,-421 113.3333,-421"/>
</g>
<!-- list.initial&#45;&gt;list.none -->
<g id="edge10" class="edge">
<title>list.initial&#45;&gt;list.none</title>
<path fill="none" stroke="#000000" d="M129,-617.9337C129,-609.7371 129,-593.9375 129,-580.5 129,-580.5 129,-580.5 129,-493.5 129,-484.7318 129,-475.1843 129,-466.5196"/>
<polygon fill="#000000" stroke="#000000" points="132.5001,-466.5 129,-456.5 125.5001,-466.5 132.5001,-466.5"/>
<text text-anchor="middle" x="130.3895" y="-534" font-family="Helvetica,sans-Serif" font-size="10.00" fill="#000000"> </text>
</g>
<!-- list.bullets -->
<g id="node17" class="node">
<title>list.bullets</title>
<polygon fill="#ffffff" stroke="transparent" stroke-width="2" points="190,-258 134,-258 134,-222 190,-222 190,-258"/>
<text text-anchor="start" x="144.6636" y="-236.2" font-family="Helvetica,sans-Serif" font-size="12.00" fill="#000000">bullets</text>
<path fill="none" stroke="#000000" stroke-width="2" d="M146.3333,-223C146.3333,-223 177.6667,-223 177.6667,-223 183.3333,-223 189,-228.6667 189,-234.3333 189,-234.3333 189,-245.6667 189,-245.6667 189,-251.3333 183.3333,-257 177.6667,-257 177.6667,-257 146.3333,-257 146.3333,-257 140.6667,-257 135,-251.3333 135,-245.6667 135,-245.6667 135,-234.3333 135,-234.3333 135,-228.6667 140.6667,-223 146.3333,-223"/>
</g>
<!-- list.none&#45;&gt;list.bullets -->
<g id="edge11" class="edge">
<title>list.none&#45;&gt;list.bullets</title>
<path fill="none" stroke="#000000" d="M106.5806,-419.8232C97.0088,-409.9687 88,-396.8754 88,-382.5 88,-382.5 88,-382.5 88,-295.5 88,-285.241 106.4323,-271.398 124.8984,-260.1038"/>
<polygon fill="#000000" stroke="#000000" points="126.7776,-263.0587 133.6013,-254.9539 123.2127,-257.0344 126.7776,-263.0587"/>
<text text-anchor="start" x="88" y="-336" font-family="Helvetica,sans-Serif" font-size="10.00" fill="#000000">BULLETS &#160;&#160;</text>
</g>
<!-- list.numbers -->
<g id="node18" class="node">
<title>list.numbers</title>
<polygon fill="#ffffff" stroke="transparent" stroke-width="2" points="168,-60 100,-60 100,-24 168,-24 168,-60"/>
<text text-anchor="start" x="110.6636" y="-38.2" font-family="Helvetica,sans-Serif" font-size="12.00" fill="#000000">numbers</text>
<path fill="none" stroke="#000000" stroke-width="2" d="M112.3333,-25C112.3333,-25 155.6667,-25 155.6667,-25 161.3333,-25 167,-30.6667 167,-36.3333 167,-36.3333 167,-47.6667 167,-47.6667 167,-53.3333 161.3333,-59 155.6667,-59 155.6667,-59 112.3333,-59 112.3333,-59 106.6667,-59 101,-53.3333 101,-47.6667 101,-47.6667 101,-36.3333 101,-36.3333 101,-30.6667 106.6667,-25 112.3333,-25"/>
</g>
<!-- list.none&#45;&gt;list.numbers -->
<g id="edge12" class="edge">
<title>list.none&#45;&gt;list.numbers</title>
<path fill="none" stroke="#000000" d="M105.9195,-419.938C99.9492,-414.5754 93.8452,-408.4095 89,-402 71.9796,-379.4845 67.7345,-372.4096 61,-345 38.7241,-254.3367 34.8704,-225.9373 56,-135 62.388,-107.5075 65.7806,-99.5568 84,-78 87.5386,-73.8132 91.6644,-69.8599 96.0003,-66.2144"/>
<polygon fill="#000000" stroke="#000000" points="98.2265,-68.9167 103.9505,-60.0011 93.916,-63.4012 98.2265,-68.9167"/>
<text text-anchor="start" x="44" y="-237" font-family="Helvetica,sans-Serif" font-size="10.00" fill="#000000">NUMBERS &#160;&#160;</text>
</g>
<!-- list.bullets&#45;&gt;list.none -->
<g id="edge13" class="edge">
<title>list.bullets&#45;&gt;list.none</title>
<path fill="none" stroke="#000000" d="M173.7695,-258.2335C179.4283,-268.708 185,-282.3581 185,-295.5 185,-382.5 185,-382.5 185,-382.5 185,-396.5987 175.9347,-408.3367 165.0988,-417.3314"/>
<polygon fill="#000000" stroke="#000000" points="162.9104,-414.5975 157,-423.3905 167.1038,-420.2024 162.9104,-414.5975"/>
<text text-anchor="start" x="185" y="-336" font-family="Helvetica,sans-Serif" font-size="10.00" fill="#000000">NONE &#160;&#160;</text>
</g>
<!-- list.bullets&#45;&gt;list.numbers -->
<g id="edge14" class="edge">
<title>list.bullets&#45;&gt;list.numbers</title>
<path fill="none" stroke="#000000" d="M133.9251,-223.3901C111.2182,-209.4833 83,-190.9113 83,-184.5 83,-184.5 83,-184.5 83,-97.5 83,-85.7596 89.2641,-75.4316 97.4016,-66.968"/>
<polygon fill="#000000" stroke="#000000" points="99.9519,-69.377 104.9246,-60.0216 95.2031,-64.2341 99.9519,-69.377"/>
<text text-anchor="start" x="83" y="-138" font-family="Helvetica,sans-Serif" font-size="10.00" fill="#000000">NUMBERS &#160;&#160;</text>
</g>
<!-- list.numbers&#45;&gt;list.none -->
<g id="edge16" class="edge">
<title>list.numbers&#45;&gt;list.none</title>
<path fill="none" stroke="#000000" d="M162.2062,-60.1638C170.1188,-65.6201 178.5816,-71.8088 186,-78 213.506,-100.9559 229.2897,-101.9004 243,-135 245.041,-139.9274 243.215,-141.671 243,-147 241.2208,-191.1076 242.2236,-303.5647 227,-345 216.238,-374.2918 208.7207,-380.6085 186,-402 180.0082,-407.6413 173.0079,-412.8995 166.005,-417.5594"/>
<polygon fill="#000000" stroke="#000000" points="163.7875,-414.8207 157.2091,-423.1259 167.5309,-420.7357 163.7875,-414.8207"/>
<text text-anchor="start" x="242" y="-237" font-family="Helvetica,sans-Serif" font-size="10.00" fill="#000000">NONE &#160;&#160;</text>
</g>
<!-- list.numbers&#45;&gt;list.bullets -->
<g id="edge15" class="edge">
<title>list.numbers&#45;&gt;list.bullets</title>
<path fill="none" stroke="#000000" d="M163.0754,-60.0216C174.5286,-69.502 185,-82.3205 185,-97.5 185,-184.5 185,-184.5 185,-184.5 185,-194.0484 182.0587,-203.8651 178.2798,-212.5371"/>
<polygon fill="#000000" stroke="#000000" points="175.0156,-211.2452 173.7695,-221.7665 181.3048,-214.3187 175.0156,-211.2452"/>
<text text-anchor="start" x="185" y="-138" font-family="Helvetica,sans-Serif" font-size="10.00" fill="#000000">BULLETS &#160;&#160;</text>
</g>
</g>
</svg>
