<?xml version="1.0" encoding="UTF-8" standalone="no"?>
<!DOCTYPE svg PUBLIC "-//W3C//DTD SVG 1.1//EN"
 "http://www.w3.org/Graphics/SVG/1.1/DTD/svg11.dtd">
<!-- Generated by graphviz version 2.40.1 (20161225.0304)
 -->
<!-- Title: state transitions Pages: 1 -->
<svg width="1047pt" height="548pt"
 viewBox="0.00 0.00 1047.22 548.00" xmlns="http://www.w3.org/2000/svg" xmlns:xlink="http://www.w3.org/1999/xlink">
<g id="graph0" class="graph" transform="scale(1 1) rotate(0) translate(4 544)">
<title>state transitions</title>
<polygon fill="#ffffff" stroke="transparent" points="-4,4 -4,-544 1043.223,-544 1043.223,4 -4,4"/>
<g id="clust1" class="cluster">
<title>cluster_parallel</title>
<path fill="none" stroke="#000000" stroke-width="2" d="M20,-8C20,-8 1019,-8 1019,-8 1025,-8 1031,-14 1031,-20 1031,-20 1031,-520 1031,-520 1031,-526 1025,-532 1019,-532 1019,-532 20,-532 20,-532 14,-532 8,-526 8,-520 8,-520 8,-20 8,-20 8,-14 14,-8 20,-8"/>
<text text-anchor="start" x="493.3348" y="-513.2" font-family="Helvetica,sans-Serif" font-size="12.00" fill="#000000">(machine)</text>
</g>
<g id="clust2" class="cluster">
<title>cluster_list</title>
<polygon fill="none" stroke="#000000" stroke-dasharray="5,2" points="800,-16 800,-494 1023,-494 1023,-16 800,-16"/>
<text text-anchor="start" x="904.1698" y="-475.2" font-family="Helvetica,sans-Serif" font-size="12.00" fill="#000000">list</text>
</g>
<g id="clust3" class="cluster">
<title>cluster_italics</title>
<polygon fill="none" stroke="#000000" stroke-dasharray="5,2" points="548,-214 548,-494 792,-494 792,-214 548,-214"/>
<text text-anchor="start" x="655.503" y="-475.2" font-family="Helvetica,sans-Serif" font-size="12.00" fill="#000000">italics</text>
</g>
<g id="clust4" class="cluster">
<title>cluster_underline</title>
<polygon fill="none" stroke="#000000" stroke-dasharray="5,2" points="256,-214 256,-494 540,-494 540,-214 256,-214"/>
<text text-anchor="start" x="373.8274" y="-475.2" font-family="Helvetica,sans-Serif" font-size="12.00" fill="#000000">underline</text>
</g>
<g id="clust5" class="cluster">
<title>cluster_bold</title>
<polygon fill="none" stroke="#000000" stroke-dasharray="5,2" points="24,-214 24,-494 248,-494 248,-214 24,-214"/>
<text text-anchor="start" x="124.6624" y="-475.2" font-family="Helvetica,sans-Serif" font-size="12.00" fill="#000000">bold</text>
</g>
<!-- parallel -->
<!-- list -->
<!-- list.numbers -->
<g id="node3" class="node">
<title>list.numbers</title>
<polygon fill="#ffffff" stroke="transparent" stroke-width="2" points="904,-456 836,-456 836,-420 904,-420 904,-456"/>
<text text-anchor="start" x="846.6636" y="-434.2" font-family="Helvetica,sans-Serif" font-size="12.00" fill="#000000">numbers</text>
<path fill="none" stroke="#000000" stroke-width="2" d="M848.3333,-421C848.3333,-421 891.6667,-421 891.6667,-421 897.3333,-421 903,-426.6667 903,-432.3333 903,-432.3333 903,-443.6667 903,-443.6667 903,-449.3333 897.3333,-455 891.6667,-455 891.6667,-455 848.3333,-455 848.3333,-455 842.6667,-455 837,-449.3333 837,-443.6667 837,-443.6667 837,-432.3333 837,-432.3333 837,-426.6667 842.6667,-421 848.3333,-421"/>
</g>
<!-- list.bullets -->
<g id="node4" class="node">
<title>list.bullets</title>
<polygon fill="#ffffff" stroke="transparent" stroke-width="2" points="950,-258 894,-258 894,-222 950,-222 950,-258"/>
<text text-anchor="start" x="904.6636" y="-236.2" font-family="Helvetica,sans-Serif" font-size="12.00" fill="#000000">bullets</text>
<path fill="none" stroke="#000000" stroke-width="2" d="M906.3333,-223C906.3333,-223 937.6667,-223 937.6667,-223 943.3333,-223 949,-228.6667 949,-234.3333 949,-234.3333 949,-245.6667 949,-245.6667 949,-251.3333 943.3333,-257 937.6667,-257 937.6667,-257 906.3333,-257 906.3333,-257 900.6667,-257 895,-251.3333 895,-245.6667 895,-245.6667 895,-234.3333 895,-234.3333 895,-228.6667 900.6667,-223 906.3333,-223"/>
</g>
<!-- list.numbers&#45;&gt;list.bullets -->
<g id="edge5" class="edge">
<title>list.numbers&#45;&gt;list.bullets</title>
<path fill="none" stroke="#000000" d="M902.8993,-419.8732C915.089,-410.5937 926,-397.9675 926,-382.5 926,-382.5 926,-382.5 926,-295.5 926,-286.709 925.4946,-277.155 924.843,-268.4912"/>
<polygon fill="#000000" stroke="#000000" points="928.3265,-268.1472 924,-258.476 921.3512,-268.7344 928.3265,-268.1472"/>
<text text-anchor="start" x="926" y="-336" font-family="Helvetica,sans-Serif" font-size="10.00" fill="#000000">BULLETS &#160;&#160;</text>
</g>
<!-- list.none -->
<g id="node5" class="node">
<title>list.none</title>
<polygon fill="#ffffff" stroke="transparent" stroke-width="2" points="918,-60 862,-60 862,-24 918,-24 918,-60"/>
<text text-anchor="start" x="876.6584" y="-38.2" font-family="Helvetica,sans-Serif" font-size="12.00" fill="#000000">none</text>
<path fill="none" stroke="#000000" stroke-width="2" d="M874.3333,-25C874.3333,-25 905.6667,-25 905.6667,-25 911.3333,-25 917,-30.6667 917,-36.3333 917,-36.3333 917,-47.6667 917,-47.6667 917,-53.3333 911.3333,-59 905.6667,-59 905.6667,-59 874.3333,-59 874.3333,-59 868.6667,-59 863,-53.3333 863,-47.6667 863,-47.6667 863,-36.3333 863,-36.3333 863,-30.6667 868.6667,-25 874.3333,-25"/>
</g>
<!-- list.numbers&#45;&gt;list.none -->
<g id="edge6" class="edge">
<title>list.numbers&#45;&gt;list.none</title>
<path fill="none" stroke="#000000" d="M904.1644,-421.3526C931.4075,-405.8817 967.34,-379.9618 982,-345 1018.1506,-258.7869 1001.3565,-223.07 970,-135 960.4366,-108.1395 938.9974,-83.9391 920.7188,-66.9623"/>
<polygon fill="#000000" stroke="#000000" points="922.9016,-64.2185 913.1224,-60.1421 918.2251,-69.4272 922.9016,-64.2185"/>
<text text-anchor="start" x="1002" y="-237" font-family="Helvetica,sans-Serif" font-size="10.00" fill="#000000">NONE &#160;&#160;</text>
</g>
<!-- list.bullets&#45;&gt;list.numbers -->
<g id="edge4" class="edge">
<title>list.bullets&#45;&gt;list.numbers</title>
<path fill="none" stroke="#000000" d="M893.7803,-252.8788C870.0606,-264.6418 840,-282.1775 840,-295.5 840,-382.5 840,-382.5 840,-382.5 840,-392.5802 843.8771,-402.5855 848.8438,-411.267"/>
<polygon fill="#000000" stroke="#000000" points="845.9567,-413.2488 854.2971,-419.7825 851.8516,-409.4738 845.9567,-413.2488"/>
<text text-anchor="start" x="840" y="-336" font-family="Helvetica,sans-Serif" font-size="10.00" fill="#000000">NUMBERS &#160;&#160;</text>
</g>
<!-- list.bullets&#45;&gt;list.none -->
<g id="edge3" class="edge">
<title>list.bullets&#45;&gt;list.none</title>
<path fill="none" stroke="#000000" d="M926,-221.5956C928,-210.8358 930,-196.9608 930,-184.5 930,-184.5 930,-184.5 930,-97.5 930,-86.6992 924.9526,-76.5686 918.4438,-67.9949"/>
<polygon fill="#000000" stroke="#000000" points="921.0216,-65.6237 911.8726,-60.2808 915.6928,-70.1629 921.0216,-65.6237"/>
<text text-anchor="start" x="930" y="-138" font-family="Helvetica,sans-Serif" font-size="10.00" fill="#000000">NONE &#160;&#160;</text>
</g>
<!-- list.none&#45;&gt;list.numbers -->
<g id="edge2" class="edge">
<title>list.none&#45;&gt;list.numbers</title>
<path fill="none" stroke="#000000" d="M866.5292,-60.111C860.8428,-65.3876 855.2,-71.4985 851,-78 836.5098,-100.4304 836.875,-108.7451 832,-135 814.9457,-226.8491 808.7682,-252.6714 823,-345 827.0472,-371.2564 828.4503,-378.5846 841,-402 842.7724,-405.307 844.8646,-408.6067 847.1006,-411.7915"/>
<polygon fill="#000000" stroke="#000000" points="844.4032,-414.0269 853.2348,-419.8796 849.9806,-409.7969 844.4032,-414.0269"/>
<text text-anchor="start" x="818" y="-237" font-family="Helvetica,sans-Serif" font-size="10.00" fill="#000000">NUMBERS &#160;&#160;</text>
</g>
<!-- list.none&#45;&gt;list.bullets -->
<g id="edge1" class="edge">
<title>list.none&#45;&gt;list.bullets</title>
<path fill="none" stroke="#000000" d="M867.5806,-60.1768C858.0088,-70.0313 849,-83.1246 849,-97.5 849,-184.5 849,-184.5 849,-184.5 849,-187.1523 868.7859,-202.0856 887.756,-215.7938"/>
<polygon fill="#000000" stroke="#000000" points="885.8932,-218.765 896.0574,-221.7552 889.9764,-213.0792 885.8932,-218.765"/>
<text text-anchor="start" x="849" y="-138" font-family="Helvetica,sans-Serif" font-size="10.00" fill="#000000">BULLETS &#160;&#160;</text>
</g>
<!-- italics -->
<!-- italics.off -->
<g id="node7" class="node">
<title>italics.off</title>
<polygon fill="#ffffff" stroke="transparent" stroke-width="2" points="666,-456 610,-456 610,-420 666,-420 666,-456"/>
<text text-anchor="start" x="631.3298" y="-434.2" font-family="Helvetica,sans-Serif" font-size="12.00" fill="#000000">off</text>
<path fill="none" stroke="#000000" stroke-width="2" d="M622.3333,-421C622.3333,-421 653.6667,-421 653.6667,-421 659.3333,-421 665,-426.6667 665,-432.3333 665,-432.3333 665,-443.6667 665,-443.6667 665,-449.3333 659.3333,-455 653.6667,-455 653.6667,-455 622.3333,-455 622.3333,-455 616.6667,-455 611,-449.3333 611,-443.6667 611,-443.6667 611,-432.3333 611,-432.3333 611,-426.6667 616.6667,-421 622.3333,-421"/>
</g>
<!-- italics.on -->
<g id="node8" class="node">
<title>italics.on</title>
<polygon fill="#ffffff" stroke="transparent" stroke-width="2" points="666,-258 610,-258 610,-222 666,-222 666,-258"/>
<text text-anchor="start" x="631.3292" y="-236.2" font-family="Helvetica,sans-Serif" font-size="12.00" fill="#000000">on</text>
<path fill="none" stroke="#000000" stroke-width="2" d="M622.3333,-223C622.3333,-223 653.6667,-223 653.6667,-223 659.3333,-223 665,-228.6667 665,-234.3333 665,-234.3333 665,-245.6667 665,-245.6667 665,-251.3333 659.3333,-257 653.6667,-257 653.6667,-257 622.3333,-257 622.3333,-257 616.6667,-257 611,-251.3333 611,-245.6667 611,-245.6667 611,-234.3333 611,-234.3333 611,-228.6667 616.6667,-223 622.3333,-223"/>
</g>
<!-- italics.off&#45;&gt;italics.on -->
<g id="edge8" class="edge">
<title>italics.off&#45;&gt;italics.on</title>
<path fill="none" stroke="#000000" d="M666.0519,-421.8944C678.7649,-412.3398 691,-398.8875 691,-382.5 691,-382.5 691,-382.5 691,-295.5 691,-282.5692 683.3822,-271.466 673.9227,-262.6631"/>
<polygon fill="#000000" stroke="#000000" points="675.9752,-259.8176 666.0519,-256.1056 671.4945,-265.1956 675.9752,-259.8176"/>
<text text-anchor="start" x="691" y="-336" font-family="Helvetica,sans-Serif" font-size="10.00" fill="#000000">TOGGLE_ITALICS &#160;&#160;</text>
</g>
<!-- italics.on&#45;&gt;italics.off -->
<g id="edge7" class="edge">
<title>italics.on&#45;&gt;italics.off</title>
<path fill="none" stroke="#000000" d="M609.9492,-250.1571C591.2178,-258.9451 570,-273.7089 570,-295.5 570,-382.5 570,-382.5 570,-382.5 570,-400.716 584.8268,-414.0214 600.6338,-423.0304"/>
<polygon fill="#000000" stroke="#000000" points="599.4583,-426.3625 609.9492,-427.8429 602.6712,-420.1434 599.4583,-426.3625"/>
<text text-anchor="start" x="570" y="-336" font-family="Helvetica,sans-Serif" font-size="10.00" fill="#000000">TOGGLE_ITALICS &#160;&#160;</text>
</g>
<!-- underline -->
<!-- underline.off -->
<g id="node10" class="node">
<title>underline.off</title>
<polygon fill="#ffffff" stroke="transparent" stroke-width="2" points="384,-456 328,-456 328,-420 384,-420 384,-456"/>
<text text-anchor="start" x="349.3298" y="-434.2" font-family="Helvetica,sans-Serif" font-size="12.00" fill="#000000">off</text>
<path fill="none" stroke="#000000" stroke-width="2" d="M340.3333,-421C340.3333,-421 371.6667,-421 371.6667,-421 377.3333,-421 383,-426.6667 383,-432.3333 383,-432.3333 383,-443.6667 383,-443.6667 383,-449.3333 377.3333,-455 371.6667,-455 371.6667,-455 340.3333,-455 340.3333,-455 334.6667,-455 329,-449.3333 329,-443.6667 329,-443.6667 329,-432.3333 329,-432.3333 329,-426.6667 334.6667,-421 340.3333,-421"/>
</g>
<!-- underline.on -->
<g id="node11" class="node">
<title>underline.on</title>
<polygon fill="#ffffff" stroke="transparent" stroke-width="2" points="384,-258 328,-258 328,-222 384,-222 384,-258"/>
<text text-anchor="start" x="349.3292" y="-236.2" font-family="Helvetica,sans-Serif" font-size="12.00" fill="#000000">on</text>
<path fill="none" stroke="#000000" stroke-width="2" d="M340.3333,-223C340.3333,-223 371.6667,-223 371.6667,-223 377.3333,-223 383,-228.6667 383,-234.3333 383,-234.3333 383,-245.6667 383,-245.6667 383,-251.3333 377.3333,-257 371.6667,-257 371.6667,-257 340.3333,-257 340.3333,-257 334.6667,-257 329,-251.3333 329,-245.6667 329,-245.6667 329,-234.3333 329,-234.3333 329,-228.6667 334.6667,-223 340.3333,-223"/>
</g>
<!-- underline.off&#45;&gt;underline.on -->
<g id="edge10" class="edge">
<title>underline.off&#45;&gt;underline.on</title>
<path fill="none" stroke="#000000" d="M384.1832,-426.117C400.9573,-416.9603 419,-402.4696 419,-382.5 419,-382.5 419,-382.5 419,-295.5 419,-278.9627 406.6265,-266.1828 392.8467,-257.0779"/>
<polygon fill="#000000" stroke="#000000" points="394.5595,-254.0239 384.1832,-251.883 390.9596,-260.0274 394.5595,-254.0239"/>
<text text-anchor="start" x="419" y="-336" font-family="Helvetica,sans-Serif" font-size="10.00" fill="#000000">TOGGLE_UNDERLINE &#160;&#160;</text>
</g>
<!-- underline.on&#45;&gt;underline.off -->
<g id="edge9" class="edge">
<title>underline.on&#45;&gt;underline.off</title>
<path fill="none" stroke="#000000" d="M327.8402,-247.5291C305.498,-255.4086 278,-270.2379 278,-295.5 278,-382.5 278,-382.5 278,-382.5 278,-404.3083 298.493,-418.3415 318.4708,-426.8405"/>
<polygon fill="#000000" stroke="#000000" points="317.2511,-430.1214 327.8402,-430.4709 319.7803,-423.5943 317.2511,-430.1214"/>
<text text-anchor="start" x="278" y="-336" font-family="Helvetica,sans-Serif" font-size="10.00" fill="#000000">TOGGLE_UNDERLINE &#160;&#160;</text>
</g>
<!-- bold -->
<!-- bold.off -->
<g id="node13" class="node">
<title>bold.off</title>
<polygon fill="#ffffff" stroke="transparent" stroke-width="2" points="137,-456 81,-456 81,-420 137,-420 137,-456"/>
<text text-anchor="start" x="102.3298" y="-434.2" font-family="Helvetica,sans-Serif" font-size="12.00" fill="#000000">off</text>
<path fill="none" stroke="#000000" stroke-width="2" d="M93.3333,-421C93.3333,-421 124.6667,-421 124.6667,-421 130.3333,-421 136,-426.6667 136,-432.3333 136,-432.3333 136,-443.6667 136,-443.6667 136,-449.3333 130.3333,-455 124.6667,-455 124.6667,-455 93.3333,-455 93.3333,-455 87.6667,-455 82,-449.3333 82,-443.6667 82,-443.6667 82,-432.3333 82,-432.3333 82,-426.6667 87.6667,-421 93.3333,-421"/>
</g>
<!-- bold.on -->
<g id="node14" class="node">
<title>bold.on</title>
<polygon fill="#ffffff" stroke="transparent" stroke-width="2" points="137,-258 81,-258 81,-222 137,-222 137,-258"/>
<text text-anchor="start" x="102.3292" y="-236.2" font-family="Helvetica,sans-Serif" font-size="12.00" fill="#000000">on</text>
<path fill="none" stroke="#000000" stroke-width="2" d="M93.3333,-223C93.3333,-223 124.6667,-223 124.6667,-223 130.3333,-223 136,-228.6667 136,-234.3333 136,-234.3333 136,-245.6667 136,-245.6667 136,-251.3333 130.3333,-257 124.6667,-257 124.6667,-257 93.3333,-257 93.3333,-257 87.6667,-257 82,-251.3333 82,-245.6667 82,-245.6667 82,-234.3333 82,-234.3333 82,-228.6667 87.6667,-223 93.3333,-223"/>
</g>
<!-- bold.off&#45;&gt;bold.on -->
<g id="edge12" class="edge">
<title>bold.off&#45;&gt;bold.on</title>
<path fill="none" stroke="#000000" d="M136.0861,-419.8641C146.9739,-410.2784 157,-397.4048 157,-382.5 157,-382.5 157,-382.5 157,-295.5 157,-283.9721 151.0023,-273.6592 143.2471,-265.1429"/>
<polygon fill="#000000" stroke="#000000" points="145.6815,-262.6281 136.0861,-258.1359 140.7858,-267.6313 145.6815,-262.6281"/>
<text text-anchor="start" x="157" y="-336" font-family="Helvetica,sans-Serif" font-size="10.00" fill="#000000">TOGGLE_BOLD &#160;&#160;</text>
</g>
<!-- bold.on&#45;&gt;bold.off -->
<g id="edge11" class="edge">
<title>bold.on&#45;&gt;bold.off</title>
<path fill="none" stroke="#000000" d="M80.8168,-251.883C64.0427,-261.0397 46,-275.5304 46,-295.5 46,-382.5 46,-382.5 46,-382.5 46,-390.9076 58.7928,-403.0078 72.849,-413.7653"/>
<polygon fill="#000000" stroke="#000000" points="71.0569,-416.7923 81.1839,-419.906 75.209,-411.1567 71.0569,-416.7923"/>
<text text-anchor="start" x="46" y="-336" font-family="Helvetica,sans-Serif" font-size="10.00" fill="#000000">TOGGLE_BOLD &#160;&#160;</text>
</g>
</g>
</svg>
