<?xml version="1.0" encoding="UTF-8" standalone="no"?>
<!DOCTYPE svg PUBLIC "-//W3C//DTD SVG 1.1//EN"
 "http://www.w3.org/Graphics/SVG/1.1/DTD/svg11.dtd">
<!-- Generated by graphviz version 2.40.1 (20161225.0304)
 -->
<!-- Title: state transitions Pages: 1 -->
<svg width="1065pt" height="548pt"
 viewBox="0.00 0.00 1065.00 548.00" xmlns="http://www.w3.org/2000/svg" xmlns:xlink="http://www.w3.org/1999/xlink">
<g id="graph0" class="graph" transform="scale(1 1) rotate(0) translate(4 544)">
<title>state transitions</title>
<polygon fill="#ffffff" stroke="transparent" points="-4,4 -4,-544 1061,-544 1061,4 -4,4"/>
<g id="clust1" class="cluster">
<title>cluster_parallel</title>
<path fill="none" stroke="#000000" stroke-width="2" d="M20,-8C20,-8 1037,-8 1037,-8 1043,-8 1049,-14 1049,-20 1049,-20 1049,-520 1049,-520 1049,-526 1043,-532 1037,-532 1037,-532 20,-532 20,-532 14,-532 8,-526 8,-520 8,-520 8,-20 8,-20 8,-14 14,-8 20,-8"/>
<text text-anchor="start" x="509.1668" y="-513.2" font-family="Helvetica,sans-Serif" font-size="12.00" fill="#000000">parallel</text>
</g>
<g id="clust2" class="cluster">
<title>cluster_list</title>
<polygon fill="none" stroke="#000000" stroke-dasharray="5,2" points="800,-16 800,-494 1041,-494 1041,-16 800,-16"/>
<text text-anchor="start" x="913.1698" y="-475.2" font-family="Helvetica,sans-Serif" font-size="12.00" fill="#000000">list</text>
</g>
<g id="clust3" class="cluster">
<title>cluster_italics</title>
<polygon fill="none" stroke="#000000" stroke-dasharray="5,2" points="548,-214 548,-494 792,-494 792,-214 548,-214"/>
<text text-anchor="start" x="655.503" y="-475.2" font-family="Helvetica,sans-Serif" font-size="12.00" fill="#000000">italics</text>
</g>
<g id="clust4" class="cluster">
<title>cluster_underline</title>
<polygon fill="none" stroke="#000000" stroke-dasharray="5,2" points="256,-214 256,-494 540,-494 540,-214 256,-214"/>
<text text-anchor="start" x="373.8274" y="-475.2" font-family="Helvetica,sans-Serif" font-size="12.00" fill="#000000">underline</text>
</g>
<g id="clust5" class="cluster">
<title>cluster_bold</title>
<polygon fill="none" stroke="#000000" stroke-dasharray="5,2" points="24,-214 24,-494 248,-494 248,-214 24,-214"/>
<text text-anchor="start" x="124.6624" y="-475.2" font-family="Helvetica,sans-Serif" font-size="12.00" fill="#000000">bold</text>
</g>
<!-- parallel -->
<!-- list -->
<!-- list.none -->
<g id="node3" class="node">
<title>list.none</title>
<polygon fill="#ffffff" stroke="transparent" stroke-width="2" points="931,-456 865,-456 865,-420 931,-420 931,-456"/>
<text text-anchor="start" x="875.6608" y="-434.2" font-family="Helvetica,sans-Serif" font-size="12.00" fill="#000000">list.none</text>
<path fill="none" stroke="#000000" stroke-width="2" d="M877.3333,-421C877.3333,-421 918.6667,-421 918.6667,-421 924.3333,-421 930,-426.6667 930,-432.3333 930,-432.3333 930,-443.6667 930,-443.6667 930,-449.3333 924.3333,-455 918.6667,-455 918.6667,-455 877.3333,-455 877.3333,-455 871.6667,-455 866,-449.3333 866,-443.6667 866,-443.6667 866,-432.3333 866,-432.3333 866,-426.6667 871.6667,-421 877.3333,-421"/>
</g>
<!-- list.bullets -->
<g id="node4" class="node">
<title>list.bullets</title>
<polygon fill="#ffffff" stroke="transparent" stroke-width="2" points="968,-258 894,-258 894,-222 968,-222 968,-258"/>
<text text-anchor="start" x="904.666" y="-236.2" font-family="Helvetica,sans-Serif" font-size="12.00" fill="#000000">list.bullets</text>
<path fill="none" stroke="#000000" stroke-width="2" d="M906.3333,-223C906.3333,-223 955.6667,-223 955.6667,-223 961.3333,-223 967,-228.6667 967,-234.3333 967,-234.3333 967,-245.6667 967,-245.6667 967,-251.3333 961.3333,-257 955.6667,-257 955.6667,-257 906.3333,-257 906.3333,-257 900.6667,-257 895,-251.3333 895,-245.6667 895,-245.6667 895,-234.3333 895,-234.3333 895,-228.6667 900.6667,-223 906.3333,-223"/>
</g>
<!-- list.none&#45;&gt;list.bullets -->
<g id="edge1" class="edge">
<title>list.none&#45;&gt;list.bullets</title>
<path fill="none" stroke="#000000" d="M875.5806,-419.8232C866.0088,-409.9687 857,-396.8754 857,-382.5 857,-382.5 857,-382.5 857,-295.5 857,-278.4511 869.7264,-265.9978 884.6239,-257.2606"/>
<polygon fill="#000000" stroke="#000000" points="886.3575,-260.3032 893.5664,-252.539 883.0891,-254.1131 886.3575,-260.3032"/>
<text text-anchor="start" x="857" y="-336" font-family="Helvetica,sans-Serif" font-size="10.00" fill="#000000">BULLETS &#160;&#160;</text>
</g>
<!-- list.numbers -->
<g id="node5" class="node">
<title>list.numbers</title>
<polygon fill="#ffffff" stroke="transparent" stroke-width="2" points="934,-60 848,-60 848,-24 934,-24 934,-60"/>
<text text-anchor="start" x="858.666" y="-38.2" font-family="Helvetica,sans-Serif" font-size="12.00" fill="#000000">list.numbers</text>
<path fill="none" stroke="#000000" stroke-width="2" d="M860.3333,-25C860.3333,-25 921.6667,-25 921.6667,-25 927.3333,-25 933,-30.6667 933,-36.3333 933,-36.3333 933,-47.6667 933,-47.6667 933,-53.3333 927.3333,-59 921.6667,-59 921.6667,-59 860.3333,-59 860.3333,-59 854.6667,-59 849,-53.3333 849,-47.6667 849,-47.6667 849,-36.3333 849,-36.3333 849,-30.6667 854.6667,-25 860.3333,-25"/>
</g>
<!-- list.none&#45;&gt;list.numbers -->
<g id="edge2" class="edge">
<title>list.none&#45;&gt;list.numbers</title>
<path fill="none" stroke="#000000" d="M864.8864,-428.0492C844.4059,-419.6206 822,-405.21 822,-382.5 822,-382.5 822,-382.5 822,-203.5 822,-146.3509 818.3948,-125.6145 850,-78 852.4834,-74.2586 855.4531,-70.6684 858.6437,-67.3016"/>
<polygon fill="#000000" stroke="#000000" points="861.1155,-69.7802 865.8784,-60.3163 856.2533,-64.7444 861.1155,-69.7802"/>
<text text-anchor="start" x="822" y="-237" font-family="Helvetica,sans-Serif" font-size="10.00" fill="#000000">NUMBERS &#160;&#160;</text>
</g>
<!-- list.bullets&#45;&gt;list.none -->
<g id="edge3" class="edge">
<title>list.bullets&#45;&gt;list.none</title>
<path fill="none" stroke="#000000" d="M934.5,-258.4267C936.25,-269.194 938,-283.069 938,-295.5 938,-382.5 938,-382.5 938,-382.5 938,-393.3008 932.9526,-403.4314 926.4438,-412.0051"/>
<polygon fill="#000000" stroke="#000000" points="923.6928,-409.8371 919.8726,-419.7192 929.0216,-414.3763 923.6928,-409.8371"/>
<text text-anchor="start" x="938" y="-336" font-family="Helvetica,sans-Serif" font-size="10.00" fill="#000000">NONE &#160;&#160;</text>
</g>
<!-- list.bullets&#45;&gt;list.numbers -->
<g id="edge4" class="edge">
<title>list.bullets&#45;&gt;list.numbers</title>
<path fill="none" stroke="#000000" d="M898.6724,-221.848C875.3674,-208.2246 848,-190.8704 848,-184.5 848,-184.5 848,-184.5 848,-97.5 848,-86.3947 853.4465,-76.1643 860.4626,-67.5927"/>
<polygon fill="#000000" stroke="#000000" points="863.0548,-69.9445 867.2362,-60.2097 857.8967,-65.2122 863.0548,-69.9445"/>
<text text-anchor="start" x="848" y="-138" font-family="Helvetica,sans-Serif" font-size="10.00" fill="#000000">NUMBERS &#160;&#160;</text>
</g>
<!-- list.numbers&#45;&gt;list.none -->
<g id="edge6" class="edge">
<title>list.numbers&#45;&gt;list.none</title>
<path fill="none" stroke="#000000" d="M920.3526,-60.059C943.9173,-76.3911 975.3962,-102.7828 990,-135 1009.298,-177.5732 996,-193.2572 996,-240 996,-382.5 996,-382.5 996,-382.5 996,-396.0831 967.1341,-411.27 940.7348,-422.3189"/>
<polygon fill="#000000" stroke="#000000" points="939.1316,-419.192 931.1783,-426.1917 941.7608,-425.6795 939.1316,-419.192"/>
<text text-anchor="start" x="996" y="-237" font-family="Helvetica,sans-Serif" font-size="10.00" fill="#000000">NONE &#160;&#160;</text>
</g>
<!-- list.numbers&#45;&gt;list.bullets -->
<g id="edge5" class="edge">
<title>list.numbers&#45;&gt;list.bullets</title>
<path fill="none" stroke="#000000" d="M914.7638,-60.2097C924.7086,-69.9828 934,-82.9951 934,-97.5 934,-184.5 934,-184.5 934,-184.5 934,-193.281 933.6209,-202.8322 933.1323,-211.4964"/>
<polygon fill="#000000" stroke="#000000" points="929.637,-211.3129 932.5,-221.5135 936.6231,-211.7539 929.637,-211.3129"/>
<text text-anchor="start" x="934" y="-138" font-family="Helvetica,sans-Serif" font-size="10.00" fill="#000000">BULLETS &#160;&#160;</text>
</g>
<!-- italics -->
<!-- italics.on -->
<g id="node7" class="node">
<title>italics.on</title>
<polygon fill="#ffffff" stroke="transparent" stroke-width="2" points="674,-456 606,-456 606,-420 674,-420 674,-456"/>
<text text-anchor="start" x="616.6648" y="-434.2" font-family="Helvetica,sans-Serif" font-size="12.00" fill="#000000">italics.on</text>
<path fill="none" stroke="#000000" stroke-width="2" d="M618.3333,-421C618.3333,-421 661.6667,-421 661.6667,-421 667.3333,-421 673,-426.6667 673,-432.3333 673,-432.3333 673,-443.6667 673,-443.6667 673,-449.3333 667.3333,-455 661.6667,-455 661.6667,-455 618.3333,-455 618.3333,-455 612.6667,-455 607,-449.3333 607,-443.6667 607,-443.6667 607,-432.3333 607,-432.3333 607,-426.6667 612.6667,-421 618.3333,-421"/>
</g>
<!-- italics.off -->
<g id="node8" class="node">
<title>italics.off</title>
<polygon fill="#ffffff" stroke="transparent" stroke-width="2" points="675,-258 607,-258 607,-222 675,-222 675,-258"/>
<text text-anchor="start" x="617.6654" y="-236.2" font-family="Helvetica,sans-Serif" font-size="12.00" fill="#000000">italics.off</text>
<path fill="none" stroke="#000000" stroke-width="2" d="M619.3333,-223C619.3333,-223 662.6667,-223 662.6667,-223 668.3333,-223 674,-228.6667 674,-234.3333 674,-234.3333 674,-245.6667 674,-245.6667 674,-251.3333 668.3333,-257 662.6667,-257 662.6667,-257 619.3333,-257 619.3333,-257 613.6667,-257 608,-251.3333 608,-245.6667 608,-245.6667 608,-234.3333 608,-234.3333 608,-228.6667 613.6667,-223 619.3333,-223"/>
</g>
<!-- italics.on&#45;&gt;italics.off -->
<g id="edge7" class="edge">
<title>italics.on&#45;&gt;italics.off</title>
<path fill="none" stroke="#000000" d="M605.8202,-425.5528C588.0511,-416.6587 570,-402.6618 570,-382.5 570,-382.5 570,-382.5 570,-295.5 570,-278.367 582.9918,-265.7362 597.8605,-256.891"/>
<polygon fill="#000000" stroke="#000000" points="599.5959,-259.9318 606.7478,-252.115 596.2823,-253.7657 599.5959,-259.9318"/>
<text text-anchor="start" x="570" y="-336" font-family="Helvetica,sans-Serif" font-size="10.00" fill="#000000">TOGGLE_ITALICS &#160;&#160;</text>
</g>
<!-- italics.off&#45;&gt;italics.on -->
<g id="edge8" class="edge">
<title>italics.off&#45;&gt;italics.on</title>
<path fill="none" stroke="#000000" d="M669.5053,-258.1432C680.7339,-267.6503 691,-280.456 691,-295.5 691,-382.5 691,-382.5 691,-382.5 691,-394.2404 684.7359,-404.5684 676.5984,-413.032"/>
<polygon fill="#000000" stroke="#000000" points="674.0481,-410.623 669.0754,-419.9784 678.7969,-415.7659 674.0481,-410.623"/>
<text text-anchor="start" x="691" y="-336" font-family="Helvetica,sans-Serif" font-size="10.00" fill="#000000">TOGGLE_ITALICS &#160;&#160;</text>
</g>
<!-- underline -->
<!-- underline.on -->
<g id="node10" class="node">
<title>underline.on</title>
<polygon fill="#ffffff" stroke="transparent" stroke-width="2" points="408,-456 320,-456 320,-420 408,-420 408,-456"/>
<text text-anchor="start" x="330.9892" y="-434.2" font-family="Helvetica,sans-Serif" font-size="12.00" fill="#000000">underline.on</text>
<path fill="none" stroke="#000000" stroke-width="2" d="M332.3333,-421C332.3333,-421 395.6667,-421 395.6667,-421 401.3333,-421 407,-426.6667 407,-432.3333 407,-432.3333 407,-443.6667 407,-443.6667 407,-449.3333 401.3333,-455 395.6667,-455 395.6667,-455 332.3333,-455 332.3333,-455 326.6667,-455 321,-449.3333 321,-443.6667 321,-443.6667 321,-432.3333 321,-432.3333 321,-426.6667 326.6667,-421 332.3333,-421"/>
</g>
<!-- underline.off -->
<g id="node11" class="node">
<title>underline.off</title>
<polygon fill="#ffffff" stroke="transparent" stroke-width="2" points="408,-258 320,-258 320,-222 408,-222 408,-258"/>
<text text-anchor="start" x="330.9898" y="-236.2" font-family="Helvetica,sans-Serif" font-size="12.00" fill="#000000">underline.off</text>
<path fill="none" stroke="#000000" stroke-width="2" d="M332.3333,-223C332.3333,-223 395.6667,-223 395.6667,-223 401.3333,-223 407,-228.6667 407,-234.3333 407,-234.3333 407,-245.6667 407,-245.6667 407,-251.3333 401.3333,-257 395.6667,-257 395.6667,-257 332.3333,-257 332.3333,-257 326.6667,-257 321,-251.3333 321,-245.6667 321,-245.6667 321,-234.3333 321,-234.3333 321,-228.6667 326.6667,-223 332.3333,-223"/>
</g>
<!-- underline.on&#45;&gt;underline.off -->
<g id="edge9" class="edge">
<title>underline.on&#45;&gt;underline.off</title>
<path fill="none" stroke="#000000" d="M319.9923,-426.9209C298.8334,-418.6845 278,-404.8898 278,-382.5 278,-382.5 278,-382.5 278,-295.5 278,-276.4337 293.1075,-263.6002 310.6585,-255.1242"/>
<polygon fill="#000000" stroke="#000000" points="312.2087,-258.267 319.9923,-251.0791 309.4251,-251.8443 312.2087,-258.267"/>
<text text-anchor="start" x="278" y="-336" font-family="Helvetica,sans-Serif" font-size="10.00" fill="#000000">TOGGLE_UNDERLINE &#160;&#160;</text>
</g>
<!-- underline.off&#45;&gt;underline.on -->
<g id="edge10" class="edge">
<title>underline.off&#45;&gt;underline.on</title>
<path fill="none" stroke="#000000" d="M395.9937,-258.0104C408.0933,-267.3383 419,-280.0356 419,-295.5 419,-382.5 419,-382.5 419,-382.5 419,-394.5816 412.3431,-404.9742 403.6612,-413.3908"/>
<polygon fill="#000000" stroke="#000000" points="401.2901,-410.8136 395.9937,-419.9896 405.8563,-416.1193 401.2901,-410.8136"/>
<text text-anchor="start" x="419" y="-336" font-family="Helvetica,sans-Serif" font-size="10.00" fill="#000000">TOGGLE_UNDERLINE &#160;&#160;</text>
</g>
<!-- bold -->
<!-- bold.on -->
<g id="node13" class="node">
<title>bold.on</title>
<polygon fill="#ffffff" stroke="transparent" stroke-width="2" points="140.5,-456 79.5,-456 79.5,-420 140.5,-420 140.5,-456"/>
<text text-anchor="start" x="90.8242" y="-434.2" font-family="Helvetica,sans-Serif" font-size="12.00" fill="#000000">bold.on</text>
<path fill="none" stroke="#000000" stroke-width="2" d="M91.8333,-421C91.8333,-421 128.1667,-421 128.1667,-421 133.8333,-421 139.5,-426.6667 139.5,-432.3333 139.5,-432.3333 139.5,-443.6667 139.5,-443.6667 139.5,-449.3333 133.8333,-455 128.1667,-455 128.1667,-455 91.8333,-455 91.8333,-455 86.1667,-455 80.5,-449.3333 80.5,-443.6667 80.5,-443.6667 80.5,-432.3333 80.5,-432.3333 80.5,-426.6667 86.1667,-421 91.8333,-421"/>
</g>
<!-- bold.off -->
<g id="node14" class="node">
<title>bold.off</title>
<polygon fill="#ffffff" stroke="transparent" stroke-width="2" points="140.5,-258 79.5,-258 79.5,-222 140.5,-222 140.5,-258"/>
<text text-anchor="start" x="90.8248" y="-236.2" font-family="Helvetica,sans-Serif" font-size="12.00" fill="#000000">bold.off</text>
<path fill="none" stroke="#000000" stroke-width="2" d="M91.8333,-223C91.8333,-223 128.1667,-223 128.1667,-223 133.8333,-223 139.5,-228.6667 139.5,-234.3333 139.5,-234.3333 139.5,-245.6667 139.5,-245.6667 139.5,-251.3333 133.8333,-257 128.1667,-257 128.1667,-257 91.8333,-257 91.8333,-257 86.1667,-257 80.5,-251.3333 80.5,-245.6667 80.5,-245.6667 80.5,-234.3333 80.5,-234.3333 80.5,-228.6667 86.1667,-223 91.8333,-223"/>
</g>
<!-- bold.on&#45;&gt;bold.off -->
<g id="edge11" class="edge">
<title>bold.on&#45;&gt;bold.off</title>
<path fill="none" stroke="#000000" d="M81.7424,-419.9635C64.5977,-407.9827 46,-392.6479 46,-382.5 46,-382.5 46,-382.5 46,-295.5 46,-279.575 57.45,-267.1924 70.664,-258.2046"/>
<polygon fill="#000000" stroke="#000000" points="72.805,-260.9973 79.4995,-252.7854 69.1452,-255.0302 72.805,-260.9973"/>
<text text-anchor="start" x="46" y="-336" font-family="Helvetica,sans-Serif" font-size="10.00" fill="#000000">TOGGLE_BOLD &#160;&#160;</text>
</g>
<!-- bold.off&#45;&gt;bold.on -->
<g id="edge12" class="edge">
<title>bold.off&#45;&gt;bold.on</title>
<path fill="none" stroke="#000000" d="M136.2483,-258.0069C147.0142,-267.6453 157,-280.601 157,-295.5 157,-382.5 157,-382.5 157,-382.5 157,-393.907 151.1465,-404.1749 143.571,-412.6871"/>
<polygon fill="#000000" stroke="#000000" points="140.8554,-410.4524 136.2483,-419.9931 145.7995,-415.4078 140.8554,-410.4524"/>
<text text-anchor="start" x="157" y="-336" font-family="Helvetica,sans-Serif" font-size="10.00" fill="#000000">TOGGLE_BOLD &#160;&#160;</text>
</g>
</g>
</svg>
