<?xml version="1.0" encoding="UTF-8" standalone="no"?>
<!DOCTYPE svg PUBLIC "-//W3C//DTD SVG 1.1//EN"
 "http://www.w3.org/Graphics/SVG/1.1/DTD/svg11.dtd">
<!-- Generated by graphviz version 2.40.1 (20161225.0304)
 -->
<!-- Title: state transitions Pages: 1 -->
<svg width="336pt" height="271pt"
 viewBox="0.00 0.00 335.51 271.00" xmlns="http://www.w3.org/2000/svg" xmlns:xlink="http://www.w3.org/1999/xlink">
<g id="graph0" class="graph" transform="scale(1 1) rotate(0) translate(4 267)">
<title>state transitions</title>
<polygon fill="#ffffff" stroke="transparent" points="-4,4 -4,-267 331.5124,-267 331.5124,4 -4,4"/>
<!-- initial -->
<g id="node1" class="node">
<title>initial</title>
<ellipse fill="#000000" stroke="#000000" stroke-width="2" cx="181.0704" cy="-257.5" rx="5.5" ry="5.5"/>
</g>
<!-- green -->
<g id="node2" class="node">
<title>green</title>
<polygon fill="#ffffff" stroke="transparent" stroke-width="2" points="209.0704,-204 153.0704,-204 153.0704,-168 209.0704,-168 209.0704,-204"/>
<text text-anchor="start" x="165.7314" y="-182.2" font-family="Helvetica,sans-Serif" font-size="12.00" fill="#000000">green</text>
<path fill="none" stroke="#000000" stroke-width="2" d="M165.4037,-169C165.4037,-169 196.7371,-169 196.7371,-169 202.4037,-169 208.0704,-174.6667 208.0704,-180.3333 208.0704,-180.3333 208.0704,-191.6667 208.0704,-191.6667 208.0704,-197.3333 202.4037,-203 196.7371,-203 196.7371,-203 165.4037,-203 165.4037,-203 159.7371,-203 154.0704,-197.3333 154.0704,-191.6667 154.0704,-191.6667 154.0704,-180.3333 154.0704,-180.3333 154.0704,-174.6667 159.7371,-169 165.4037,-169"/>
</g>
<!-- initial&#45;&gt;green -->
<g id="edge1" class="edge">
<title>initial&#45;&gt;green</title>
<path fill="none" stroke="#000000" d="M181.0704,-251.8895C181.0704,-243.8095 181.0704,-228.335 181.0704,-214.4122"/>
<polygon fill="#000000" stroke="#000000" points="184.5705,-214.2159 181.0704,-204.2159 177.5705,-214.2159 184.5705,-214.2159"/>
<text text-anchor="middle" x="182.4599" y="-225" font-family="Helvetica,sans-Serif" font-size="10.00" fill="#000000"> </text>
</g>
<!-- yellow -->
<g id="node3" class="node">
<title>yellow</title>
<polygon fill="#ffffff" stroke="transparent" stroke-width="2" points="98.0704,-120 42.0704,-120 42.0704,-84 98.0704,-84 98.0704,-120"/>
<text text-anchor="start" x="53.4054" y="-98.2" font-family="Helvetica,sans-Serif" font-size="12.00" fill="#000000">yellow</text>
<path fill="none" stroke="#000000" stroke-width="2" d="M54.4037,-85C54.4037,-85 85.7371,-85 85.7371,-85 91.4037,-85 97.0704,-90.6667 97.0704,-96.3333 97.0704,-96.3333 97.0704,-107.6667 97.0704,-107.6667 97.0704,-113.3333 91.4037,-119 85.7371,-119 85.7371,-119 54.4037,-119 54.4037,-119 48.7371,-119 43.0704,-113.3333 43.0704,-107.6667 43.0704,-107.6667 43.0704,-96.3333 43.0704,-96.3333 43.0704,-90.6667 48.7371,-85 54.4037,-85"/>
</g>
<!-- green&#45;&gt;yellow -->
<g id="edge2" class="edge">
<title>green&#45;&gt;yellow</title>
<path fill="none" stroke="#000000" d="M152.9382,-169.2479C143.7135,-163.4435 133.5467,-156.7048 124.6284,-150 115.2093,-142.9187 105.4005,-134.6147 96.7402,-126.923"/>
<polygon fill="#000000" stroke="#000000" points="98.9249,-124.1802 89.1539,-120.0839 94.2378,-129.3794 98.9249,-124.1802"/>
<text text-anchor="start" x="125.0704" y="-141" font-family="Helvetica,sans-Serif" font-size="10.00" fill="#000000">TIMER &#160;&#160;</text>
</g>
<!-- red -->
<g id="node4" class="node">
<title>red</title>
<polygon fill="#ffffff" stroke="transparent" stroke-width="2" points="153.0704,-36 97.0704,-36 97.0704,0 153.0704,0 153.0704,-36"/>
<text text-anchor="start" x="116.4022" y="-14.2" font-family="Helvetica,sans-Serif" font-size="12.00" fill="#000000">red</text>
<path fill="none" stroke="#000000" stroke-width="2" d="M109.4037,-1C109.4037,-1 140.7371,-1 140.7371,-1 146.4037,-1 152.0704,-6.6667 152.0704,-12.3333 152.0704,-12.3333 152.0704,-23.6667 152.0704,-23.6667 152.0704,-29.3333 146.4037,-35 140.7371,-35 140.7371,-35 109.4037,-35 109.4037,-35 103.7371,-35 98.0704,-29.3333 98.0704,-23.6667 98.0704,-23.6667 98.0704,-12.3333 98.0704,-12.3333 98.0704,-6.6667 103.7371,-1 109.4037,-1"/>
</g>
<!-- green&#45;&gt;red -->
<g id="edge3" class="edge">
<title>green&#45;&gt;red</title>
<path fill="none" stroke="#000000" d="M182.7437,-167.7547C184.358,-141.1502 184.2325,-90.8697 165.0704,-54 163.1316,-50.2695 160.6384,-46.7381 157.8457,-43.4512"/>
<polygon fill="#000000" stroke="#000000" points="160.3639,-41.0204 150.9056,-36.2464 155.3224,-45.8767 160.3639,-41.0204"/>
<text text-anchor="start" x="183.0704" y="-99" font-family="Helvetica,sans-Serif" font-size="10.00" fill="#000000">POWER_OUTAGE &#160;&#160;</text>
</g>
<!-- yellow&#45;&gt;red -->
<g id="edge4" class="edge">
<title>yellow&#45;&gt;red</title>
<path fill="none" stroke="#000000" d="M41.9496,-94.0488C18.2806,-85.9001 -9.7373,-71.9027 3.6284,-54 13.7187,-40.4846 55.321,-30.2403 87.0475,-24.1998"/>
<polygon fill="#000000" stroke="#000000" points="87.7425,-27.6309 96.9488,-22.3875 86.4821,-20.7453 87.7425,-27.6309"/>
<text text-anchor="start" x="4.0704" y="-57" font-family="Helvetica,sans-Serif" font-size="10.00" fill="#000000">TIMER &#160;&#160;</text>
</g>
<!-- yellow&#45;&gt;red -->
<g id="edge5" class="edge">
<title>yellow&#45;&gt;red</title>
<path fill="none" stroke="#000000" d="M66.1476,-83.6622C65.0838,-74.2607 65.3345,-62.9402 70.1754,-54 74.3488,-46.2924 80.969,-39.9668 88.1891,-34.8884"/>
<polygon fill="#000000" stroke="#000000" points="90.2023,-37.7577 96.8299,-29.4917 86.4942,-31.8205 90.2023,-37.7577"/>
<text text-anchor="start" x="71.0704" y="-57" font-family="Helvetica,sans-Serif" font-size="10.00" fill="#000000">POWER_OUTAGE &#160;&#160;</text>
</g>
<!-- red&#45;&gt;green -->
<g id="edge6" class="edge">
<title>red&#45;&gt;green</title>
<path fill="none" stroke="#000000" d="M153.3617,-20.6528C190.225,-25.7996 253.3548,-40.7787 282.0704,-84 304.891,-118.3484 256.0093,-150.9097 218.5859,-169.6427"/>
<polygon fill="#000000" stroke="#000000" points="216.8478,-166.5954 209.369,-174.1 219.8954,-172.8972 216.8478,-166.5954"/>
<text text-anchor="start" x="288.0704" y="-99" font-family="Helvetica,sans-Serif" font-size="10.00" fill="#000000">TIMER &#160;&#160;</text>
</g>
<!-- red&#45;&gt;red -->
<g id="edge7" class="edge">
<title>red&#45;&gt;red</title>
<path fill="none" stroke="#000000" d="M153.0886,-25.7938C164.9584,-26.3811 175.0704,-23.7832 175.0704,-18 175.0704,-14.024 170.2909,-11.5536 163.4466,-10.5888"/>
<polygon fill="#000000" stroke="#000000" points="163.211,-7.0778 153.0886,-10.2062 162.9526,-14.073 163.211,-7.0778"/>
<text text-anchor="start" x="175.0704" y="-15" font-family="Helvetica,sans-Serif" font-size="10.00" fill="#000000">POWER_OUTAGE &#160;&#160;</text>
</g>
</g>
</svg>
